<?xml version="1.0" encoding="utf-8"?>
<!-- Generator: Adobe Illustrator 18.1.1, SVG Export Plug-In . SVG Version: 6.00 Build 0)  -->
<svg version="1.1" id="Layer_1" xmlns="http://www.w3.org/2000/svg" xmlns:xlink="http://www.w3.org/1999/xlink" x="0px" y="0px"
	 viewBox="0 0 52.1 47.7" enable-background="new 0 0 52.1 47.7" xml:space="preserve">
<path fill="#58595B" d="M31.3,34c-0.3,0.1-0.4-0.2-0.4-0.2l-4.2-7.6l14-3.6l4.3,5.2L31.3,34z M30.6,17c0,0,0.1,0,0.2,0l14,1.8
	c0,0,0.1,0,0.1,0.1l-4.2,3l-14.3-2.9L30.6,17z M11.4,21.9l-3.6-2.6c0,0-0.4-0.4,0.2-0.6l13.3-1.7c0,0,0.1,0,0.3,0l4.2,2L11.4,21.9z
	 M21.2,33.8c-0.2,0.3-0.5,0.1-0.5,0.1l-13.5-6l4.3-5.2l13.9,3.6L21.2,33.8z M26,0C11.7,0,0,11.7,0,26C0,35,4.6,43,11.5,47.7V31
	l9.5,4.1c0,0,0.4,0.3,0.6-0.2l4.1-8.7h0.6l4.1,8.7c0,0,0.2,0.3,0.6,0.2l9.6-4v16.6C47.5,43,52.1,35,52.1,26C52.1,11.7,40.4,0,26,0"
	/>
</svg>
