<?xml version="1.0" encoding="UTF-8" standalone="no"?>
<!-- Created with Inkscape (http://www.inkscape.org/) -->

<svg
   xmlns:dc="http://purl.org/dc/elements/1.1/"
   xmlns:cc="http://creativecommons.org/ns#"
   xmlns:rdf="http://www.w3.org/1999/02/22-rdf-syntax-ns#"
   xmlns:svg="http://www.w3.org/2000/svg"
   xmlns="http://www.w3.org/2000/svg"
   xmlns:sodipodi="http://sodipodi.sourceforge.net/DTD/sodipodi-0.dtd"
   xmlns:inkscape="http://www.inkscape.org/namespaces/inkscape"
   version="1.1"
   x="0px"
   y="0px"
   width="100px"
   height="100px"
   viewBox="0 0 100 100"
   enable-background="new 0 0 100 100"
   xml:space="preserve"
   id="svg2985"
   inkscape:version="0.48.4 r9939"
   sodipodi:docname="cash.svg"><sodipodi:namedview
     pagecolor="#ffffff"
     bordercolor="#666666"
     borderopacity="1"
     objecttolerance="10"
     gridtolerance="10"
     guidetolerance="10"
     inkscape:pageopacity="0"
     inkscape:pageshadow="2"
     inkscape:window-width="1301"
     inkscape:window-height="680"
     id="namedview9"
     showgrid="false"
     inkscape:zoom="2.36"
     inkscape:cx="50"
     inkscape:cy="-0.5837663"
     inkscape:window-x="303"
     inkscape:window-y="282"
     inkscape:window-maximized="0"
     inkscape:current-layer="svg2985" /><defs
     id="defs2987" /><metadata
     id="metadata2990"><rdf:RDF><cc:Work
         rdf:about=""><dc:format>image/svg+xml</dc:format><dc:type
           rdf:resource="http://purl.org/dc/dcmitype/StillImage" /><dc:title /></cc:Work></rdf:RDF></metadata><circle
     cx="50"
     cy="50"
     r="50"
     fill="#b2b2b2"
     id="circle6" /><path
     d="m 19.912982,74.207733 z m 42.17073,-42.59611 q -3.92683,-3.01926 -7.93902,-3.01926 -1.45122,0 -3.7561,1.38723 -2.39025,1.38723 -3.5,1.38723 -1.02439,0.1632 -3.67073,-0.97922 -2.73171,-1.22403 -3.84147,-1.30563 -3.67073,0 -8.96341,4.16169 l 6.23171,6.03853 20.40243,0.2448 z m 8.36585,28.39741 q -2.39024,-12.97468 -13.40244,-17.13637 h -20.40243 q -8.10976,5.54892 -9.04878,17.13637 -0.0854,0.48962 -0.21342,1.34643 -0.12805,0.85682 -0.29878,2.16244 -0.17073,1.06083 -0.29878,1.95844 -0.12805,0.89763 -0.12805,1.63204 0,5.79373 7.76829,7.83377 4.0122,1.06082 12.71952,1.06082 10.67073,0 14.85365,-0.89762 9.30488,-2.04004 9.30488,-8.56818 0,-0.97922 -0.2561,-2.61126 -0.25609,-1.63203 -0.59756,-3.91688 z m -15.70731,1.87685 q 0,2.04003 -1.36586,3.30486 -1.36585,1.26483 -3.5,1.50963 l 0.17073,2.44806 h -3.5 l 0.17074,-2.44806 q -2.47561,-0.1632 -5.03659,-1.55043 l 1.62195,-3.91688 q 2.39025,1.95844 4.52439,1.87683 1.87805,0 1.96342,-0.89761 0,-0.73441 -1.53659,-0.97922 l -0.93902,-0.1632 q -4.95122,-0.73442 -4.95122,-4.4065 0,-3.26407 4.26829,-4.4881 l -0.0854,-2.44805 h 3.67074 l -0.2561,2.28485 q 1.02439,0.1632 2.0061,0.40801 0.9817,0.24481 2.00609,0.65281 l -1.70731,3.75368 q -1.62195,-1.22402 -3.67073,-1.22402 -1.45122,0 -1.45122,0.89762 0,0.65281 1.87804,0.97922 5.71952,0.57121 5.71952,4.4065 z m 27.2317,-31.25348 q 0,-2.44805 -0.93902,-4.56969 -0.93902,-2.12165 -2.47561,-3.71288 -1.53659,-1.59123 -3.62805,-2.52966 -2.09146,-0.93842 -4.48171,-0.93842 h -39.78048 q -2.39025,0 -4.48171,0.93842 -2.09146,0.93843 -3.62805,2.52966 -1.53659,1.59123 -2.47561,3.71288 -0.93902,2.12164 -0.93902,4.56969 v 40.71928 q 0,2.44805 0.93902,4.56969 0.93902,2.12165 2.47561,3.67208 1.53659,1.55044 3.62805,2.48886 2.09146,0.93841 4.48171,0.93841 h 39.78048 q 2.39025,0 4.48171,-0.93841 2.09146,-0.93842 3.62805,-2.48886 1.53659,-1.55043 2.47561,-3.75368 0.93902,-2.20325 0.93902,-4.48809 v -40.71928 z m -11.52439,-15.25952 q 3.15854,0 5.89025,1.18322 2.73171,1.18323 4.78049,3.26407 2.04878,2.08085 3.2439,4.85531 1.19512,2.77446 1.19512,5.95692 v 40.71928 q 0,3.18246 -1.19512,5.91612 -1.19512,2.73366 -3.2439,4.81451 -2.04878,2.08083 -4.78049,3.30486 -2.73171,1.22403 -5.89025,1.22403 h -39.78048 q -3.15854,0 -5.89025,-1.22403 -2.73171,-1.22403 -4.78049,-3.30486 -2.04878,-2.08085 -3.2439,-4.81451 -1.19512,-2.73366 -1.19512,-5.91612 v -40.71928 q 0,-3.18246 1.19512,-5.95692 1.19512,-2.77446 3.2439,-4.85531 2.04878,-2.08084 4.78049,-3.26407 2.73171,-1.18322 5.89025,-1.18322 h 39.78048 z"
     id="path3030"
     inkscape:connector-curvature="0" /></svg>