<?xml version="1.0" encoding="utf-8"?>
<!-- Generator: Adobe Illustrator 18.1.1, SVG Export Plug-In . SVG Version: 6.00 Build 0)  -->
<svg version="1.1" id="Layer_1" xmlns="http://www.w3.org/2000/svg" xmlns:xlink="http://www.w3.org/1999/xlink" x="0px" y="0px"
	 viewBox="0 0 52.4 51.2" enable-background="new 0 0 52.4 51.2" xml:space="preserve">
<path fill="#9ECF7C" d="M25.7,40.9l0-1.5c-1,0.5-1.4,0.9-0.8,1.1c0.2,0.1,0.5,0.2,0.7,0.3L25.7,40.9z"/>
<path fill="#9ECF7C" d="M25.8,46.7l0-2.6c-0.6,0.5-0.9,1.1-0.6,1.9C25.2,46.2,25.5,46.4,25.8,46.7"/>
<path fill="#9ECF7C" d="M26.8,46.7c0.4-0.3,0.6-0.5,0.7-0.7c0.3-0.9,0-1.5-0.6-2L26.8,46.7z"/>
<path fill="#9ECF7C" d="M25.7,51.2l0.2,0.1l0-2C25.1,49.9,24.8,50.4,25.7,51.2"/>
<path fill="#9ECF7C" d="M26.2,0C11.7,0,0,11.8,0,26.2C0,40.5,11.4,52,25.5,52.4c0,0,0,0,0,0c-2.5-1.6-1.9-3-0.7-4.1
	c-1.6-0.9-3-2.2-1.2-4.6c0.2-0.3,0.4-0.5,0.7-0.8c-1.2-0.4-2.4-0.9-3.1-1.7c-1.2-1,0.3-2,2.5-3c-5.9-2.2-15.1-5.3-8.6-8.6l1.9-0.9
	c0.5-0.2,1-0.4,1.4-0.5c2.1-1,7,1.7,6,2.4c0,0-0.1,0,0,0.1c0.1,0.8-1.9,0.6-3.7,0.7c-0.9,0-1.6-0.3-2.1-0.7
	c-0.5-0.1-0.8-0.2-1.2-0.1c-5.2,1.2,2.3,3.7,4.3,4.7c1,0.5,2.4,1.1,3.9,1.7c-0.1-3.7-0.1-7.3-0.2-10.8c-2.7,0.4-6.3,0.1-7.9-1.5
	c-0.2-0.3-0.6-0.6-1-0.4c-2,1-3.7,1.1-4.6-1c-0.1-0.2-0.3-0.6-0.5-0.6c-1.7,0.3-2.6-0.2-2.9-1.4c0-0.2-0.3-0.4-0.4-0.4
	c-1.6,0.3-2.8-0.3-3.5-1.7c-0.1-0.2,0.1-0.7,0.4-0.7c3.2-0.2,6.4-0.3,9.6,0c1.7,0.2,3.2-0.5,4.4-1.2c1.1-0.7,3.5-0.9,3.9,0.4
	c0.1,0.5,1,1,1.8,1.2c-0.7-0.5-1.1-1.2-1.1-2.1c0-1.4,1.1-2.5,2.5-2.5c1.4,0,2.5,1.1,2.5,2.5c0,0.9-0.4,1.6-1.1,2.1
	c0.8-0.3,1.6-0.8,1.7-1.2c0.4-1.2,2.8-1,3.9-0.4c1.1,0.7,2.6,1.4,4.4,1.2c3.2-0.3,6.4-0.2,9.6,0c0.3,0,0.5,0.5,0.4,0.7
	c-0.7,1.4-1.9,2-3.5,1.7c-0.2,0-0.4,0.2-0.4,0.4c-0.3,1.2-1.2,1.7-2.9,1.4c-0.3,0-0.4,0.3-0.5,0.6c-0.9,2-2.5,1.9-4.6,1
	c-0.3-0.2-0.7,0.2-1,0.4c-1.6,1.6-5,1.9-7.8,1.5c-0.1,3.5-0.1,7.1-0.2,10.8c1.5-0.6,2.9-1.1,3.9-1.7c1.9-1,9.5-3.5,4.3-4.7
	c-0.4-0.1-0.7,0-1.2,0.1c-0.5,0.4-1.3,0.7-2.1,0.7c-1.8,0-3.8,0.1-3.7-0.7c0,0,0,0,0-0.1c-0.9-0.7,3.9-3.4,6-2.4
	c0.4,0.2,0.9,0.3,1.4,0.5l1.9,0.9c6.5,3.3-2.7,6.4-8.6,8.6c2.3,1,3.8,2,2.5,3c-0.7,0.8-1.9,1.2-3.1,1.7c0.3,0.3,0.5,0.6,0.7,0.8
	c1.7,2.4,0.3,3.7-1.2,4.6c1.2,1.1,1.8,2.5-0.7,4.1c14.1-0.5,25.3-12,25.3-26.2C52.4,11.7,40.6,0,26.2,0"/>
<path fill="#9ECF7C" d="M27.7,40.5c0.6-0.3,0.2-0.7-0.9-1.2l0,1.6c0.1,0,0.1-0.1,0.2-0.1C27.3,40.7,27.5,40.6,27.7,40.5"/>
<path fill="#9ECF7C" d="M26.7,51.3l0.2-0.1c0.9-0.8,0.6-1.3-0.1-1.9L26.7,51.3z"/>
</svg>
