<?xml version="1.0" encoding="utf-8"?>
<!-- Generator: Adobe Illustrator 18.1.1, SVG Export Plug-In . SVG Version: 6.00 Build 0)  -->
<svg version="1.1" id="Layer_1" xmlns="http://www.w3.org/2000/svg" xmlns:xlink="http://www.w3.org/1999/xlink" x="0px" y="0px"
	 viewBox="0 0 52.2 52.2" enable-background="new 0 0 52.2 52.2" xml:space="preserve">
<path fill="#33A3DC" d="M26.1,32.7c-5.6,0-10.2-4.5-10.2-10.2s4.6-10.2,10.2-10.2c5.6,0,10.2,4.6,10.2,10.2S31.7,32.7,26.1,32.7
	 M26.1,0C11.7,0,0,11.7,0,26.1C0,36.8,6.4,45.9,15.6,50v-6l-7-7c-0.3-0.2-0.6-0.6-0.7-1c-0.1-0.2-0.1-0.5-0.1-0.8V21.6
	c0-1,0.8-1.7,1.7-1.7c1,0,1.7,0.8,1.7,1.7v8.5c-0.5,0.1-0.9,0.4-1.3,0.8C9,32,9,33.9,10.1,35l4.5,4.5c0.3,0.2,0.7,0.1,0.8-0.2
	c0.1-0.2,0.1-0.4-0.1-0.6L11,34.3c-0.7-0.7-0.7-1.8,0-2.5c0.6-0.7,1.8-0.7,2.5,0l9.8,9.6c0.4,0.4,0.6,1,0.5,1.6v9
	c0.8,0.1,1.6,0.1,2.3,0.1s1.6,0,2.3-0.1v-9c-0.1-0.6,0.1-1.2,0.5-1.6l9.8-9.6c0.7-0.6,1.8-0.6,2.5,0c0.7,0.7,0.7,1.8,0,2.5l-4.4,4.3
	c-0.2,0.2-0.2,0.4-0.1,0.6c0.1,0.3,0.5,0.4,0.8,0.2L42,35c1.1-1.1,1.2-3,0-4.1c-0.4-0.4-0.8-0.6-1.3-0.8v-8.5c0-1,0.8-1.7,1.7-1.7
	c1,0,1.7,0.8,1.7,1.7v13.5c0,0.3,0,0.6-0.1,0.8c-0.1,0.4-0.4,0.7-0.7,1l-7,7v6c9.2-4,15.6-13.2,15.6-23.9C52.2,11.7,40.5,0,26.1,0"
	/>
</svg>
