<?xml version="1.0" encoding="UTF-8" standalone="no"?>
<!-- Generator: Adobe Illustrator 18.1.1, SVG Export Plug-In . SVG Version: 6.00 Build 0)  -->

<svg
   xmlns:dc="http://purl.org/dc/elements/1.1/"
   xmlns:cc="http://creativecommons.org/ns#"
   xmlns:rdf="http://www.w3.org/1999/02/22-rdf-syntax-ns#"
   xmlns:svg="http://www.w3.org/2000/svg"
   xmlns="http://www.w3.org/2000/svg"
   xmlns:sodipodi="http://sodipodi.sourceforge.net/DTD/sodipodi-0.dtd"
   xmlns:inkscape="http://www.inkscape.org/namespaces/inkscape"
   version="1.1"
   id="Layer_1"
   x="0px"
   y="0px"
   viewBox="0 0 52.1 47.7"
   enable-background="new 0 0 52.1 47.7"
   xml:space="preserve"
   inkscape:version="0.48.4 r9939"
   width="100%"
   height="100%"
   sodipodi:docname="basicassistance.svg"><metadata
   id="metadata3870"><rdf:RDF><cc:Work
       rdf:about=""><dc:format>image/svg+xml</dc:format><dc:type
         rdf:resource="http://purl.org/dc/dcmitype/StillImage" /><dc:title /></cc:Work></rdf:RDF></metadata><defs
   id="defs3868" /><sodipodi:namedview
   pagecolor="#ffffff"
   bordercolor="#666666"
   borderopacity="1"
   objecttolerance="10"
   gridtolerance="10"
   guidetolerance="10"
   inkscape:pageopacity="0"
   inkscape:pageshadow="2"
   inkscape:window-width="954"
   inkscape:window-height="566"
   id="namedview3866"
   showgrid="false"
   inkscape:zoom="4.9475892"
   inkscape:cx="76.262265"
   inkscape:cy="23.552385"
   inkscape:window-x="0"
   inkscape:window-y="0"
   inkscape:window-maximized="1"
   inkscape:current-layer="g3903" />

<g
   id="g3903"
   transform="matrix(0.21983122,0,0,0.20126582,14.152574,21.546502)"><circle
     style="fill:#57595b;fill-opacity:1"
     id="circle6"
     transform="matrix(2.3700001,0,0,2.3700001,-63.725851,-105.76018)"
     r="50"
     cy="50"
     cx="50"
     sodipodi:cx="50"
     sodipodi:cy="50"
     sodipodi:rx="50"
     sodipodi:ry="50"
     d="M 100,50 C 100,77.614237 77.614237,100 50,100 22.385763,100 0,77.614237 0,50 0,22.385763 22.385763,0 50,0 c 27.614237,0 50,22.385763 50,50 z" /><g
     transform="translate(-63.725851,-104.75594)"
     id="g3872"><path
       d="m 183.31855,140.88867 10.65072,-6.31033 -22.36651,-12.6207 -11.10718,6.16358 z m -12.17226,23.18688 22.67084,-12.62071 -10.65072,-5.87009 -22.67083,12.47396 z m 12.02012,14.08822 0,-15.70253 -12.02012,6.45712 -13.08517,-7.3376 0,29.4972 z m -54.47085,-15.99601 0,15.99601 25.10528,12.91419 0,-29.35046 -12.62871,7.19086 z m 0.45648,-16.58301 -10.65073,5.87009 22.67082,12.62071 10.49856,-6.01684 z m 11.41148,-23.77388 -22.36651,12.47394 10.80286,6.31037 22.67082,-12.6207 z m 58.88326,10.71293 3.34738,2.05454 -15.21531,8.65838 15.06315,8.21812 -15.36747,8.65839 0,20.69208 -31.34354,16.14274 -31.34356,-16.14274 0,-20.83886 -14.91101,-8.51161 15.2153,-8.36487 -12.17223,-6.89736 -3.34738,-1.9078 31.19141,-17.4635 15.67177,8.65839 15.36747,-8.36488 z"
       id="path2997"
       style="fill:#ffffff;fill-opacity:1"
       inkscape:connector-curvature="0"
       sodipodi:nodetypes="ccccccccccccccccccccccccccccccccccccccccccccccccc" /><path
       d="m 101.38359,49.926786 c -4.36639,-3.532208 -8.78026,-5.298313 -13.241568,-5.298313 -1.613671,0 -3.701949,0.811455 -6.264836,2.434364 -2.657808,1.622909 -4.603708,2.434365 -5.83768,2.434365 -1.13906,0.190926 -3.179871,-0.381865 -6.122444,-1.718374 -3.037495,-1.431982 -5.173238,-2.195706 -6.407221,-2.291168 -4.081633,0 -9.065017,2.434364 -14.950162,7.303096 l 10.393931,10.59664 34.0294,0.429586 z M 115.33707,99.75964 C 112.67927,84.580674 105.22792,74.556813 92.98301,69.688086 l -34.0294,0 c -9.017561,6.49164 -14.048412,16.5155 -15.09254,30.071554 -0.09491,0.5728 -0.213619,1.36039 -0.355975,2.36277 -0.142377,1.00238 -0.308498,2.26729 -0.498331,3.79473 -0.189843,1.24105 -0.355954,2.38664 -0.498341,3.43674 -0.142388,1.05014 -0.213577,2.00479 -0.213577,2.86397 0,6.77803 4.318932,11.36037 12.956807,13.747 4.46132,1.24104 11.532993,1.86157 21.215006,1.86157 11.865209,0 20.123391,-0.52506 24.774551,-1.57518 10.34646,-2.38663 15.51969,-7.39855 15.51969,-15.03577 0,-1.14559 -0.14238,-2.67302 -0.42715,-4.58234 -0.28476,-1.90931 -0.61698,-4.20046 -0.99668,-6.87349 z M 89.1387,103.0532 c 0,2.38662 -0.759378,4.31978 -2.278132,5.79951 -1.518747,1.47971 -3.464642,2.36276 -5.837688,2.64915 l 0.284765,4.29595 -5.83768,0 0.284776,-4.29595 c -2.752729,-0.19092 -5.552914,-1.09784 -8.400576,-2.72076 l 2.705274,-6.87349 c 2.657808,2.29116 5.173228,3.38901 7.54627,3.29354 2.088278,0 3.179872,-0.52506 3.274804,-1.57517 0,-0.85917 -0.854295,-1.43196 -2.562896,-1.71837 l -1.566203,-0.28638 c -5.505459,-0.85919 -8.258178,-3.43675 -8.258178,-7.732698 0,-3.818604 2.373043,-6.443903 7.119117,-7.875886 l -0.14244,-4.295938 6.122465,0 -0.427153,4.009554 c 1.139061,0.19092 2.254389,0.429587 3.345991,0.715981 1.091593,0.286405 2.206918,0.668265 3.345981,1.145579 l -2.847643,6.587105 c -1.803509,-1.431973 -3.844329,-2.147954 -6.12245,-2.147954 -1.613668,0 -2.420498,0.525062 -2.420498,1.575175 0,0.763719 1.044129,1.336512 3.132395,1.718382 6.35977,0.66824 9.53965,3.24581 9.53965,7.73267 z"
       id="path3030"
       inkscape:connector-curvature="0"
       sodipodi:nodetypes="csccccccccccccccsscscssccsccccccccccsccccsccssccc"
       style="fill:#ffffff;fill-opacity:1" /></g></g></svg>