<?xml version="1.0" encoding="utf-8"?>
<!-- Generator: Adobe Illustrator 18.1.1, SVG Export Plug-In . SVG Version: 6.00 Build 0)  -->
<svg version="1.1" id="Layer_1" xmlns="http://www.w3.org/2000/svg" xmlns:xlink="http://www.w3.org/1999/xlink" x="0px" y="0px"
	 viewBox="0 0 52.2 52" enable-background="new 0 0 52.2 52" xml:space="preserve">
<path fill="#0077C0" d="M36.1,27c-0.6,0-0.9-0.3-1.3-1.1c0-0.1-1.8-3.7-1.8-3.8l0.1,0.8l1.1,4.9h-1.7l-0.2,2.5
	c0,0.6-0.4,1.1-0.8,1.1h-3.1c-0.5,0-0.8-0.5-0.8-1.1l-0.2-2.5h-1.7l1.1-4.9l0.1-0.8c0,0.1-1.8,3.7-1.8,3.8c-0.4,0.7-0.7,1-1.3,1.1
	c-0.3,0.3-1.2,0-1.7-0.2c-0.9-0.4-1.6-0.8-1.6-0.9l-0.5,5c0,0.3-0.2,0.6-0.5,0.6h-1.9c-0.3,0-0.5-0.3-0.5-0.6l-0.4-2.5
	c0,0.5-0.4,0.9-0.8,0.9c0,0-0.1,0-0.1,0c-0.4-0.1-0.7-0.4-0.7-0.9v-2.8c0-0.8,1-2,1.6-2.2c0.3-0.1,0.9-0.2,1.4-0.2h0.9
	c1.3,0,2,0.5,3.4,1.8c0.1,0.1,0.2,0.1,0.2,0.2c0.2-1,1-2.6,1.6-4c0.6-1.3,1.8-3.3,2.8-3.7c0.3-0.1,0.6-0.2,1-0.3
	c1.2-0.2,2.5-0.2,3.8,0c0.4,0.1,0.7,0.2,1,0.3c1,0.4,2.3,2.4,2.8,3.7c0.7,1.6,1.6,3.6,1.6,4.4S36.9,27,36.1,27 M18.5,17.6
	c1.3,0,2.4,1.1,2.4,2.6c0,1.3-1,2.4-2.2,2.5h-0.5C17,22.6,16,21.5,16,20.2C16,18.8,17.1,17.6,18.5,17.6 M29.8,7.7
	c2.3,0,4.2,2,4.2,4.4c0,2.3-1.6,4.1-3.7,4.4h-0.9c-2.1-0.2-3.7-2.1-3.7-4.4C25.7,9.6,27.5,7.7,29.8,7.7 M26.1,0
	C11.7,0,0,11.7,0,26.1C0,36.8,6.4,45.9,15.6,50v-6l-7-7c-0.3-0.2-0.6-0.6-0.7-1c-0.1-0.2-0.1-0.5-0.1-0.8V21.6c0-1,0.8-1.7,1.7-1.7
	c1,0,1.7,0.8,1.7,1.7v8.5c-0.5,0.1-0.9,0.4-1.3,0.8C9,32,9,33.9,10.1,35l4.5,4.5c0.3,0.2,0.7,0.1,0.8-0.2c0.1-0.2,0.1-0.4-0.1-0.6
	L11,34.3c-0.7-0.7-0.7-1.8,0-2.5c0.6-0.7,1.8-0.7,2.5,0l9.8,9.6c0.4,0.4,0.6,1,0.5,1.6v9c0.8,0.1,1.6,0.1,2.3,0.1s1.6,0,2.3-0.1v-9
	c-0.1-0.6,0.1-1.2,0.5-1.6l9.8-9.6c0.7-0.6,1.8-0.6,2.5,0c0.7,0.7,0.7,1.8,0,2.5l-4.4,4.3c-0.2,0.2-0.2,0.4-0.1,0.6
	c0.1,0.3,0.5,0.4,0.8,0.2L42,35c1.1-1.1,1.2-3,0-4.1c-0.4-0.4-0.8-0.6-1.3-0.8v-8.5c0-1,0.8-1.7,1.7-1.7c1,0,1.7,0.8,1.7,1.7v13.5
	c0,0.3,0,0.6-0.1,0.8c-0.1,0.4-0.4,0.7-0.7,1l-7,7v6c9.2-4,15.6-13.2,15.6-23.9C52.2,11.7,40.5,0,26.1,0"/>
</svg>
