<?xml version="1.0" encoding="utf-8"?>
<!-- Generator: Adobe Illustrator 18.1.1, SVG Export Plug-In . SVG Version: 6.00 Build 0)  -->
<svg version="1.1" id="Layer_1" xmlns="http://www.w3.org/2000/svg" xmlns:xlink="http://www.w3.org/1999/xlink" x="0px" y="0px"
	 viewBox="0 0 52.1 48.5" enable-background="new 0 0 52.1 48.5" xml:space="preserve">
<path fill="#D44E5B" d="M24.7,20.6c-2.8-1.9-6.4-3-9.9-3c-1.3,0-2.6,0.1-3.8,0.5c-0.3,0.1-0.6,0.4-0.6,0.7v3.1v21v1.6v1.1
	c0,0.2,0.2,0.4,0.4,0.4c0,0,0.1,0,0.1,0c1.1-0.3,2.3-0.5,3.5-0.5c0.1,0,0.3,0,0.4,0c0.2,0,0.4,0,0.6,0c3.2,0.1,6.5,1.1,9.1,2.9V20.6
	z"/>
<path fill="#D44E5B" d="M44.9,42.6v1.5c4.5-4.7,7.3-11.1,7.3-18.1C52.1,11.7,40.5,0,26.1,0C11.7,0,0,11.7,0,26.1
	c0,7.2,2.9,13.7,7.6,18.4v-1.6V22.1v-3.4c0-1.2,0.6-2.2,1.4-2.9c0.4-0.3,0.8-0.5,1.3-0.6c1.3-0.3,2.6-0.5,4-0.5c0.2,0,0.3,0,0.5,0
	c0.8,0,1.5,0,2.3,0.1c3.3,0.4,6.5,1.6,9.1,3.3c2.5-1.7,5.5-2.8,8.6-3.3c0.9-0.1,1.9-0.2,2.8-0.2c0.2,0,0.3,0,0.5,0
	c1.4,0,2.7,0.2,4,0.5c0.5,0.1,0.9,0.3,1.3,0.6c0.9,0.7,1.4,1.7,1.4,2.9v3.5V42.6z"/>
<path fill="#D44E5B" d="M41.4,18c-1.2-0.3-2.5-0.5-3.8-0.5c-3.6,0-7.4,1.2-10.2,3.2v27.7c2.7-1.9,6.1-3.1,9.5-3.2c0.2,0,0.4,0,0.6,0
	c0.1,0,0.3,0,0.4,0c1.2,0,2.3,0.2,3.4,0.5c0,0,0.1,0,0.1,0c0.2,0,0.4-0.2,0.4-0.4v-1.1v-1.4v-21v-3.1C42,18.4,41.7,18.1,41.4,18"/>
</svg>
