<?xml version="1.0" encoding="utf-8"?>
<!-- Generator: Adobe Illustrator 18.1.1, SVG Export Plug-In . SVG Version: 6.00 Build 0)  -->
<svg version="1.1" id="Layer_1" xmlns="http://www.w3.org/2000/svg" xmlns:xlink="http://www.w3.org/1999/xlink" x="0px" y="0px"
	 viewBox="0 0 52.2 50.6" enable-background="new 0 0 52.2 50.6" xml:space="preserve">
<path fill="#00B26B" d="M16.6,46.6c-1.6-3-2.4-5.3-2.6-6.5c-1.1-0.4-2.8-1.2-2.8-1.2S12.6,44.2,16.6,46.6"/>
<path fill="#00B26B" d="M40.3,24.3c-0.2,0.2-0.3,0.4-0.5,0.6c0,0,0,0,0,0c0,0,0,0,0,0c-1.5,1.3-2.8,1-2.8,1
	c-0.9-0.2-2.3-0.3-2.3-0.3c1.6-2.2,3.4-1.8,3.4-1.8c1.4,0.2,2.1,0.1,2.5,0.1c3.4-2.9,7-4.3,7-4.3S43,21.7,40.3,24.3 M37.9,26.7
	c-1.6,2.3-3.5,2-3.5,2c-0.9-0.2-2.3-0.3-2.3-0.3c1.5-2.3,3.3-1.9,3.3-1.9c1.6,0.1,2.4,0,2.6,0c1.6-1.4,3.4-2.1,3.4-2.1
	S39.1,25.4,37.9,26.7 M32.3,31.4c-0.9-0.2-2.3-0.2-2.3-0.2c1.5-2.3,3.3-2,3.3-2c2,0.1,2.7-0.1,2.7-0.1
	C34.4,31.7,32.3,31.4,32.3,31.4 M30.6,34.1c-0.9-0.1-2.3-0.1-2.3-0.1c1.3-2.4,3.1-2.2,3.1-2.2c2,0,2.7-0.3,2.7-0.3
	C32.7,34.4,30.6,34.1,30.6,34.1 M29.3,36.9c-0.9-0.1-2.3,0-2.3,0c1.2-2.4,3.1-2.3,3.1-2.3c2-0.1,2.7-0.4,2.7-0.4
	C31.4,37,29.3,36.9,29.3,36.9 M25.6,34.5c0,0-1.1-1.8,0.8-4.3c0,0,0.1,0.7,0.9,2.5c0,0,0.9,1.6-0.6,3.8
	C26.6,36.5,26.1,35.2,25.6,34.5 M24.1,29.6c0,0-1.1-1.5,0.7-3.8c0,0,0.1,0.7,0.9,2.2c0,0,0.9,1.4-0.5,3.4
	C25.1,31.3,24.6,30.2,24.1,29.6 M23.9,34.1c0,0-0.6-1.1-1.1-1.7c0,0-1.1-1.5,0.5-3.9c0,0,0.1,0.7,1,2.2
	C24.3,30.8,25.2,32.1,23.9,34.1 M22.9,36.9c0,0-0.7-1-1.2-1.6c0,0-1.2-1.4,0.2-3.9c0,0,0.1,0.6,1.2,2.1C23,33.5,24.1,34.7,22.9,36.9
	 M19.9,31.2c0,0-0.9-1.2,0.3-3.2c0,0,0.1,0.5,0.8,1.8c0,0,0.8,1.1-0.2,2.8C20.8,32.6,20.3,31.7,19.9,31.2 M19.9,35
	c0,0-0.5-0.9-0.9-1.4c0,0-0.9-1.2,0.2-3.2c0,0,0.1,0.5,0.9,1.8C20.1,32.2,20.9,33.3,19.9,35 M19.4,37.3c0,0-0.6-0.8-1-1.3
	c0,0-1-1.1,0-3.2c0,0,0.1,0.5,1,1.7C19.3,34.5,20.1,35.5,19.4,37.3 M21.6,25.6c0.6-1.4,1.6-2.4,1.6-2.4S22.1,24.5,21.6,25.6
	c0.1,0.3,0.2,0.9,0.6,1.9c0,0,0.6,1.2-0.6,2.8c0,0-0.3-1-0.7-1.6C20.9,28.7,20.2,27.3,21.6,25.6 M23.6,29C23.6,29,23.6,29,23.6,29
	l-0.1,0C23.5,29,23.6,29,23.6,29 M27.9,19.1c0,0-2.9,2.2-4.4,4.4c0,0.3,0.1,0.8,0.3,1.7c0,0,0.4,1.3-1,2.7c0,0-0.2-1-0.5-1.6
	c0,0-0.5-1.3,0.9-2.8C25.3,20.8,27.9,19.1,27.9,19.1 M29,20.1c0,0-1.5,1.5-2.2,2.9c0,0.3,0.1,1,0.5,2.2c0,0,0.7,1.5-1,3.3
	c0,0-0.4-1.2-0.8-1.9c0,0-0.8-1.6,1.2-3.6C27.7,21.3,29,20.1,29,20.1 M28,33.5c0,0-0.5-1.3-0.9-2.1c0,0-1-1.9,1.1-4.2
	c0,0,0,0.7,0.7,2.6C28.9,29.8,29.8,31.4,28,33.5 M28.9,28.4c0,0-0.9-1.9,1.2-4.2c0,0,0,0.7,0.6,2.6c0,0,0.8,1.7-1,3.7
	C29.8,30.6,29.3,29.3,28.9,28.4 M35.4,15.5c0,0-3.9,2.5-6,5c0,0.3,0,1,0.3,2.1c0,0,0.5,1.5-1.4,3.1c0,0-0.2-1.2-0.5-2
	c0,0-0.5-1.6,1.4-3.3C32,17.4,35.4,15.5,35.4,15.5 M32.9,21.9c0,0.3,0,1.1,0.3,2.5c0,0,0.5,1.8-1.6,3.5c0,0-0.2-1.4-0.5-2.2
	c0,0-0.6-2,1.8-3.9c1.2-1.7,2.8-2.8,2.8-2.8S33.9,20.4,32.9,21.9 M43.2,14.7c0,0-4.5,2.2-7.1,4.8c-0.1,0.4-0.1,1.1,0,2.4
	c0,0,0.3,1.8-2,3.3c0,0-0.1-1.4-0.3-2.3c0,0-0.3-1.9,1.9-3.5C39.2,16.3,43.2,14.7,43.2,14.7 M48.9,15.2c0,0-4.3,2.1-6.9,4.6
	c0,0,0,0,0,0c0,0-0.6,0.4-1.7,2.1c0,0-0.8,1.7-3.8,1.1c0,0,0.8-1.2,1.2-2c0,0,0.8-1.8,4-1.2C45.1,16.8,48.9,15.2,48.9,15.2 M26.1,0
	C11.7,0,0,11.7,0,26.1c0,11.2,7,20.7,16.9,24.4c-3.3-1.9-6.3-5-8.1-9.2c-1-2.3-1.6-4.8-1.7-7.3c0-2,4.3-3.7,10.6-4.6
	c-0.7,0.9-1.2,2.3-1.4,3.1c-3.6,0.6-5.9,1.6-5.9,2.6c0,1.8,7,3.3,15.5,3.3c8.6,0,15.5-1.5,15.5-3.3c0-1-2.1-1.9-5.4-2.5c0,0,0,0,0,0
	c0.3-0.6,1-1.7,1.9-2.5c4.2,0.9,6.9,2.3,6.9,3.9c-0.1,2.5-0.7,5-1.7,7.3c-1.9,4.3-5,7.4-8.3,9.3C45,47,52.2,37.4,52.2,26.1
	C52.2,11.7,40.5,0,26.1,0"/>
</svg>
