<?xml version="1.0" encoding="utf-8"?>
<!-- Generator: Adobe Illustrator 18.1.1, SVG Export Plug-In . SVG Version: 6.00 Build 0)  -->
<svg version="1.1" id="Layer_1" xmlns="http://www.w3.org/2000/svg" xmlns:xlink="http://www.w3.org/1999/xlink" x="0px" y="0px"
	 viewBox="0 0 27.2 29.2" enable-background="new 0 0 27.2 29.2" xml:space="preserve">
<path fill="#33A3DC" d="M24.4,3.1l-3.8,3.6H6.7L2.8,3.1c0,0,1.9-2.7,5.1-3c3.1-0.3,4.2,1.5,5.7,1.6c1.5-0.1,2.6-2,5.7-1.6
	C22.4,0.4,24.4,3.1,24.4,3.1z M14.1,20.2v2.7c0.4-0.1,0.7-0.2,1-0.5c0.3-0.3,0.4-0.6,0.4-0.9c0-0.3-0.1-0.6-0.3-0.8
	C15,20.5,14.6,20.4,14.1,20.2z M11.9,16.8c0,0.2,0.1,0.5,0.3,0.7c0.2,0.2,0.4,0.4,0.8,0.5v-2.4c-0.3,0.1-0.6,0.2-0.8,0.5
	C12,16.3,11.9,16.5,11.9,16.8z M26.7,26c0,0-0.8,3.2-4.7,3.2H5.2c-3.8,0-4.7-3.2-4.7-3.2C-2,15,5.6,8.9,5.6,8.9h15.9
	C21.6,8.9,29.2,15,26.7,26z M17.5,21.3c0-0.7-0.2-1.4-0.7-1.8c-0.5-0.5-1.4-0.9-2.7-1.2v-2.7c0.5,0.2,0.9,0.6,1,1.1l2.1-0.2
	c-0.1-0.7-0.5-1.2-1-1.7c-0.5-0.4-1.2-0.7-2.1-0.8v-0.7h-1.2v0.7c-0.9,0.1-1.7,0.4-2.3,0.9c-0.6,0.5-0.8,1.1-0.8,1.9
	c0,0.8,0.2,1.4,0.8,1.9c0.5,0.5,1.3,0.9,2.4,1.2v2.9c-0.3-0.1-0.6-0.3-0.8-0.6c-0.2-0.3-0.4-0.6-0.5-1l-2.1,0.2
	c0.2,0.9,0.5,1.6,1.1,2.1c0.6,0.5,1.4,0.8,2.3,0.9v1.3h1.2v-1.3c1.1-0.1,1.9-0.5,2.5-1.1C17.2,22.8,17.5,22.1,17.5,21.3z"/>
</svg>
