<?xml version="1.0" encoding="utf-8"?>
<!-- Generator: Adobe Illustrator 18.0.0, SVG Export Plug-In . SVG Version: 6.00 Build 0)  -->
<!DOCTYPE svg PUBLIC "-//W3C//DTD SVG 1.1//EN" "http://www.w3.org/Graphics/SVG/1.1/DTD/svg11.dtd">
<svg version="1.1" id="Layer_1" xmlns="http://www.w3.org/2000/svg" xmlns:xlink="http://www.w3.org/1999/xlink" x="0px" y="0px"
	 viewBox="136 69 345 99" enable-background="new 136 69 345 99" xml:space="preserve">
<g>
	<path fill="#0077C0" d="M210.1,132c-3.2-3.2-3.2-3.2-3.2-3.2c3.8-4,6.2-9.4,6.3-15.2c4.5,0,4.5,0,4.5,0
		C217.6,120.7,214.8,127.2,210.1,132 M191.1,140.2c0-4.5,0-4.5,0-4.5c5.9-0.1,11.3-2.5,15.3-6.4c3.2,3.2,3.2,3.2,3.2,3.2
		C204.8,137.2,198.3,140.2,191.1,140.2z M190.6,118.1c-2.7,0-4.8-2.1-4.8-4.8c0-2.6,2.1-4.8,4.8-4.8c2.7,0,4.8,2.2,4.8,4.8
		C195.4,116,193.3,118.1,190.6,118.1z M190.3,124.1c-2.7-0.1-5.2-1.2-7.1-2.9c3.7-3.7,3.7-3.7,3.7-3.7c0.9,0.8,2.1,1.3,3.4,1.5
		C190.3,124.1,190.3,124.1,190.3,124.1z M190.3,129.7c-4.3-0.1-8.1-1.9-11-4.6c3.5-3.5,3.5-3.5,3.5-3.5c2,1.9,4.6,3.1,7.5,3.1
		C190.3,129.7,190.3,129.7,190.3,129.7z M190.3,134.8c-5.7-0.1-10.8-2.4-14.6-6.1c3.1-3.1,3.1-3.1,3.1-3.1c3.1,2.9,7.1,4.8,11.6,4.9
		C190.3,134.8,190.3,134.8,190.3,134.8z M190.3,140.2c-7.2-0.1-13.7-3.1-18.5-7.7c3.2-3.2,3.2-3.2,3.2-3.2c4,3.9,9.3,6.3,15.3,6.4
		C190.3,140.2,190.3,140.2,190.3,140.2z M163.6,113.6c4.6,0,4.6,0,4.6,0c0.1,5.9,2.5,11.3,6.3,15.2c-3.2,3.2-3.2,3.2-3.2,3.2
		C166.6,127.2,163.7,120.7,163.6,113.6z M171.3,94.4c3.2,3.2,3.2,3.2,3.2,3.2c-3.9,3.9-6.3,9.2-6.4,15.2c-4.5,0-4.5,0-4.5,0
		C163.7,105.6,166.7,99.1,171.3,94.4z M178.8,100.7c-3.1-3.1-3.1-3.1-3.1-3.1c3.8-3.7,8.9-5.9,14.6-6.1c0,4.3,0,4.3,0,4.3
		C185.8,96.1,181.8,97.9,178.8,100.7z M182.9,104.8c-3.5-3.5-3.5-3.5-3.5-3.5c2.9-2.7,6.7-4.4,10.9-4.5c0,4.9,0,4.9,0,4.9
		C187.4,101.9,184.8,103,182.9,104.8z M183.4,105.3c1.9-1.7,4.3-2.7,6.9-2.9c0,5.2,0,5.2,0,5.2c-1.2,0.1-2.3,0.5-3.3,1.3
		C183.4,105.3,183.4,105.3,183.4,105.3z M179.8,112.8c0.1-2.7,1.2-5.1,2.9-6.9c3.7,3.7,3.7,3.7,3.7,3.7c-0.8,0.9-1.3,2-1.5,3.3
		C179.8,112.8,179.8,112.8,179.8,112.8z M179.8,113.6c5.2,0,5.2,0,5.2,0c0.1,1.3,0.5,2.5,1.3,3.4c-3.7,3.7-3.7,3.7-3.7,3.7
		C181,118.7,179.9,116.2,179.8,113.6z M174.2,113.6c4.9,0,4.9,0,4.9,0c0.1,2.9,1.2,5.5,3.1,7.5c-3.5,3.5-3.5,3.5-3.5,3.5
		C176,121.6,174.3,117.8,174.2,113.6z M173.4,113.6c0.1,4.5,1.9,8.6,4.7,11.6c-3.1,3.1-3.1,3.1-3.1,3.1c-3.7-3.9-5.9-9-6.1-14.6
		C173.4,113.6,173.4,113.6,173.4,113.6z M178.8,101.9c3.5,3.5,3.5,3.5,3.5,3.5c-1.9,1.9-3,4.5-3.1,7.4c-4.9,0-4.9,0-4.9,0
		C174.4,108.5,176.1,104.7,178.8,101.9z M173.4,112.8c-4.3,0-4.3,0-4.3,0c0.1-5.7,2.5-10.8,6.1-14.6c3.1,3.1,3.1,3.1,3.1,3.1
		C175.3,104.2,173.5,108.3,173.4,112.8z M190.3,86.2c0,4.5,0,4.5,0,4.5c-5.9,0.1-11.2,2.5-15.2,6.3c-3.2-3.2-3.2-3.2-3.2-3.2
		C176.6,89.2,183.2,86.3,190.3,86.2z M191.1,102.5c2.7,0.1,5.1,1.1,6.9,2.9c-3.7,3.7-3.7,3.7-3.7,3.7c-0.9-0.7-2-1.2-3.2-1.3
		C191.1,102.5,191.1,102.5,191.1,102.5z M191.1,96.9c4.2,0.1,8,1.8,10.9,4.5c-3.5,3.5-3.5,3.5-3.5,3.5c-1.9-1.8-4.5-2.9-7.4-3.1
		C191.1,96.9,191.1,96.9,191.1,96.9z M191.1,91.6c5.7,0.1,10.8,2.4,14.6,6.1c-3.1,3.1-3.1,3.1-3.1,3.1c-3-2.9-7.1-4.7-11.5-4.7
		C191.1,91.6,191.1,91.6,191.1,91.6z M191.1,86.2c7.1,0.1,13.6,3,18.4,7.6c-3.2,3.2-3.2,3.2-3.2,3.2c-4-3.8-9.3-6.2-15.2-6.3
		C191.1,86.2,191.1,86.2,191.1,86.2z M203.2,125.1c2.9-3.1,4.7-7.1,4.7-11.6c4.3,0,4.3,0,4.3,0c-0.1,5.7-2.3,10.8-6,14.6
		C203.2,125.1,203.2,125.1,203.2,125.1z M202.7,125.7c3.1,3.1,3.1,3.1,3.1,3.1c-3.8,3.7-9,6.1-14.7,6.1c0-4.3,0-4.3,0-4.3
		C195.5,130.5,199.7,128.6,202.7,125.7z M198.6,121.6c3.5,3.5,3.5,3.5,3.5,3.5c-2.9,2.8-6.7,4.5-11,4.6c0-4.9,0-4.9,0-4.9
		C193.9,124.7,196.6,123.5,198.6,121.6z M198.1,121.1c-1.9,1.7-4.3,2.9-7.1,2.9c0-5.1,0-5.1,0-5.1c1.3-0.1,2.5-0.7,3.4-1.5
		C198.1,121.1,198.1,121.1,198.1,121.1z M196.3,113.5c5.2,0,5.2,0,5.2,0c-0.1,2.7-1.1,5.1-2.9,7c-3.7-3.7-3.7-3.7-3.7-3.7
		C195.7,116,196.2,114.8,196.3,113.5z M201.5,112.8c-5.2,0-5.2,0-5.2,0c-0.1-1.3-0.7-2.3-1.5-3.2c3.7-3.7,3.7-3.7,3.7-3.7
		C200.3,107.6,201.3,110.1,201.5,112.8z M207.1,113.5c-0.1,4.3-1.8,8.1-4.5,11c-3.5-3.5-3.5-3.5-3.5-3.5c1.9-2,3-4.6,3.1-7.5
		C207.1,113.5,207.1,113.5,207.1,113.5z M203.1,101.3c3.1-3.1,3.1-3.1,3.1-3.1c3.7,3.8,6,8.9,6.1,14.6c-4.3,0-4.3,0-4.3,0
		C207.8,108.3,206,104.2,203.1,101.3z M207.1,112.8c-4.9,0-4.9,0-4.9,0c-0.1-2.9-1.3-5.5-3.1-7.4c3.5-3.5,3.5-3.5,3.5-3.5
		C205.2,104.7,207,108.5,207.1,112.8z M217.7,112.8c-4.5,0-4.5,0-4.5,0c-0.1-5.9-2.5-11.2-6.4-15.2c3.2-3.2,3.2-3.2,3.2-3.2
		C214.6,99.1,217.6,105.6,217.7,112.8z M190.7,85.1c-15.5,0-28.2,12.6-28.2,28.2c0,15.5,12.6,28.2,28.2,28.2
		c15.5,0,28.2-12.6,28.2-28.2S206.2,85.1,190.7,85.1z"/>
	<path fill="#0077C0" d="M175.8,133c-0.1,0.5-0.3,0.5-0.4,0.5c-0.7-0.1-0.7-1.2-0.3-1.3C175.6,132.1,175.8,132.6,175.8,133"/>
	<path fill="#0077C0" d="M169.3,127.4c-0.2-0.1-0.4-0.3-0.5-0.7c0-0.2,0.1-0.3,0.3-0.3c0.3-0.1,0.5,0.2,0.6,0.5
		C169.7,127.3,169.5,127.4,169.3,127.4"/>
	<path fill="#0077C0" d="M168.7,126c-0.6,0.3-1.5-1-0.7-1.3C168.5,124.6,169.1,125.8,168.7,126"/>
	<path fill="#0077C0" d="M167.3,124.4c-0.3,0.2-0.6,0.2-0.8-0.2c-0.1-0.3-0.1-0.4,0-0.6c0.1-0.1,0.2-0.1,0.5-0.1
		C167.1,123.6,167.5,124.1,167.3,124.4"/>
	<path fill="#0077C0" d="M179.4,119.8c-0.2,0-0.5,0-0.6-0.3c0.1-0.3,0.2-0.5,0.3-0.5c0.1-0.1,0.5-0.2,0.7,0.1
		C179.7,119.5,179.6,119.6,179.4,119.8"/>
	<path fill="#0077C0" d="M179,117.4c0,0.3,0.1,1.2-0.3,1.2c-0.3,0-0.3-0.5-0.3-0.9c-0.1-0.3-0.3-0.5-0.1-0.9
		c0.1-0.1,0.4-0.1,0.5-0.1C178.9,116.9,179,117.4,179,117.4"/>
	<path fill="#0077C0" d="M188.8,132.7c-0.1,0-0.3-0.1-0.4-0.3c0-0.3,0.2-0.4,0.2-0.4c0.3-0.1,0.6,0.3,0.5,0.4
		C189.1,132.5,189,132.6,188.8,132.7"/>
	<path fill="#0077C0" d="M187.8,130.9c-0.4,0.1-0.7,0-0.7-0.3c0.1-0.3,0.4-0.3,0.5-0.3C188.1,130.5,188,130.9,187.8,130.9"/>
	<path fill="#0077C0" d="M213.5,126.7c-0.1,0.1-0.2,0.3-0.3,0.5c0,0-0.3-0.3-0.4-0.3c0-0.1-0.1-0.2-0.1-0.3s0.3-0.5,0.4-0.6
		c0.3,0,0.5,0.1,0.6,0.3C213.6,126.3,213.5,126.5,213.5,126.7"/>
	<path fill="#0077C0" d="M207.7,125c-0.1,0-0.4,0-0.5-0.2c0.1-0.3,0.5-0.4,0.7-0.3C208,124.7,207.9,124.9,207.7,125"/>
	<path fill="#0077C0" d="M205.7,116.1c-0.4,0.1-0.5-0.1-0.5-0.3C205.6,115.3,206.1,115.8,205.7,116.1"/>
	<path fill="#0077C0" d="M204.4,93.3c-0.3,0.1-0.9,0.1-1.1-0.4c0.1-0.7,1-0.5,1.3-0.2C204.6,92.9,204.6,93.1,204.4,93.3"/>
	<path fill="#0077C0" d="M196.3,89.2c-0.5,0.2-1.7,0.5-2.1,0.5c-0.3,0-0.5-0.1-0.7-0.3c0.1-0.4,1.1-0.7,1.4-0.9
		c0.5,0.1,0.5-0.1,0.7,0C196.1,88.5,196.5,88.9,196.3,89.2"/>
	<path fill="#0077C0" d="M197.3,88.1c-0.1,0.1-0.3,0.5-0.5,0.3c0-0.5-0.3-0.5-0.2-0.9c0.3-0.2,0.8-0.1,0.9,0.1
		C197.5,87.7,197.3,88.1,197.3,88.1"/>
	<path fill="#0077C0" d="M195.6,87.8c-0.2,0-0.6-0.3-0.8-0.5c0,0,0.3-0.3,0.4-0.3C195.7,87,195.7,87.4,195.6,87.8"/>
	<path fill="#0077C0" d="M196,94.3c-0.1,0.4-0.5,0.5-0.7,0.5c-0.3-0.1-1.1-0.7-0.8-1.1c0.3-0.3,0.6,0.1,0.8,0.1
		c0.3-0.1,0.3-0.5,0.9-0.2C196.5,94,196.3,94.1,196,94.3"/>
	<path fill="#0077C0" d="M197.3,95.9c-0.1,0.4,0.1,0.8-0.2,0.8c-0.5,0.3-1.3-0.9-0.7-1.5C196.9,95,197.3,95.1,197.3,95.9"/>
	<path fill="#0077C0" d="M205.8,102.9c-0.1,0.4-0.7,0.2-0.7-0.1c0-0.2,0.2-0.5,0.5-0.5C206.2,102.6,205.8,102.7,205.8,102.9"/>
	<path fill="#0077C0" d="M202.5,106.3c-0.1,0-0.3,0-0.4-0.3c0.1-0.3,0.2-0.3,0.5-0.3C202.8,105.8,203.2,106.2,202.5,106.3"/>
	<path fill="#0077C0" d="M188.5,94.7c-0.2,0-0.9-0.1-1.1-0.4c-0.1-0.3,0.4-0.5,0.8-0.5c0.2-0.1,0.5,0.3,0.7,0.4
		C188.8,94.2,188.9,94.6,188.5,94.7"/>
	<path fill="#0077C0" d="M181.3,96.7c-0.5,0-0.5,0.2-0.7-0.2c0.1-0.1,0.2-0.4,0.3-0.5c0.1-0.1,0.5-0.1,0.7,0.1
		C181.7,96.5,181.5,96.6,181.3,96.7"/>
	<path fill="#0077C0" d="M186,101.7c-0.1,0.1-0.3-0.1-0.2-0.2C186.3,101.1,186.4,101.7,186,101.7"/>
	<path fill="#0077C0" d="M192.8,115.2c-0.3,0-0.5-0.2-0.5-0.3c0.1-0.2,0.1-0.3,0.2-0.3c0.3-0.3,0.7,0.3,0.7,0.4
		C193.1,115,193.1,115.2,192.8,115.2"/>
	<path fill="#0077C0" d="M198.1,97c0,0,0.3,0.1,0.3,0.2c0,0.1,0,0.2-0.1,0.2c-0.1,0-0.4-0.1-0.3-0.3C197.9,97,198.1,97,198.1,97"/>
	<path fill="#0077C0" d="M198.7,98c0-0.1,0.1-0.8,0.7-0.5c0.6,0.4,0.5,0.1,0.7-0.1c0.1-0.2,0.1-0.3,0.4,0.1c0.3,0.5,1.1,1.3,1.3,0.7
		c0.3-0.6-0.6-0.7-0.6-1.4c0-0.7-0.6-1.5-0.9-1.5s-1.1-0.6-0.3-1.6c0.8-1,1.2-0.1,1.9-0.5c0.7-0.4,1.5,0.2,1.7,0.3
		c0.1,0.1,0.7,0.5,0.9,0.5c0.1-0.1,0.5-0.1,1.1,0.7c0.5,0.8,0.7,1.9,1.4,1.7c0.7-0.1,0.1,1,0.4,1.2c0.3,0.3,0.4,0.8,1.1,1.2
		c0.7,0.4,1.1,1.2,1.3,1.7c0.2,0.5,1.1,2,1.7,2.4c0.7,0.5,0.1,1.8-1,1.9c-1.1,0.2-1.6-0.1-1.9-0.9c-0.3-0.9-0.7-0.8-0.9-0.8
		s-0.9-0.5-0.9-0.7c-0.1-0.3-0.3-0.5-0.6-0.5c-0.3-0.1-0.7-0.5-1.1-0.5c-0.3,0-1-0.8-1-1.2s0.7-1.7-0.1-1.7s-1.8,0.2-1.3,0.7
		s1.1,2.1,1.1,2.5c-0.1,0.5,0.9,1.5,1.5,2.1c0.5,0.5,0.7,0.6,0.8,0.5c0.1-0.2-0.2-0.7,0.3-0.7c0.6,0,0.8,0.7,0.8,0.9
		c0,0.3-0.1,0.9-0.5,0.5c-0.3-0.3-1.1-0.4-0.8,0.3c0.3,0.7,0.7,0.6,1,0.6c0.4,0,0.9,0.4,0.9,1.1c0.1,0.7-0.1,1.3-0.4,0.9
		c-0.3-0.3-0.3-1.1-0.6-1.1c-0.3,0.1-0.1,0.3,0.1,0.9c0.3,0.6,0,0.8,0.7,1.1c0.7,0.3,0.1,0.9,0,1.1c-0.1,0.2-0.3,1.9-0.3,1.9
		s-0.7,0.2-0.8-0.2c-0.1-0.4-0.4-0.3-0.3-0.9c0.1-0.5,0.1-0.5-0.2-0.3c-0.3,0.1-0.7,0.7-0.9,0.8s-0.5,0-0.8,0.7
		c-0.3,0.6-0.9,1.6-0.6,2c0.3,0.5,0.5,0.4,0.4,0.9c-0.1,0.5,0,0.7,0.5,0.9c0.5,0.2,0.3,0.3,0.7,0.5c0.4,0.3,0.1,0.6-0.2,0.8
		c-0.3,0.2-0.9,0-1,0.3c-0.1,0.3-1.9,0.7-2.2,0.7s-0.5,1.5-1.5,1.3c-0.9-0.1-1.1,0.9-0.9,1.1c0.3,0.2,0.6,0.1,1-0.3
		c0.4-0.4,1.2-0.8,1.2,0.3c0.1,1.1-0.5,2.5-0.5,2.5s0.7-0.6,0.9-0.1c0.3,0.5,0.6,1,0.6,1.3c-0.1,0.3-1.1,2.1-0.7,2.7
		c0.4,0.6,1.3,1.5,0.9,2.2c-0.4,0.7-0.7,1.1-0.3,1.6c0.4,0.5-1.3,2.3-1.3,2.6c0,0.3-0.9,1.1-1.5,1.1c-0.7,0.1-1.1,0.6-1.1,0.7
		c-0.1,0.1-1.1,0.4-1.6-0.1c-0.5-0.5-1.7-0.7-1.7-1.2c-0.1-0.5-0.5-0.5-0.8-0.7c-0.3-0.3-0.6-0.3-0.6-1.7s-1.2-1.5-1.6-1.4
		c-0.5,0.1-0.5-0.4-0.5-0.9c0.1-0.5-2.5,0.5-3.9-0.2c-1.3-0.6-1.9-0.9-1.7-1.9c0.2-1,0.2-2.3,0.9-2.5s1.3-0.9,2.1-0.8
		c0.8,0.1,1.7-0.7,2.3-0.5c0.5,0.2,0.7,0,1.5,0.3c0.7,0.2,1-0.2,1.3-0.3c0.3-0.1,1.1-0.6,1.4-0.6c0.3,0,1.1-1.1,0.5-0.8
		c-0.6,0.3-1.2,0.4-1.4,0.5c-0.2,0.1-0.3,0.7-0.6,0.6c-0.3-0.1-0.7-0.6-0.8-0.6c-0.1,0-0.5-0.1-0.5,0.2c0,0.3-0.4,0.3-0.6,0.1
		c-0.3-0.2-0.5-0.4-0.9-0.3c-0.4,0.2-0.5,0.7-0.5,0.7s-1.9,0.8-2.1,0.4c-0.2-0.5-0.5-1.2,0.5-1.4c1-0.3,0.1-0.8-0.1-1
		c-0.1-0.2-0.3-0.7-0.2-0.9c0.1-0.2,0.6-0.3,0.3-0.9c-0.3-0.5-1.2-1.2-0.7-1.4c0.5-0.3,0.7,0.4,1.2,0.7c0.5,0.3,1.3-0.3,1.4-0.7
		c0.1-0.3-0.2-1.1,1.2-1.3c1.4-0.1,1-1.3,0.8-1.7c-0.2-0.5-1.1-1.7-0.7-2.3c0.4-0.6,0-1-0.3-1.2c-0.3-0.2-1-1.4-2.4-1.7
		s-0.7,0.9-1.1,1c-0.4,0.1-0.9,0.5-0.9,0.6c-0.1,0.1-1.6,1.2-0.8,1.9c0.9,0.7,0.3,1.9-0.1,2.1c-0.5,0.2-1.1,1.8-1.7,1.9
		c-0.6,0.1-0.7,0.4-0.7,0.7c0,0.3-0.5,1-0.8,0.3s-0.6-0.7-0.7-0.7s-0.4-0.2-0.4-0.5c0.1-0.3-0.1-0.4-0.4-0.4s-0.7-0.4-0.7-0.4
		s-1-0.2-1.5,0.3c-0.4,0.4-0.9,0.1-1.1-0.3c-0.3-0.3-0.7-0.8-0.2-1.1c0.4-0.3,0.7-1,0.1-1.1c-0.5-0.1-1.1,0.4-1.7,0.7
		c-0.5,0.3-0.9,0.2-0.9,0.8c-0.1,0.6-0.5,1.1,0.3,1.5c0.7,0.3,0.7,0.9,0.5,1c-0.2,0.2,0.7,1.1,0.6,1.6c-0.1,0.5-0.3,1.9,0,2.1
		c0.3,0.3,1,1.1,0.7,1.5c-0.3,0.5,0.1,1.4,0.5,1.5c0.5,0.1,2.7,2.9,2.4,3.3c-0.3,0.3-0.5,1-1.2,0.8s-1.5-0.3-1.7,0
		c-0.3,0.3-1.1,0.5-1.7,0.2c-0.5-0.3-1.2-0.5-1.5-1.1c-0.3-0.6-0.8-0.5-1.1-0.3c-0.3,0.3-1.9-0.1-2.3-0.4c-0.4-0.3-0.3-0.7-0.5-0.8
		c-0.2-0.1-1.7-1.1-1.9-1.9c-0.2-0.8-0.4-0.4-0.6-0.3c-0.1,0.1-0.7,0.1-0.9-0.4c-0.3-0.5-0.6-0.2-0.7-0.3c-0.1-0.1-0.3-0.2-0.7-0.2
		c-0.3,0-0.9,0.2-1-0.5c-0.1-0.7-0.1-0.6,0.1-0.9c0.3-0.3,0.1-0.5,0.2-0.9c0.1-0.3,0.3-0.7,0.8-0.8c0.5-0.1,0.6-0.3,0.8-0.5
		c0.3-0.2,0.9-0.4,1.7-0.1c0.9,0.3,1.5,0.5,2,0.3c0.5-0.2,0.6-0.5,0.5-1.2c-0.1-0.7,0.8-2.4,1.7-3.2c0.9-0.8,1.1,0.1,1.8,0.3
		s0.3-0.5,0.3-0.6c0-0.1-0.1-0.7,0.3-0.9c0.4-0.1,0.6-0.3,0.4-0.7c-0.3-0.3-0.3-0.8,0.4-1.1c0.7-0.3,0.5-1.1,0.6-1.3
		c0.1-0.3,0.5-1.5,1.3-1.6s0.8-0.6,0.9-0.8c0.1-0.2,0.9-1,1.5-0.9c0.6,0.1,0.9,0.4,1.3,0.3c0.3-0.1,0.9-0.2,2.1,0.5s1.3,0.6,1.5,0.3
		c0.2-0.3,0.5-0.5,1-0.5c0.5,0,0.8,0,1.1-0.5c0.3-0.5,1.7-1.9,1.6-1.1s0.8,0.5,0.9,0.1c0.1-0.5,0.6,0.5,1.5,0.3s1.6-1.1,1.8-0.5
		c0.1,0.7-0.6,1.1-0.1,1.1c0.5,0.1,1.1,0.3,1.2-0.4c0.1-0.7,1.8-2.3,2.7-2.4s2.7,1.9,3.1,1.9c0.4,0,0.7-0.6,0.7-0.1
		c0.1,0.5,0.4,0.7,0.7,0.7c0.3,0.1,0.5,0.5,0.5,0.7c0,0.3,0.8,0.7,1.2,0.5c0.4-0.1,1.5-0.3,1.4,0.3c-0.1,0.6-0.6,1.7,0.1,1.2
		c0.7-0.5,0.7-1.5,1.1-1.7c0.4-0.3-0.4-0.7-0.4-1.3c0-0.6-0.5-0.9-0.9-1c-0.4-0.1-1.2-0.6-0.4-1c0.7-0.5-0.1-0.7-0.3-1
		c-0.1-0.3-0.5-0.3-0.5,0.1c0,0.4-0.6,1.5-0.9,0.5c-0.3-1,0.7-1.2,0.7-1.7c-0.1-0.5-2.3-2.7-2.4-3C200.9,100.1,198.7,98,198.7,98"/>
	<path fill="#0077C0" d="M188.1,117.7c0,0-0.3-0.7,0.4-0.7s2.3-0.7,1.9-2.1c-0.3-1.4-0.8-1.3-0.8-1.4c0-0.1-0.7-0.7-0.9-0.2
		c-0.3,0.5-1,0.4-0.8,1.3c0.3,0.9-0.7,0.4-0.7,1.1C187.3,116.4,186.4,117.2,188.1,117.7"/>
	<path fill="#0077C0" d="M206.3,128.4c0,0,0.2-2-0.5-2.4c-0.6-0.4-1.7-0.5-1.5,0.7c0.1,1.3,0,1.9,1,2.2
		C206.4,129.3,206.3,128.4,206.3,128.4"/>
	<path fill="#0077C0" d="M178.3,114.6c0,0-0.1,0.6-0.3,0.7c-0.1,0.1-0.7,1,0.3,1C179.3,116.4,178.8,114.8,178.3,114.6"/>
	<path fill="#0077C0" d="M190.9,88.9c0,0,0.8,0.8,1.3,0.4c0.5-0.4,0.9,0.1,1.2,0.7c0.3,0.5,0.7,1.1,0.6,1.3
		c-0.1,0.3-1.4,0.4-1.4-0.1c0-0.5-0.2-0.9-0.7-0.9c-0.5-0.1-1.4,0-0.9,0.4c0.5,0.5,0.4,1-0.1,1.3c-0.4,0.4,0.1,1,0.4,1.1
		c0.3,0.1,1-0.1,0.5,0.6c-0.5,0.8-1.2,0-1.2,0C190.9,88.9,190.9,88.9,190.9,88.9"/>
	<path fill="#0077C0" d="M179,112c0,0-0.7-0.1-0.7,0.1c-0.1,0.3-0.3,0.6,0.5,0.6C179.6,112.9,179.6,112,179,112"/>
	<path fill="#0077C0" d="M184.6,113.8c0,0-0.7,0.1-0.1,0.5C185,114.4,184.8,113.7,184.6,113.8"/>
	<path fill="#0077C0" d="M193,118.9c0,0,0.2-0.7,0-0.9c-0.1-0.2-0.4-0.2-0.5,0.1C192.5,118.5,192.5,119,193,118.9"/>
	<path fill="#0077C0" d="M197.5,118.6c0,0-0.2-0.2-0.3,0.1c-0.1,0.3,0,0.5,0.5,0.6c0.5,0.1,0.6,0,0.3-0.3
		C197.9,118.6,197.5,118.6,197.5,118.6"/>
	<path fill="#0077C0" d="M195.4,120.4c0,0,0.3-0.2,0.5-0.2c0.3,0,0.3,0.5-0.1,0.5C195.5,120.9,194.5,120.8,195.4,120.4"/>
	<path fill="#0077C0" d="M198.9,107.3c0,0,0.3-0.3,0.5,0.1c0.2,0.5-0.1,0.7-0.3,0.7C198.9,108.1,198.1,107.8,198.9,107.3"/>
	<path fill="#0077C0" d="M197.9,106.6c0,0,0.3-0.1,0.2,0.1c-0.1,0.3-0.1,0.5-0.4,0.5C197.3,107.3,197.3,106.8,197.9,106.6"/>
	<path fill="#0077C0" d="M185.8,113.1c0,0,0.2-0.3,0.4-0.1c0.2,0.1,0.5,0.5,0.5,0.6c0.1,0.1,0,0.4-0.3,0.4c-0.2,0-0.6,0.3-0.7-0.1
		C185.7,113.6,185.8,113.1,185.8,113.1"/>
	<path fill="#0077C0" d="M188.5,112.6c-0.2,0.1-0.6,0-0.8-0.2c0-0.2-0.1-0.5,0.1-0.6C188.3,111.3,188.9,112.4,188.5,112.6"/>
	<path fill="#0077C0" d="M200,123.4c0,0-1.2-0.5-1.8-0.6c-0.6-0.1-1.3-0.3-0.9,0.2c0.4,0.5,1.6,0.7,1.9,0.9
		C199.5,124.1,200.9,123.8,200,123.4"/>
	<path fill="#0077C0" d="M191.2,119.7c0,0,0.1-0.5-0.1-0.6C190.9,119.1,190.7,119.4,191.2,119.7"/>
	<path fill="#0077C0" d="M164.5,92.3c-0.9,0.8-2.8,1.4-4.1,3.2c-0.5-1,0.8-3.3,2.4-4.7c1.2-1,3.5-2.6,4.1-2.7
		C167.5,89.3,165.7,91.1,164.5,92.3"/>
	<path fill="#0077C0" d="M161.9,98.7c-1.5,1.4-3.1,1.9-5.1,4.5c-0.9-3.1-0.7-5.7-0.3-7.5c0.7-2.3,1.9-5,3.9-5.8
		c-0.4,1.3-1.1,3.2-1.3,5.7c-0.9,3.5-1.4,3.5-1.2,4c0.2,0,1.3-1.8,2.7-3.2c1.7-1.7,3.7-2,5.1-3C165.5,94.1,164.3,96.3,161.9,98.7"/>
	<path fill="#0077C0" d="M154.6,113c-2-3.6-2.2-6.2-2.4-9.2c0.1-2.1,1.1-7,2.7-7.7c-0.5,4.4,0.7,4.9,0.3,8.4c0,0.2-0.5,4-0.5,4.2
		c0.6-0.1,0.1-3.5,7.1-8.4c-1.5,2.7-0.8,3.5-3.6,7.1C154.9,110.6,154.5,113.7,154.6,113"/>
	<path fill="#0077C0" d="M157.4,116.4c-1.5,2.1-1.3,3.2-1.6,4.3c-3.5-2.1-7.5-10.2-6.1-14.2c0.9,3.1,2.2,3.7,3.1,6.3
		c1.6,3.9,1.3,5.1,2.4,5.9c-0.2-2,0.5-4.4,1.1-6.1c1-1.5,1.7-3.5,2.5-4.1C159.6,111.2,159.1,113.5,157.4,116.4"/>
	<path fill="#0077C0" d="M160.6,123.3c0,3.1-0.6,4.5-0.8,6.9c-6.1-2-9.3-9-9.3-12.4c1.9,4.2,4.6,4.1,8.1,10.1
		c0.3-2.3-0.6-0.5-0.7-4.8c0.1-4.5,1.1-4.7,1.2-7.4C160.2,116.9,160.6,121.8,160.6,123.3"/>
	<path fill="#0077C0" d="M165.7,132.2c0.5,2.3,0.7,5.1,1,7.1c-3.5-1.3-4.3-0.3-8.5-2.9c-1.9-1-5.3-5.3-5.1-8.4
		c4.1,4.6,4.8,4.1,6.9,5.7c1.9,1.5,3.3,3.7,4.7,3.4c0.1-1.2-3.1-3.9-2.6-11.6C162.8,126.3,165.1,129.8,165.7,132.2"/>
	<path fill="#0077C0" d="M172.6,138c1.1,1.5,0.8,2.2,3.6,5.4c-0.7,0.3-4.6,1.3-7.3,1.5c-1.7,0-7.9-1.7-10-5.9
		c3.5,1.9,3.6,1.5,8.3,2.5c3.4,0.8,5.8,1.9,6.7,1.7c-0.2-0.5-2.8-1.5-4.6-3.8c-1.8-2.4-1.4-5.1-3-7.1
		C167.5,131.9,171.7,136.8,172.6,138"/>
	<path fill="#0077C0" d="M216.6,92.3c0.8,0.8,2.8,1.4,4.1,3.2c0.5-1-0.8-3.3-2.4-4.7c-1.1-1-3.5-2.6-4.1-2.7
		C213.6,89.3,215.5,91.1,216.6,92.3"/>
	<path fill="#0077C0" d="M219.3,98.7c1.5,1.4,3.1,1.9,5.1,4.5c0.9-3.1,0.7-5.7,0.3-7.5c-0.7-2.3-1.9-5-3.9-5.8
		c0.5,1.3,1.1,3.2,1.3,5.7c0.9,3.5,1.4,3.5,1.2,4c-0.2,0-1.3-1.8-2.7-3.2c-1.6-1.7-3.7-2-5.1-3C215.6,94.1,216.8,96.3,219.3,98.7"/>
	<path fill="#0077C0" d="M226.5,113c2.1-3.6,2.2-6.2,2.4-9.2c-0.1-2.1-1.1-7-2.6-7.7c0.4,4.4-0.7,4.9-0.3,8.4c0,0.2,0.5,4,0.5,4.2
		c-0.5-0.1-0.1-3.5-7.1-8.4c1.5,2.7,0.8,3.5,3.5,7.1C226.3,110.6,226.7,113.7,226.5,113"/>
	<path fill="#0077C0" d="M223.7,116.4c1.5,2.1,1.2,3.2,1.5,4.3c3.5-2.1,7.6-10.2,6.1-14.2c-0.9,3.1-2.2,3.7-3.1,6.3
		c-1.7,3.9-1.4,5.1-2.3,5.9c0.2-2-0.5-4.4-1.2-6.1c-0.9-1.5-1.7-3.5-2.5-4.1C221.5,111.2,222,113.5,223.7,116.4"/>
	<path fill="#0077C0" d="M220.5,123.3c0,3.1,0.6,4.5,0.9,6.9c6.1-2,9.3-9,9.3-12.4c-1.9,4.2-4.6,4.1-8.2,10.1
		c-0.3-2.3,0.6-0.5,0.7-4.8c-0.1-4.5-1-4.7-1.2-7.4C220.9,116.9,220.5,121.8,220.5,123.3"/>
	<path fill="#0077C0" d="M215.4,132.2c-0.5,2.3-0.6,5.1-1,7.1c3.5-1.3,4.3-0.3,8.4-2.9c1.9-1,5.3-5.3,5.1-8.4
		c-4.1,4.6-4.9,4.1-6.9,5.7c-1.9,1.5-3.4,3.7-4.7,3.4c-0.1-1.2,3.1-3.9,2.7-11.6C218.3,126.3,216,129.8,215.4,132.2"/>
	<path fill="#0077C0" d="M208.5,138c-1,1.5-0.7,2.2-3.6,5.4c0.7,0.3,4.6,1.3,7.3,1.5c1.7,0,7.9-1.7,9.9-5.9
		c-3.5,1.9-3.6,1.5-8.3,2.5c-3.4,0.8-5.7,1.9-6.7,1.7c0.2-0.5,2.9-1.5,4.6-3.8c1.8-2.4,1.4-5.1,3.1-7.1
		C213.6,131.9,209.4,136.8,208.5,138"/>
	<path fill="#0077C0" d="M181.8,152.4c-1-0.5-1-0.5-1-0.5s6.5-8,17.7-7.3c11.2,0.6,10.4,3.3,16.4,2.8c0.7-0.1-0.5,0.8-0.5,0.8
		s-5.9,2.3-13.1-0.2C194.1,145.6,189.4,144.1,181.8,152.4"/>
	<path fill="#0077C0" d="M199.5,152.4c1.1-0.5,1.1-0.5,1.1-0.5s-6.5-8-17.6-7.3c-11.2,0.6-10.4,3.3-16.5,2.8
		c-0.7-0.1,0.5,0.8,0.5,0.8s5.9,2.3,13.1-0.2C187.2,145.6,191.9,144.1,199.5,152.4"/>
</g>
<rect x="241.4" y="82.2" fill="#0077C0" width="1.5" height="73"/>
<g>
	<rect x="329.5" y="88.2" fill="#0077C0" width="3.4" height="16.3"/>
	<path fill="#0077C0" d="M342,92.2c-1,0-1.8,0.3-2.5,0.7c-0.3,0.3-0.7,0.7-1.1,1.3v-1.7h-3.1v12h3.1v-6.5c0-0.7,0.1-1.3,0.3-1.9
		c0.4-0.9,1.1-1.3,2.2-1.3c0.9,0,1.5,0.3,1.7,0.9c0.1,0.3,0.3,0.8,0.3,1.5v7.3h3.3v-8.1c0-1.5-0.4-2.6-1.2-3.3
		C344.2,92.5,343.2,92.2,342,92.2z"/>
	<path fill="#0077C0" d="M352.3,89.2h-3.1v3.4h-1.7v2.3h1.7v7.5c0,0.7,0.2,1.3,0.5,1.7c0.5,0.6,1.6,0.8,3.1,0.8l1.5-0.1v-2.3
		c-0.1,0-0.2,0-0.3,0s-0.2,0-0.3,0c-0.7,0-1-0.1-1.1-0.2s-0.2-0.4-0.2-0.9v-6.4h1.9v-2.3h-1.9L352.3,89.2L352.3,89.2z"/>
	<path fill="#0077C0" d="M366.2,94.5c-0.5-0.8-1.3-1.4-2.1-1.8c-0.9-0.4-1.8-0.5-2.9-0.5c-1.8,0-3.2,0.5-4.3,1.7
		c-1.1,1.1-1.7,2.7-1.7,4.8c0,2.3,0.6,3.9,1.9,4.9c1.2,1,2.7,1.5,4.3,1.5c1.9,0,3.5-0.6,4.5-1.7c0.7-0.7,1.1-1.5,1.2-2.2h-3.2
		c-0.2,0.3-0.4,0.6-0.7,0.8c-0.5,0.4-1.1,0.5-1.7,0.5s-1.3-0.1-1.7-0.5c-0.8-0.5-1.2-1.3-1.3-2.5h8.7c0-1.1,0-1.9-0.1-2.4
		C367,96.1,366.7,95.3,366.2,94.5z M358.5,97.3c0.1-0.8,0.4-1.4,0.9-1.9c0.5-0.5,1.1-0.7,1.9-0.7c0.7,0,1.4,0.2,1.9,0.7
		c0.5,0.5,0.8,1.1,0.9,1.9L358.5,97.3L358.5,97.3z"/>
	<path fill="#0077C0" d="M375.4,92.2c-0.9,0-1.7,0.3-2.3,0.7c-0.3,0.3-0.8,0.9-1.3,1.7v-2.1h-3v12h3.2v-5.8c0-1,0.1-1.7,0.3-2.1
		c0.5-0.8,1.3-1.3,2.5-1.3c0.1,0,0.2,0,0.4,0c0.1,0,0.3,0,0.5,0.1v-3.3c-0.1,0-0.2,0-0.3,0C375.4,92.2,375.4,92.2,375.4,92.2z"/>
	<rect x="377.3" y="96.7" fill="#0077C0" width="6.2" height="3"/>
	<path fill="#0077C0" d="M390.4,88.2l-5.9,16.3h3.6l1.1-3.3h6l1.1,3.3h3.7l-5.8-16.3H390.4z M390.2,98.4l2.1-6.5l2.1,6.5H390.2z"/>
	<path fill="#0077C0" d="M409.5,94.2c-0.5-0.9-1.1-1.5-1.9-1.7c-0.5-0.2-1-0.3-1.6-0.3c-1.7,0-2.9,0.6-3.8,1.9
		c-0.9,1.2-1.3,2.7-1.3,4.5c0,1.9,0.5,3.3,1.4,4.4c0.9,1.1,2.2,1.7,3.7,1.7c1,0,1.8-0.3,2.5-0.7c0.3-0.3,0.7-0.7,1-1.2v0.8
		c0,1.1-0.1,2-0.4,2.5c-0.4,0.7-1.1,1.1-2.3,1.1c-0.8,0-1.4-0.1-1.7-0.4c-0.2-0.1-0.3-0.4-0.4-0.8h-3.5c0.1,1.2,0.7,2.1,1.6,2.7
		c1,0.6,2.3,0.9,3.8,0.9c2.5,0,4.3-0.7,5.2-2.1c0.5-0.8,0.8-2,0.8-3.5V92.5h-3.1L409.5,94.2L409.5,94.2z M408.8,101.1
		c-0.5,0.5-1.1,0.9-1.9,0.9c-1.1,0-1.9-0.5-2.3-1.5c-0.3-0.5-0.3-1.2-0.3-1.9c0-0.8,0.1-1.5,0.3-2.1c0.4-1.1,1.2-1.5,2.3-1.5
		c0.8,0,1.5,0.3,1.9,0.9c0.5,0.6,0.7,1.5,0.7,2.6C409.5,99.7,409.2,100.6,408.8,101.1z"/>
	<path fill="#0077C0" d="M425.3,94.5c-0.5-0.8-1.3-1.4-2.1-1.8c-0.9-0.4-1.8-0.5-2.9-0.5c-1.8,0-3.2,0.5-4.3,1.7
		c-1.1,1.1-1.7,2.7-1.7,4.8c0,2.3,0.6,3.9,1.9,4.9c1.3,1,2.7,1.5,4.3,1.5c1.9,0,3.5-0.6,4.5-1.7c0.7-0.7,1.1-1.5,1.2-2.2h-3.2
		c-0.2,0.3-0.4,0.6-0.7,0.8c-0.5,0.4-1.1,0.5-1.7,0.5c-0.7,0-1.3-0.1-1.7-0.5c-0.8-0.5-1.2-1.3-1.3-2.5h8.8c0-1.1,0-1.9-0.1-2.4
		C426.1,96.1,425.8,95.3,425.3,94.5z M417.7,97.3c0.1-0.8,0.4-1.4,0.9-1.9c0.5-0.5,1.1-0.7,1.9-0.7c0.7,0,1.4,0.2,1.9,0.7
		c0.5,0.5,0.8,1.1,0.9,1.9L417.7,97.3L417.7,97.3z"/>
	<path fill="#0077C0" d="M434.6,92.2c-1,0-1.8,0.3-2.5,0.7c-0.3,0.3-0.7,0.7-1.1,1.3v-1.7h-3.1v12h3.1v-6.5c0-0.7,0.1-1.3,0.3-1.9
		c0.4-0.9,1.1-1.3,2.2-1.3c0.9,0,1.5,0.3,1.7,0.9c0.2,0.3,0.3,0.8,0.3,1.5v7.3h3.3v-8.1c0-1.5-0.4-2.6-1.2-3.3
		C436.8,92.5,435.8,92.2,434.6,92.2z"/>
	<path fill="#0077C0" d="M446.2,94.9c0.7,0,1.3,0.3,1.7,0.7c0.3,0.3,0.4,0.8,0.5,1.2h3.3c-0.2-1.7-0.7-2.9-1.7-3.6
		c-0.9-0.7-2.2-1-3.7-1c-1.8,0-3.2,0.6-4.2,1.7c-1,1.1-1.5,2.8-1.5,4.9c0,1.9,0.5,3.3,1.4,4.5c0.9,1.1,2.3,1.7,4.3,1.7
		s3.4-0.7,4.4-2.1c0.6-0.9,1-1.8,1.1-2.7h-3.2c-0.1,0.7-0.3,1.1-0.6,1.5c-0.3,0.4-0.9,0.6-1.6,0.6c-1.1,0-1.7-0.5-2.1-1.5
		c-0.2-0.5-0.3-1.3-0.3-2.1c0-0.9,0.1-1.7,0.3-2.3C444.4,95.4,445.1,94.9,446.2,94.9z"/>
	<path fill="#0077C0" d="M458.1,101.4l-2.7-8.9h-3.5l4.5,12.6c0,0.1-0.1,0.3-0.2,0.7c-0.1,0.4-0.3,0.7-0.5,0.8
		c-0.2,0.1-0.4,0.2-0.7,0.3c-0.3,0.1-0.6,0.1-0.9,0.1h-0.4v2.5c0.3,0,0.6,0.1,0.8,0.1c0.2,0,0.4,0,0.7,0c1.4,0,2.3-0.3,2.8-0.8
		c0.5-0.5,1.1-2,1.9-4.3l4.1-11.8h-3.3L458.1,101.4z"/>
</g>
<g>
	<path fill="#0077C0" d="M335.8,114.9c1.2,0,2.1,0.3,2.7,1.1c0.3,0.4,0.6,1,0.9,1.8h3.4c-0.1-1-0.4-2.1-1.1-3.1
		c-1.3-1.8-3.3-2.7-6-2.7c-2.1,0-3.7,0.7-5,2c-1.5,1.5-2.3,3.7-2.3,6.6c0,2.7,0.7,4.7,2,6.3c1.3,1.5,3.1,2.3,5.5,2.3
		c1.9,0,3.4-0.5,4.6-1.7c1.2-1.1,1.9-2.6,2.3-4.3h-3.4c-0.2,0.9-0.5,1.5-0.9,1.9c-0.6,0.8-1.5,1.2-2.7,1.2c-1.1,0-2.1-0.5-2.8-1.4
		c-0.7-0.9-1.1-2.3-1.1-4.1s0.3-3.3,1.1-4.3C333.6,115.4,334.6,114.9,335.8,114.9z"/>
	<path fill="#0077C0" d="M350.1,116.2c-2.1,0-3.6,0.7-4.7,1.9c-1,1.3-1.5,2.8-1.5,4.5c0,1.8,0.5,3.3,1.5,4.5c1,1.3,2.6,1.9,4.7,1.9
		c2.1,0,3.6-0.6,4.7-1.9c1-1.3,1.5-2.8,1.5-4.5c0-1.7-0.5-3.3-1.5-4.5C353.7,116.8,352.2,116.2,350.1,116.2z M352.2,125.4
		c-0.5,0.7-1.2,1-2.1,1c-0.9,0-1.7-0.3-2.1-1c-0.5-0.7-0.7-1.6-0.7-2.8c0-1.2,0.3-2.1,0.7-2.8c0.5-0.7,1.2-1,2.1-1
		c0.9,0,1.7,0.3,2.1,1c0.5,0.7,0.7,1.6,0.7,2.8C353,123.8,352.7,124.7,352.2,125.4z"/>
	<path fill="#0077C0" d="M363.6,116.2c-2.1,0-3.6,0.7-4.7,1.9c-1,1.3-1.5,2.8-1.5,4.5c0,1.8,0.5,3.3,1.5,4.5c1,1.3,2.6,1.9,4.7,1.9
		c2.1,0,3.6-0.6,4.7-1.9c1-1.3,1.5-2.8,1.5-4.5c0-1.7-0.5-3.3-1.5-4.5C367.2,116.8,365.7,116.2,363.6,116.2z M365.8,125.4
		c-0.5,0.7-1.2,1-2.1,1c-0.9,0-1.6-0.3-2.1-1c-0.5-0.7-0.7-1.6-0.7-2.8c0-1.2,0.3-2.1,0.7-2.8c0.5-0.7,1.2-1,2.1-1
		c0.9,0,1.6,0.3,2.1,1c0.5,0.7,0.7,1.6,0.7,2.8C366.5,123.8,366.2,124.7,365.8,125.4z"/>
	<path fill="#0077C0" d="M378.3,116.3c-0.9,0-1.7,0.3-2.3,0.7c-0.3,0.3-0.8,0.9-1.3,1.7v-2.1h-3v12h3.2v-5.8c0-1,0.1-1.7,0.4-2.1
		c0.5-0.8,1.3-1.3,2.5-1.3c0.1,0,0.2,0,0.4,0c0.1,0,0.3,0,0.5,0.1v-3.3c-0.1,0-0.2,0-0.3,0C378.3,116.3,378.3,116.3,378.3,116.3z"/>
	<path fill="#0077C0" d="M388,118.1c-0.3-0.6-0.8-1-1.4-1.3c-0.6-0.3-1.2-0.5-1.9-0.5c-1.6,0-2.9,0.6-3.8,1.8
		c-0.9,1.2-1.4,2.8-1.4,4.9c0,1.8,0.5,3.3,1.5,4.4c0.9,1.1,2.1,1.7,3.6,1.7c0.9,0,1.6-0.1,2.1-0.5c0.6-0.3,1.1-0.9,1.5-1.6v1.7h3.1
		v-16.3h-3.2L388,118.1L388,118.1z M387.3,125.3c-0.5,0.7-1.1,1-2.1,1c-0.9,0-1.5-0.3-2-1s-0.7-1.5-0.7-2.7c0-1.1,0.2-1.9,0.7-2.6
		c0.5-0.7,1.1-1.1,2.1-1.1c0.6,0,1.1,0.2,1.6,0.6c0.7,0.7,1.1,1.7,1.1,3.2C388.1,123.8,387.8,124.7,387.3,125.3z"/>
	<rect x="393.7" y="116.6" fill="#0077C0" width="3.2" height="12"/>
	<rect x="393.7" y="112.2" fill="#0077C0" width="3.2" height="2.9"/>
	<path fill="#0077C0" d="M406.3,116.3c-1,0-1.8,0.3-2.5,0.7c-0.3,0.3-0.7,0.7-1.1,1.3v-1.7h-3.1v12h3.1v-6.5c0-0.7,0.1-1.3,0.3-1.9
		c0.4-0.9,1.1-1.3,2.2-1.3c0.9,0,1.5,0.3,1.7,0.9c0.1,0.3,0.3,0.8,0.3,1.5v7.3h3.3v-8.1c0-1.5-0.4-2.6-1.2-3.3
		C408.6,116.6,407.6,116.3,406.3,116.3z"/>
	<path fill="#0077C0" d="M423,126.9c0-0.5,0-1,0-1.4V120c0-1.5-0.5-2.5-1.5-3c-1-0.5-2.2-0.8-3.5-0.8c-2.1,0-3.5,0.5-4.3,1.6
		c-0.5,0.7-0.8,1.5-0.9,2.6h3.1c0.1-0.5,0.2-0.9,0.5-1.1c0.3-0.4,0.9-0.5,1.6-0.5c0.7,0,1.2,0.1,1.5,0.3c0.3,0.2,0.5,0.5,0.5,1
		c0,0.4-0.2,0.7-0.7,0.9c-0.3,0.1-0.7,0.2-1.3,0.3l-1.1,0.1c-1.2,0.1-2.1,0.4-2.8,0.8c-1.1,0.7-1.7,1.7-1.7,3.2c0,1.1,0.3,2,1.1,2.7
		c0.7,0.6,1.6,0.9,2.7,0.9c0.9,0,1.7-0.2,2.3-0.6c0.6-0.3,1.1-0.7,1.5-1.2c0,0.3,0.1,0.5,0.1,0.7c0.1,0.2,0.1,0.5,0.2,0.7h3.5V128
		c-0.2-0.1-0.3-0.2-0.5-0.4C423.1,127.7,423,127.4,423,126.9z M419.8,123.9c0,1.1-0.3,1.8-0.9,2.2s-1.2,0.6-1.9,0.6
		c-0.4,0-0.8-0.1-1.1-0.3c-0.3-0.3-0.5-0.7-0.5-1.2c0-0.6,0.3-1.1,0.7-1.3c0.3-0.2,0.8-0.3,1.5-0.5l0.7-0.1c0.3-0.1,0.7-0.1,0.9-0.2
		c0.2-0.1,0.4-0.2,0.6-0.3L419.8,123.9L419.8,123.9z"/>
	<path fill="#0077C0" d="M429.1,113.3H426v3.4h-1.7v2.3h1.7v7.5c0,0.7,0.2,1.3,0.5,1.7c0.5,0.6,1.5,0.8,3.1,0.8l1.5-0.1v-2.4
		c-0.1,0-0.2,0-0.3,0c-0.1,0-0.2,0-0.3,0c-0.7,0-1-0.1-1.1-0.2c-0.1-0.1-0.2-0.4-0.2-0.9v-6.4h1.9v-2.3h-1.9V113.3z"/>
	<rect x="433.2" y="116.6" fill="#0077C0" width="3.2" height="12"/>
	<rect x="433" y="112.2" fill="#0077C0" width="3.2" height="2.9"/>
	<path fill="#0077C0" d="M444.1,116.2c-2.1,0-3.6,0.7-4.7,1.9c-1,1.3-1.5,2.8-1.5,4.5c0,1.8,0.5,3.3,1.5,4.5c1,1.3,2.6,1.9,4.7,1.9
		s3.6-0.6,4.7-1.9c1-1.3,1.5-2.8,1.5-4.5c0-1.7-0.5-3.3-1.5-4.5C447.7,116.8,446.1,116.2,444.1,116.2z M446.2,125.4
		c-0.5,0.7-1.2,1-2.1,1s-1.7-0.3-2.1-1c-0.5-0.7-0.7-1.6-0.7-2.8c0-1.2,0.3-2.1,0.7-2.8c0.5-0.7,1.2-1,2.1-1s1.7,0.3,2.1,1
		c0.5,0.7,0.7,1.6,0.7,2.8C446.9,123.8,446.7,124.7,446.2,125.4z"/>
	<path fill="#0077C0" d="M461.4,117.2c-0.8-0.7-1.8-1-3.1-1c-1,0-1.8,0.3-2.5,0.7c-0.3,0.3-0.7,0.7-1.1,1.3v-1.7h-3.1v12h3.1v-6.5
		c0-0.7,0.1-1.3,0.3-1.9c0.4-0.9,1.1-1.3,2.2-1.3c0.9,0,1.5,0.3,1.7,0.9c0.2,0.3,0.3,0.8,0.3,1.5v7.3h3.3v-8.1
		C462.6,119,462.2,117.9,461.4,117.2z"/>
</g>
<g>
	<polygon fill="#0077C0" points="330.8,135.1 329.5,135.1 329.5,149.3 338.4,149.3 338.4,148.1 330.8,148.1 	"/>
	<path fill="#0077C0" d="M346.3,140.2c-0.8-0.9-1.9-1.5-3.3-1.5c-0.7,0-1.4,0.1-2,0.4s-1.1,0.7-1.5,1.1s-0.7,1.1-0.9,1.7
		c-0.2,0.7-0.3,1.3-0.3,2.1c0,0.7,0.1,1.5,0.3,2.1c0.2,0.7,0.5,1.2,0.9,1.7s0.9,0.9,1.5,1.1c0.6,0.3,1.3,0.4,2.1,0.4
		c0.7,0,1.2-0.1,1.7-0.3c0.5-0.2,0.9-0.4,1.3-0.7c0.3-0.3,0.7-0.7,0.9-1.1c0.3-0.4,0.4-0.9,0.6-1.3h-1.3c-0.2,0.7-0.5,1.3-1.1,1.7
		c-0.5,0.4-1.2,0.6-2,0.6c-0.6,0-1.1-0.1-1.5-0.3c-0.5-0.2-0.8-0.5-1.1-0.9c-0.3-0.3-0.5-0.8-0.7-1.3c-0.1-0.5-0.2-1-0.2-1.5h7.9
		C347.5,142.6,347.1,141.2,346.3,140.2z M339.6,143.4c0.1-0.5,0.1-0.9,0.3-1.4c0.2-0.4,0.4-0.8,0.7-1.1c0.3-0.3,0.6-0.6,1-0.8
		c0.4-0.2,0.9-0.3,1.4-0.3s1,0.1,1.4,0.3c0.4,0.2,0.7,0.5,1,0.8c0.3,0.3,0.5,0.7,0.6,1.1c0.1,0.5,0.2,0.9,0.2,1.4H339.6z"/>
	<path fill="#0077C0" d="M357.4,140.4c-0.4-0.5-0.9-0.9-1.4-1.2c-0.6-0.3-1.3-0.5-2-0.5c-0.7,0-1.4,0.1-2.1,0.5
		c-0.7,0.3-1.2,0.8-1.5,1.4V135h-1.2v14.2h1.2v-1.8h0.1c0.2,0.3,0.4,0.7,0.7,0.9c0.3,0.3,0.5,0.5,0.9,0.7s0.7,0.3,1,0.4
		c0.3,0.1,0.7,0.1,1,0.1c0.8,0,1.5-0.1,2.1-0.4c0.6-0.3,1.1-0.7,1.4-1.1c0.4-0.5,0.7-1.1,0.8-1.7c0.2-0.7,0.3-1.3,0.3-2.1
		c0-0.7-0.1-1.4-0.3-2.1C358.1,141.5,357.8,140.9,357.4,140.4z M357,146.2c-0.2,0.5-0.4,0.9-0.7,1.3c-0.3,0.3-0.7,0.6-1.1,0.8
		c-0.4,0.2-0.9,0.3-1.4,0.3c-0.5,0-1.1-0.1-1.5-0.3s-0.8-0.5-1.1-0.9c-0.3-0.4-0.5-0.9-0.7-1.4s-0.2-1.1-0.2-1.7s0.1-1.1,0.2-1.7
		c0.1-0.5,0.4-1,0.7-1.3c0.3-0.4,0.7-0.7,1.1-0.9c0.4-0.2,0.9-0.3,1.5-0.3c0.6,0,1.1,0.1,1.6,0.3c0.5,0.3,0.8,0.6,1.1,1
		c0.3,0.4,0.5,0.9,0.6,1.5c0.1,0.5,0.2,1.1,0.1,1.8C357.3,145.1,357.2,145.7,357,146.2z"/>
	<path fill="#0077C0" d="M368.4,148.4c-0.1-0.1-0.3-0.4-0.3-0.9V142c0-0.6-0.1-1.1-0.3-1.5c-0.2-0.4-0.5-0.7-0.8-1
		c-0.3-0.3-0.7-0.4-1.2-0.5c-0.5-0.1-0.9-0.1-1.5-0.1s-1.1,0.1-1.5,0.2c-0.5,0.1-0.9,0.3-1.3,0.6c-0.4,0.3-0.7,0.6-0.9,1.1
		c-0.3,0.4-0.4,0.9-0.4,1.5h1.2c0.1-0.5,0.1-0.8,0.3-1.1c0.1-0.3,0.4-0.5,0.6-0.7c0.3-0.2,0.5-0.3,0.9-0.4c0.3-0.1,0.7-0.1,1.1-0.1
		c0.9,0,1.6,0.2,1.9,0.6c0.4,0.4,0.6,0.9,0.6,1.5c0,0.2,0,0.4-0.1,0.6c-0.1,0.2-0.2,0.4-0.3,0.5c-0.2,0.1-0.5,0.1-0.7,0.2
		c-0.3,0.1-0.6,0.1-0.8,0.1l-1.7,0.2c-2.4,0.3-3.5,1.3-3.5,3.1c0,0.5,0.1,0.9,0.3,1.3c0.2,0.3,0.4,0.7,0.7,0.9s0.7,0.5,1.1,0.5
		c0.4,0.1,0.9,0.2,1.3,0.2c0.7,0,1.5-0.1,2.1-0.4c0.7-0.3,1.2-0.7,1.7-1.3c0,0.2,0,0.3,0.1,0.5c0,0.1,0.1,0.3,0.1,0.5
		c0.1,0.1,0.2,0.3,0.3,0.3c0.1,0.1,0.3,0.1,0.5,0.2c0.2,0.1,0.3,0.1,0.5,0.1c0.2,0,0.3,0,0.5-0.1c0.2-0.1,0.3-0.1,0.4-0.1v-0.9
		C368.8,148.5,368.5,148.5,368.4,148.4z M366.9,145.5c0,0.5-0.1,0.9-0.3,1.3s-0.5,0.7-0.9,0.9c-0.3,0.3-0.7,0.4-1.2,0.5
		c-0.5,0.1-0.9,0.2-1.4,0.2c-0.3,0-0.5-0.1-0.8-0.1c-0.3-0.1-0.5-0.2-0.7-0.3c-0.2-0.1-0.4-0.3-0.5-0.6c-0.1-0.2-0.2-0.5-0.2-0.8
		c0-0.7,0.3-1.2,0.7-1.5c0.5-0.3,1.2-0.5,2.1-0.6c0.5-0.1,1-0.1,1.5-0.1c0.5-0.1,1-0.2,1.5-0.4L366.9,145.5L366.9,145.5z"/>
	<path fill="#0077C0" d="M378.3,140.2c-0.4-0.5-0.8-0.9-1.3-1.1c-0.5-0.2-1.1-0.3-1.7-0.3c-0.7,0-1.3,0.1-1.8,0.5
		c-0.5,0.3-1,0.7-1.5,1.2V139h-1.2v10.2h1.2v-5.5c0-0.3,0-0.7,0.1-1c0-0.3,0.1-0.6,0.2-0.9c0.1-0.3,0.2-0.5,0.4-0.7
		c0.2-0.3,0.4-0.5,0.6-0.6c0.3-0.2,0.5-0.3,0.8-0.5c0.3-0.1,0.7-0.2,1-0.2c0.9,0,1.6,0.2,2,0.7s0.6,1.1,0.6,2.1v6.7h1.2v-6.7
		c0-0.4,0-0.8-0.1-1.2C378.7,141,378.6,140.6,378.3,140.2z"/>
	<path fill="#0077C0" d="M388.5,140.4c-0.4-0.5-0.9-0.9-1.5-1.1c-0.6-0.3-1.3-0.4-2.1-0.4s-1.5,0.1-2.1,0.4
		c-0.6,0.3-1.1,0.7-1.5,1.1c-0.4,0.5-0.7,1.1-0.9,1.7c-0.2,0.7-0.3,1.3-0.3,2.1c0,0.9,0.1,1.7,0.4,2.3c0.3,0.7,0.6,1.2,1,1.7
		c0.4,0.5,0.9,0.8,1.5,1c0.6,0.2,1.2,0.3,1.9,0.3c0.7,0,1.3-0.1,1.9-0.4s1.1-0.6,1.5-1.1c0.4-0.5,0.7-1.1,0.9-1.7
		c0.2-0.7,0.3-1.4,0.3-2.2c0-0.7-0.1-1.5-0.3-2.1C389.3,141.4,388.9,140.8,388.5,140.4z M388.3,145.8c-0.1,0.5-0.3,1-0.6,1.4
		c-0.3,0.4-0.7,0.7-1.1,1c-0.5,0.3-1,0.3-1.6,0.3c-0.5,0-1.1-0.1-1.5-0.3c-0.5-0.2-0.8-0.5-1.1-0.9c-0.3-0.4-0.5-0.9-0.7-1.4
		s-0.2-1.1-0.2-1.7c0-0.5,0.1-1.1,0.2-1.6s0.3-1,0.6-1.4c0.3-0.4,0.7-0.7,1.1-0.9c0.5-0.3,0.9-0.3,1.6-0.3c0.6,0,1.1,0.1,1.6,0.3
		s0.8,0.5,1.1,0.9c0.3,0.4,0.5,0.9,0.6,1.4c0.1,0.5,0.2,1.1,0.2,1.7C388.5,144.7,388.4,145.2,388.3,145.8z"/>
	<path fill="#0077C0" d="M399.3,141.4c-0.1-0.4-0.2-0.7-0.5-1.1c-0.3-0.5-0.8-0.9-1.3-1.1s-1.1-0.3-1.7-0.3c-0.7,0-1.3,0.1-1.8,0.5
		c-0.5,0.3-1,0.7-1.5,1.2V139h-1.2v10.2h1.2v-5.5c0-0.3,0-0.7,0.1-1c0-0.3,0.1-0.6,0.2-0.9c0.1-0.3,0.2-0.5,0.4-0.7
		c0.2-0.3,0.4-0.5,0.6-0.6c0.3-0.2,0.5-0.3,0.8-0.5c0.3-0.1,0.6-0.2,1-0.2c0.9,0,1.6,0.2,2,0.7s0.6,1.1,0.6,2.1v6.7h1.2v-6.7
		C399.4,142.2,399.4,141.8,399.3,141.4z"/>
</g>
<path fill="#0077C0" d="M309,131.9c-2.4-1.3-4.5-2.3-4.6-2.7c-0.3-0.6,1.1-2,2.4-2.3c2.4-0.5,6.3,3.4,7.9,1.2
	c0.1-0.2-1.1-1.1-2.8-2.5c-1.7-1.3-3.8-2.9-5.7-3.9c-1.9-1-4.6,0.1-4.6-1.6c0-2.1,9.8,0.1,10.3-1.4c0.1-0.4-1.7-1-4.1-1.5
	c-2.1-0.5-4.5-0.9-5.8-1.4c-1.7-0.7,0.2-1.8,0.6-1.8c1.7,0,3.3,0.9,4.5,1c2.7,0.3,3.3-0.1,3.5-0.3c0.2-0.3-1.8-0.8-4.5-2.3
	c-2.8-1.5-6.3-4.1-8.6-5.9c-1-0.8-3.3-1.3-3.3-2.1c0.1-0.4,1.1-1,1.7-0.9c0.4,0.1,1.1,0.5,2,0.7c1.9,0.5,4.4,0.8,5.2,0.5
	c0.9-0.3-2-1.4-4.4-2.6c-1.7-0.9-3.2-1.8-2.7-2c1.2-0.5,4.4,0.7,4.4-0.1c0-1.5-4.1-3.3-8.3-4.9c-1.5-0.6-3.1-0.6-4.4-1.3
	c-2.9-1.6-4.3-5.1-4.5-5.8c-0.7,1.5-1.7,2.8-2.8,3.9c-2.7,2.7-6.1,4.3-6.1,4.9c0,1.2,2.9-1.9,3.9-0.8c1,1.2-7.9,3.7-7.4,5.5
	c0.1,0.2,1-0.3,2.1-0.1c0.3,0,1,0.3,1.1,1c0.1,1.2-1.4,0.6-3.3,1.6c-1.1,0.6-1.3,1.9-2.6,2.7c-1.3,0.8-2.7,1.3-4,1.9
	c-1.8,0.9-3.2,1.8-3.2,2.4c0,0.4,1.1,0.4,2.6,0.2c0.9-0.1,1.9-0.5,2.8-0.5c0.7,0,1.5,1.8,1.4,2.7c-0.1,1.2-1.3,2.3-2.7,3.3
	c-0.7,0.5-1.8,0-2.7,0.5c-3.5,1.8-6.9,4.9-6.5,5.6c0.1,0.2,1,0.3,2.2,0.1c1.8-0.4,4-1.7,4.9-1.7c1.1,0,1.7,1.4,1.7,2
	c0,0.3-1.1,1.1-2.7,2c-0.9,0.5-1.9,0.7-2.9,1.3c-1.9,1-3.2,3-4.8,4c-1.7,1.1-3.5,1.1-3.5,1.6c0.1,0.5,4.5,1.9,8.7-0.7
	c4.8-3,7-2.3,7.4-1.9c1.3,1.2-1.6,2.9-4.9,4.1c-3.7,1.3-8.4,1.7-7.9,2.9c0.5,1.3,5.4,1,10.2-0.8c2.7-1,5.5-2.1,7.6-2.7
	c0.7-0.2,3.1,1,3.7,3.2c0.1,0.5,0.3,2.7-5.3,8.5c-0.1,0.1-2.4,0.4-4.4,1.4c-0.8,0.4-1.5,1.3-2.1,1.7c-0.7,0.5-1.1,1-1.1,1.5
	c0.3,0,0.9-1,2.8-1.7c0.8-0.3,1.7-0.5,2.6-0.8c1.7-0.5,3.2-0.9,3.5-1c1.4-0.2,2.8-2.8,6.9-3c0.7-0.1,1.3,0.4,1.7,0.5
	c0.6,0.1,1.9-0.3,2.4-0.2c0.8,0.1,0.6,0.7,1.1,1.1c0.5,0.3,4.3,4.4,5.4,4.4c0.9,0-0.9-1.8-1.2-2.9c-0.2-0.5,0.1-1.3,0.7-0.9
	c0.8,0.5,1.7,0.8,2.6,0.9c0.5,0,0.9-0.3,1.3-0.1c2.4,1.4,3.4,3.8,6,3.8c0.2,0,0.7-0.2,0.6-0.6c-0.1-1.3-5.6-4.1-6.8-6.2
	c-2.4-4.1-2.5-10.3,1.1-10.3c2.4,0,3.1,1.5,4.6,1.7c2.3,0.2,5.2-0.1,7.3,0.2c3.7,0.5,6.7,2.6,9,3.5c1.3,0.5,2.7,0.6,3,0
	C317.7,136.7,312.9,134,309,131.9z M286.9,100.8c0.9,0,1.1,1,0.8,1.6c-0.2,0.5-0.7,0.4-1.1,0.4c-1-0.1-1.3-0.3-1.4-0.7
	C285.1,101.5,286.5,100.8,286.9,100.8z M284,109c-0.4,0.1-3,0.3-3-0.3c0-0.4,0.6-0.6,1.3-0.9c0.7-0.3,1.6-0.5,2.2-0.3
	C285.2,107.6,284.7,108.8,284,109z M278.2,103c0.9,0,0.8,1.2,0.5,1.8c-0.3,0.7-2.5,2.2-3.3,2.2c-0.9,0-1.1-0.6-0.9-1
	C275,105.4,277.4,103,278.2,103z M276.4,99.9c1.9,0.6-0.1,2.5-0.5,2.5C272.9,102.3,274.8,99.7,276.4,99.9z M269.3,121.7
	c-1.2,0.1-2.3,0.6-2.9,0.6c-0.5,0-2.1-1.6-1.7-2.3c0.3-0.4,1-0.3,1.9-0.4c0.6,0,1.3-0.2,1.9-0.1c0.5,0,1,0.1,1.3,0.1
	c1.3,0,2.3-0.5,2.3,0.3C272.1,120.7,270.8,121.6,269.3,121.7z M270.2,112.5c-1.1,0-2.5-1.3-2.5-2.3c0-0.9,1.5-0.9,2.7-0.7
	c0.7,0.1,1.9,1.1,1.9,1.9C272.3,112.4,271.4,112.5,270.2,112.5z M275.1,129.5c-1.1,0-2.3-1.7-2.3-3.3c0-1.2,1.1-0.5,1.6-0.1
	c0.6,0.5,1.1,1.7,1.1,2.2C275.6,128.9,275.7,129.5,275.1,129.5z M273.8,111.3c-0.5,0-1.1-1-1.1-1.9s1.8-1.1,2.9-0.7
	C276.7,109,275,111.2,273.8,111.3z M276.1,116.7c0-0.7,0.5-0.7,0.8-0.7c0.7,0,1.8,1,1.4,1.5C277.9,118.1,276.1,117.3,276.1,116.7z
	 M279.2,129.3c-0.7,0-1.3-0.3-1.3-1.2c0-0.8,0.5-1.4,0.9-1.4c0.4,0,0.9,0.7,0.9,1.5C279.8,128.9,279.6,129.3,279.2,129.3z
	 M280.2,102.7c0.4-0.7,2.1-1.6,2.9-1.6s1.1,1,0.8,1.6c-0.3,0.7-2.5,1-3.3,1C279.7,103.6,280,103,280.2,102.7z M280.8,115.9
	c0-0.6,0.4-1.1,0.8-1.1c0.4,0,0.7,0.5,0.7,1.1c0,0.6-0.3,1.1-0.7,1.1C281.2,117,280.8,116.6,280.8,115.9z M282.7,129.3
	c-0.7,0-0.9-0.5-0.9-1.3c0-0.8-0.4-1.7,0-1.7c0.5,0,0.9,0.3,1.5,0.5c0.5,0.2,1.1,0.2,1.1,0.6C284.5,128,283.7,129.3,282.7,129.3z
	 M285.4,119.5c-0.7,0-1.9-0.9-1.9-1.9c0-1,0.7-1.3,1.1-1.3c0.9,0,1.1,0.8,1.3,1.6C286.1,118.9,285.9,119.5,285.4,119.5z
	 M288.1,119.9c-0.7,0-1.5-1.3-1.5-2.2c0-0.9,1-0.3,1.3,0.1C288.5,118.6,288.8,119.9,288.1,119.9z M287.9,109.2
	c-0.4,0.1-2.1,0.1-2.1-0.1c0-0.4,0.9-1.9,1.6-2.1c0.3-0.1,1,0.2,1.3,0.7C289.1,108.5,288.5,109,287.9,109.2z M288.9,102.5
	c0-0.5,1-0.7,1.4-0.7c0.9,0,1.1,0.6,0.8,1.2c-0.2,0.5-0.7,0.4-1.1,0.4C289,103.2,288.9,102.9,288.9,102.5z M289.5,109.9
	c0.1-0.4,1.4-1.7,2.1-1.7c0.8,0,2.3,1,2.7,1.5c0.5,0.8-0.2,0.8-0.9,1C293,110.8,289.3,111.3,289.5,109.9z M296.3,125.9
	c-1.5,0-2.7-0.3-2.7-1.3s1.9-1.9,3.3-1.9s2.1,1,2.1,1.6C299.1,125.3,297.7,125.9,296.3,125.9z M298.3,115.5
	c-0.4,0.1-2.7,0.1-2.7-1.1c0-0.4,0.7-1.3,1.4-1.3c0.8,0,1.6,0.7,1.9,1.1C299.4,115.1,299,115.3,298.3,115.5z M302.6,127.5
	c-1.5,0-2.6-0.6-2.6-1.3c0-0.9,1.1-1.9,2.6-1.9s2.6,0.7,2.6,1.3C305.2,126.7,304,127.5,302.6,127.5z"/>
</svg>
