<?xml version="1.0" encoding="utf-8"?>
<!-- Generator: Adobe Illustrator 18.0.0, SVG Export Plug-In . SVG Version: 6.00 Build 0)  -->
<!DOCTYPE svg PUBLIC "-//W3C//DTD SVG 1.1//EN" "http://www.w3.org/Graphics/SVG/1.1/DTD/svg11.dtd">
<svg version="1.1" id="Layer_1" xmlns="http://www.w3.org/2000/svg" xmlns:xlink="http://www.w3.org/1999/xlink" x="0px" y="0px"
	 viewBox="0 0 448.5 230.3" enable-background="new 0 0 448.5 230.3" xml:space="preserve">
<g>
	<rect x="241.7" y="17.7" fill-rule="evenodd" clip-rule="evenodd" fill="#0077C0" width="2.2" height="109.8"/>
	<g>
		<g>
			<rect x="22.4" y="146" fill="#0077C0" width="5.1" height="24.5"/>
			<path fill="#0077C0" d="M41.2,152c-1.5,0-2.7,0.4-3.7,1.1c-0.5,0.4-1.1,1.1-1.7,2v-2.6h-4.6v18.1H36v-9.8c0-1.1,0.2-2,0.5-2.8
				c0.6-1.4,1.7-2,3.3-2c1.3,0,2.2,0.5,2.6,1.4c0.2,0.5,0.4,1.2,0.4,2.2v11h4.9v-12.2c0-2.3-0.6-3.9-1.8-4.9
				C44.6,152.5,43.1,152,41.2,152z"/>
			<path fill="#0077C0" d="M56.7,147.5H52v5.1h-2.5v3.4H52v11.2c0,1.1,0.3,2,0.8,2.5c0.8,0.9,2.4,1.2,4.6,1.2l2.2-0.1v-3.5
				c-0.2,0-0.3,0-0.5,0c-0.2,0-0.3,0-0.5,0c-1,0-1.5-0.1-1.7-0.3c-0.2-0.2-0.3-0.6-0.3-1.4V156h2.9v-3.4h-2.9V147.5z"/>
			<path fill="#0077C0" d="M77.6,155.5c-0.8-1.2-1.9-2.1-3.1-2.7c-1.3-0.6-2.7-0.8-4.3-0.8c-2.7,0-4.8,0.8-6.5,2.5
				c-1.7,1.7-2.5,4.1-2.5,7.2c0,3.4,0.9,5.8,2.8,7.3c1.8,1.5,4,2.2,6.4,2.2c2.9,0,5.2-0.9,6.8-2.6c1-1.1,1.6-2.2,1.8-3.3h-4.8
				c-0.3,0.5-0.6,0.9-1,1.2c-0.7,0.6-1.6,0.8-2.6,0.8c-1,0-1.9-0.2-2.6-0.7c-1.2-0.7-1.8-2-1.9-3.8h13.2c0-1.6,0-2.8-0.2-3.6
				C78.9,157.8,78.4,156.6,77.6,155.5z M66.1,159.7c0.2-1.2,0.6-2.1,1.3-2.8c0.7-0.7,1.6-1,2.8-1c1.1,0,2.1,0.3,2.8,1
				c0.8,0.7,1.2,1.6,1.3,2.9H66.1z"/>
			<path fill="#0077C0" d="M91.4,152c-1.4,0-2.6,0.4-3.5,1.1c-0.5,0.4-1.2,1.3-1.9,2.5v-3.2h-4.5v18.1h4.8v-8.7
				c0-1.5,0.2-2.5,0.5-3.2c0.7-1.2,1.9-1.9,3.8-1.9c0.1,0,0.3,0,0.6,0c0.2,0,0.5,0,0.8,0.1V152c-0.2,0-0.3,0-0.4,0
				C91.5,152,91.5,152,91.4,152z"/>
			<rect x="94.4" y="158.8" fill="#0077C0" width="9.3" height="4.5"/>
			<path fill="#0077C0" d="M114,146l-8.8,24.5h5.4l1.7-5h9l1.6,5h5.6l-8.7-24.5H114z M113.7,161.3l3.2-9.7l3.1,9.7H113.7z"/>
			<path fill="#0077C0" d="M142.7,155c-0.7-1.3-1.6-2.2-2.8-2.6c-0.7-0.3-1.5-0.4-2.4-0.4c-2.5,0-4.4,0.9-5.7,2.8
				c-1.3,1.8-2,4.1-2,6.8c0,2.8,0.7,5,2.1,6.6c1.4,1.6,3.3,2.5,5.6,2.5c1.5,0,2.7-0.4,3.7-1.1c0.5-0.4,1-1,1.5-1.8v1.2
				c0,1.7-0.2,3-0.6,3.7c-0.6,1.1-1.7,1.7-3.4,1.7c-1.2,0-2.1-0.2-2.6-0.6c-0.3-0.2-0.5-0.6-0.6-1.2h-5.2c0.2,1.8,1,3.2,2.4,4.1
				c1.5,0.9,3.4,1.4,5.7,1.4c3.8,0,6.4-1,7.8-3.1c0.8-1.2,1.2-3,1.2-5.3v-17.2h-4.6V155z M141.6,165.4c-0.8,0.8-1.7,1.3-2.8,1.3
				c-1.7,0-2.8-0.8-3.5-2.3c-0.4-0.8-0.5-1.8-0.5-2.8c0-1.2,0.2-2.2,0.5-3.1c0.6-1.6,1.8-2.3,3.4-2.3c1.2,0,2.2,0.5,2.9,1.3
				c0.7,0.9,1.1,2.2,1.1,3.9C142.7,163.3,142.3,164.6,141.6,165.4z"/>
			<path fill="#0077C0" d="M166.5,155.5c-0.8-1.2-1.9-2.1-3.1-2.7c-1.3-0.6-2.7-0.8-4.3-0.8c-2.7,0-4.8,0.8-6.5,2.5
				c-1.7,1.7-2.5,4.1-2.5,7.2c0,3.4,0.9,5.8,2.8,7.3c1.9,1.5,4,2.2,6.4,2.2c2.9,0,5.2-0.9,6.8-2.6c1-1.1,1.6-2.2,1.8-3.3H163
				c-0.3,0.5-0.6,0.9-1,1.2c-0.7,0.6-1.6,0.8-2.6,0.8c-1,0-1.9-0.2-2.6-0.7c-1.2-0.7-1.8-2-1.9-3.8h13.2c0-1.6,0-2.8-0.2-3.6
				C167.7,157.8,167.2,156.6,166.5,155.5z M155,159.7c0.2-1.2,0.6-2.1,1.3-2.8c0.7-0.7,1.6-1,2.8-1c1.1,0,2.1,0.3,2.8,1
				c0.8,0.7,1.2,1.6,1.3,2.9H155z"/>
			<path fill="#0077C0" d="M180.4,152c-1.5,0-2.7,0.4-3.7,1.1c-0.5,0.4-1.1,1.1-1.7,2v-2.6h-4.6v18.1h4.7v-9.8c0-1.1,0.2-2,0.5-2.8
				c0.6-1.4,1.7-2,3.3-2c1.3,0,2.2,0.5,2.6,1.4c0.3,0.5,0.4,1.2,0.4,2.2v11h4.9v-12.2c0-2.3-0.6-3.9-1.8-4.9
				C183.8,152.5,182.3,152,180.4,152z"/>
			<path fill="#0077C0" d="M197.9,156c1.1,0,1.9,0.4,2.5,1.1c0.4,0.5,0.6,1.2,0.7,1.8h4.9c-0.3-2.6-1.1-4.4-2.6-5.4
				c-1.4-1-3.3-1.5-5.6-1.5c-2.7,0-4.8,0.9-6.3,2.6c-1.5,1.7-2.3,4.2-2.3,7.3c0,2.8,0.7,5,2.1,6.7c1.4,1.7,3.5,2.6,6.4,2.6
				c2.9,0,5.1-1,6.6-3.1c0.9-1.3,1.5-2.7,1.6-4.1H201c-0.1,1-0.4,1.7-0.9,2.3c-0.5,0.6-1.3,0.9-2.4,0.9c-1.6,0-2.6-0.8-3.2-2.3
				c-0.3-0.8-0.5-1.9-0.5-3.2c0-1.4,0.2-2.5,0.5-3.4C195.2,156.8,196.3,156,197.9,156z"/>
			<path fill="#0077C0" d="M215.8,165.8l-4-13.4h-5.3l6.7,18.9c0,0.1-0.1,0.5-0.3,1.1c-0.2,0.6-0.5,1-0.8,1.2
				c-0.3,0.2-0.6,0.3-1.1,0.4c-0.4,0.1-0.9,0.1-1.3,0.1l-0.6,0v3.8c0.5,0,0.9,0.1,1.2,0.1c0.3,0,0.6,0,1,0c2.1,0,3.5-0.4,4.2-1.2
				c0.7-0.8,1.6-3,2.8-6.4l6.2-17.8h-5L215.8,165.8z"/>
		</g>
		<g>
			<path fill="#0077C0" d="M243.7,150c1.8,0,3.1,0.5,4.1,1.6c0.5,0.6,0.9,1.5,1.3,2.7h5.1c-0.1-1.5-0.6-3.1-1.7-4.6
				c-1.9-2.7-4.9-4.1-9-4.1c-3.1,0-5.6,1-7.5,3c-2.3,2.3-3.4,5.6-3.4,9.9c0,4,1,7.1,3,9.4c2,2.3,4.7,3.4,8.2,3.4
				c2.8,0,5.1-0.8,6.9-2.5c1.8-1.7,2.9-3.9,3.4-6.5H249c-0.3,1.3-0.8,2.2-1.3,2.8c-0.9,1.2-2.3,1.8-4,1.8c-1.7,0-3.1-0.7-4.2-2.1
				c-1.1-1.4-1.7-3.4-1.7-6.2c0-2.8,0.5-4.9,1.6-6.4C240.4,150.7,241.8,150,243.7,150z"/>
			<path fill="#0077C0" d="M265.1,151.9c-3.1,0-5.4,1-7,2.9c-1.5,1.9-2.3,4.2-2.3,6.8c0,2.7,0.8,4.9,2.3,6.8c1.5,1.9,3.9,2.8,7,2.8
				c3.1,0,5.4-0.9,7-2.8c1.5-1.9,2.3-4.2,2.3-6.8c0-2.6-0.8-4.9-2.3-6.8C270.6,152.8,268.3,151.9,265.1,151.9z M268.3,165.7
				c-0.7,1-1.8,1.5-3.2,1.5c-1.4,0-2.5-0.5-3.2-1.5c-0.7-1-1.1-2.4-1.1-4.2c0-1.8,0.4-3.2,1.1-4.2c0.8-1,1.8-1.5,3.2-1.5
				c1.4,0,2.5,0.5,3.2,1.5c0.7,1,1.1,2.4,1.1,4.2C269.4,163.3,269.1,164.7,268.3,165.7z"/>
			<path fill="#0077C0" d="M285.5,151.9c-3.1,0-5.4,1-7,2.9c-1.5,1.9-2.3,4.2-2.3,6.8c0,2.7,0.8,4.9,2.3,6.8c1.5,1.9,3.9,2.8,7,2.8
				c3.1,0,5.4-0.9,7-2.8c1.5-1.9,2.3-4.2,2.3-6.8c0-2.6-0.8-4.9-2.3-6.8C290.9,152.8,288.6,151.9,285.5,151.9z M288.7,165.7
				c-0.7,1-1.8,1.5-3.2,1.5c-1.4,0-2.4-0.5-3.2-1.5c-0.7-1-1.1-2.4-1.1-4.2c0-1.8,0.4-3.2,1.1-4.2c0.8-1,1.8-1.5,3.2-1.5
				c1.4,0,2.4,0.5,3.2,1.5c0.7,1,1.1,2.4,1.1,4.2C289.8,163.3,289.4,164.7,288.7,165.7z"/>
			<path fill="#0077C0" d="M307.5,152c-1.4,0-2.6,0.4-3.5,1.1c-0.5,0.4-1.2,1.3-1.9,2.5v-3.2h-4.5v18.1h4.8v-8.7
				c0-1.5,0.2-2.5,0.6-3.2c0.7-1.2,1.9-1.9,3.8-1.9c0.1,0,0.3,0,0.6,0c0.2,0,0.5,0,0.8,0.1V152c-0.2,0-0.3,0-0.4,0
				C307.6,152,307.6,152,307.5,152z"/>
			<path fill="#0077C0" d="M322,154.7c-0.5-0.9-1.2-1.5-2.1-2c-0.9-0.5-1.8-0.7-2.9-0.7c-2.4,0-4.3,0.9-5.7,2.7
				c-1.4,1.8-2.1,4.2-2.1,7.3c0,2.7,0.7,4.9,2.2,6.6c1.4,1.7,3.2,2.6,5.4,2.6c1.3,0,2.4-0.2,3.2-0.7c0.9-0.5,1.6-1.3,2.3-2.4v2.5
				h4.6v-24.5H322V154.7z M321.1,165.6c-0.7,1-1.7,1.5-3.1,1.5c-1.3,0-2.3-0.5-3-1.5c-0.7-1-1-2.3-1-4c0-1.6,0.3-2.9,1-3.9
				c0.7-1,1.7-1.6,3.1-1.6c0.9,0,1.7,0.3,2.4,0.9c1.1,1,1.7,2.5,1.7,4.8C322.2,163.4,321.8,164.7,321.1,165.6z"/>
			<rect x="330.7" y="152.4" fill="#0077C0" width="4.8" height="18.1"/>
			<rect x="330.7" y="145.9" fill="#0077C0" width="4.8" height="4.4"/>
			<path fill="#0077C0" d="M349.6,152c-1.5,0-2.7,0.4-3.7,1.1c-0.5,0.4-1.1,1.1-1.7,2v-2.6h-4.6v18.1h4.7v-9.8c0-1.1,0.2-2,0.5-2.8
				c0.6-1.4,1.7-2,3.3-2c1.3,0,2.2,0.5,2.6,1.4c0.2,0.5,0.4,1.2,0.4,2.2v11h4.9v-12.2c0-2.3-0.6-3.9-1.8-4.9
				C353,152.5,351.5,152,349.6,152z"/>
			<path fill="#0077C0" d="M374.7,168.1c0-0.8,0-1.5,0-2.1v-8.3c0-2.2-0.8-3.7-2.3-4.5c-1.5-0.8-3.3-1.2-5.3-1.2
				c-3.1,0-5.2,0.8-6.5,2.4c-0.8,1-1.2,2.3-1.3,3.9h4.6c0.1-0.7,0.3-1.3,0.7-1.7c0.5-0.6,1.3-0.8,2.4-0.8c1,0,1.8,0.1,2.3,0.4
				c0.5,0.3,0.8,0.8,0.8,1.5c0,0.6-0.3,1.1-1,1.3c-0.4,0.2-1,0.3-1.9,0.4l-1.6,0.2c-1.8,0.2-3.2,0.6-4.2,1.2c-1.7,1-2.6,2.6-2.6,4.8
				c0,1.7,0.5,3,1.6,4c1.1,0.9,2.4,1.4,4.1,1.4c1.3,0,2.5-0.3,3.5-0.9c0.9-0.5,1.6-1.1,2.3-1.8c0,0.4,0.1,0.8,0.1,1.1
				c0.1,0.3,0.2,0.7,0.3,1h5.2v-0.7c-0.3-0.1-0.5-0.3-0.7-0.6C374.8,169.1,374.7,168.7,374.7,168.1z M369.9,163.5
				c0,1.6-0.5,2.7-1.4,3.3c-0.9,0.6-1.8,0.9-2.9,0.9c-0.6,0-1.2-0.2-1.7-0.5c-0.5-0.4-0.7-1-0.7-1.8c0-0.9,0.4-1.6,1.1-2
				c0.4-0.3,1.2-0.5,2.2-0.7l1.1-0.2c0.5-0.1,1-0.2,1.3-0.3c0.3-0.1,0.6-0.3,0.9-0.5V163.5z"/>
			<path fill="#0077C0" d="M383.9,147.5h-4.7v5.1h-2.5v3.4h2.5v11.2c0,1.1,0.3,2,0.8,2.5c0.8,0.9,2.3,1.2,4.6,1.2l2.3-0.1v-3.5
				c-0.2,0-0.3,0-0.5,0s-0.3,0-0.5,0c-1,0-1.5-0.1-1.7-0.3c-0.2-0.2-0.3-0.6-0.3-1.4V156h2.9v-3.4h-2.9V147.5z"/>
			<rect x="390.1" y="152.4" fill="#0077C0" width="4.8" height="18.1"/>
			<rect x="389.8" y="145.9" fill="#0077C0" width="4.8" height="4.4"/>
			<path fill="#0077C0" d="M406.4,151.9c-3.1,0-5.4,1-7,2.9c-1.5,1.9-2.3,4.2-2.3,6.8c0,2.7,0.8,4.9,2.3,6.8c1.5,1.9,3.9,2.8,7,2.8
				c3.1,0,5.4-0.9,7-2.8c1.5-1.9,2.3-4.2,2.3-6.8c0-2.6-0.8-4.9-2.3-6.8C411.9,152.8,409.5,151.9,406.4,151.9z M409.6,165.7
				c-0.7,1-1.8,1.5-3.2,1.5c-1.4,0-2.5-0.5-3.2-1.5c-0.7-1-1.1-2.4-1.1-4.2c0-1.8,0.4-3.2,1.1-4.2c0.8-1,1.8-1.5,3.2-1.5
				c1.4,0,2.5,0.5,3.2,1.5c0.7,1,1.1,2.4,1.1,4.2C410.7,163.3,410.3,164.7,409.6,165.7z"/>
			<path fill="#0077C0" d="M432.5,153.5c-1.2-1-2.7-1.5-4.6-1.5c-1.5,0-2.7,0.4-3.7,1.1c-0.5,0.4-1.1,1.1-1.7,2v-2.6h-4.6v18.1h4.7
				v-9.8c0-1.1,0.2-2,0.5-2.8c0.6-1.4,1.7-2,3.3-2c1.3,0,2.2,0.5,2.6,1.4c0.3,0.5,0.4,1.2,0.4,2.2v11h4.9v-12.2
				C434.3,156.1,433.7,154.5,432.5,153.5z"/>
		</g>
	</g>
	<g>
		<polygon fill="#0077C0" points="177.8,185.7 175.8,185.7 175.8,206.9 189.2,206.9 189.2,205.2 177.8,205.2 		"/>
		<path fill="#0077C0" d="M201.2,193.4c-1.2-1.4-2.9-2.2-5-2.2c-1.1,0-2.1,0.2-3,0.6c-0.9,0.4-1.6,1-2.2,1.7
			c-0.6,0.7-1.1,1.6-1.4,2.6c-0.3,1-0.5,2-0.5,3.2c0,1.1,0.1,2.2,0.4,3.1c0.3,1,0.7,1.8,1.3,2.5c0.6,0.7,1.3,1.3,2.2,1.7
			c0.9,0.4,1.9,0.6,3.2,0.6c1,0,1.8-0.1,2.5-0.4c0.7-0.3,1.4-0.6,1.9-1.1c0.5-0.5,1-1,1.3-1.6c0.4-0.6,0.6-1.3,0.9-2h-2
			c-0.3,1.1-0.8,2-1.7,2.6c-0.8,0.6-1.8,0.9-3,0.9c-0.9,0-1.6-0.2-2.2-0.5c-0.7-0.3-1.2-0.8-1.6-1.3c-0.4-0.5-0.7-1.2-1-1.9
			c-0.2-0.7-0.3-1.5-0.3-2.3H203C203,196.9,202.4,194.8,201.2,193.4z M191.1,198.2c0.1-0.7,0.2-1.4,0.5-2.1c0.3-0.6,0.6-1.2,1-1.7
			c0.4-0.5,0.9-0.9,1.5-1.2c0.6-0.3,1.3-0.4,2.1-0.4c0.8,0,1.5,0.1,2.1,0.4c0.6,0.3,1.1,0.7,1.5,1.2c0.4,0.5,0.7,1.1,0.9,1.7
			c0.2,0.7,0.3,1.4,0.3,2.1H191.1z"/>
		<path fill="#0077C0" d="M217.8,193.7c-0.6-0.7-1.3-1.3-2.1-1.8c-0.9-0.4-1.9-0.7-3-0.7c-1.1,0-2.1,0.2-3.1,0.7
			c-1,0.5-1.8,1.2-2.3,2.1v-8.4h-1.8v21.3h1.8v-2.7h0.1c0.3,0.5,0.6,1,1,1.3c0.4,0.4,0.8,0.7,1.3,1c0.5,0.3,1,0.5,1.5,0.6
			c0.5,0.1,1,0.2,1.5,0.2c1.2,0,2.3-0.2,3.2-0.6c0.9-0.4,1.6-1,2.1-1.7c0.6-0.7,1-1.6,1.2-2.6c0.3-1,0.4-2,0.4-3.2
			c0-1.1-0.1-2.1-0.4-3.1C218.8,195.3,218.4,194.4,217.8,193.7z M217.2,202.3c-0.3,0.7-0.6,1.4-1.1,1.9c-0.5,0.5-1,0.9-1.7,1.2
			c-0.6,0.3-1.3,0.4-2.1,0.4c-0.8,0-1.6-0.2-2.2-0.5c-0.6-0.3-1.2-0.8-1.6-1.4c-0.4-0.6-0.8-1.3-1-2.1c-0.2-0.8-0.3-1.7-0.3-2.6
			c0-0.9,0.1-1.7,0.3-2.5c0.2-0.8,0.6-1.5,1-2c0.4-0.6,1-1,1.6-1.4c0.6-0.3,1.4-0.5,2.2-0.5c0.9,0,1.7,0.2,2.4,0.5
			c0.7,0.4,1.2,0.9,1.7,1.5c0.4,0.6,0.7,1.4,0.9,2.2c0.2,0.8,0.3,1.7,0.2,2.7C217.6,200.7,217.5,201.6,217.2,202.3z"/>
		<path fill="#0077C0" d="M234.3,205.6c-0.2-0.2-0.4-0.6-0.4-1.3V196c0-0.9-0.1-1.6-0.4-2.2c-0.3-0.6-0.7-1.1-1.2-1.5
			c-0.5-0.4-1.1-0.6-1.8-0.8c-0.7-0.2-1.4-0.2-2.2-0.2c-0.8,0-1.6,0.1-2.3,0.3c-0.7,0.2-1.4,0.5-1.9,0.9c-0.6,0.4-1,0.9-1.4,1.6
			c-0.4,0.6-0.6,1.4-0.6,2.3h1.8c0.1-0.7,0.2-1.2,0.5-1.7c0.2-0.4,0.6-0.8,0.9-1.1c0.4-0.3,0.8-0.5,1.3-0.6c0.5-0.1,1.1-0.2,1.7-0.2
			c1.4,0,2.4,0.3,2.9,0.9c0.6,0.6,0.9,1.3,0.9,2.2c0,0.3,0,0.6-0.1,0.9c-0.1,0.3-0.3,0.6-0.5,0.7c-0.3,0.1-0.7,0.2-1.1,0.3
			c-0.5,0.1-0.9,0.1-1.2,0.2l-2.5,0.3c-3.6,0.5-5.3,2-5.3,4.6c0,0.7,0.1,1.4,0.4,1.9c0.3,0.5,0.6,1,1.1,1.4c0.5,0.4,1,0.7,1.6,0.8
			c0.6,0.2,1.3,0.3,1.9,0.3c1.1,0,2.2-0.2,3.1-0.6c1-0.4,1.8-1.1,2.6-1.9c0,0.3,0,0.5,0.1,0.8c0,0.2,0.1,0.5,0.2,0.7
			c0.1,0.2,0.3,0.4,0.4,0.5c0.2,0.1,0.4,0.2,0.7,0.3c0.3,0.1,0.5,0.1,0.8,0.1c0.3,0,0.5,0,0.8-0.1c0.3-0.1,0.5-0.1,0.6-0.2v-1.4
			C235,205.8,234.5,205.8,234.3,205.6z M232.1,201.3c0,0.8-0.2,1.4-0.5,2c-0.3,0.6-0.7,1-1.3,1.4c-0.5,0.4-1.1,0.6-1.8,0.8
			c-0.7,0.2-1.4,0.3-2.1,0.3c-0.4,0-0.8-0.1-1.2-0.2c-0.4-0.1-0.8-0.3-1.1-0.5c-0.3-0.2-0.6-0.5-0.7-0.9c-0.2-0.3-0.3-0.8-0.3-1.2
			c0-1,0.4-1.8,1.1-2.3c0.8-0.5,1.8-0.8,3.2-0.9c0.8-0.1,1.5-0.1,2.3-0.2c0.8-0.1,1.5-0.3,2.3-0.6V201.3z"/>
		<path fill="#0077C0" d="M249.3,193.4c-0.6-0.8-1.2-1.4-2-1.7c-0.8-0.3-1.7-0.5-2.6-0.5c-1.1,0-2,0.2-2.7,0.7
			c-0.8,0.5-1.5,1.1-2.2,1.8v-2.1h-1.8v15.3h1.8v-8.2c0-0.5,0-1,0.1-1.5c0-0.5,0.2-0.9,0.3-1.4c0.1-0.4,0.3-0.8,0.6-1.1
			c0.3-0.4,0.6-0.7,0.9-0.9c0.4-0.3,0.8-0.5,1.2-0.7c0.5-0.2,1-0.3,1.5-0.3c1.4,0,2.4,0.3,3,1c0.6,0.7,0.9,1.7,0.9,3.1v10h1.8v-10
			c0-0.6,0-1.2-0.1-1.8C249.9,194.5,249.7,194,249.3,193.4z"/>
		<path fill="#0077C0" d="M264.6,193.6c-0.6-0.7-1.3-1.3-2.2-1.7c-0.9-0.4-1.9-0.6-3.1-0.6c-1.2,0-2.2,0.2-3.1,0.6
			c-0.9,0.4-1.6,1-2.2,1.7c-0.6,0.7-1,1.6-1.3,2.6c-0.3,1-0.4,2-0.4,3.1c0,1.3,0.2,2.5,0.6,3.5c0.4,1,0.9,1.8,1.5,2.5
			c0.6,0.7,1.4,1.2,2.2,1.5c0.9,0.3,1.8,0.5,2.8,0.5c1.1,0,2-0.2,2.9-0.6c0.9-0.4,1.6-0.9,2.2-1.6c0.6-0.7,1.1-1.6,1.4-2.5
			c0.3-1,0.5-2.1,0.5-3.3c0-1.1-0.1-2.2-0.4-3.2C265.7,195.1,265.2,194.3,264.6,193.6z M264.2,201.7c-0.2,0.8-0.5,1.5-0.9,2.1
			c-0.4,0.6-1,1.1-1.6,1.5c-0.7,0.4-1.5,0.5-2.4,0.5c-0.8,0-1.6-0.2-2.2-0.5c-0.7-0.3-1.2-0.8-1.6-1.3c-0.4-0.6-0.8-1.3-1-2.1
			c-0.2-0.8-0.3-1.7-0.3-2.6c0-0.8,0.1-1.6,0.3-2.4c0.2-0.8,0.5-1.5,0.9-2.1c0.4-0.6,1-1.1,1.6-1.4c0.7-0.4,1.4-0.5,2.4-0.5
			c0.9,0,1.7,0.2,2.4,0.5c0.7,0.3,1.2,0.8,1.6,1.4c0.4,0.6,0.7,1.3,0.9,2.1c0.2,0.8,0.3,1.6,0.3,2.5
			C264.5,200.1,264.4,200.9,264.2,201.7z"/>
		<path fill="#0077C0" d="M280.8,195.1c-0.1-0.6-0.3-1.1-0.7-1.7c-0.5-0.8-1.2-1.4-2-1.7c-0.8-0.3-1.7-0.5-2.6-0.5
			c-1.1,0-2,0.2-2.7,0.7c-0.8,0.5-1.5,1.1-2.2,1.8v-2.1h-1.8v15.3h1.8v-8.2c0-0.5,0-1,0.1-1.5c0-0.5,0.2-0.9,0.3-1.4
			c0.1-0.4,0.3-0.8,0.6-1.1c0.3-0.4,0.6-0.7,0.9-0.9c0.4-0.3,0.8-0.5,1.2-0.7c0.4-0.2,0.9-0.3,1.5-0.3c1.4,0,2.4,0.3,3,1
			c0.6,0.7,0.9,1.7,0.9,3.1v10h1.8v-10C280.9,196.3,280.9,195.7,280.8,195.1z"/>
	</g>
	<g>
		<g>
			<path fill-rule="evenodd" clip-rule="evenodd" fill="#0077C0" d="M194.7,92.5c-4.8-4.8-4.8-4.8-4.8-4.8c5.7-6,9.3-14.1,9.4-22.9
				c6.8,0,6.8,0,6.8,0C206,75.5,201.6,85.3,194.7,92.5 M166,104.9c0-6.8,0-6.8,0-6.8c8.9-0.1,17-3.8,23-9.6c4.8,4.8,4.8,4.8,4.8,4.8
				C186.7,100.4,176.9,104.8,166,104.9z M165.4,71.6c-4,0-7.2-3.2-7.2-7.2c0-3.9,3.2-7.2,7.2-7.2c4,0,7.2,3.3,7.2,7.2
				C172.6,68.4,169.4,71.6,165.4,71.6z M164.9,80.5c-4.1-0.1-7.8-1.8-10.6-4.4c5.5-5.5,5.5-5.5,5.5-5.5c1.4,1.2,3.1,2,5.1,2.2
				C164.9,80.5,164.9,80.5,164.9,80.5z M164.9,89c-6.4-0.2-12.2-2.8-16.5-6.9c5.2-5.2,5.2-5.2,5.2-5.2c3,2.8,6.9,4.6,11.3,4.7
				C164.9,89,164.9,89,164.9,89z M164.9,96.8c-8.6-0.2-16.3-3.6-22-9.2c4.6-4.6,4.6-4.6,4.6-4.6c4.6,4.4,10.7,7.2,17.5,7.3
				C164.9,96.8,164.9,96.8,164.9,96.8z M164.9,104.9c-10.8-0.2-20.6-4.6-27.8-11.6c4.8-4.8,4.8-4.8,4.8-4.8c6,5.8,14,9.4,23,9.6
				C164.9,104.9,164.9,104.9,164.9,104.9z M124.8,64.7c6.9,0,6.9,0,6.9,0c0.1,8.9,3.7,17,9.4,22.9c-4.8,4.8-4.8,4.8-4.8,4.8
				C129.3,85.3,124.9,75.5,124.8,64.7z M136.4,35.9c4.8,4.8,4.8,4.8,4.8,4.8c-5.8,5.9-9.4,13.9-9.6,22.8c-6.8,0-6.8,0-6.8,0
				C125,52.8,129.4,43.1,136.4,35.9z M147.6,45.4c-4.6-4.6-4.6-4.6-4.6-4.6c5.7-5.5,13.4-8.9,21.9-9.1c0,6.5,0,6.5,0,6.5
				C158.2,38.5,152.1,41.1,147.6,45.4z M153.8,51.6c-5.3-5.2-5.3-5.2-5.3-5.2c4.3-4.1,10-6.6,16.4-6.8c0,7.4,0,7.4,0,7.4
				C160.6,47.2,156.7,48.9,153.8,51.6z M154.5,52.3c2.8-2.5,6.4-4.1,10.4-4.3c0,7.8,0,7.8,0,7.8c-1.8,0.1-3.5,0.8-4.9,1.9
				C154.5,52.3,154.5,52.3,154.5,52.3z M149.2,63.6c0.2-4,1.8-7.7,4.4-10.4c5.5,5.5,5.5,5.5,5.5,5.5c-1.2,1.3-2,3-2.2,4.9
				C149.2,63.6,149.2,63.6,149.2,63.6z M149.2,64.7c7.8,0,7.8,0,7.8,0c0.1,1.9,0.8,3.7,2,5.1c-5.5,5.5-5.5,5.5-5.5,5.5
				C150.9,72.5,149.3,68.8,149.2,64.7z M140.8,64.7c7.4,0,7.4,0,7.4,0c0.1,4.3,1.8,8.3,4.6,11.3c-5.2,5.2-5.2,5.2-5.2,5.2
				C143.4,76.9,140.9,71.1,140.8,64.7z M139.5,64.7c0.1,6.7,2.8,12.9,7.1,17.4c-4.6,4.6-4.6,4.6-4.6,4.6c-5.5-5.8-8.9-13.5-9.1-22
				C139.5,64.7,139.5,64.7,139.5,64.7z M147.7,47.2c5.2,5.2,5.2,5.2,5.2,5.2c-2.8,2.9-4.5,6.8-4.7,11.1c-7.4,0-7.4,0-7.4,0
				C141,57.2,143.6,51.5,147.7,47.2z M139.5,63.6c-6.5,0-6.5,0-6.5,0c0.2-8.5,3.7-16.2,9.2-21.9c4.6,4.6,4.6,4.6,4.6,4.6
				C142.4,50.8,139.7,56.9,139.5,63.6z M164.9,23.7c0,6.8,0,6.8,0,6.8c-8.8,0.2-16.9,3.7-22.8,9.4c-4.8-4.8-4.8-4.8-4.8-4.8
				C144.4,28.1,154.2,23.8,164.9,23.7z M166,48.1c4,0.1,7.6,1.7,10.4,4.3c-5.5,5.6-5.5,5.6-5.5,5.6c-1.3-1.1-3-1.8-4.8-2
				C166,48.1,166,48.1,166,48.1z M166,39.6c6.3,0.2,12.1,2.7,16.4,6.8c-5.2,5.2-5.2,5.2-5.2,5.2c-2.9-2.7-6.8-4.4-11.1-4.6
				C166,39.6,166,39.6,166,39.6z M166,31.8c8.5,0.2,16.2,3.6,21.9,9.1c-4.6,4.6-4.6,4.6-4.6,4.6c-4.5-4.3-10.6-7-17.3-7.1
				C166,31.8,166,31.8,166,31.8z M166,23.7c10.7,0.1,20.5,4.5,27.7,11.4c-4.8,4.8-4.8,4.8-4.8,4.8c-6-5.7-14-9.3-22.8-9.4
				C166,23.7,166,23.7,166,23.7z M184.4,82.2c4.3-4.6,7-10.7,7.1-17.5c6.5,0,6.5,0,6.5,0c-0.1,8.5-3.5,16.3-9,22
				C184.4,82.2,184.4,82.2,184.4,82.2z M183.5,83c4.6,4.6,4.6,4.6,4.6,4.6c-5.7,5.6-13.5,9.1-22.1,9.2c0-6.5,0-6.5,0-6.5
				C172.8,90.2,179,87.4,183.5,83z M177.4,76.8c5.2,5.2,5.2,5.2,5.2,5.2c-4.3,4.2-10.1,6.8-16.6,6.9c0-7.4,0-7.4,0-7.4
				C170.4,81.4,174.4,79.7,177.4,76.8z M176.6,76.1c-2.8,2.6-6.5,4.3-10.6,4.4c0-7.7,0-7.7,0-7.7c1.9-0.1,3.7-1,5.1-2.2
				C176.6,76.1,176.6,76.1,176.6,76.1z M173.9,64.7c7.8,0,7.8,0,7.8,0c-0.1,4-1.7,7.7-4.3,10.5c-5.5-5.5-5.5-5.5-5.5-5.5
				C173.1,68.4,173.8,66.6,173.9,64.7z M181.7,63.5c-7.8,0-7.8,0-7.8,0c-0.2-1.9-1-3.5-2.2-4.8c5.6-5.5,5.6-5.5,5.6-5.5
				C179.8,55.9,181.5,59.6,181.7,63.5z M190.2,64.7c-0.1,6.4-2.7,12.2-6.7,16.5c-5.2-5.2-5.2-5.2-5.2-5.2c2.8-3,4.5-6.9,4.6-11.3
				C190.2,64.7,190.2,64.7,190.2,64.7z M184.2,46.3c4.6-4.6,4.6-4.6,4.6-4.6c5.5,5.7,9,13.4,9.2,21.9c-6.5,0-6.5,0-6.5,0
				C191.3,56.8,188.5,50.8,184.2,46.3z M190.1,63.5c-7.4,0-7.4,0-7.4,0c-0.2-4.3-1.9-8.2-4.7-11.1c5.2-5.2,5.2-5.2,5.2-5.2
				C187.4,51.5,189.9,57.2,190.1,63.5z M206.1,63.5c-6.8,0-6.8,0-6.8,0c-0.2-8.8-3.8-16.9-9.6-22.8c4.8-4.8,4.8-4.8,4.8-4.8
				C201.5,43.1,205.9,52.8,206.1,63.5z M165.5,22c-23.3,0-42.4,19-42.4,42.4c0,23.3,19,42.4,42.4,42.4c23.3,0,42.4-19,42.4-42.4
				C207.8,41,188.8,22,165.5,22z"/>
			<path fill-rule="evenodd" clip-rule="evenodd" fill="#0077C0" d="M143.1,94c-0.1,0.8-0.5,0.8-0.6,0.8c-1-0.2-1-1.8-0.5-1.9
				C142.8,92.6,143.1,93.4,143.1,94"/>
			<path fill-rule="evenodd" clip-rule="evenodd" fill="#0077C0" d="M133.2,85.6c-0.3-0.1-0.6-0.4-0.7-1c0-0.3,0.2-0.4,0.5-0.5
				c0.5-0.1,0.8,0.3,0.9,0.8C134,85.5,133.6,85.6,133.2,85.6"/>
			<path fill-rule="evenodd" clip-rule="evenodd" fill="#0077C0" d="M132.5,83.5c-0.9,0.5-2.3-1.5-1.1-1.9
				C132.2,81.3,133,83.2,132.5,83.5"/>
			<path fill-rule="evenodd" clip-rule="evenodd" fill="#0077C0" d="M130.4,81.1c-0.4,0.3-0.9,0.3-1.2-0.3c-0.2-0.4-0.2-0.6,0-0.9
				c0.2-0.2,0.3-0.2,0.7-0.2C130.1,79.9,130.7,80.7,130.4,81.1"/>
			<path fill-rule="evenodd" clip-rule="evenodd" fill="#0077C0" d="M148.4,74.2c-0.3,0-0.7,0-0.9-0.4c0.1-0.5,0.3-0.7,0.5-0.7
				c0.2-0.2,0.7-0.3,1,0.1C149,73.6,148.8,73.8,148.4,74.2"/>
			<path fill-rule="evenodd" clip-rule="evenodd" fill="#0077C0" d="M148,70.6c0,0.5,0.2,1.8-0.5,1.8c-0.4,0-0.4-0.7-0.5-1.3
				c-0.1-0.5-0.5-0.8-0.2-1.3c0.2-0.2,0.6-0.2,0.7-0.2C147.8,69.8,148,70.4,148,70.6"/>
			<path fill-rule="evenodd" clip-rule="evenodd" fill="#0077C0" d="M162.7,93.5c-0.2,0-0.5-0.2-0.6-0.4c0-0.4,0.3-0.6,0.3-0.6
				c0.4-0.2,0.9,0.4,0.7,0.6C163.1,93.3,163,93.4,162.7,93.5"/>
			<path fill-rule="evenodd" clip-rule="evenodd" fill="#0077C0" d="M161.2,90.8c-0.6,0.1-1.1,0-1.1-0.5c0.1-0.5,0.6-0.5,0.8-0.5
				C161.7,90.1,161.5,90.7,161.2,90.8"/>
			<path fill-rule="evenodd" clip-rule="evenodd" fill="#0077C0" d="M199.8,84.5c-0.2,0.2-0.3,0.5-0.5,0.7c0,0-0.4-0.4-0.6-0.4
				c0-0.2-0.2-0.3-0.2-0.5c0-0.2,0.4-0.7,0.6-0.9c0.4,0,0.8,0.2,0.9,0.4C199.9,83.9,199.8,84.3,199.8,84.5"/>
			<path fill-rule="evenodd" clip-rule="evenodd" fill="#0077C0" d="M191.1,81.9c-0.2,0-0.6,0-0.7-0.3c0.2-0.5,0.7-0.6,1-0.4
				C191.4,81.5,191.3,81.8,191.1,81.9"/>
			<path fill-rule="evenodd" clip-rule="evenodd" fill="#0077C0" d="M188.1,68.5c-0.6,0.1-0.7-0.2-0.7-0.5
				C187.8,67.4,188.7,68.1,188.1,68.5"/>
			<path fill-rule="evenodd" clip-rule="evenodd" fill="#0077C0" d="M186.1,34.4c-0.5,0.2-1.4,0.1-1.6-0.6c0.1-1.1,1.5-0.7,2-0.3
				C186.4,33.6,186.5,34.1,186.1,34.4"/>
			<path fill-rule="evenodd" clip-rule="evenodd" fill="#0077C0" d="M173.9,28.2c-0.7,0.3-2.5,0.7-3.2,0.7c-0.4,0-0.8-0.1-1-0.4
				c0.1-0.6,1.6-1.1,2.1-1.4c0.7,0.1,0.7-0.1,1.1,0C173.7,27.1,174.2,27.7,173.9,28.2"/>
			<path fill-rule="evenodd" clip-rule="evenodd" fill="#0077C0" d="M175.5,26.5c-0.2,0.2-0.4,0.7-0.7,0.4c0-0.7-0.5-0.7-0.3-1.4
				c0.5-0.3,1.2-0.1,1.3,0.1C175.8,25.9,175.5,26.5,175.5,26.5"/>
			<path fill-rule="evenodd" clip-rule="evenodd" fill="#0077C0" d="M172.9,26c-0.3,0-0.9-0.5-1.2-0.7c0,0,0.4-0.4,0.6-0.4
				C173,24.9,173.1,25.5,172.9,26"/>
			<path fill-rule="evenodd" clip-rule="evenodd" fill="#0077C0" d="M173.5,35.8c-0.1,0.6-0.8,0.7-1,0.7c-0.5-0.1-1.7-1.1-1.2-1.7
				c0.5-0.5,0.9,0.2,1.2,0.2c0.4-0.1,0.5-0.7,1.3-0.3C174.2,35.4,173.9,35.5,173.5,35.8"/>
			<path fill-rule="evenodd" clip-rule="evenodd" fill="#0077C0" d="M175.5,38.2c-0.2,0.6,0.1,1.2-0.3,1.2c-0.8,0.4-2-1.3-1.1-2.2
				C174.8,36.9,175.5,37.1,175.5,38.2"/>
			<path fill-rule="evenodd" clip-rule="evenodd" fill="#0077C0" d="M188.3,48.7c-0.2,0.6-1,0.3-1-0.1c0-0.3,0.3-0.8,0.7-0.8
				C188.8,48.2,188.3,48.3,188.3,48.7"/>
			<path fill-rule="evenodd" clip-rule="evenodd" fill="#0077C0" d="M183.2,53.9c-0.2,0-0.5,0-0.6-0.4c0.1-0.4,0.3-0.5,0.7-0.5
				C183.7,53.1,184.3,53.7,183.2,53.9"/>
			<path fill-rule="evenodd" clip-rule="evenodd" fill="#0077C0" d="M162.2,36.3c-0.3,0-1.4-0.1-1.7-0.6c-0.2-0.4,0.6-0.7,1.2-0.8
				c0.3-0.2,0.8,0.4,1,0.6C162.6,35.7,162.7,36.3,162.2,36.3"/>
			<path fill-rule="evenodd" clip-rule="evenodd" fill="#0077C0" d="M151.4,39.4c-0.7,0-0.8,0.3-1.1-0.3c0.2-0.2,0.3-0.6,0.5-0.7
				c0.1-0.2,0.7-0.2,1,0.1C152,39.1,151.6,39.3,151.4,39.4"/>
			<path fill-rule="evenodd" clip-rule="evenodd" fill="#0077C0" d="M158.5,46.9c-0.2,0.1-0.4-0.1-0.3-0.3
				C158.9,46.1,159,46.8,158.5,46.9"/>
			<path fill-rule="evenodd" clip-rule="evenodd" fill="#0077C0" d="M168.7,67.2c-0.4,0-0.7-0.3-0.7-0.5c0.1-0.3,0.2-0.4,0.3-0.5
				c0.5-0.4,1,0.5,1,0.6C169.1,66.9,169.1,67.2,168.7,67.2"/>
			<path fill-rule="evenodd" clip-rule="evenodd" fill="#0077C0" d="M176.7,39.9c0,0,0.4,0.2,0.4,0.3c0,0.1,0,0.3-0.2,0.3
				c-0.2,0-0.6-0.1-0.5-0.4C176.3,39.9,176.7,39.9,176.7,39.9"/>
			<path fill-rule="evenodd" clip-rule="evenodd" fill="#0077C0" d="M177.5,41.4c0-0.1,0.1-1.2,1-0.7c0.9,0.6,0.8,0.2,1-0.1
				c0.2-0.3,0.1-0.5,0.6,0.2c0.4,0.7,1.6,2,2,1.1c0.4-0.9-0.9-1.1-0.9-2.1c0-1-0.9-2.2-1.3-2.3c-0.4-0.1-1.7-0.9-0.5-2.4
				c1.2-1.5,1.8-0.1,2.8-0.7c1-0.6,2.3,0.3,2.5,0.5c0.2,0.2,1.1,0.7,1.3,0.7c0.2-0.1,0.8-0.2,1.6,1c0.7,1.2,1,2.8,2.1,2.6
				c1.1-0.2,0.2,1.5,0.6,1.8c0.4,0.4,0.6,1.2,1.6,1.8c1,0.6,1.6,1.8,1.9,2.5c0.3,0.7,1.6,3,2.6,3.6c1,0.7,0.1,2.7-1.5,2.9
				c-1.7,0.3-2.4-0.1-2.8-1.4c-0.4-1.3-1-1.2-1.4-1.2c-0.4,0-1.3-0.7-1.4-1.1c-0.1-0.4-0.4-0.7-0.9-0.8c-0.5-0.1-1.1-0.7-1.6-0.7
				c-0.5,0-1.5-1.2-1.5-1.8c0-0.6,1-2.5-0.1-2.6c-1.1-0.1-2.7,0.3-2,1c0.7,0.7,1.7,3.1,1.6,3.8c-0.1,0.7,1.4,2.3,2.3,3.1
				c0.8,0.8,1,0.9,1.2,0.7c0.2-0.3-0.3-1,0.5-1c0.9,0,1.2,1,1.2,1.4c0,0.4-0.2,1.3-0.7,0.8c-0.4-0.4-1.6-0.6-1.2,0.4
				c0.4,1,1,0.9,1.5,0.9c0.6,0,1.3,0.6,1.4,1.7c0.1,1.1-0.2,2-0.6,1.4c-0.4-0.5-0.5-1.7-0.9-1.6c-0.4,0.1-0.2,0.5,0.2,1.4
				c0.4,0.9,0,1.2,1,1.6c1,0.5,0.2,1.3,0,1.6c-0.2,0.3-0.4,2.8-0.4,2.8s-1,0.3-1.2-0.3c-0.1-0.6-0.6-0.4-0.4-1.3
				c0.2-0.8,0.2-0.7-0.3-0.4c-0.5,0.2-1,1-1.3,1.2c-0.3,0.2-0.7,0-1.2,1c-0.4,0.9-1.3,2.4-0.9,3c0.4,0.7,0.7,0.6,0.6,1.3
				c-0.1,0.7,0,1.1,0.7,1.4c0.7,0.3,0.5,0.4,1.1,0.8c0.6,0.4,0.2,0.9-0.3,1.2c-0.5,0.3-1.3,0-1.5,0.4c-0.2,0.4-2.9,1-3.3,1
				c-0.4,0-0.8,2.2-2.3,2c-1.4-0.1-1.7,1.3-1.3,1.6c0.4,0.3,0.9,0.1,1.5-0.5c0.6-0.6,1.8-1.2,1.8,0.5c0.1,1.6-0.7,3.7-0.7,3.7
				s1-0.9,1.4-0.2c0.4,0.7,0.9,1.5,0.9,2c-0.1,0.5-1.7,3.1-1,4c0.6,0.9,2,2.3,1.4,3.3c-0.6,1-1,1.6-0.4,2.4c0.6,0.7-1.9,3.5-1.9,3.9
				c0,0.4-1.3,1.6-2.2,1.7c-1,0.1-1.6,0.9-1.7,1c-0.2,0.1-1.7,0.6-2.4-0.2c-0.7-0.8-2.5-1.1-2.6-1.8c-0.1-0.7-0.8-0.7-1.2-1.1
				c-0.5-0.4-0.9-0.5-0.9-2.6c0-2.1-1.8-2.2-2.4-2.1c-0.7,0.1-0.8-0.6-0.7-1.4c0.1-0.8-3.8,0.7-5.8-0.3c-2-0.9-2.9-1.4-2.6-2.8
				c0.3-1.5,0.3-3.4,1.3-3.7c1-0.3,2-1.3,3.2-1.2c1.2,0.1,2.6-1,3.4-0.7c0.7,0.3,1.1,0,2.3,0.4c1.1,0.3,1.5-0.3,1.9-0.5
				c0.5-0.2,1.7-0.9,2.1-0.9c0.4,0,1.7-1.6,0.8-1.2c-0.9,0.4-1.8,0.6-2.1,0.7c-0.3,0.1-0.5,1.1-0.9,0.9c-0.4-0.2-1-0.9-1.2-0.9
				c-0.2,0-0.7-0.2-0.7,0.3c0,0.5-0.6,0.4-0.9,0.1c-0.4-0.3-0.7-0.6-1.3-0.4c-0.6,0.3-0.7,1-0.7,1s-2.8,1.2-3.1,0.6
				c-0.3-0.7-0.8-1.8,0.7-2.1c1.5-0.4,0.1-1.2-0.1-1.5c-0.1-0.3-0.4-1.1-0.3-1.4c0.1-0.3,0.9-0.5,0.4-1.3c-0.5-0.8-1.8-1.8-1-2.1
				c0.8-0.4,1.1,0.6,1.8,1c0.7,0.4,1.9-0.5,2.1-1c0.1-0.5-0.3-1.7,1.8-1.9c2.1-0.2,1.5-1.9,1.2-2.6c-0.3-0.7-1.6-2.5-1-3.4
				c0.6-0.9,0-1.5-0.5-1.8c-0.5-0.3-1.5-2.1-3.6-2.6c-2.1-0.5-1,1.3-1.7,1.5c-0.6,0.2-1.3,0.7-1.4,0.9c-0.2,0.2-2.4,1.8-1.2,2.9
				c1.3,1.1,0.5,2.9-0.1,3.1c-0.7,0.3-1.7,2.7-2.5,2.8c-0.9,0.1-1.1,0.6-1.1,1c0,0.4-0.7,1.5-1.2,0.5c-0.5-1-0.9-1.1-1.1-1.1
				c-0.2,0-0.6-0.3-0.6-0.7c0.1-0.4-0.2-0.6-0.6-0.6c-0.4,0-1-0.6-1-0.6s-1.5-0.3-2.2,0.4c-0.6,0.6-1.3,0.1-1.7-0.4
				c-0.4-0.5-1-1.2-0.3-1.7c0.6-0.4,1-1.5,0.2-1.6c-0.8-0.1-1.7,0.6-2.5,1.1c-0.7,0.5-1.3,0.3-1.4,1.2c-0.1,0.9-0.7,1.7,0.4,2.2
				c1,0.5,1.1,1.3,0.8,1.5c-0.3,0.3,1,1.7,0.9,2.4c-0.2,0.7-0.4,2.8,0,3.1c0.4,0.4,1.5,1.6,1,2.3c-0.5,0.7,0.1,2.1,0.7,2.3
				c0.7,0.2,4.1,4.4,3.6,4.9c-0.5,0.4-0.7,1.5-1.8,1.2c-1.1-0.3-2.3-0.5-2.6,0c-0.4,0.5-1.7,0.8-2.5,0.3c-0.7-0.5-1.8-0.7-2.2-1.7
				c-0.4-0.9-1.2-0.8-1.7-0.4c-0.5,0.4-2.8-0.1-3.4-0.6c-0.6-0.5-0.5-1.1-0.8-1.2c-0.3-0.2-2.5-1.6-2.8-2.8
				c-0.3-1.2-0.6-0.6-0.9-0.4c-0.2,0.1-1,0.2-1.3-0.6c-0.4-0.7-0.9-0.3-1.1-0.4c-0.2-0.2-0.5-0.3-1-0.3c-0.5,0-1.4,0.3-1.5-0.7
				c-0.1-1-0.2-0.9,0.1-1.3c0.4-0.4,0.1-0.7,0.3-1.3c0.2-0.5,0.4-1,1.2-1.2c0.8-0.1,0.9-0.4,1.2-0.7c0.4-0.3,1.3-0.6,2.5-0.1
				c1.3,0.5,2.3,0.8,3,0.5c0.7-0.3,0.9-0.7,0.8-1.8c-0.1-1.1,1.2-3.6,2.5-4.8c1.4-1.2,1.7,0.2,2.7,0.4c1,0.2,0.4-0.7,0.4-0.9
				c0-0.2-0.1-1,0.5-1.3c0.6-0.2,0.9-0.5,0.6-1c-0.4-0.5-0.5-1.2,0.6-1.7c1.1-0.4,0.7-1.6,0.9-2c0.2-0.4,0.8-2.2,1.9-2.4
				c1.1-0.2,1.2-0.9,1.3-1.2c0.1-0.3,1.3-1.5,2.2-1.3c0.9,0.2,1.4,0.6,1.9,0.4c0.5-0.2,1.4-0.3,3.1,0.7c1.7,1,2,0.9,2.3,0.5
				c0.3-0.4,0.7-0.7,1.5-0.7c0.7,0,1.2,0,1.7-0.7c0.5-0.7,2.5-2.8,2.4-1.7c-0.1,1.1,1.2,0.8,1.3,0.2c0.2-0.7,0.9,0.8,2.2,0.5
				c1.3-0.3,2.4-1.7,2.7-0.7c0.2,1-0.9,1.6-0.1,1.7c0.7,0.1,1.7,0.4,1.8-0.6c0.1-1,2.7-3.4,4.1-3.6c1.4-0.2,4.1,2.8,4.7,2.8
				c0.6,0,1-0.9,1.1-0.2c0.1,0.7,0.6,1,1,1.1c0.4,0.1,0.7,0.7,0.7,1.1c0,0.4,1.2,1,1.8,0.7c0.6-0.2,2.2-0.4,2.1,0.5
				c-0.1,0.9-0.9,2.6,0.1,1.8c1-0.8,1.1-2.3,1.7-2.6c0.6-0.4-0.6-1.1-0.6-2c0-0.9-0.8-1.4-1.4-1.5c-0.6-0.1-1.8-0.9-0.6-1.5
				c1.1-0.7-0.2-1-0.4-1.5c-0.2-0.4-0.8-0.4-0.8,0.2c0,0.6-0.9,2.3-1.3,0.8c-0.4-1.5,1.1-1.8,1-2.6c-0.1-0.8-3.4-4-3.6-4.5
				C180.9,44.5,177.5,41.4,177.5,41.4"/>
			<path fill-rule="evenodd" clip-rule="evenodd" fill="#0077C0" d="M161.7,70.9c0,0-0.4-1,0.6-1c1,0,3.4-1.1,2.9-3.2
				c-0.5-2.1-1.2-1.9-1.2-2.1c0-0.2-1-1-1.4-0.3c-0.4,0.7-1.5,0.6-1.2,1.9c0.4,1.3-1,0.6-1,1.7C160.5,69,159,70.2,161.7,70.9"/>
			<path fill-rule="evenodd" clip-rule="evenodd" fill="#0077C0" d="M189,87.1c0,0,0.3-3-0.7-3.6c-0.9-0.6-2.6-0.8-2.3,1.1
				c0.2,1.9,0,2.8,1.5,3.3C189.1,88.5,189,87.1,189,87.1"/>
			<path fill-rule="evenodd" clip-rule="evenodd" fill="#0077C0" d="M146.9,66.4c0,0-0.1,0.9-0.4,1.1c-0.2,0.2-1.1,1.5,0.4,1.5
				C148.4,68.9,147.7,66.7,146.9,66.4"/>
			<path fill-rule="evenodd" clip-rule="evenodd" fill="#0077C0" d="M165.8,27.7c0,0,1.2,1.2,2,0.6c0.8-0.6,1.3,0.2,1.8,1
				c0.4,0.8,1.1,1.7,0.9,2c-0.2,0.4-2.1,0.6-2.1-0.2c0-0.8-0.3-1.3-1-1.4c-0.7-0.2-2.1,0-1.3,0.6c0.8,0.7,0.6,1.5-0.1,2
				c-0.6,0.6,0.1,1.5,0.6,1.6c0.4,0.1,1.5-0.2,0.7,0.9c-0.8,1.2-1.8,0-1.8,0C165.8,27.7,165.8,27.7,165.8,27.7"/>
			<path fill-rule="evenodd" clip-rule="evenodd" fill="#0077C0" d="M147.9,62.5c0,0-1-0.2-1.1,0.2c-0.1,0.5-0.5,0.9,0.8,0.9
				C148.9,63.8,148.8,62.5,147.9,62.5"/>
			<path fill-rule="evenodd" clip-rule="evenodd" fill="#0077C0" d="M156.4,65.2c0,0-1.1,0.2-0.2,0.7
				C156.9,66.1,156.7,65,156.4,65.2"/>
			<path fill-rule="evenodd" clip-rule="evenodd" fill="#0077C0" d="M169,72.8c0,0,0.3-1,0-1.4c-0.2-0.3-0.6-0.3-0.7,0.2
				C168.2,72.2,168.3,72.9,169,72.8"/>
			<path fill-rule="evenodd" clip-rule="evenodd" fill="#0077C0" d="M175.8,72.2c0,0-0.3-0.3-0.5,0.1c-0.2,0.4,0,0.8,0.8,0.9
				c0.8,0.1,0.9,0,0.5-0.4C176.3,72.4,175.8,72.2,175.8,72.2"/>
			<path fill-rule="evenodd" clip-rule="evenodd" fill="#0077C0" d="M172.6,75c0,0,0.4-0.3,0.8-0.3c0.4,0,0.4,0.7-0.2,0.8
				C172.6,75.8,171.2,75.7,172.6,75"/>
			<path fill-rule="evenodd" clip-rule="evenodd" fill="#0077C0" d="M177.8,55.4c0,0,0.5-0.5,0.8,0.1c0.3,0.7-0.1,1-0.4,1
				C177.8,56.5,176.7,56.1,177.8,55.4"/>
			<path fill-rule="evenodd" clip-rule="evenodd" fill="#0077C0" d="M176.2,54.2c0,0,0.4-0.2,0.3,0.2c-0.1,0.5-0.1,0.7-0.6,0.8
				C175.5,55.4,175.5,54.7,176.2,54.2"/>
			<path fill-rule="evenodd" clip-rule="evenodd" fill="#0077C0" d="M158.1,64.1c0,0,0.3-0.4,0.6-0.2c0.3,0.2,0.7,0.8,0.8,0.9
				c0.1,0.2,0,0.6-0.4,0.6c-0.3,0-0.9,0.4-1-0.2C158,64.7,158.1,64.1,158.1,64.1"/>
			<path fill-rule="evenodd" clip-rule="evenodd" fill="#0077C0" d="M162.2,63.4c-0.3,0.2-0.9,0-1.2-0.3c0-0.3-0.1-0.7,0.2-0.9
				C161.9,61.4,162.8,63,162.2,63.4"/>
			<path fill-rule="evenodd" clip-rule="evenodd" fill="#0077C0" d="M179.5,79.6c0,0-1.8-0.8-2.7-0.9c-0.9-0.1-2-0.4-1.4,0.3
				c0.6,0.7,2.4,1,2.8,1.3C178.7,80.6,180.8,80.2,179.5,79.6"/>
			<path fill-rule="evenodd" clip-rule="evenodd" fill="#0077C0" d="M166.3,74.1c0,0,0.2-0.7-0.2-0.9
				C165.8,73.1,165.6,73.6,166.3,74.1"/>
			<path fill-rule="evenodd" clip-rule="evenodd" fill="#0077C0" d="M126.2,32.9c-1.3,1.2-4.2,2.1-6.2,4.8c-0.8-1.5,1.2-5,3.6-7.1
				c1.8-1.5,5.3-3.9,6.2-4.1C130.6,28.2,127.9,30.9,126.2,32.9"/>
			<path fill-rule="evenodd" clip-rule="evenodd" fill="#0077C0" d="M122.1,42.5c-2.2,2.1-4.6,2.9-7.7,6.7c-1.3-4.6-1-8.6-0.4-11.3
				c1.1-3.5,2.9-7.5,5.9-8.7c-0.6,2-1.6,4.8-1.9,8.6c-1.3,5.2-2.1,5.3-1.8,6c0.3,0,2-2.7,4.1-4.8c2.5-2.5,5.6-3,7.6-4.5
				C127.6,35.6,125.8,38.7,122.1,42.5"/>
			<path fill-rule="evenodd" clip-rule="evenodd" fill="#0077C0" d="M111.3,63.9c-3-5.4-3.3-9.3-3.6-13.9c0.2-3.2,1.7-10.5,4-11.6
				c-0.7,6.6,1.1,7.3,0.4,12.7c0,0.3-0.8,6-0.8,6.3c0.9-0.2,0.1-5.2,10.6-12.6c-2.3,4-1.2,5.3-5.4,10.6
				C111.7,60.3,111,65,111.3,63.9"/>
			<path fill-rule="evenodd" clip-rule="evenodd" fill="#0077C0" d="M115.5,69c-2.2,3.2-1.9,4.8-2.4,6.4
				c-5.3-3.1-11.3-15.4-9.1-21.4c1.4,4.6,3.3,5.6,4.7,9.5c2.4,5.8,2,7.6,3.6,8.9c-0.3-3,0.7-6.6,1.7-9.2c1.5-2.2,2.6-5.2,3.7-6.2
				C118.8,61.2,118,64.7,115.5,69"/>
			<path fill-rule="evenodd" clip-rule="evenodd" fill="#0077C0" d="M120.3,79.5c0,4.7-0.9,6.8-1.2,10.3c-9.2-3-14-13.5-14-18.6
				c2.8,6.3,6.9,6.2,12.2,15.2c0.5-3.4-0.9-0.8-1.1-7.2c0.2-6.7,1.6-7,1.8-11.1C119.7,69.7,120.3,77.2,120.3,79.5"/>
			<path fill-rule="evenodd" clip-rule="evenodd" fill="#0077C0" d="M127.9,92.8c0.7,3.5,1,7.6,1.5,10.6c-5.2-1.9-6.5-0.5-12.8-4.4
				c-2.9-1.5-8-8-7.6-12.7c6.2,6.9,7.2,6.1,10.3,8.6c2.8,2.2,5,5.6,7,5.1c0.1-1.8-4.6-5.9-3.9-17.4C123.6,83.9,127,89.2,127.9,92.8"
				/>
			<path fill-rule="evenodd" clip-rule="evenodd" fill="#0077C0" d="M138.3,101.4c1.6,2.3,1.2,3.3,5.4,8.1c-1,0.5-6.9,2-10.9,2.2
				c-2.6,0-11.9-2.5-15-8.8c5.3,2.8,5.4,2.2,12.5,3.7c5.1,1.2,8.7,2.8,10.1,2.6c-0.3-0.7-4.2-2.3-6.9-5.7c-2.7-3.6-2.1-7.7-4.5-10.7
				C130.7,92.3,137,99.7,138.3,101.4"/>
			<path fill-rule="evenodd" clip-rule="evenodd" fill="#0077C0" d="M204.4,32.9c1.2,1.2,4.2,2.1,6.2,4.8c0.8-1.5-1.2-5-3.6-7.1
				c-1.7-1.5-5.2-3.9-6.2-4.1C200,28.2,202.7,30.9,204.4,32.9"/>
			<path fill-rule="evenodd" clip-rule="evenodd" fill="#0077C0" d="M208.5,42.5c2.2,2.1,4.6,2.9,7.6,6.7c1.3-4.6,1-8.6,0.4-11.3
				c-1-3.5-2.9-7.5-5.9-8.7c0.7,2,1.6,4.8,1.8,8.6c1.3,5.2,2.1,5.3,1.8,6c-0.3,0-2-2.7-4.1-4.8c-2.4-2.5-5.5-3-7.6-4.5
				C203,35.6,204.8,38.7,208.5,42.5"/>
			<path fill-rule="evenodd" clip-rule="evenodd" fill="#0077C0" d="M219.3,63.9c3.1-5.4,3.3-9.3,3.6-13.9
				c-0.2-3.2-1.7-10.5-3.9-11.6c0.6,6.6-1.1,7.3-0.4,12.7c0,0.3,0.7,6,0.7,6.3c-0.8-0.2-0.1-5.2-10.6-12.6c2.2,4,1.2,5.3,5.3,10.6
				C218.9,60.3,219.6,65,219.3,63.9"/>
			<path fill-rule="evenodd" clip-rule="evenodd" fill="#0077C0" d="M215.2,69c2.2,3.2,1.8,4.8,2.3,6.4c5.3-3.1,11.4-15.4,9.1-21.4
				c-1.3,4.6-3.3,5.6-4.6,9.5c-2.5,5.8-2.1,7.6-3.5,8.9c0.3-3-0.8-6.6-1.8-9.2c-1.4-2.2-2.6-5.2-3.7-6.2
				C211.8,61.2,212.6,64.7,215.2,69"/>
			<path fill-rule="evenodd" clip-rule="evenodd" fill="#0077C0" d="M210.3,79.5c0,4.7,0.9,6.8,1.3,10.3c9.1-3,14-13.5,14-18.6
				c-2.9,6.3-6.9,6.2-12.3,15.2c-0.5-3.4,0.9-0.8,1.1-7.2c-0.2-6.7-1.5-7-1.8-11.1C210.9,69.7,210.3,77.2,210.3,79.5"/>
			<path fill-rule="evenodd" clip-rule="evenodd" fill="#0077C0" d="M202.7,92.8c-0.7,3.5-0.9,7.6-1.5,10.6
				c5.2-1.9,6.5-0.5,12.7-4.4c2.9-1.5,8-8,7.7-12.7c-6.2,6.9-7.3,6.1-10.3,8.6c-2.8,2.2-5.1,5.6-7.1,5.1c-0.2-1.8,4.6-5.9,4-17.4
				C207,83.9,203.6,89.2,202.7,92.8"/>
			<path fill-rule="evenodd" clip-rule="evenodd" fill="#0077C0" d="M192.2,101.4c-1.5,2.3-1.1,3.3-5.4,8.1c1.1,0.5,6.9,2,10.9,2.2
				c2.6,0,11.8-2.5,14.9-8.8c-5.3,2.8-5.4,2.2-12.5,3.7c-5.1,1.2-8.6,2.8-10.1,2.6c0.3-0.7,4.3-2.3,6.9-5.7
				c2.7-3.6,2.1-7.7,4.6-10.7C199.9,92.3,193.6,99.7,192.2,101.4"/>
			<path fill-rule="evenodd" clip-rule="evenodd" fill="#0077C0" d="M152.1,123.2c-1.5-0.8-1.5-0.8-1.5-0.8s9.8-12,26.6-11
				c16.8,0.9,15.7,4.9,24.7,4.2c1-0.1-0.8,1.2-0.8,1.2s-8.8,3.4-19.7-0.3C170.7,112.9,163.6,110.6,152.1,123.2"/>
			<path fill-rule="evenodd" clip-rule="evenodd" fill="#0077C0" d="M178.7,123.2c1.6-0.8,1.6-0.8,1.6-0.8s-9.7-12-26.5-11
				c-16.9,0.9-15.7,4.9-24.8,4.2c-1-0.1,0.8,1.2,0.8,1.2s8.8,3.4,19.7-0.3C160.3,112.9,167.3,110.6,178.7,123.2"/>
		</g>
		<path fill="#0077C0" d="M343.4,92.2c-3.6-2-6.7-3.5-6.9-4c-0.4-0.9,1.7-3,3.6-3.4c3.6-0.8,9.5,5.1,11.8,1.8
			c0.2-0.3-1.6-1.7-4.2-3.7c-2.5-1.9-5.7-4.3-8.6-5.9c-2.8-1.5-6.9,0.1-6.9-2.4c0-3.1,14.7,0.1,15.5-2.1c0.2-0.6-2.6-1.5-6.1-2.3
			c-3.1-0.7-6.7-1.3-8.7-2.1c-2.5-1,0.3-2.7,0.9-2.7c2.5,0,4.9,1.3,6.7,1.5c4,0.4,5-0.2,5.2-0.5c0.3-0.5-2.7-1.2-6.8-3.4
			c-4.2-2.3-9.5-6.1-12.9-8.8c-1.5-1.2-5-1.9-4.9-3.1c0.1-0.6,1.6-1.5,2.6-1.4c0.6,0.1,1.7,0.8,3,1.1c2.8,0.7,6.6,1.2,7.8,0.8
			c1.4-0.4-3-2.1-6.6-3.9c-2.6-1.3-4.8-2.7-4-3c1.8-0.7,6.6,1,6.6-0.2c0-2.3-6.2-4.9-12.5-7.3c-2.3-0.9-4.6-0.9-6.6-2
			c-4.4-2.4-6.5-7.7-6.8-8.7c-1,2.3-2.5,4.2-4.2,5.8c-4.1,4.1-9.1,6.4-9.1,7.3c0,1.8,4.4-2.8,5.8-1.2c1.5,1.8-11.8,5.6-11.1,8.3
			c0.1,0.3,1.5-0.4,3.2-0.2c0.5,0,1.5,0.4,1.7,1.5c0.2,1.8-2.1,0.9-4.9,2.4c-1.7,0.9-1.9,2.9-3.9,4.1c-1.9,1.2-4.1,1.9-6,2.9
			c-2.7,1.4-4.8,2.7-4.8,3.6c0,0.6,1.7,0.6,3.9,0.3c1.3-0.2,2.8-0.7,4.2-0.7c1,0,2.2,2.7,2.1,4.1c-0.2,1.8-1.9,3.5-4.1,5
			c-1.1,0.8-2.7,0-4,0.7c-5.2,2.7-10.3,7.4-9.7,8.4c0.1,0.3,1.5,0.5,3.3,0.1c2.7-0.6,6-2.5,7.4-2.5c1.6,0,2.5,2.1,2.6,3
			c0,0.5-1.7,1.7-4.1,3c-1.3,0.7-2.9,1.1-4.4,1.9c-2.9,1.5-4.8,4.5-7.2,6c-2.5,1.6-5.3,1.7-5.2,2.4c0.1,0.8,6.7,2.9,13.1-1.1
			c7.2-4.5,10.5-3.5,11.1-2.9c1.9,1.8-2.4,4.4-7.3,6.1c-5.6,2-12.6,2.5-11.9,4.4c0.7,2,8.1,1.5,15.4-1.2c4.1-1.5,8.3-3.2,11.4-4.1
			c1-0.3,4.6,1.5,5.5,4.8c0.2,0.8,0.5,4.1-7.9,12.8c-0.1,0.1-3.6,0.6-6.6,2.1c-1.2,0.6-2.3,1.9-3.2,2.5c-1,0.8-1.7,1.5-1.6,2.3
			c0.5,0,1.4-1.5,4.2-2.6c1.2-0.5,2.6-0.8,3.9-1.2c2.5-0.7,4.8-1.4,5.2-1.5c2.1-0.3,4.2-4.2,10.3-4.5c1-0.1,1.9,0.6,2.6,0.7
			c0.9,0.1,2.9-0.5,3.6-0.3c1.2,0.2,0.9,1.1,1.6,1.7c0.7,0.5,6.5,6.6,8.1,6.6c1.3,0-1.3-2.7-1.8-4.3c-0.3-0.8,0.2-1.9,1.1-1.3
			c1.2,0.8,2.6,1.2,3.9,1.3c0.7,0,1.3-0.5,1.9-0.2c3.6,2.1,5.1,5.7,9,5.7c0.3,0,1-0.3,0.9-0.9c-0.2-1.9-8.4-6.1-10.2-9.3
			c-3.6-6.2-3.7-15.5,1.7-15.5c3.6,0,4.6,2.3,6.9,2.5c3.5,0.3,7.8-0.2,10.9,0.3c5.6,0.8,10.1,3.9,13.5,5.3c2,0.8,4.1,0.9,4.5,0
			C356.4,99.6,349.1,95.4,343.4,92.2z M310.2,45.5c1.3,0,1.7,1.5,1.2,2.4c-0.3,0.7-1.1,0.6-1.7,0.6c-1.5-0.1-2-0.4-2.1-1
			C307.5,46.6,309.5,45.5,310.2,45.5z M305.8,57.9c-0.6,0.2-4.5,0.4-4.5-0.4c0-0.6,0.9-0.9,1.9-1.3c1.1-0.4,2.4-0.8,3.3-0.5
			C307.6,55.9,306.8,57.6,305.8,57.9z M297.1,49c1.3,0,1.2,1.8,0.7,2.7c-0.5,1-3.8,3.3-5,3.3c-1.3,0-1.6-0.9-1.3-1.5
			C292.2,52.4,295.8,49,297.1,49z M294.3,44.2c2.9,0.9-0.1,3.7-0.7,3.7C289,47.9,291.9,43.9,294.3,44.2z M283.7,77
			c-1.8,0.1-3.4,0.9-4.3,0.9c-0.7,0-3.2-2.4-2.5-3.4c0.5-0.6,1.5-0.5,2.8-0.6c0.9,0,1.9-0.3,2.8-0.2c0.8,0,1.5,0.1,2,0.1
			c2,0,3.4-0.8,3.4,0.4C287.9,75.5,286,76.9,283.7,77z M285.1,63.2c-1.7,0-3.7-2-3.7-3.4c0-1.4,2.2-1.4,4-1.1
			c1.1,0.2,2.8,1.6,2.8,2.9C288.2,63,286.8,63.2,285.1,63.2z M292.3,88.7c-1.6,0-3.4-2.6-3.4-4.9c0-1.8,1.6-0.8,2.4-0.1
			c0.9,0.8,1.7,2.6,1.7,3.3C293.1,87.8,293.2,88.7,292.3,88.7z M290.5,61.4c-0.7,0-1.7-1.5-1.7-2.9c0-1.4,2.7-1.6,4.4-1.1
			C294.8,57.9,292.2,61.3,290.5,61.4z M293.9,69.4c0-1,0.7-1,1.2-1c1,0,2.7,1.5,2.1,2.3C296.5,71.5,293.9,70.4,293.9,69.4z
			 M298.5,88.5c-1,0-1.9-0.5-1.9-1.8c0-1.2,0.8-2.1,1.3-2.1c0.6,0,1.4,1.1,1.4,2.3C299.4,87.9,299,88.5,298.5,88.5z M300.1,48.3
			c0.6-1,3.1-2.4,4.4-2.4c1.3,0,1.7,1.5,1.2,2.4c-0.5,1-3.7,1.5-4.9,1.5C299.3,49.9,299.7,48.9,300.1,48.3z M300.9,68.3
			c0-0.9,0.6-1.7,1.2-1.7c0.6,0,1.1,0.8,1.1,1.7c0,0.9-0.5,1.7-1.1,1.7C301.5,70,300.9,69.2,300.9,68.3z M303.9,88.5
			c-1,0-1.3-0.7-1.3-1.9c0-1.2-0.6-2.6,0-2.6c0.7,0,1.3,0.5,2.2,0.8c0.8,0.3,1.6,0.3,1.6,0.9C306.5,86.5,305.4,88.5,303.9,88.5z
			 M307.9,73.8c-1,0-2.9-1.4-2.9-2.9c0-1.5,1.1-2,1.7-2c1.3,0,1.7,1.2,1.9,2.4C309,72.8,308.6,73.8,307.9,73.8z M312,74.3
			c-1,0-2.3-2-2.3-3.3c0-1.3,1.5-0.5,2,0.2C312.6,72.4,313,74.3,312,74.3z M311.6,58.3c-0.6,0.2-3.2,0.2-3.2-0.2
			c0-0.6,1.3-2.9,2.4-3.2c0.5-0.1,1.5,0.3,1.9,1.1C313.5,57.1,312.6,58,311.6,58.3z M313.2,48.1c0-0.7,1.5-1,2.1-1
			c1.3,0,1.7,0.9,1.2,1.8c-0.3,0.7-1.1,0.6-1.7,0.6C313.3,49.3,313.2,48.7,313.2,48.1z M314.1,59.3c0.1-0.6,2.1-2.5,3.2-2.5
			c1.2,0,3.5,1.5,4,2.2c0.7,1.2-0.3,1.2-1.3,1.5C319.3,60.7,313.8,61.4,314.1,59.3z M324.2,83.4c-2.2,0-4-0.4-4-1.9s2.8-2.8,5-2.8
			s3.2,1.5,3.2,2.4C328.5,82.5,326.4,83.4,324.2,83.4z M327.3,67.7c-0.6,0.2-4.1,0.1-4.1-1.6c0-0.6,1-1.9,2.1-1.9
			c1.2,0,2.4,1,2.8,1.7C328.9,67.1,328.3,67.4,327.3,67.7z M333.7,85.8c-2.2,0-3.9-0.9-3.9-1.9c0-1.4,1.7-2.8,3.9-2.8
			c2.2,0,3.9,1.1,3.9,2C337.6,84.5,335.9,85.8,333.7,85.8z"/>
	</g>
</g>
</svg>
