<?xml version="1.0" encoding="utf-8"?>
<!-- Generator: Adobe Illustrator 18.1.1, SVG Export Plug-In . SVG Version: 6.00 Build 0)  -->
<svg version="1.1" id="Layer_1" xmlns="http://www.w3.org/2000/svg" xmlns:xlink="http://www.w3.org/1999/xlink" x="0px" y="0px"
	 viewBox="0 0 52 51.6" enable-background="new 0 0 52 51.6" xml:space="preserve">
<path fill="#00A9B7" d="M39.3,28.3c-1.5,0.7-3.2,0.1-3.3-0.1c-0.1-0.3,0.6-1.9,2.1-2.6c1.5-0.7,3.1-0.2,3.3,0.1
	C41.5,26,40.8,27.6,39.3,28.3 M37.5,32c-1.5,0.7-3.2,0.1-3.3-0.1c-0.1-0.3,0.6-1.9,2.1-2.6s3.1-0.2,3.3,0.1
	C39.7,29.7,39,31.3,37.5,32 M35.7,35.6c-1.5,0.7-3.2,0.1-3.3-0.1c-0.1-0.3,0.6-1.9,2.1-2.5c1.5-0.7,3.1-0.2,3.3,0.1
	C37.9,33.4,37.2,35,35.7,35.6 M33.9,39.3c-1.5,0.7-3.2,0.1-3.3-0.1c-0.1-0.3,0.6-1.9,2.1-2.5c1.5-0.7,3.1-0.2,3.3,0.1
	C36.1,37.1,35.4,38.7,33.9,39.3 M29.4,40.8c-0.2,0.1-1.7-0.9-2.1-2.5c-0.4-1.6,0.4-3.1,0.7-3.2c0.3-0.1,1.7,0.9,2.1,2.5
	C30.5,39.2,29.7,40.8,29.4,40.8 M29.8,31.4c0.3-0.1,1.7,0.9,2.1,2.5s-0.4,3.1-0.7,3.2c-0.2,0.1-1.7-0.9-2.1-2.5
	C28.7,33,29.5,31.5,29.8,31.4 M31.6,27.7c0.3-0.1,1.7,0.9,2.1,2.5c0.4,1.6-0.4,3.1-0.7,3.2c-0.2,0.1-1.7-0.9-2.1-2.5
	C30.5,29.4,31.3,27.8,31.6,27.7 M33.4,24c0.3-0.1,1.7,0.9,2.1,2.5c0.4,1.6-0.4,3.1-0.7,3.2c-0.2,0.1-1.7-0.9-2.1-2.5
	C32.3,25.7,33.1,24.1,33.4,24 M36.6,22.3c0.7-1.5,2.3-2.2,2.6-2.1c0.3,0.1,0.8,1.8,0.1,3.3c-0.7,1.5-2.3,2.2-2.6,2.1
	C36.4,25.5,35.9,23.8,36.6,22.3 M20.8,17.4c-1-0.3-2.1-0.4-3.2-0.4c-1.4,0-2.7,0.2-3.9,0.6c-1.6-1-2.6-2.7-2.6-4.7l6.4,1.3l5.8-1.3
	C23.2,14.8,22.3,16.4,20.8,17.4 M26,0C11.6,0,0,11.6,0,26c0,12.8,9.3,23.5,21.5,25.6c-2.3-1.7-4.4-4.2-5.7-7.4
	c-0.7-1.7-1.1-3.5-1.3-5.3h-2.7c-5.6,0-5.9-9.1-5.9-9.1c0-5.5,5-12,11.2-12c6.2,0,11.2,5.9,11.2,11.4c0,0,0,4-1.3,6.8
	c-5.7,0.3-9.9,1.4-9.9,2.8c0,0,0,0,0,0c0,0,0,0,0,0c0,0.1,0,0.2,0.1,0.3c0,0,0,0,0,0c0,0.1,0.1,0.2,0.2,0.2c0,0,0,0,0.1,0.1
	c0.1,0.1,0.2,0.1,0.3,0.2c0,0,0.1,0,0.1,0.1c0.1,0.1,0.2,0.1,0.3,0.2c0,0,0.1,0,0.1,0.1c0.1,0.1,0.3,0.1,0.4,0.2c0,0,0.1,0,0.2,0.1
	c0.2,0.1,0.3,0.1,0.5,0.2c0.1,0,0.1,0,0.2,0.1c0.2,0.1,0.3,0.1,0.5,0.2c0.1,0,0.1,0,0.2,0.1c0.2,0.1,0.4,0.1,0.6,0.2
	c0.1,0,0.2,0,0.2,0c0.2,0,0.4,0.1,0.7,0.1c0.1,0,0.2,0,0.2,0c0.2,0,0.5,0.1,0.7,0.1c0.1,0,0.2,0,0.3,0c0.2,0,0.5,0.1,0.7,0.1
	c0.1,0,0.3,0,0.4,0c0.2,0,0.4,0.1,0.7,0.1c0.2,0,0.3,0,0.5,0c0.2,0,0.4,0,0.7,0.1c0.2,0,0.4,0,0.6,0c0.2,0,0.4,0,0.6,0
	c0.2,0,0.4,0,0.6,0c0.2,0,0.4,0,0.6,0c0.4,0,0.8,0,1.3,0c0.9,0,1.8,0,2.7-0.1c5.6-0.3,9.7-1.4,9.8-2.8c0,0,0,0,0,0
	c0-0.1,0-0.1,0-0.2c-0.3-0.8-2.3-1.6-4.7-2.1c0,0,0,0-0.1,0c1.1-1.2,1.1-2.3,1.1-2.3c3.9,0.8,6.5,2.1,6.5,3.6
	c-0.1,2.2-0.6,4.3-1.4,6.3c-0.3,0.7-0.6,1.3-0.9,1.9c5.8-4.8,9.5-12,9.5-20.1C52,11.6,40.4,0,26,0"/>
<path fill="#00A9B7" d="M17.7,35.1c0.1,0,0.1-0.1,0.2-0.1v-1.6c1.9-0.3,3-1.6,3-3.1c0-1.5-0.8-2.4-2.8-3.1c-1.4-0.5-2-0.9-2-1.4
	c0-0.5,0.4-1,1.4-1c1.2,0,2,0.4,2.4,0.6l0.5-1.9c-0.6-0.3-1.3-0.5-2.4-0.6v-1.5h-1.6v1.6c-1.8,0.3-2.8,1.5-2.8,3
	c0,1.6,1.2,2.5,3,3.1c1.3,0.4,1.8,0.8,1.8,1.5c0,0.7-0.7,1-1.6,1c-1.1,0-2.1-0.4-2.8-0.7l-0.5,2c0.6,0.4,1.7,0.7,2.8,0.7v1.6H17.7z"
	/>
</svg>
