<?xml version="1.0" encoding="utf-8"?>
<!-- Generator: Adobe Illustrator 18.1.1, SVG Export Plug-In . SVG Version: 6.00 Build 0)  -->
<svg version="1.1" id="Layer_1" xmlns="http://www.w3.org/2000/svg" xmlns:xlink="http://www.w3.org/1999/xlink" x="0px" y="0px"
	 viewBox="0 0 52.2 52.2" enable-background="new 0 0 52.2 52.2" xml:space="preserve">
<path fill="#0077C0" d="M21.1,14.6c-1,0-1.9,0.4-2.5,1c-0.6,0.6-1,1.5-1,2.5c0,1,0.4,1.9,1,2.5c0.6,0.6,1.5,1,2.5,1
	c0.1,0,0.2,0,0.3,0c-0.7-1-1.2-2.2-1.2-3.5c0-1,0.2-1.9,0.7-2.7l0.2,0c0.7,0,1.3,0.3,1.8,0.8c0.1,0.1,0.1,0.1,0.2,0.2
	c-0.3,0.5-0.5,1.1-0.5,1.7c0,0.9,0.4,1.8,1,2.4c0.6-0.6,1-1.5,1-2.4c0-1-0.4-1.9-1-2.5C23,15,22.1,14.6,21.1,14.6"/>
<path fill="#0077C0" d="M37,13.6c0,0.7-0.5,1.2-1.2,1.2c-0.7,0-1.2-0.5-1.2-1.2v-2.1l-3.3,3.3c0.6,1,1,2.1,1,3.3
	c0,1.7-0.7,3.1-1.8,4.2c-1.1,1.1-2.6,1.8-4.2,1.8c-0.9,0-1.8-0.2-2.6-0.6c-0.4,0.2-0.9,0.4-1.4,0.5v1.8h1.9c0.7,0,1.2,0.5,1.2,1.2
	c0,0.7-0.5,1.2-1.2,1.2h-1.9v2.3c0,0.7-0.5,1.2-1.2,1.2c-0.7,0-1.2-0.5-1.2-1.2v-2.3H18c-0.7,0-1.2-0.5-1.2-1.2
	c0-0.7,0.5-1.2,1.2-1.2h1.9V24c-1.2-0.2-2.2-0.8-3-1.6c-1.1-1.1-1.8-2.6-1.8-4.2c0-1.7,0.7-3.1,1.8-4.2c1.1-1.1,2.6-1.8,4.2-1.8
	c1.7,0,3.1,0.7,4.2,1.8c1.1,1.1,1.8,2.6,1.8,4.2c0,1.3-0.4,2.5-1.2,3.5c0.1,0,0.2,0,0.4,0c1,0,1.9-0.4,2.5-1c0.6-0.6,1-1.5,1-2.5
	c0-1-0.4-1.9-1-2.5c-0.5-0.5-1.1-0.8-1.8-1c-0.3-0.5-0.6-0.9-1-1.3c-0.4-0.4-0.8-0.7-1.2-1c0.5-0.1,1-0.2,1.6-0.2
	c1.2,0,2.3,0.3,3.2,0.9l3.3-3.3h-2c-0.7,0-1.2-0.5-1.2-1.2c0-0.7,0.5-1.2,1.2-1.2h5c0.3,0,0.6,0.1,0.8,0.3C37,8.1,37,8.6,37,8.6
	V13.6z M26.1,0C11.7,0,0,11.7,0,26.1C0,36.8,6.4,45.9,15.6,50v-6l-7-7c-0.3-0.2-0.6-0.6-0.7-1c-0.1-0.2-0.1-0.5-0.1-0.8V21.6
	c0-1,0.8-1.7,1.7-1.7c1,0,1.7,0.8,1.7,1.7v8.5c-0.5,0.1-0.9,0.4-1.3,0.8C9,32,9,33.9,10.1,35l4.5,4.5c0.3,0.2,0.7,0.1,0.8-0.2
	c0.1-0.2,0.1-0.4-0.1-0.6L11,34.3c-0.7-0.7-0.7-1.8,0-2.5c0.6-0.7,1.8-0.7,2.5,0l9.8,9.6c0.4,0.4,0.6,1,0.5,1.6v9
	c0.8,0.1,1.6,0.1,2.3,0.1s1.6,0,2.3-0.1v-9c-0.1-0.6,0.1-1.2,0.5-1.6l9.8-9.6c0.7-0.6,1.8-0.6,2.5,0c0.7,0.7,0.7,1.8,0,2.5l-4.4,4.3
	c-0.2,0.2-0.2,0.4-0.1,0.6c0.1,0.3,0.5,0.4,0.8,0.2L42,35c1.1-1.1,1.2-3,0-4.1c-0.4-0.4-0.8-0.6-1.3-0.8v-8.5c0-1,0.8-1.7,1.7-1.7
	c1,0,1.7,0.8,1.7,1.7v13.5c0,0.3,0,0.6-0.1,0.8c-0.1,0.4-0.4,0.7-0.7,1l-7,7v6c9.2-4,15.6-13.2,15.6-23.9C52.2,11.7,40.5,0,26.1,0"
	/>
</svg>
