<?xml version="1.0" encoding="utf-8"?>
<!-- Generator: Adobe Illustrator 18.1.1, SVG Export Plug-In . SVG Version: 6.00 Build 0)  -->
<svg version="1.1" id="Layer_1" xmlns="http://www.w3.org/2000/svg" xmlns:xlink="http://www.w3.org/1999/xlink" x="0px" y="0px"
	 viewBox="0 0 52.2 48" enable-background="new 0 0 52.2 48" xml:space="preserve">
<path fill="#FEBD3B" d="M44.3,32.5L44.3,32.5c-0.9,1.1-2.4,1.1-3.4,0.3L26.1,19.7L11.2,32.8c-1,0.9-2.5,0.8-3.3-0.2l-0.1-0.1
	c-0.9-1-0.8-2.5,0.2-3.3l16.5-14.6c0.9-0.8,2.2-0.8,3.1,0l16.5,14.6C45.1,30.1,45.2,31.6,44.3,32.5 M26.1,0C11.7,0,0,11.7,0,26.1
	c0,9.2,4.8,17.3,12,22V34.6c0.2-0.1,0.3-0.2,0.5-0.4l13.6-12l13.6,12c0.2,0.1,0.3,0.3,0.5,0.4V48c7.2-4.6,12-12.7,12-22
	C52.2,11.7,40.5,0,26.1,0"/>
</svg>
