<?xml version="1.0" encoding="utf-8"?>
<!-- Generator: Adobe Illustrator 18.1.1, SVG Export Plug-In . SVG Version: 6.00 Build 0)  -->
<svg version="1.1" id="Layer_1" xmlns="http://www.w3.org/2000/svg" xmlns:xlink="http://www.w3.org/1999/xlink" x="0px" y="0px"
	 viewBox="0 0 52.1 52.1" enable-background="new 0 0 52.1 52.1" xml:space="preserve">
<path fill="#F47521" d="M11.4,26.5c-2.2,0.7-4.6-0.8-5.4-3.2c-0.7-2.4,0.5-4.9,2.8-5.6c2.2-0.7,4.6,0.8,5.4,3.2
	C14.8,23.3,13.6,25.8,11.4,26.5 M38,20.9c0.7-2.4,3.1-3.8,5.4-3.2c2.2,0.7,3.5,3.2,2.8,5.6c-0.7,2.4-3.1,3.8-5.4,3.2
	C38.5,25.9,37.3,23.4,38,20.9 M39.1,36.7c-2.3,3.4-7.8,7.5-13.1,5.2c7.3-1.8,10.1-18.7,18.6-12.7c3.3,2.3,1.3,10.1,0.3,14.8
	c4.5-4.7,7.2-11,7.2-18C52.1,11.6,40.4,0,26,0C11.6,0,0,11.7,0,26.1c0,7,2.8,13.3,7.2,18c-1-4.7-3.1-12.6,0.2-14.9
	c8.5-6,11.3,10.9,18.6,12.7c-5.3,2.3-10.8-1.9-13.1-5.2c2,3,2,8.9,1.4,12.7c3.5,1.8,7.5,2.8,11.7,2.8c4.2,0,8.1-1,11.6-2.8
	C37.1,45.6,37.2,39.7,39.1,36.7"/>
</svg>
