<?xml version="1.0" encoding="utf-8"?>
<!-- Generator: Adobe Illustrator 18.0.0, SVG Export Plug-In . SVG Version: 6.00 Build 0)  -->
<!DOCTYPE svg PUBLIC "-//W3C//DTD SVG 1.1//EN" "http://www.w3.org/Graphics/SVG/1.1/DTD/svg11.dtd">
<svg version="1.1" id="Layer_1" xmlns="http://www.w3.org/2000/svg" xmlns:xlink="http://www.w3.org/1999/xlink" x="0px" y="0px"
	 viewBox="0 0 292.4 272.7" enable-background="new 0 0 292.4 272.7" xml:space="preserve">
<g>
	<rect x="155.4" y="16.5" fill-rule="evenodd" clip-rule="evenodd" fill="#0077C0" width="2.2" height="109.8"/>
	<g>
		<g>
			<g>
				<rect x="33" y="146.2" fill="#0077C0" width="5.6" height="27"/>
				<path fill="#0077C0" d="M53.7,152.8c-1.6,0-3,0.4-4.1,1.2c-0.6,0.4-1.2,1.2-1.9,2.2v-2.9h-5v19.9h5.2v-10.8c0-1.2,0.2-2.2,0.5-3
					c0.7-1.5,1.9-2.2,3.6-2.2c1.4,0,2.4,0.5,2.9,1.5c0.3,0.6,0.4,1.4,0.4,2.4v12.1h5.3v-13.4c0-2.5-0.6-4.3-2-5.4
					C57.5,153.3,55.8,152.8,53.7,152.8z"/>
				<path fill="#0077C0" d="M70.7,147.9h-5.2v5.6h-2.8v3.7h2.8v12.3c0,1.2,0.3,2.2,0.9,2.8c0.9,0.9,2.6,1.4,5.1,1.3l2.5-0.1v-3.9
					c-0.2,0-0.3,0-0.5,0c-0.2,0-0.3,0-0.5,0c-1.1,0-1.7-0.1-1.9-0.3c-0.2-0.2-0.3-0.7-0.3-1.5v-10.5H74v-3.7h-3.2V147.9z"/>
				<path fill="#0077C0" d="M93.8,156.6c-0.9-1.3-2.1-2.3-3.4-3c-1.4-0.6-3-0.9-4.7-0.9c-2.9,0-5.3,0.9-7.1,2.8
					c-1.8,1.8-2.7,4.5-2.7,8c0,3.7,1,6.4,3,8c2,1.6,4.4,2.5,7,2.5c3.2,0,5.7-1,7.5-2.9c1.1-1.2,1.8-2.4,1.9-3.6h-5.3
					c-0.3,0.6-0.7,1-1.1,1.4c-0.7,0.6-1.7,0.9-2.9,0.9c-1.1,0-2.1-0.2-2.9-0.8c-1.3-0.8-2-2.2-2.1-4.2h14.5c0-1.7,0-3-0.2-4
					C95.1,159.2,94.6,157.8,93.8,156.6z M81.1,161.2c0.2-1.3,0.7-2.3,1.4-3.1c0.7-0.8,1.8-1.1,3.1-1.1c1.2,0,2.3,0.4,3.1,1.1
					c0.8,0.7,1.3,1.8,1.4,3.2H81.1z"/>
				<path fill="#0077C0" d="M108.9,152.8c-1.6,0-2.8,0.4-3.8,1.2c-0.6,0.5-1.3,1.4-2.1,2.7v-3.5h-5v20h5.3v-9.5
					c0-1.6,0.2-2.8,0.6-3.6c0.7-1.4,2.1-2,4.2-2c0.2,0,0.4,0,0.6,0c0.3,0,0.5,0,0.9,0.1v-5.3c-0.2,0-0.4,0-0.4,0
					C109.1,152.8,109,152.8,108.9,152.8z"/>
				<rect x="112.2" y="160.3" fill="#0077C0" width="10.2" height="4.9"/>
				<path fill="#0077C0" d="M133.8,146.2l-9.6,27h5.9l1.8-5.5h9.9l1.8,5.5h6.1l-9.5-27H133.8z M133.4,163l3.5-10.6l3.4,10.6H133.4z"
					/>
				<path fill="#0077C0" d="M165.4,156.1c-0.8-1.4-1.8-2.4-3.1-2.9c-0.7-0.3-1.6-0.5-2.6-0.5c-2.7,0-4.8,1-6.3,3
					c-1.5,2-2.2,4.5-2.2,7.5c0,3.1,0.8,5.5,2.3,7.3c1.5,1.8,3.6,2.7,6.1,2.7c1.7,0,3-0.4,4-1.2c0.6-0.4,1.1-1.1,1.6-1.9v1.3
					c0,1.9-0.2,3.3-0.6,4.1c-0.6,1.3-1.9,1.9-3.8,1.9c-1.3,0-2.3-0.2-2.8-0.7c-0.3-0.3-0.6-0.7-0.7-1.3h-5.7c0.2,2,1.1,3.5,2.7,4.5
					c1.6,1,3.7,1.5,6.2,1.5c4.2,0,7.1-1.1,8.6-3.4c0.9-1.3,1.3-3.2,1.3-5.8v-18.9h-5.1V156.1z M164.1,167.5
					c-0.8,0.9-1.9,1.4-3.1,1.4c-1.8,0-3.1-0.8-3.8-2.5c-0.4-0.9-0.6-1.9-0.6-3.1c0-1.3,0.2-2.5,0.5-3.4c0.7-1.7,2-2.6,3.8-2.6
					c1.3,0,2.4,0.5,3.2,1.5c0.8,1,1.2,2.4,1.2,4.3C165.3,165.1,164.9,166.6,164.1,167.5z"/>
				<path fill="#0077C0" d="M191.5,156.6c-0.9-1.3-2.1-2.3-3.4-3c-1.4-0.6-3-0.9-4.7-0.9c-2.9,0-5.3,0.9-7.1,2.8
					c-1.8,1.8-2.8,4.5-2.8,8c0,3.7,1,6.4,3,8c2,1.6,4.4,2.5,7,2.5c3.2,0,5.7-1,7.5-2.9c1.1-1.2,1.8-2.4,1.9-3.6h-5.3
					c-0.3,0.6-0.7,1-1.1,1.4c-0.8,0.6-1.7,0.9-2.9,0.9c-1.1,0-2.1-0.2-2.9-0.8c-1.3-0.8-2-2.2-2.1-4.2h14.5c0-1.7,0-3-0.2-4
					C192.8,159.2,192.3,157.8,191.5,156.6z M178.8,161.2c0.2-1.3,0.7-2.3,1.4-3.1c0.7-0.8,1.8-1.1,3.1-1.1c1.2,0,2.3,0.4,3.1,1.1
					c0.8,0.7,1.3,1.8,1.4,3.2H178.8z"/>
				<path fill="#0077C0" d="M206.8,152.8c-1.6,0-3,0.4-4.1,1.2c-0.6,0.4-1.2,1.2-1.9,2.2v-2.9h-5.1v19.9h5.2v-10.8
					c0-1.2,0.2-2.2,0.5-3c0.7-1.5,1.9-2.2,3.6-2.2c1.4,0,2.4,0.5,2.9,1.5c0.3,0.6,0.4,1.4,0.4,2.4v12.1h5.3v-13.4
					c0-2.5-0.7-4.3-2-5.4C210.5,153.3,208.9,152.8,206.8,152.8z"/>
				<path fill="#0077C0" d="M226,157.2c1.2,0,2.1,0.4,2.7,1.2c0.4,0.6,0.7,1.3,0.8,2h5.3c-0.3-2.8-1.2-4.8-2.8-6
					c-1.6-1.1-3.6-1.7-6.1-1.7c-2.9,0-5.3,1-6.9,2.9c-1.7,1.9-2.5,4.6-2.5,8c0,3,0.8,5.5,2.3,7.4c1.5,1.9,3.9,2.9,7.1,2.9
					c3.2,0,5.6-1.1,7.3-3.4c1-1.4,1.6-2.9,1.7-4.5h-5.3c-0.1,1-0.4,1.9-0.9,2.6c-0.5,0.7-1.4,1-2.6,1c-1.7,0-2.9-0.8-3.5-2.5
					c-0.3-0.9-0.5-2.1-0.5-3.5c0-1.5,0.2-2.8,0.5-3.7C223.1,158,224.3,157.2,226,157.2z"/>
				<path fill="#0077C0" d="M245.8,168l-4.4-14.7h-5.8l7.3,20.8c0,0.1-0.1,0.5-0.3,1.2c-0.3,0.7-0.5,1.1-0.9,1.3
					c-0.3,0.2-0.7,0.4-1.2,0.4c-0.5,0.1-0.9,0.1-1.5,0.1l-0.7,0v4.2c0.6,0,1,0.1,1.3,0.1c0.3,0,0.7,0,1.1,0c2.3,0,3.9-0.5,4.6-1.4
					c0.8-0.9,1.8-3.3,3.1-7l6.8-19.6h-5.5L245.8,168z"/>
			</g>
			<g>
				<path fill="#0077C0" d="M43.6,190.3c2,0,3.5,0.6,4.5,1.8c0.6,0.7,1,1.6,1.4,2.9H55c-0.1-1.7-0.7-3.4-1.8-5
					c-2.1-3-5.4-4.5-9.9-4.5c-3.4,0-6.1,1.1-8.3,3.3c-2.5,2.5-3.7,6.2-3.7,10.9c0,4.4,1.1,7.8,3.3,10.3c2.2,2.5,5.2,3.7,9.1,3.7
					c3.1,0,5.7-0.9,7.6-2.8c2-1.8,3.2-4.2,3.7-7.2h-5.6c-0.4,1.4-0.8,2.4-1.4,3.1c-1,1.3-2.5,1.9-4.4,1.9c-1.9,0-3.4-0.8-4.7-2.3
					c-1.2-1.5-1.8-3.8-1.8-6.8c0-3,0.6-5.4,1.7-7C40,191.1,41.6,190.3,43.6,190.3z"/>
				<path fill="#0077C0" d="M67.2,192.4c-3.4,0-6,1.1-7.7,3.2c-1.7,2.1-2.5,4.6-2.5,7.5c0,2.9,0.8,5.4,2.5,7.5
					c1.7,2.1,4.2,3.1,7.7,3.1c3.4,0,6-1,7.7-3.1c1.7-2.1,2.5-4.6,2.5-7.5c0-2.9-0.8-5.4-2.5-7.5C73.2,193.4,70.6,192.4,67.2,192.4z
					 M70.7,207.7c-0.8,1.1-2,1.6-3.5,1.6c-1.5,0-2.7-0.5-3.5-1.6c-0.8-1.1-1.2-2.6-1.2-4.6c0-2,0.4-3.5,1.2-4.6
					c0.8-1.1,2-1.6,3.5-1.6c1.5,0,2.7,0.5,3.5,1.6c0.8,1.1,1.2,2.6,1.2,4.6C71.9,205,71.5,206.6,70.7,207.7z"/>
				<path fill="#0077C0" d="M89.6,192.4c-3.4,0-6,1.1-7.7,3.2c-1.7,2.1-2.5,4.6-2.5,7.5c0,2.9,0.8,5.4,2.5,7.5
					c1.7,2.1,4.2,3.1,7.7,3.1c3.4,0,6-1,7.7-3.1c1.7-2.1,2.5-4.6,2.5-7.5c0-2.9-0.8-5.4-2.5-7.5C95.5,193.4,93,192.4,89.6,192.4z
					 M93.1,207.7c-0.8,1.1-2,1.6-3.5,1.6c-1.5,0-2.7-0.5-3.5-1.6c-0.8-1.1-1.2-2.6-1.2-4.6c0-2,0.4-3.5,1.2-4.6
					c0.8-1.1,2-1.6,3.5-1.6c1.5,0,2.7,0.5,3.5,1.6c0.8,1.1,1.2,2.6,1.2,4.6C94.3,205,93.9,206.6,93.1,207.7z"/>
				<path fill="#0077C0" d="M113.7,192.6c-1.6,0-2.8,0.4-3.8,1.2c-0.6,0.5-1.3,1.4-2.1,2.7V193h-5v20h5.3v-9.5
					c0-1.6,0.2-2.8,0.6-3.6c0.7-1.4,2.1-2,4.2-2c0.2,0,0.4,0,0.6,0c0.3,0,0.5,0,0.9,0.1v-5.3c-0.2,0-0.4,0-0.4,0
					C113.9,192.6,113.8,192.6,113.7,192.6z"/>
				<path fill="#0077C0" d="M129.8,195.6c-0.6-0.9-1.3-1.7-2.3-2.2c-0.9-0.5-2-0.8-3.2-0.8c-2.6,0-4.7,1-6.3,2.9
					c-1.6,1.9-2.4,4.6-2.4,8c0,3,0.8,5.4,2.4,7.3c1.6,1.9,3.5,2.8,5.9,2.8c1.4,0,2.6-0.3,3.5-0.8c1-0.5,1.8-1.4,2.5-2.6v2.8h5.1v-27
					h-5.3V195.6z M128.8,207.6c-0.8,1.1-1.9,1.6-3.4,1.6c-1.5,0-2.6-0.6-3.3-1.7c-0.7-1.1-1.1-2.6-1.1-4.4c0-1.7,0.4-3.1,1.1-4.3
					c0.7-1.2,1.8-1.7,3.4-1.7c1,0,1.9,0.3,2.6,1c1.2,1.1,1.8,2.8,1.8,5.2C129.9,205,129.5,206.5,128.8,207.6z"/>
				<rect x="139.3" y="193" fill="#0077C0" width="5.3" height="20"/>
				<rect x="139.3" y="185.8" fill="#0077C0" width="5.3" height="4.8"/>
				<path fill="#0077C0" d="M160.1,192.6c-1.6,0-3,0.4-4.1,1.2c-0.6,0.4-1.2,1.2-1.9,2.2v-2.9h-5.1V213h5.2v-10.8
					c0-1.2,0.2-2.2,0.5-3c0.7-1.5,1.9-2.3,3.6-2.3c1.4,0,2.4,0.5,2.9,1.5c0.3,0.6,0.4,1.4,0.4,2.4V213h5.4v-13.4
					c0-2.5-0.7-4.3-2-5.4C163.8,193.1,162.1,192.6,160.1,192.6z"/>
				<path fill="#0077C0" d="M187.7,210.2c0-0.9,0-1.7,0-2.3v-9.1c0-2.4-0.9-4-2.6-4.9c-1.7-0.9-3.6-1.3-5.8-1.3
					c-3.4,0-5.7,0.9-7.1,2.6c-0.9,1.1-1.4,2.6-1.5,4.3h5c0.1-0.8,0.4-1.4,0.7-1.8c0.5-0.6,1.4-0.9,2.7-0.9c1.1,0,2,0.2,2.5,0.5
					c0.6,0.3,0.9,0.9,0.9,1.7c0,0.7-0.4,1.2-1.1,1.5c-0.4,0.2-1.1,0.3-2.1,0.5l-1.8,0.2c-2,0.3-3.6,0.7-4.6,1.3
					c-1.9,1.1-2.9,2.9-2.9,5.3c0,1.9,0.6,3.4,1.8,4.4c1.2,1,2.7,1.5,4.5,1.5c1.4,0,2.7-0.3,3.8-1c0.9-0.6,1.8-1.2,2.5-2
					c0,0.4,0.1,0.9,0.1,1.2c0.1,0.4,0.2,0.7,0.3,1.1h5.7v-0.8c-0.3-0.2-0.6-0.4-0.8-0.6C187.8,211.4,187.7,210.9,187.7,210.2z
					 M182.4,205.2c0,1.7-0.5,2.9-1.5,3.6c-1,0.7-2,1-3.2,1c-0.7,0-1.3-0.2-1.8-0.6c-0.5-0.4-0.8-1-0.8-1.9c0-1,0.4-1.7,1.2-2.2
					c0.5-0.3,1.3-0.5,2.4-0.7l1.2-0.2c0.6-0.1,1.1-0.2,1.4-0.4c0.3-0.1,0.7-0.3,1-0.5V205.2z"/>
				<path fill="#0077C0" d="M197.8,187.7h-5.2v5.6h-2.8v3.7h2.8v12.3c0,1.2,0.3,2.2,0.9,2.8c0.9,0.9,2.6,1.4,5,1.3l2.5-0.1v-3.9
					c-0.2,0-0.3,0-0.5,0c-0.2,0-0.3,0-0.5,0c-1.1,0-1.7-0.1-1.9-0.3c-0.2-0.2-0.3-0.7-0.3-1.5v-10.5h3.2v-3.7h-3.2V187.7z"/>
				<rect x="204.6" y="193" fill="#0077C0" width="5.3" height="20"/>
				<rect x="204.3" y="185.8" fill="#0077C0" width="5.3" height="4.8"/>
				<path fill="#0077C0" d="M222.6,192.4c-3.4,0-6,1.1-7.7,3.2c-1.7,2.1-2.5,4.6-2.5,7.5c0,2.9,0.8,5.4,2.5,7.5
					c1.7,2.1,4.2,3.1,7.7,3.1c3.4,0,6-1,7.7-3.1c1.7-2.1,2.5-4.6,2.5-7.5c0-2.9-0.8-5.4-2.5-7.5C228.6,193.4,226,192.4,222.6,192.4z
					 M226.1,207.7c-0.8,1.1-2,1.6-3.5,1.6c-1.5,0-2.7-0.5-3.5-1.6c-0.8-1.1-1.2-2.6-1.2-4.6c0-2,0.4-3.5,1.2-4.6
					c0.8-1.1,2-1.6,3.5-1.6c1.5,0,2.7,0.5,3.5,1.6c0.8,1.1,1.2,2.6,1.2,4.6C227.3,205,226.9,206.6,226.1,207.7z"/>
				<path fill="#0077C0" d="M251.3,194.2c-1.3-1.1-3-1.6-5-1.6c-1.6,0-3,0.4-4.1,1.2c-0.6,0.4-1.2,1.2-1.9,2.2v-2.9h-5.1V213h5.2
					v-10.8c0-1.2,0.2-2.2,0.5-3c0.7-1.5,1.9-2.3,3.6-2.3c1.4,0,2.4,0.5,2.9,1.5c0.3,0.6,0.4,1.4,0.4,2.4V213h5.4v-13.4
					C253.2,197,252.6,195.3,251.3,194.2z"/>
			</g>
		</g>
		<g>
			<polygon fill="#0077C0" points="87.8,223.7 85.6,223.7 85.6,247.1 100.3,247.1 100.3,245.2 87.8,245.2 			"/>
			<path fill="#0077C0" d="M113.5,232.2c-1.3-1.6-3.1-2.4-5.5-2.4c-1.2,0-2.3,0.2-3.3,0.7c-1,0.5-1.8,1.1-2.4,1.9
				c-0.7,0.8-1.2,1.8-1.5,2.8c-0.4,1.1-0.5,2.2-0.5,3.5c0,1.2,0.2,2.4,0.5,3.5c0.3,1.1,0.8,2,1.4,2.8c0.6,0.8,1.4,1.4,2.4,1.9
				c1,0.5,2.1,0.7,3.5,0.7c1.1,0,2-0.1,2.8-0.4c0.8-0.3,1.5-0.7,2.1-1.2c0.6-0.5,1.1-1.1,1.5-1.8c0.4-0.7,0.7-1.4,0.9-2.2h-2.2
				c-0.3,1.2-0.9,2.2-1.8,2.9c-0.9,0.7-2,1-3.3,1c-0.9,0-1.8-0.2-2.5-0.5c-0.7-0.4-1.3-0.8-1.8-1.4c-0.5-0.6-0.8-1.3-1.1-2.1
				c-0.2-0.8-0.4-1.7-0.4-2.6h13.1C115.5,236.1,114.9,233.8,113.5,232.2z M102.4,237.5c0.1-0.8,0.3-1.6,0.6-2.3
				c0.3-0.7,0.7-1.3,1.1-1.9c0.5-0.5,1-1,1.7-1.3c0.7-0.3,1.4-0.5,2.3-0.5c0.9,0,1.6,0.2,2.3,0.5c0.7,0.3,1.2,0.7,1.7,1.3
				c0.4,0.5,0.8,1.2,1,1.9c0.2,0.7,0.3,1.5,0.3,2.3H102.4z"/>
			<path fill="#0077C0" d="M131.8,232.5c-0.6-0.8-1.4-1.5-2.3-2c-0.9-0.5-2-0.7-3.3-0.7c-1.2,0-2.3,0.3-3.4,0.8
				c-1.1,0.5-2,1.3-2.6,2.4v-9.3h-2v23.4h2v-3h0.1c0.3,0.6,0.6,1.1,1.1,1.5c0.4,0.4,0.9,0.8,1.5,1.1c0.5,0.3,1.1,0.5,1.6,0.6
				c0.6,0.2,1.1,0.2,1.7,0.2c1.4,0,2.5-0.2,3.5-0.7c1-0.5,1.7-1.1,2.4-1.9c0.6-0.8,1.1-1.7,1.3-2.8c0.3-1.1,0.4-2.2,0.4-3.5
				c0-1.2-0.1-2.3-0.4-3.4C132.9,234.2,132.5,233.3,131.8,232.5z M131.2,242c-0.3,0.8-0.7,1.5-1.2,2.1c-0.5,0.6-1.1,1-1.8,1.3
				c-0.7,0.3-1.5,0.4-2.3,0.4c-0.9,0-1.7-0.2-2.4-0.6c-0.7-0.4-1.3-0.9-1.8-1.5c-0.5-0.6-0.8-1.4-1.1-2.3c-0.2-0.9-0.4-1.8-0.4-2.8
				c0-1,0.1-1.9,0.4-2.7c0.3-0.9,0.6-1.6,1.1-2.2c0.5-0.6,1.1-1.1,1.8-1.5c0.7-0.4,1.5-0.6,2.4-0.6c1,0,1.9,0.2,2.6,0.6
				c0.8,0.4,1.4,0.9,1.8,1.6c0.5,0.7,0.8,1.5,1,2.4c0.2,0.9,0.3,1.9,0.3,3C131.6,240.3,131.5,241.2,131.2,242z"/>
			<path fill="#0077C0" d="M149.9,245.6c-0.3-0.2-0.4-0.7-0.4-1.4V235c0-1-0.1-1.8-0.5-2.5c-0.3-0.7-0.7-1.2-1.3-1.6
				c-0.6-0.4-1.2-0.7-2-0.9c-0.8-0.2-1.5-0.3-2.4-0.3c-0.9,0-1.8,0.1-2.6,0.3c-0.8,0.2-1.5,0.5-2.1,1c-0.6,0.4-1.1,1-1.5,1.7
				c-0.4,0.7-0.6,1.6-0.7,2.5h2c0.1-0.7,0.3-1.4,0.5-1.8c0.3-0.5,0.6-0.9,1-1.2c0.4-0.3,0.9-0.5,1.5-0.6c0.6-0.1,1.2-0.2,1.9-0.2
				c1.5,0,2.6,0.3,3.2,1c0.6,0.6,0.9,1.5,0.9,2.5c0,0.3,0,0.6-0.1,1c-0.1,0.4-0.3,0.6-0.6,0.8c-0.3,0.2-0.7,0.3-1.3,0.4
				c-0.5,0.1-0.9,0.1-1.3,0.2l-2.7,0.4c-3.9,0.5-5.9,2.2-5.9,5.1c0,0.8,0.2,1.5,0.5,2.1c0.3,0.6,0.7,1.1,1.2,1.5
				c0.5,0.4,1.1,0.7,1.8,0.9c0.7,0.2,1.4,0.3,2.1,0.3c1.2,0,2.4-0.2,3.4-0.7c1.1-0.5,2-1.2,2.8-2.1c0,0.3,0,0.6,0.1,0.9
				c0,0.3,0.1,0.5,0.2,0.7c0.1,0.2,0.3,0.4,0.5,0.6c0.2,0.2,0.5,0.3,0.8,0.3c0.3,0.1,0.6,0.1,0.9,0.1c0.3,0,0.6,0,0.9-0.1
				c0.3-0.1,0.5-0.1,0.7-0.2v-1.5C150.7,245.8,150.2,245.9,149.9,245.6z M147.5,240.9c0,0.8-0.2,1.6-0.5,2.2
				c-0.3,0.6-0.8,1.1-1.4,1.5c-0.6,0.4-1.2,0.7-2,0.9c-0.7,0.2-1.5,0.3-2.3,0.3c-0.5,0-0.9-0.1-1.4-0.2c-0.4-0.1-0.8-0.3-1.2-0.6
				c-0.3-0.2-0.6-0.6-0.8-0.9c-0.2-0.4-0.3-0.8-0.3-1.3c0-1.2,0.4-2,1.2-2.6c0.8-0.6,2-0.9,3.5-1c0.8-0.1,1.7-0.2,2.5-0.3
				c0.8-0.1,1.7-0.3,2.5-0.7V240.9z"/>
			<path fill="#0077C0" d="M166.5,232.2c-0.6-0.9-1.4-1.5-2.2-1.9c-0.9-0.4-1.8-0.5-2.9-0.5c-1.2,0-2.2,0.3-3,0.8
				c-0.8,0.5-1.6,1.2-2.4,2v-2.3H154v16.8h1.9V238c0-0.6,0-1.1,0.1-1.6c0-0.5,0.2-1,0.4-1.6c0.2-0.4,0.4-0.8,0.6-1.2
				c0.3-0.4,0.6-0.7,1-1c0.4-0.3,0.9-0.5,1.3-0.7c0.5-0.2,1-0.3,1.7-0.3c1.6,0,2.7,0.4,3.4,1.1c0.7,0.8,1,1.9,1,3.4v11h1.9v-11
				c0-0.7,0-1.4-0.1-2C167.1,233.4,166.9,232.8,166.5,232.2z"/>
			<path fill="#0077C0" d="M183.3,232.4c-0.6-0.8-1.5-1.4-2.4-1.9c-1-0.5-2.1-0.7-3.4-0.7c-1.3,0-2.4,0.2-3.4,0.7
				c-1,0.5-1.8,1.1-2.4,1.9c-0.6,0.8-1.1,1.7-1.5,2.8c-0.3,1.1-0.5,2.2-0.5,3.5c0,1.5,0.2,2.8,0.6,3.9c0.4,1.1,1,2,1.7,2.8
				c0.7,0.7,1.5,1.3,2.5,1.7c0.9,0.4,2,0.6,3,0.6c1.2,0,2.2-0.2,3.2-0.6c1-0.4,1.8-1,2.5-1.8c0.7-0.8,1.2-1.7,1.6-2.8
				c0.4-1.1,0.5-2.3,0.5-3.6c0-1.2-0.2-2.4-0.5-3.5C184.5,234.1,184,233.2,183.3,232.4z M182.8,241.3c-0.2,0.8-0.5,1.6-1,2.3
				c-0.5,0.7-1,1.2-1.8,1.6c-0.7,0.4-1.6,0.6-2.6,0.6c-0.9,0-1.8-0.2-2.5-0.5c-0.7-0.3-1.3-0.8-1.8-1.5c-0.5-0.6-0.8-1.4-1.1-2.3
				c-0.2-0.9-0.4-1.8-0.4-2.9c0-0.9,0.1-1.8,0.3-2.6c0.2-0.9,0.5-1.6,1-2.3c0.5-0.7,1-1.2,1.8-1.6c0.7-0.4,1.6-0.6,2.6-0.6
				c1,0,1.9,0.2,2.6,0.6c0.7,0.4,1.3,0.9,1.8,1.5c0.5,0.6,0.8,1.4,1,2.3c0.2,0.9,0.3,1.8,0.3,2.8C183.2,239.6,183,240.5,182.8,241.3
				z"/>
			<path fill="#0077C0" d="M201.1,234.1c-0.1-0.6-0.3-1.3-0.7-1.9c-0.6-0.9-1.4-1.5-2.2-1.9c-0.9-0.4-1.9-0.5-2.9-0.5
				c-1.2,0-2.2,0.3-3,0.8c-0.8,0.5-1.6,1.2-2.4,2v-2.3h-2v16.8h2V238c0-0.6,0-1.1,0.1-1.6c0-0.5,0.2-1,0.4-1.6
				c0.2-0.4,0.4-0.8,0.6-1.2c0.3-0.4,0.6-0.7,1-1c0.4-0.3,0.8-0.5,1.3-0.7c0.5-0.2,1-0.3,1.7-0.3c1.6,0,2.7,0.4,3.3,1.1
				c0.7,0.8,1,1.9,1,3.4v11h1.9v-11C201.2,235.4,201.2,234.7,201.1,234.1z"/>
		</g>
	</g>
	<g>
		<g>
			<path fill-rule="evenodd" clip-rule="evenodd" fill="#0077C0" d="M108.3,91.2c-4.8-4.8-4.8-4.8-4.8-4.8c5.7-6,9.3-14.1,9.4-22.9
				c6.8,0,6.8,0,6.8,0C119.6,74.2,115.3,84,108.3,91.2 M79.7,103.7c0-6.8,0-6.8,0-6.8c8.9-0.1,17-3.8,23-9.6
				c4.8,4.8,4.8,4.8,4.8,4.8C100.3,99.1,90.5,103.5,79.7,103.7z M79.1,70.3c-4,0-7.2-3.2-7.2-7.2c0-3.9,3.2-7.2,7.2-7.2
				c4,0,7.2,3.3,7.2,7.2C86.3,67.1,83,70.3,79.1,70.3z M78.5,79.3c-4.1-0.1-7.8-1.8-10.6-4.4c5.5-5.5,5.5-5.5,5.5-5.5
				c1.4,1.2,3.2,2,5.1,2.2C78.5,79.3,78.5,79.3,78.5,79.3z M78.5,87.7C72.1,87.6,66.3,85,62,80.8c5.2-5.2,5.2-5.2,5.2-5.2
				c3,2.8,6.9,4.6,11.3,4.7C78.5,87.7,78.5,87.7,78.5,87.7z M78.5,95.5c-8.6-0.2-16.3-3.6-22-9.2c4.6-4.6,4.6-4.6,4.6-4.6
				c4.6,4.4,10.7,7.2,17.5,7.3C78.5,95.5,78.5,95.5,78.5,95.5z M78.5,103.7c-10.8-0.2-20.6-4.6-27.8-11.6c4.8-4.8,4.8-4.8,4.8-4.8
				c6,5.8,14,9.4,23,9.6C78.5,103.7,78.5,103.7,78.5,103.7z M38.5,63.5c6.9,0,6.9,0,6.9,0c0.1,8.9,3.7,17,9.4,22.9
				c-4.8,4.8-4.8,4.8-4.8,4.8C42.9,84,38.6,74.3,38.5,63.5z M50,34.7c4.8,4.8,4.8,4.8,4.8,4.8c-5.8,5.9-9.4,13.9-9.6,22.8
				c-6.8,0-6.8,0-6.8,0C38.7,51.6,43,41.9,50,34.7z M61.2,44.2c-4.6-4.6-4.6-4.6-4.6-4.6c5.7-5.5,13.4-8.9,21.9-9.1
				c0,6.5,0,6.5,0,6.5C71.8,37.2,65.8,39.9,61.2,44.2z M67.4,50.4c-5.3-5.2-5.3-5.2-5.3-5.2c4.3-4.1,10-6.6,16.4-6.8
				c0,7.4,0,7.4,0,7.4C74.2,45.9,70.3,47.6,67.4,50.4z M68.1,51.1c2.8-2.5,6.4-4.1,10.4-4.3c0,7.8,0,7.8,0,7.8
				c-1.8,0.1-3.5,0.8-4.9,1.9C68.1,51.1,68.1,51.1,68.1,51.1z M62.9,62.3c0.2-4,1.8-7.7,4.4-10.4c5.5,5.5,5.5,5.5,5.5,5.5
				c-1.2,1.3-2,3-2.2,4.9C62.9,62.3,62.9,62.3,62.9,62.3z M62.9,63.5c7.8,0,7.8,0,7.8,0c0.1,1.9,0.8,3.7,2,5.1
				C67.1,74,67.1,74,67.1,74C64.6,71.2,63,67.5,62.9,63.5z M54.4,63.5c7.4,0,7.4,0,7.4,0c0.1,4.3,1.8,8.3,4.6,11.3
				C61.2,80,61.2,80,61.2,80C57.1,75.7,54.5,69.9,54.4,63.5z M53.1,63.5c0.1,6.7,2.8,12.9,7.1,17.4c-4.6,4.6-4.6,4.6-4.6,4.6
				c-5.5-5.8-8.9-13.5-9.1-22C53.1,63.5,53.1,63.5,53.1,63.5z M61.3,45.9c5.2,5.2,5.2,5.2,5.2,5.2c-2.8,2.9-4.5,6.8-4.7,11.1
				c-7.4,0-7.4,0-7.4,0C54.6,56,57.2,50.2,61.3,45.9z M53.1,62.3c-6.5,0-6.5,0-6.5,0c0.2-8.5,3.7-16.2,9.2-21.9
				c4.6,4.6,4.6,4.6,4.6,4.6C56,49.5,53.3,55.6,53.1,62.3z M78.5,22.4c0,6.8,0,6.8,0,6.8c-8.8,0.2-16.9,3.7-22.8,9.4
				c-4.8-4.8-4.8-4.8-4.8-4.8C58.1,26.9,67.8,22.6,78.5,22.4z M79.7,46.8c4,0.1,7.6,1.7,10.4,4.3c-5.5,5.6-5.5,5.6-5.5,5.6
				c-1.3-1.1-3-1.8-4.8-2C79.7,46.8,79.7,46.8,79.7,46.8z M79.7,38.4c6.3,0.2,12.1,2.7,16.4,6.8c-5.3,5.2-5.3,5.2-5.3,5.2
				c-2.9-2.7-6.8-4.4-11.1-4.6C79.7,38.4,79.7,38.4,79.7,38.4z M79.7,30.5c8.5,0.2,16.2,3.6,21.9,9.1C97,44.2,97,44.2,97,44.2
				c-4.5-4.3-10.6-7-17.3-7.1C79.7,30.5,79.7,30.5,79.7,30.5z M79.7,22.4c10.7,0.1,20.5,4.5,27.7,11.4c-4.8,4.8-4.8,4.8-4.8,4.8
				c-6-5.7-14-9.3-22.8-9.4C79.7,22.4,79.7,22.4,79.7,22.4z M98,80.9c4.3-4.6,7-10.7,7.1-17.5c6.5,0,6.5,0,6.5,0
				c-0.1,8.5-3.5,16.3-9,22C98,80.9,98,80.9,98,80.9z M97.2,81.8c4.6,4.6,4.6,4.6,4.6,4.6c-5.7,5.6-13.5,9.1-22.1,9.2
				c0-6.5,0-6.5,0-6.5C86.5,88.9,92.6,86.1,97.2,81.8z M91,75.6c5.2,5.2,5.2,5.2,5.2,5.2c-4.3,4.2-10.1,6.8-16.6,6.9
				c0-7.4,0-7.4,0-7.4C84.1,80.2,88,78.4,91,75.6z M90.3,74.8c-2.8,2.6-6.5,4.3-10.6,4.4c0-7.7,0-7.7,0-7.7c1.9-0.1,3.7-1,5.1-2.2
				C90.3,74.8,90.3,74.8,90.3,74.8z M87.5,63.5c7.8,0,7.8,0,7.8,0c-0.1,4-1.7,7.7-4.3,10.5c-5.5-5.5-5.5-5.5-5.5-5.5
				C86.7,67.1,87.5,65.4,87.5,63.5z M95.3,62.3c-7.8,0-7.8,0-7.8,0c-0.2-1.9-1-3.5-2.2-4.8c5.6-5.5,5.6-5.5,5.6-5.5
				C93.5,54.7,95.1,58.3,95.3,62.3z M103.8,63.5c-0.1,6.4-2.7,12.2-6.7,16.5c-5.2-5.2-5.2-5.2-5.2-5.2c2.8-3,4.5-6.9,4.6-11.3
				C103.8,63.5,103.8,63.5,103.8,63.5z M97.8,45c4.6-4.6,4.6-4.6,4.6-4.6c5.5,5.7,9,13.4,9.2,21.9c-6.5,0-6.5,0-6.5,0
				C104.9,55.6,102.2,49.5,97.8,45z M103.8,62.3c-7.4,0-7.4,0-7.4,0c-0.2-4.3-1.9-8.2-4.7-11.1c5.3-5.2,5.3-5.2,5.3-5.2
				C101,50.2,103.6,56,103.8,62.3z M119.7,62.3c-6.8,0-6.8,0-6.8,0c-0.2-8.8-3.8-16.9-9.6-22.8c4.8-4.8,4.8-4.8,4.8-4.8
				C115.2,41.9,119.5,51.6,119.7,62.3z M79.1,20.7c-23.3,0-42.4,19-42.4,42.4c0,23.3,19,42.4,42.4,42.4c23.3,0,42.4-19,42.4-42.4
				C121.5,39.7,102.4,20.7,79.1,20.7z"/>
			<path fill-rule="evenodd" clip-rule="evenodd" fill="#0077C0" d="M56.7,92.7c-0.1,0.8-0.5,0.8-0.6,0.8c-1-0.2-1-1.8-0.5-1.9
				C56.5,91.4,56.8,92.1,56.7,92.7"/>
			<path fill-rule="evenodd" clip-rule="evenodd" fill="#0077C0" d="M46.9,84.4c-0.3-0.1-0.6-0.4-0.7-1c0-0.3,0.2-0.4,0.5-0.5
				c0.5-0.1,0.8,0.3,0.9,0.8C47.6,84.2,47.3,84.4,46.9,84.4"/>
			<path fill-rule="evenodd" clip-rule="evenodd" fill="#0077C0" d="M46.1,82.3c-0.9,0.5-2.3-1.5-1.1-1.9
				C45.8,80.1,46.6,82,46.1,82.3"/>
			<path fill-rule="evenodd" clip-rule="evenodd" fill="#0077C0" d="M44.1,79.8c-0.4,0.3-0.9,0.3-1.2-0.3c-0.2-0.4-0.2-0.6,0-0.9
				c0.2-0.2,0.3-0.2,0.7-0.2C43.8,78.6,44.4,79.4,44.1,79.8"/>
			<path fill-rule="evenodd" clip-rule="evenodd" fill="#0077C0" d="M62.1,72.9c-0.3,0-0.7,0-0.9-0.4c0.1-0.5,0.3-0.7,0.5-0.7
				c0.2-0.2,0.7-0.3,1,0.1C62.7,72.4,62.5,72.6,62.1,72.9"/>
			<path fill-rule="evenodd" clip-rule="evenodd" fill="#0077C0" d="M61.7,69.4c0,0.5,0.2,1.8-0.5,1.8c-0.4,0-0.4-0.7-0.5-1.3
				c-0.1-0.5-0.5-0.8-0.2-1.3c0.2-0.2,0.6-0.2,0.7-0.2C61.4,68.6,61.7,69.2,61.7,69.4"/>
			<path fill-rule="evenodd" clip-rule="evenodd" fill="#0077C0" d="M76.3,92.2c-0.2,0-0.5-0.2-0.6-0.4c0-0.4,0.3-0.6,0.3-0.6
				c0.4-0.2,0.9,0.4,0.7,0.6C76.7,92,76.6,92.1,76.3,92.2"/>
			<path fill-rule="evenodd" clip-rule="evenodd" fill="#0077C0" d="M74.8,89.6c-0.7,0.1-1.1,0-1.1-0.5c0.1-0.5,0.6-0.5,0.8-0.5
				C75.4,88.9,75.2,89.5,74.8,89.6"/>
			<path fill-rule="evenodd" clip-rule="evenodd" fill="#0077C0" d="M113.4,83.2c-0.2,0.2-0.3,0.5-0.5,0.7c0,0-0.4-0.4-0.6-0.4
				c0-0.2-0.2-0.3-0.2-0.5c0-0.2,0.4-0.7,0.6-0.9c0.4,0,0.8,0.2,0.9,0.4C113.6,82.7,113.4,83,113.4,83.2"/>
			<path fill-rule="evenodd" clip-rule="evenodd" fill="#0077C0" d="M104.7,80.7c-0.2,0-0.6,0-0.7-0.3c0.2-0.5,0.7-0.6,1-0.4
				C105.1,80.3,105,80.6,104.7,80.7"/>
			<path fill-rule="evenodd" clip-rule="evenodd" fill="#0077C0" d="M101.8,67.3c-0.6,0.1-0.7-0.2-0.7-0.5
				C101.5,66.1,102.3,66.9,101.8,67.3"/>
			<path fill-rule="evenodd" clip-rule="evenodd" fill="#0077C0" d="M99.8,33.1c-0.5,0.2-1.4,0.1-1.6-0.6c0.1-1.1,1.5-0.7,2-0.3
				C100.1,32.4,100.2,32.8,99.8,33.1"/>
			<path fill-rule="evenodd" clip-rule="evenodd" fill="#0077C0" d="M87.6,26.9c-0.7,0.3-2.5,0.7-3.2,0.7c-0.4,0-0.8-0.1-1-0.4
				c0.1-0.6,1.6-1.1,2.1-1.4c0.7,0.1,0.7-0.1,1,0C87.3,25.8,87.9,26.4,87.6,26.9"/>
			<path fill-rule="evenodd" clip-rule="evenodd" fill="#0077C0" d="M89.1,25.2c-0.2,0.2-0.4,0.7-0.7,0.4c0-0.7-0.5-0.7-0.3-1.4
				c0.5-0.3,1.2-0.1,1.3,0.1C89.5,24.6,89.1,25.2,89.1,25.2"/>
			<path fill-rule="evenodd" clip-rule="evenodd" fill="#0077C0" d="M86.6,24.8c-0.3,0-0.9-0.5-1.2-0.7c0,0,0.4-0.4,0.6-0.4
				C86.7,23.7,86.7,24.3,86.6,24.8"/>
			<path fill-rule="evenodd" clip-rule="evenodd" fill="#0077C0" d="M87.2,34.5c-0.1,0.6-0.8,0.7-1,0.7c-0.5-0.1-1.7-1.1-1.2-1.7
				c0.5-0.5,0.9,0.2,1.2,0.2c0.4-0.1,0.5-0.7,1.3-0.3C87.9,34.1,87.6,34.3,87.2,34.5"/>
			<path fill-rule="evenodd" clip-rule="evenodd" fill="#0077C0" d="M89.1,37c-0.2,0.6,0.1,1.2-0.3,1.2c-0.8,0.4-2-1.3-1.1-2.2
				C88.4,35.6,89.1,35.8,89.1,37"/>
			<path fill-rule="evenodd" clip-rule="evenodd" fill="#0077C0" d="M101.9,47.4c-0.2,0.6-1,0.3-1-0.1c0-0.3,0.3-0.8,0.7-0.8
				C102.5,47,101.9,47.1,101.9,47.4"/>
			<path fill-rule="evenodd" clip-rule="evenodd" fill="#0077C0" d="M96.9,52.7c-0.2,0-0.5,0-0.6-0.4c0.1-0.4,0.3-0.5,0.7-0.5
				C97.3,51.9,97.9,52.4,96.9,52.7"/>
			<path fill-rule="evenodd" clip-rule="evenodd" fill="#0077C0" d="M75.8,35.1c-0.3,0-1.4-0.1-1.7-0.6c-0.2-0.4,0.6-0.7,1.2-0.8
				c0.3-0.2,0.8,0.4,1,0.6C76.3,34.4,76.4,35,75.8,35.1"/>
			<path fill-rule="evenodd" clip-rule="evenodd" fill="#0077C0" d="M65,38.1c-0.7,0-0.8,0.3-1.1-0.3c0.2-0.2,0.3-0.6,0.5-0.7
				c0.1-0.2,0.7-0.2,1,0.1C65.7,37.8,65.3,38,65,38.1"/>
			<path fill-rule="evenodd" clip-rule="evenodd" fill="#0077C0" d="M72.1,45.6c-0.2,0.1-0.4-0.1-0.3-0.3
				C72.5,44.8,72.7,45.6,72.1,45.6"/>
			<path fill-rule="evenodd" clip-rule="evenodd" fill="#0077C0" d="M82.4,65.9c-0.4,0-0.7-0.3-0.7-0.5c0.1-0.3,0.2-0.4,0.3-0.5
				c0.5-0.4,1,0.5,1,0.6C82.7,65.6,82.8,65.9,82.4,65.9"/>
			<path fill-rule="evenodd" clip-rule="evenodd" fill="#0077C0" d="M90.3,38.6c0,0,0.4,0.2,0.4,0.3c0,0.1,0,0.3-0.3,0.3
				c-0.2,0-0.6-0.1-0.5-0.4C89.9,38.6,90.3,38.6,90.3,38.6"/>
			<path fill-rule="evenodd" clip-rule="evenodd" fill="#0077C0" d="M91.2,40.1c0-0.1,0.1-1.2,1-0.7c0.9,0.6,0.8,0.2,1-0.1
				c0.2-0.3,0.1-0.5,0.6,0.2c0.4,0.7,1.6,2,2,1.1c0.4-0.9-0.9-1.1-0.9-2.1c0-1-0.9-2.2-1.3-2.3c-0.4-0.1-1.7-0.9-0.5-2.4
				c1.2-1.5,1.8-0.1,2.8-0.7c1-0.6,2.3,0.3,2.5,0.5c0.2,0.2,1.1,0.7,1.3,0.7c0.2-0.1,0.8-0.2,1.6,1c0.7,1.2,1,2.8,2.1,2.6
				c1.1-0.2,0.2,1.5,0.6,1.8c0.4,0.4,0.6,1.2,1.6,1.8c1,0.6,1.6,1.8,1.9,2.5c0.3,0.7,1.6,3,2.6,3.6c1,0.7,0.1,2.7-1.5,2.9
				c-1.7,0.3-2.4-0.1-2.8-1.4c-0.4-1.3-1-1.2-1.4-1.2c-0.4,0-1.3-0.7-1.4-1.1c-0.1-0.4-0.4-0.7-0.9-0.8c-0.5-0.1-1.1-0.7-1.6-0.7
				c-0.5,0-1.5-1.2-1.5-1.8c0-0.6,1-2.5-0.1-2.6c-1.1-0.1-2.7,0.3-2,1c0.7,0.7,1.7,3.1,1.6,3.8c-0.1,0.7,1.4,2.3,2.3,3.1
				c0.8,0.8,1,0.9,1.2,0.7c0.2-0.3-0.3-1,0.5-1c0.9,0,1.2,1,1.2,1.4c0,0.4-0.2,1.3-0.7,0.8c-0.4-0.4-1.6-0.6-1.2,0.4
				c0.4,1,1,0.9,1.5,0.9s1.3,0.6,1.4,1.7c0.1,1.1-0.2,2-0.6,1.4c-0.4-0.5-0.5-1.7-0.9-1.6c-0.4,0.1-0.2,0.5,0.2,1.4
				c0.4,0.9,0,1.2,1,1.6c1,0.5,0.2,1.3,0,1.6c-0.2,0.3-0.4,2.8-0.4,2.8s-1,0.3-1.2-0.3c-0.1-0.6-0.6-0.4-0.4-1.3
				c0.2-0.8,0.2-0.7-0.3-0.4c-0.5,0.2-1,1-1.3,1.2c-0.3,0.2-0.7,0-1.2,1c-0.4,0.9-1.3,2.4-0.9,3c0.4,0.7,0.7,0.6,0.6,1.3
				c-0.1,0.7,0,1.1,0.7,1.4c0.7,0.3,0.5,0.4,1.1,0.8c0.6,0.4,0.2,0.9-0.3,1.2c-0.5,0.3-1.3,0-1.5,0.4c-0.2,0.4-2.9,1-3.3,1
				c-0.4,0-0.8,2.2-2.3,2c-1.4-0.1-1.7,1.3-1.3,1.6c0.4,0.3,0.9,0.1,1.5-0.5c0.6-0.6,1.8-1.2,1.8,0.5c0.1,1.6-0.7,3.7-0.7,3.7
				s1-0.9,1.4-0.2c0.4,0.7,0.9,1.5,0.9,2c-0.1,0.5-1.7,3.1-1,4c0.6,0.9,2,2.3,1.4,3.3c-0.6,1-1,1.6-0.4,2.4c0.6,0.7-1.9,3.5-1.9,3.9
				c0,0.4-1.3,1.6-2.2,1.7c-1,0.1-1.6,0.9-1.7,1c-0.2,0.1-1.7,0.6-2.4-0.2c-0.7-0.8-2.5-1.1-2.6-1.8c-0.1-0.7-0.8-0.7-1.2-1.1
				c-0.5-0.4-0.9-0.5-0.9-2.6c0-2.1-1.8-2.2-2.4-2.1c-0.7,0.1-0.8-0.6-0.7-1.4c0.1-0.8-3.8,0.7-5.8-0.3c-2-0.9-2.9-1.4-2.6-2.8
				c0.3-1.5,0.3-3.4,1.3-3.7c1-0.3,2-1.3,3.2-1.2c1.2,0.1,2.6-1,3.4-0.7c0.7,0.3,1.1,0,2.3,0.4c1.1,0.3,1.5-0.3,1.9-0.5
				c0.5-0.2,1.7-0.9,2.1-0.9c0.4,0,1.7-1.6,0.8-1.2c-0.9,0.4-1.8,0.6-2.1,0.7c-0.3,0.1-0.5,1.1-0.9,0.9c-0.4-0.2-1-0.9-1.2-0.9
				c-0.2,0-0.7-0.2-0.7,0.3c0,0.5-0.6,0.4-0.9,0.1c-0.4-0.3-0.7-0.6-1.3-0.4c-0.6,0.3-0.7,1-0.7,1s-2.8,1.2-3.1,0.6
				c-0.3-0.7-0.8-1.8,0.7-2.1c1.5-0.4,0.1-1.2-0.1-1.5c-0.1-0.3-0.4-1.1-0.3-1.4c0.1-0.3,0.9-0.5,0.4-1.3c-0.5-0.8-1.8-1.8-1-2.1
				c0.8-0.4,1.1,0.6,1.8,1c0.7,0.4,1.9-0.5,2.1-1c0.1-0.5-0.3-1.7,1.8-1.9c2.1-0.2,1.5-1.9,1.2-2.6c-0.3-0.7-1.6-2.5-1-3.4
				c0.6-0.9,0-1.5-0.5-1.8c-0.5-0.3-1.5-2.1-3.6-2.6c-2.1-0.5-1,1.3-1.7,1.5c-0.7,0.2-1.3,0.7-1.4,0.9c-0.2,0.2-2.4,1.8-1.2,2.9
				c1.3,1.1,0.5,2.9-0.1,3.1c-0.7,0.3-1.7,2.7-2.5,2.8c-0.9,0.1-1.1,0.6-1.1,1c0,0.4-0.7,1.5-1.2,0.5c-0.5-1-0.9-1.1-1.1-1.1
				c-0.2,0-0.6-0.3-0.6-0.7c0.1-0.4-0.2-0.6-0.6-0.6c-0.4,0-1-0.6-1-0.6s-1.5-0.3-2.2,0.4c-0.7,0.6-1.3,0.1-1.7-0.4
				c-0.4-0.5-1-1.2-0.3-1.7c0.7-0.4,1-1.5,0.2-1.6c-0.8-0.1-1.7,0.6-2.5,1.1c-0.7,0.5-1.3,0.3-1.4,1.2c-0.1,0.9-0.7,1.7,0.4,2.2
				c1,0.5,1.1,1.3,0.8,1.5c-0.3,0.3,1,1.7,0.9,2.4c-0.2,0.7-0.4,2.8,0,3.1c0.4,0.4,1.5,1.6,1,2.3c-0.5,0.7,0.1,2.1,0.7,2.3
				c0.7,0.2,4.1,4.4,3.6,4.9c-0.5,0.4-0.7,1.5-1.8,1.2c-1.1-0.3-2.3-0.5-2.6,0c-0.4,0.5-1.7,0.8-2.5,0.3c-0.7-0.5-1.8-0.7-2.2-1.7
				c-0.4-0.9-1.2-0.8-1.7-0.4c-0.5,0.4-2.8-0.1-3.4-0.6c-0.6-0.5-0.5-1.1-0.8-1.2c-0.3-0.2-2.5-1.6-2.8-2.8
				c-0.3-1.2-0.6-0.6-0.9-0.4c-0.2,0.1-1,0.2-1.3-0.6c-0.4-0.7-0.9-0.3-1.1-0.4c-0.2-0.2-0.5-0.3-1-0.3c-0.5,0-1.4,0.3-1.5-0.7
				c-0.1-1-0.2-0.9,0.1-1.3c0.4-0.4,0.1-0.7,0.3-1.3c0.2-0.5,0.4-1,1.2-1.2c0.8-0.1,0.9-0.4,1.2-0.7c0.4-0.3,1.3-0.6,2.5-0.1
				c1.3,0.5,2.3,0.8,3,0.5c0.7-0.3,0.9-0.7,0.8-1.8c-0.1-1.1,1.2-3.6,2.5-4.8c1.4-1.2,1.7,0.2,2.7,0.4c1,0.2,0.4-0.7,0.4-0.9
				c0-0.2-0.1-1,0.5-1.3c0.6-0.2,0.9-0.5,0.6-1c-0.4-0.5-0.5-1.2,0.6-1.7c1.1-0.4,0.7-1.6,0.9-2c0.2-0.4,0.8-2.2,1.9-2.4
				c1.1-0.2,1.2-0.9,1.3-1.2c0.1-0.3,1.3-1.5,2.2-1.3c0.9,0.2,1.4,0.6,1.9,0.4c0.5-0.2,1.4-0.3,3.1,0.7c1.7,1,2,0.9,2.3,0.5
				c0.3-0.4,0.7-0.7,1.5-0.7c0.7,0,1.2,0,1.7-0.7c0.5-0.7,2.5-2.8,2.4-1.7c-0.1,1.1,1.2,0.8,1.3,0.2c0.2-0.7,0.9,0.8,2.2,0.5
				c1.3-0.3,2.4-1.7,2.7-0.7c0.2,1-0.9,1.6-0.1,1.7c0.7,0.1,1.7,0.4,1.8-0.6c0.1-1,2.7-3.4,4.1-3.6c1.4-0.2,4.1,2.8,4.7,2.8
				c0.6,0,1-0.9,1.1-0.2c0.1,0.7,0.6,1,1,1.1c0.4,0.1,0.7,0.7,0.7,1.1c0,0.4,1.2,1,1.8,0.7c0.6-0.2,2.2-0.4,2.1,0.5
				c-0.1,0.9-0.9,2.6,0.1,1.8c1-0.8,1.1-2.3,1.7-2.6c0.6-0.4-0.6-1.1-0.6-2c0-0.9-0.8-1.4-1.4-1.5c-0.7-0.1-1.8-0.9-0.7-1.5
				c1.1-0.7-0.2-1-0.4-1.5c-0.2-0.4-0.8-0.4-0.8,0.2c0,0.6-0.9,2.3-1.3,0.8c-0.4-1.5,1.1-1.8,1-2.6c-0.1-0.8-3.4-4-3.6-4.5
				C94.5,43.2,91.2,40.2,91.2,40.1"/>
			<path fill-rule="evenodd" clip-rule="evenodd" fill="#0077C0" d="M75.4,69.7c0,0-0.4-1,0.6-1c1,0,3.4-1.1,2.9-3.2
				c-0.5-2.1-1.2-1.9-1.2-2.1c0-0.2-1-1-1.4-0.3c-0.4,0.7-1.5,0.6-1.2,1.9c0.4,1.3-1,0.6-1,1.7C74.1,67.8,72.7,69,75.4,69.7"/>
			<path fill-rule="evenodd" clip-rule="evenodd" fill="#0077C0" d="M102.7,85.8c0,0,0.3-3-0.7-3.6c-0.9-0.6-2.6-0.8-2.3,1.1
				c0.2,1.9,0,2.8,1.5,3.3C102.7,87.2,102.7,85.8,102.7,85.8"/>
			<path fill-rule="evenodd" clip-rule="evenodd" fill="#0077C0" d="M60.6,65.2c0,0-0.1,0.9-0.4,1.1c-0.2,0.2-1.1,1.5,0.4,1.5
				C62,67.7,61.3,65.5,60.6,65.2"/>
			<path fill-rule="evenodd" clip-rule="evenodd" fill="#0077C0" d="M79.4,26.4c0,0,1.2,1.2,2,0.6c0.8-0.6,1.3,0.2,1.8,1
				c0.4,0.8,1.1,1.7,0.9,2c-0.2,0.4-2.1,0.6-2.1-0.2c0-0.8-0.3-1.3-1-1.4c-0.7-0.2-2.1,0-1.3,0.6c0.8,0.7,0.6,1.5-0.1,2
				c-0.6,0.6,0.1,1.5,0.6,1.6c0.4,0.1,1.5-0.2,0.7,0.9c-0.8,1.2-1.8,0-1.8,0C79.4,26.4,79.4,26.4,79.4,26.4"/>
			<path fill-rule="evenodd" clip-rule="evenodd" fill="#0077C0" d="M61.5,61.2c0,0-1-0.2-1.1,0.2c-0.1,0.5-0.5,0.9,0.8,0.9
				C62.6,62.5,62.4,61.2,61.5,61.2"/>
			<path fill-rule="evenodd" clip-rule="evenodd" fill="#0077C0" d="M70.1,63.9c0,0-1.1,0.2-0.2,0.7C70.5,64.9,70.4,63.7,70.1,63.9"
				/>
			<path fill-rule="evenodd" clip-rule="evenodd" fill="#0077C0" d="M82.6,71.5c0,0,0.3-1,0-1.4c-0.2-0.3-0.6-0.3-0.7,0.2
				C81.8,70.9,82,71.7,82.6,71.5"/>
			<path fill-rule="evenodd" clip-rule="evenodd" fill="#0077C0" d="M89.4,71c0,0-0.3-0.3-0.5,0.1c-0.2,0.4,0,0.8,0.8,0.9
				c0.8,0.1,0.9,0,0.5-0.4C89.9,71.1,89.4,71,89.4,71"/>
			<path fill-rule="evenodd" clip-rule="evenodd" fill="#0077C0" d="M86.2,73.8c0,0,0.4-0.3,0.8-0.3c0.4,0,0.4,0.7-0.2,0.8
				C86.3,74.5,84.9,74.4,86.2,73.8"/>
			<path fill-rule="evenodd" clip-rule="evenodd" fill="#0077C0" d="M91.4,54.2c0,0,0.5-0.5,0.8,0.1c0.3,0.7-0.1,1-0.4,1
				C91.4,55.3,90.4,54.8,91.4,54.2"/>
			<path fill-rule="evenodd" clip-rule="evenodd" fill="#0077C0" d="M89.9,53c0,0,0.4-0.2,0.3,0.2c-0.1,0.5-0.1,0.7-0.6,0.8
				C89.1,54.2,89.1,53.5,89.9,53"/>
			<path fill-rule="evenodd" clip-rule="evenodd" fill="#0077C0" d="M71.8,62.8c0,0,0.3-0.4,0.6-0.2c0.3,0.2,0.7,0.8,0.8,0.9
				c0.1,0.2,0,0.6-0.4,0.6c-0.3,0-0.9,0.4-1-0.2C71.7,63.5,71.8,62.8,71.8,62.8"/>
			<path fill-rule="evenodd" clip-rule="evenodd" fill="#0077C0" d="M75.9,62.1c-0.3,0.2-0.9,0-1.2-0.3c0-0.3-0.1-0.7,0.2-0.9
				C75.6,60.2,76.4,61.7,75.9,62.1"/>
			<path fill-rule="evenodd" clip-rule="evenodd" fill="#0077C0" d="M93.1,78.4c0,0-1.8-0.8-2.7-0.9c-0.9-0.1-2-0.4-1.4,0.3
				c0.6,0.7,2.4,1,2.8,1.3C92.3,79.3,94.5,78.9,93.1,78.4"/>
			<path fill-rule="evenodd" clip-rule="evenodd" fill="#0077C0" d="M79.9,72.8c0,0,0.2-0.7-0.2-0.9C79.4,71.8,79.2,72.3,79.9,72.8"
				/>
			<path fill-rule="evenodd" clip-rule="evenodd" fill="#0077C0" d="M39.9,31.6c-1.3,1.2-4.2,2.1-6.2,4.8c-0.8-1.5,1.2-5,3.6-7.1
				c1.8-1.5,5.3-3.9,6.2-4.1C44.3,27,41.5,29.7,39.9,31.6"/>
			<path fill-rule="evenodd" clip-rule="evenodd" fill="#0077C0" d="M35.8,41.3c-2.2,2.1-4.6,2.9-7.7,6.7c-1.3-4.6-1-8.6-0.4-11.3
				c1.1-3.5,2.9-7.5,5.9-8.7c-0.6,2-1.6,4.8-1.9,8.6c-1.3,5.2-2.1,5.3-1.8,6c0.3,0,2-2.7,4.1-4.8c2.5-2.5,5.6-3,7.6-4.5
				C41.3,34.3,39.5,37.5,35.8,41.3"/>
			<path fill-rule="evenodd" clip-rule="evenodd" fill="#0077C0" d="M24.9,62.6c-3-5.4-3.3-9.3-3.6-13.9c0.2-3.2,1.7-10.5,4-11.6
				c-0.7,6.6,1.1,7.3,0.4,12.7c0,0.3-0.8,6-0.8,6.3c0.9-0.2,0.1-5.2,10.6-12.6c-2.3,4-1.2,5.3-5.4,10.6C25.4,59,24.7,63.7,24.9,62.6
				"/>
			<path fill-rule="evenodd" clip-rule="evenodd" fill="#0077C0" d="M29.1,67.7c-2.2,3.2-1.9,4.8-2.4,6.4
				c-5.3-3.1-11.3-15.4-9.1-21.4c1.4,4.6,3.3,5.6,4.7,9.5c2.4,5.8,2,7.6,3.6,8.9c-0.3-3,0.7-6.6,1.7-9.2c1.5-2.2,2.6-5.2,3.7-6.2
				C32.5,59.9,31.6,63.4,29.1,67.7"/>
			<path fill-rule="evenodd" clip-rule="evenodd" fill="#0077C0" d="M33.9,78.2c0,4.7-0.9,6.8-1.2,10.3c-9.2-3-14-13.5-14-18.6
				c2.8,6.3,6.9,6.2,12.2,15.2c0.5-3.4-0.9-0.8-1.1-7.2c0.2-6.7,1.6-7,1.8-11.1C33.3,68.5,33.9,75.9,33.9,78.2"/>
			<path fill-rule="evenodd" clip-rule="evenodd" fill="#0077C0" d="M41.6,91.6c0.7,3.5,1,7.6,1.5,10.6c-5.2-1.9-6.5-0.5-12.8-4.4
				c-2.9-1.5-8-8-7.6-12.7c6.2,6.9,7.2,6.1,10.3,8.6c2.8,2.2,5,5.6,7,5.1C40.1,97,35.4,93,36,81.4C37.3,82.7,40.6,87.9,41.6,91.6"/>
			<path fill-rule="evenodd" clip-rule="evenodd" fill="#0077C0" d="M52,100.2c1.6,2.3,1.2,3.3,5.4,8.1c-1,0.5-6.9,2-10.9,2.2
				c-2.6,0-11.9-2.5-15-8.8c5.3,2.8,5.4,2.2,12.5,3.7c5.1,1.2,8.7,2.8,10.1,2.6c-0.3-0.7-4.2-2.3-6.9-5.7c-2.7-3.6-2.1-7.7-4.5-10.7
				C44.4,91.1,50.7,98.5,52,100.2"/>
			<path fill-rule="evenodd" clip-rule="evenodd" fill="#0077C0" d="M118.1,31.6c1.2,1.2,4.2,2.1,6.2,4.8c0.8-1.5-1.2-5-3.6-7.1
				c-1.7-1.5-5.2-3.9-6.2-4.1C113.6,27,116.4,29.7,118.1,31.6"/>
			<path fill-rule="evenodd" clip-rule="evenodd" fill="#0077C0" d="M122.2,41.3c2.2,2.1,4.6,2.9,7.6,6.7c1.3-4.6,1-8.6,0.4-11.3
				c-1-3.5-2.9-7.5-5.9-8.7c0.7,2,1.6,4.8,1.8,8.6c1.3,5.2,2.1,5.3,1.8,6c-0.3,0-2-2.7-4.1-4.8c-2.4-2.5-5.5-3-7.6-4.5
				C116.6,34.3,118.5,37.5,122.2,41.3"/>
			<path fill-rule="evenodd" clip-rule="evenodd" fill="#0077C0" d="M133,62.6c3.1-5.4,3.3-9.3,3.6-13.9c-0.2-3.2-1.7-10.5-3.9-11.6
				c0.6,6.6-1.1,7.3-0.4,12.7c0,0.3,0.7,6,0.7,6.3c-0.8-0.2-0.1-5.2-10.6-12.6c2.2,4,1.2,5.3,5.3,10.6C132.6,59,133.2,63.7,133,62.6
				"/>
			<path fill-rule="evenodd" clip-rule="evenodd" fill="#0077C0" d="M128.8,67.7c2.2,3.2,1.8,4.8,2.3,6.4
				c5.3-3.1,11.4-15.4,9.1-21.4c-1.3,4.6-3.3,5.6-4.6,9.5c-2.5,5.8-2.1,7.6-3.5,8.9c0.3-3-0.8-6.6-1.8-9.2c-1.4-2.2-2.6-5.2-3.7-6.2
				C125.5,59.9,126.3,63.4,128.8,67.7"/>
			<path fill-rule="evenodd" clip-rule="evenodd" fill="#0077C0" d="M123.9,78.2c0,4.7,0.9,6.8,1.3,10.3c9.1-3,14-13.5,14-18.6
				c-2.9,6.3-6.9,6.2-12.3,15.2c-0.5-3.4,0.9-0.8,1.1-7.2c-0.2-6.7-1.5-7-1.8-11.1C124.5,68.5,123.9,75.9,123.9,78.2"/>
			<path fill-rule="evenodd" clip-rule="evenodd" fill="#0077C0" d="M116.3,91.6c-0.7,3.5-0.9,7.6-1.5,10.6
				c5.2-1.9,6.5-0.5,12.7-4.4c2.9-1.5,8-8,7.7-12.7c-6.2,6.9-7.3,6.1-10.3,8.6c-2.8,2.2-5.1,5.6-7.1,5.1c-0.2-1.8,4.6-5.9,4-17.4
				C120.6,82.7,117.2,87.9,116.3,91.6"/>
			<path fill-rule="evenodd" clip-rule="evenodd" fill="#0077C0" d="M105.9,100.2c-1.5,2.3-1.1,3.3-5.4,8.1c1.1,0.5,6.9,2,10.9,2.2
				c2.6,0,11.8-2.5,14.9-8.8c-5.3,2.8-5.4,2.2-12.5,3.7c-5.1,1.2-8.6,2.8-10.1,2.6c0.3-0.7,4.3-2.3,6.9-5.7
				c2.7-3.6,2.1-7.7,4.6-10.7C113.5,91.1,107.2,98.5,105.9,100.2"/>
			<path fill-rule="evenodd" clip-rule="evenodd" fill="#0077C0" d="M65.8,121.9c-1.5-0.8-1.5-0.8-1.5-0.8s9.8-12,26.6-11
				c16.8,0.9,15.7,4.9,24.7,4.2c1-0.1-0.8,1.2-0.8,1.2s-8.8,3.4-19.7-0.3C84.3,111.6,77.3,109.4,65.8,121.9"/>
			<path fill-rule="evenodd" clip-rule="evenodd" fill="#0077C0" d="M92.4,121.9c1.6-0.8,1.6-0.8,1.6-0.8s-9.7-12-26.5-11
				c-16.9,0.9-15.7,4.9-24.8,4.2c-1-0.1,0.8,1.2,0.8,1.2s8.8,3.4,19.7-0.3C74,111.6,81,109.4,92.4,121.9"/>
		</g>
		<path fill="#0077C0" d="M257,91c-3.6-2-6.7-3.5-6.9-4c-0.4-0.9,1.7-3,3.6-3.4c3.6-0.8,9.5,5.1,11.8,1.8c0.2-0.3-1.6-1.7-4.2-3.7
			c-2.5-1.9-5.7-4.3-8.6-5.9c-2.8-1.5-6.9,0.1-6.9-2.4c0-3.1,14.7,0.1,15.5-2.1c0.2-0.6-2.6-1.5-6.1-2.3c-3.1-0.7-6.7-1.3-8.7-2.1
			c-2.5-1,0.3-2.7,0.9-2.7c2.5,0,4.9,1.3,6.7,1.5c4,0.4,5-0.2,5.2-0.5c0.3-0.5-2.7-1.2-6.8-3.4c-4.2-2.3-9.5-6.1-12.9-8.8
			c-1.5-1.2-5-1.9-4.9-3.1c0.1-0.6,1.6-1.5,2.6-1.4c0.6,0.1,1.7,0.8,3,1.1c2.8,0.7,6.6,1.2,7.8,0.8c1.4-0.4-3-2.1-6.6-3.9
			c-2.6-1.3-4.8-2.7-4-3c1.8-0.7,6.6,1,6.6-0.2c0-2.3-6.2-4.9-12.5-7.3c-2.3-0.9-4.6-0.9-6.6-2c-4.4-2.4-6.5-7.7-6.8-8.7
			c-1,2.3-2.5,4.2-4.2,5.8c-4.1,4.1-9.1,6.4-9.1,7.3c0,1.8,4.4-2.8,5.8-1.2c1.5,1.8-11.8,5.6-11.1,8.3c0.1,0.3,1.5-0.4,3.2-0.2
			c0.5,0,1.5,0.4,1.7,1.5c0.2,1.8-2.1,0.9-4.9,2.4c-1.7,0.9-1.9,2.9-3.9,4.1c-1.9,1.2-4.1,1.9-6,2.9c-2.7,1.4-4.8,2.7-4.8,3.6
			c0,0.6,1.7,0.6,3.9,0.3c1.3-0.2,2.8-0.7,4.2-0.7c1,0,2.2,2.7,2.1,4.1c-0.2,1.8-1.9,3.5-4.1,5c-1.1,0.8-2.7,0-4,0.7
			c-5.2,2.7-10.3,7.4-9.7,8.4c0.1,0.3,1.5,0.5,3.3,0.1c2.7-0.6,6-2.5,7.4-2.5c1.6,0,2.5,2.1,2.6,3c0,0.5-1.7,1.7-4.1,3
			c-1.3,0.7-2.9,1.1-4.4,1.9c-2.9,1.5-4.8,4.5-7.2,6c-2.5,1.6-5.3,1.7-5.2,2.4c0.1,0.8,6.7,2.9,13.1-1.1c7.2-4.5,10.5-3.5,11.1-2.9
			c1.9,1.8-2.4,4.4-7.3,6.1c-5.6,2-12.6,2.5-11.9,4.4c0.7,2,8.1,1.5,15.4-1.2c4.1-1.5,8.3-3.2,11.4-4.1c1-0.3,4.6,1.5,5.5,4.8
			c0.2,0.8,0.5,4.1-7.9,12.8c-0.1,0.1-3.6,0.6-6.6,2.1c-1.2,0.6-2.3,1.9-3.2,2.5c-1,0.8-1.7,1.5-1.6,2.3c0.5,0,1.4-1.5,4.2-2.6
			c1.2-0.5,2.6-0.8,3.9-1.2c2.5-0.7,4.8-1.4,5.2-1.5c2.1-0.3,4.2-4.2,10.3-4.5c1-0.1,1.9,0.6,2.6,0.7c0.9,0.1,2.9-0.5,3.6-0.3
			c1.2,0.2,0.9,1.1,1.6,1.7c0.7,0.5,6.5,6.6,8.1,6.6c1.3,0-1.3-2.7-1.8-4.3c-0.3-0.8,0.2-1.9,1.1-1.3c1.2,0.8,2.6,1.2,3.9,1.3
			c0.7,0,1.3-0.5,1.9-0.2c3.6,2.1,5.1,5.7,9,5.7c0.3,0,1-0.3,0.9-0.9c-0.2-1.9-8.4-6.1-10.2-9.3c-3.6-6.2-3.7-15.5,1.7-15.5
			c3.6,0,4.6,2.3,6.9,2.5c3.5,0.3,7.8-0.2,10.9,0.3c5.6,0.8,10.1,3.9,13.5,5.3c2,0.8,4.1,0.9,4.5,0C270,98.3,262.8,94.2,257,91z
			 M223.8,44.3c1.3,0,1.7,1.5,1.2,2.4c-0.3,0.7-1.1,0.6-1.7,0.6c-1.5-0.1-2-0.4-2.1-1C221.2,45.3,223.2,44.3,223.8,44.3z
			 M219.4,56.6c-0.6,0.2-4.5,0.4-4.5-0.4c0-0.6,0.9-0.9,1.9-1.3c1.1-0.4,2.4-0.8,3.3-0.5C221.2,54.7,220.5,56.3,219.4,56.6z
			 M210.7,47.7c1.3,0,1.2,1.8,0.7,2.7c-0.5,1-3.8,3.3-5,3.3c-1.3,0-1.6-0.9-1.3-1.5C205.8,51.2,209.5,47.7,210.7,47.7z M207.9,42.9
			c2.9,0.9-0.1,3.7-0.7,3.7C202.7,46.6,205.6,42.7,207.9,42.9z M197.3,75.8c-1.8,0.1-3.4,0.9-4.3,0.9c-0.7,0-3.2-2.4-2.5-3.4
			c0.5-0.6,1.5-0.5,2.8-0.6c0.9,0,1.9-0.3,2.8-0.2c0.8,0,1.5,0.1,2,0.1c2,0,3.4-0.8,3.4,0.4C201.5,74.2,199.6,75.6,197.3,75.8z
			 M198.7,61.9c-1.7,0-3.7-2-3.7-3.4c0-1.4,2.2-1.4,4-1.1c1.1,0.2,2.8,1.6,2.8,2.9C201.8,61.7,200.4,61.9,198.7,61.9z M206,87.4
			c-1.6,0-3.4-2.6-3.4-4.9c0-1.8,1.6-0.8,2.4-0.1c0.9,0.8,1.7,2.6,1.7,3.3C206.7,86.5,206.9,87.4,206,87.4z M204.2,60.1
			c-0.7,0-1.7-1.5-1.7-2.9s2.7-1.6,4.4-1.1C208.4,56.6,205.9,60,204.2,60.1z M207.5,68.2c0-1,0.7-1,1.2-1c1,0,2.7,1.5,2.1,2.3
			C210.2,70.3,207.5,69.2,207.5,68.2z M212.2,87.2c-1,0-1.9-0.5-1.9-1.8c0-1.2,0.8-2.1,1.3-2.1c0.6,0,1.4,1.1,1.4,2.3
			C213,86.6,212.7,87.2,212.2,87.2z M213.7,47.1c0.6-1,3.1-2.4,4.4-2.4c1.3,0,1.7,1.5,1.2,2.4c-0.5,1-3.7,1.5-4.9,1.5
			C212.9,48.6,213.4,47.6,213.7,47.1z M214.6,67c0-0.9,0.6-1.7,1.2-1.7c0.6,0,1.1,0.8,1.1,1.7c0,0.9-0.5,1.7-1.1,1.7
			C215.1,68.7,214.6,68,214.6,67z M217.5,87.2c-1,0-1.3-0.7-1.3-1.9c0-1.2-0.6-2.6,0-2.6c0.7,0,1.3,0.5,2.2,0.8
			c0.8,0.3,1.6,0.3,1.6,0.9C220.1,85.3,219,87.2,217.5,87.2z M221.6,72.5c-1,0-2.9-1.4-2.9-2.9c0-1.5,1.1-2,1.7-2
			c1.3,0,1.7,1.2,1.9,2.4C222.7,71.5,222.2,72.5,221.6,72.5z M225.6,73c-1,0-2.3-2-2.3-3.3c0-1.3,1.5-0.5,2,0.2
			C226.2,71.1,226.6,73,225.6,73z M225.3,57c-0.6,0.2-3.2,0.2-3.2-0.2c0-0.6,1.3-2.9,2.4-3.2c0.5-0.1,1.5,0.3,1.9,1.1
			C227.1,55.9,226.3,56.7,225.3,57z M226.9,46.8c0-0.7,1.5-1,2.1-1c1.3,0,1.7,0.9,1.2,1.8c-0.3,0.7-1.1,0.6-1.7,0.6
			C227,48.1,226.9,47.4,226.9,46.8z M227.7,58c0.1-0.6,2.1-2.5,3.2-2.5c1.2,0,3.5,1.5,4,2.2c0.7,1.2-0.3,1.2-1.3,1.5
			C232.9,59.4,227.5,60.1,227.7,58z M237.8,82.1c-2.2,0-4-0.4-4-1.9c0-1.4,2.8-2.8,5-2.8s3.2,1.5,3.2,2.4
			C242.1,81.2,240,82.1,237.8,82.1z M241,66.4c-0.6,0.2-4.1,0.1-4.1-1.6c0-0.6,1-1.9,2.1-1.9c1.2,0,2.4,1,2.8,1.7
			C242.5,65.8,242,66.1,241,66.4z M247.4,84.5c-2.2,0-3.9-0.9-3.9-1.9c0-1.4,1.7-2.8,3.9-2.8c2.2,0,3.9,1.1,3.9,2
			C251.2,83.2,249.6,84.5,247.4,84.5z"/>
	</g>
</g>
</svg>
