<?xml version="1.0" encoding="utf-8"?>
<!-- Generator: Adobe Illustrator 18.1.1, SVG Export Plug-In . SVG Version: 6.00 Build 0)  -->
<svg version="1.1" id="Layer_1" xmlns="http://www.w3.org/2000/svg" xmlns:xlink="http://www.w3.org/1999/xlink" x="0px" y="0px"
	 viewBox="0 0 51.9 52.2" enable-background="new 0 0 51.9 52.2" xml:space="preserve">
<path fill="#766AAB" d="M36.3,43.9c-1.5,0-2.9-1.2-2.4-3c0.3-1.1,1.6-2.7,2.3-4.3c0.1-0.1,0.2-0.1,0.3,0c0.6,1.6,2,3.2,2.3,4.3
	C39.2,42.7,37.8,43.9,36.3,43.9 M30.4,16.6c-0.8,0-1.5-0.4-1.9-0.9h-3.2v2.2h-4.6v-2.2h-3.1c-0.4,0.6-1.1,0.9-1.9,0.9
	c-1.3,0-2.4-1.1-2.4-2.4c0-1.3,1.1-2.4,2.4-2.4c0.8,0,1.5,0.4,1.9,0.9h2.5l0.2-0.8c0.1-0.3,0.4-0.5,0.6-0.5h4c0.3,0,0.6,0.2,0.6,0.5
	l0.2,0.8h2.6c0.4-0.6,1.1-0.9,1.9-0.9c1.3,0,2.4,1.1,2.4,2.4C32.8,15.6,31.7,16.6,30.4,16.6 M25.8,0C12.7,0,1.9,9.6,0,22.2h16.8
	l0.8-1.9c0.1-0.3,0.4-0.5,0.7-0.5h9.6c0.3,0,0.6,0.2,0.7,0.5l0.8,1.9H31c5.5,0,9.9,4.4,9.9,9.9v2.5c0,0.3-0.2,0.5-0.5,0.5H33
	c-0.3,0-0.5-0.2-0.5-0.5v-2.5c0-0.9-0.7-1.6-1.6-1.6h-1.5C28.1,32.6,25.7,34,23,34c-2.7,0-5.1-1.4-6.4-3.6H0.1c0,0,0,0-0.1,0
	c2.1,12.3,12.8,21.7,25.7,21.7c14.4,0,26.1-11.7,26.1-26.1C51.9,11.7,40.2,0,25.8,0"/>
</svg>
