<?xml version="1.0" encoding="UTF-8" standalone="no"?>
<!-- Created with Inkscape (http://www.inkscape.org/) -->

<svg
   xmlns:dc="http://purl.org/dc/elements/1.1/"
   xmlns:cc="http://creativecommons.org/ns#"
   xmlns:rdf="http://www.w3.org/1999/02/22-rdf-syntax-ns#"
   xmlns:svg="http://www.w3.org/2000/svg"
   xmlns="http://www.w3.org/2000/svg"
   xmlns:sodipodi="http://sodipodi.sourceforge.net/DTD/sodipodi-0.dtd"
   xmlns:inkscape="http://www.inkscape.org/namespaces/inkscape"
   version="1.1"
   width="237"
   height="237"
   viewBox="0 0 237 237"
   id="svg2985"
   xml:space="preserve"
   inkscape:version="0.48.4 r9939"
   sodipodi:docname="basicneeds.svg"><sodipodi:namedview
     pagecolor="#ffffff"
     bordercolor="#666666"
     borderopacity="1"
     objecttolerance="10"
     gridtolerance="10"
     guidetolerance="10"
     inkscape:pageopacity="0"
     inkscape:pageshadow="2"
     inkscape:window-width="1600"
     inkscape:window-height="849"
     id="namedview8"
     showgrid="false"
     inkscape:zoom="3.6687555"
     inkscape:cx="126.87945"
     inkscape:cy="116.28204"
     inkscape:window-x="0"
     inkscape:window-y="26"
     inkscape:window-maximized="1"
     inkscape:current-layer="svg2985" /><defs
     id="defs2987" /><metadata
     id="metadata2990"><rdf:RDF><cc:Work
         rdf:about=""><dc:format>image/svg+xml</dc:format><dc:type
           rdf:resource="http://purl.org/dc/dcmitype/StillImage" /><dc:title /></cc:Work></rdf:RDF></metadata><circle
     cx="50"
     cy="50"
     r="50"
     transform="scale(2.37,2.37)"
     id="circle6"
     style="fill:#b2b2b2" /><path
     inkscape:connector-curvature="0"
     style="fill:currentColor"
     id="path2987"
     d="m 196.20794,68.99235 c 0,-4.146341 -0.76016,-8.01626 -2.28049,-11.609756 -1.52033,-3.593496 -3.52439,-6.737805 -6.0122,-9.432927 -2.4878,-2.695121 -5.42479,-4.837398 -8.81097,-6.426829 -3.38618,-1.589431 -7.01423,-2.384146 -10.88415,-2.384146 l -96.609751,0 c -3.869919,0 -7.497968,0.794715 -10.884147,2.384146 -3.386179,1.589431 -6.32317,3.731708 -8.810975,6.426829 -2.487805,2.695122 -4.49187,5.839431 -6.012195,9.432927 -1.520325,3.593496 -2.280488,7.463415 -2.280488,11.609756 l 0,103.45122 c 0,4.14634 0.760163,8.01626 2.280488,11.60975 1.520325,3.5935 3.52439,6.70326 6.012195,9.32927 2.487805,2.62602 5.424796,4.73374 8.810975,6.32317 3.386179,1.58943 7.014228,2.38415 10.884147,2.38415 l 96.609751,0 c 3.86992,0 7.49797,-0.79472 10.88415,-2.38415 3.38618,-1.58943 6.32317,-3.69715 8.81097,-6.32317 2.48781,-2.62601 4.49187,-5.80487 6.0122,-9.53658 1.52033,-3.73171 2.28049,-7.53252 2.28049,-11.40244 z M 168.22013,30.224058 c 5.11382,0 9.88211,1.002032 14.30488,3.006097 4.42277,2.004065 8.29269,4.768293 11.60976,8.292683 3.31707,3.52439 5.94309,7.636179 7.87805,12.335366 1.93495,4.699187 2.90243,9.743902 2.90243,15.134146 l 0,103.45122 c 0,5.39024 -0.96748,10.4004 -2.90243,15.03049 -1.93496,4.63008 -4.56098,8.70731 -7.87805,12.2317 -3.31707,3.52439 -7.18699,6.32317 -11.60976,8.39634 -4.42277,2.07317 -9.19106,3.10976 -14.30488,3.10976 l -96.609751,0 c -5.113821,0 -9.882114,-1.03659 -14.304878,-3.10976 -4.422765,-2.07317 -8.292683,-4.87195 -11.609756,-8.39634 -3.317073,-3.52439 -5.94309,-7.60162 -7.878049,-12.2317 -1.934959,-4.63009 -2.902439,-9.64025 -2.902439,-15.03049 l 0,-103.45122 c 0,-5.390244 0.96748,-10.434959 2.902439,-15.134146 1.934959,-4.699187 4.560976,-8.810976 7.878049,-12.335366 3.317073,-3.52439 7.186991,-6.288618 11.609756,-8.292683 4.422764,-2.004065 9.191057,-3.006097 14.304878,-3.006097 z"
     sodipodi:nodetypes="ssssssssssssssssssssssssssssssssssssssssss" /><path
     d="m 174.79936,144.58845 10.65072,-6.31033 -22.36651,-12.6207 -11.10718,6.16358 z m -12.17226,23.18688 22.67084,-12.62071 -10.65072,-5.87009 -22.67083,12.47396 z m 12.02012,14.08822 0,-15.70253 -12.02012,6.45712 -13.08517,-7.3376 0,29.4972 z m -54.47085,-15.99601 0,15.99601 25.10528,12.91419 0,-29.35046 -12.62871,7.19086 z m 0.45648,-16.58301 -10.65073,5.87009 22.67082,12.62071 10.49856,-6.01684 z m 11.41148,-23.77388 -22.36651,12.47394 10.80286,6.31037 22.67082,-12.6207 z m 58.88326,10.71293 3.34738,2.05454 -15.21531,8.65838 15.06315,8.21812 -15.36747,8.65839 0,20.69208 -31.34354,16.14274 -31.34356,-16.14274 0,-20.83886 -14.91101,-8.51161 15.2153,-8.36487 -12.17223,-6.89736 -3.34738,-1.9078 31.19141,-17.4635 15.67177,8.65839 15.36747,-8.36488 z"
     id="path2997"
     style="fill:currentColor"
     inkscape:connector-curvature="0"
     sodipodi:nodetypes="ccccccccccccccccccccccccccccccccccccccccccccccccc" /><path
     d="m 109.56075,51.017074 c -4.36639,-3.532208 -8.78026,-5.298313 -13.241568,-5.298313 -1.613671,0 -3.701949,0.811455 -6.264836,2.434364 -2.657808,1.622909 -4.603708,2.434365 -5.83768,2.434365 -1.13906,0.190926 -3.179871,-0.381865 -6.122444,-1.718374 -3.037495,-1.431982 -5.173238,-2.195706 -6.407221,-2.291168 -4.081633,0 -9.065017,2.434364 -14.950162,7.303096 l 10.393931,10.59664 34.0294,0.429586 z m 13.95348,49.832856 C 120.85643,85.670962 113.40508,75.647101 101.16017,70.778374 l -34.0294,0 c -9.017561,6.49164 -14.048412,16.5155 -15.09254,30.071556 -0.09491,0.5728 -0.213619,1.36039 -0.355975,2.36277 -0.142377,1.00238 -0.308498,2.26729 -0.498331,3.79473 -0.189843,1.24105 -0.355954,2.38664 -0.498341,3.43674 -0.142388,1.05014 -0.213577,2.00479 -0.213577,2.86397 0,6.77803 4.318932,11.36037 12.956807,13.747 4.46132,1.24104 11.532993,1.86157 21.215006,1.86157 11.865209,0 20.123391,-0.52506 24.774551,-1.57518 10.34646,-2.38663 15.51969,-7.39855 15.51969,-15.03577 0,-1.14559 -0.14238,-2.67302 -0.42715,-4.58234 -0.28476,-1.90931 -0.61698,-4.20046 -0.99668,-6.87349 z m -26.19837,3.29356 c 0,2.38662 -0.759378,4.31978 -2.278132,5.79951 -1.518747,1.47971 -3.464642,2.36276 -5.837688,2.64915 l 0.284765,4.29595 -5.83768,0 0.284776,-4.29595 c -2.752729,-0.19092 -5.552914,-1.09784 -8.400576,-2.72076 l 2.705274,-6.87349 c 2.657808,2.29116 5.173228,3.38901 7.54627,3.29354 2.088278,0 3.179872,-0.52506 3.274804,-1.57517 0,-0.85917 -0.854295,-1.43196 -2.562896,-1.71837 l -1.566203,-0.28638 c -5.505459,-0.85919 -8.258178,-3.436751 -8.258178,-7.7327 0,-3.818604 2.373043,-6.443903 7.119117,-7.875886 l -0.14244,-4.295938 6.122465,0 -0.427153,4.009554 c 1.139061,0.19092 2.254389,0.429587 3.345991,0.715981 1.091593,0.286405 2.206918,0.668265 3.345981,1.145579 l -2.847643,6.587105 c -1.803509,-1.431973 -3.844329,-2.147954 -6.12245,-2.147954 -1.613668,0 -2.420498,0.525062 -2.420498,1.575175 0,0.763719 1.044129,1.336508 3.132395,1.718378 6.35977,0.668243 9.53965,3.245815 9.53965,7.732676 z"
     id="path3030"
     inkscape:connector-curvature="0"
     sodipodi:nodetypes="csccccccccccccccsscscssccsccccccccccsccccsccssccc" /></svg>