<?xml version="1.0" encoding="UTF-8" standalone="no"?>
<!-- Created with Inkscape (http://www.inkscape.org/) -->

<svg
   xmlns:dc="http://purl.org/dc/elements/1.1/"
   xmlns:cc="http://creativecommons.org/ns#"
   xmlns:rdf="http://www.w3.org/1999/02/22-rdf-syntax-ns#"
   xmlns:svg="http://www.w3.org/2000/svg"
   xmlns="http://www.w3.org/2000/svg"
   xmlns:sodipodi="http://sodipodi.sourceforge.net/DTD/sodipodi-0.dtd"
   xmlns:inkscape="http://www.inkscape.org/namespaces/inkscape"
   version="1.1"
   x="0px"
   y="0px"
   width="237"
   height="237"
   viewBox="0 0 237 237"
   enable-background="new 0 0 100 100"
   xml:space="preserve"
   id="svg2985"
   inkscape:version="0.48.4 r9939"
   sodipodi:docname="cash.svg"><sodipodi:namedview
     pagecolor="#ffffff"
     bordercolor="#666666"
     borderopacity="1"
     objecttolerance="10"
     gridtolerance="10"
     guidetolerance="10"
     inkscape:pageopacity="0"
     inkscape:pageshadow="2"
     inkscape:window-width="1301"
     inkscape:window-height="680"
     id="namedview9"
     showgrid="false"
     inkscape:zoom="2.36"
     inkscape:cx="50"
     inkscape:cy="-0.5837663"
     inkscape:window-x="297"
     inkscape:window-y="190"
     inkscape:window-maximized="0"
     inkscape:current-layer="svg2985"
     fit-margin-top="0"
     fit-margin-left="0"
     fit-margin-right="0"
     fit-margin-bottom="0" /><defs
     id="defs2987" /><metadata
     id="metadata2990"><rdf:RDF><cc:Work
         rdf:about=""><dc:format>image/svg+xml</dc:format><dc:type
           rdf:resource="http://purl.org/dc/dcmitype/StillImage" /><dc:title /></cc:Work></rdf:RDF></metadata><circle
     cx="50"
     cy="50"
     r="50"
     id="circle6"
     sodipodi:cx="50"
     sodipodi:cy="50"
     sodipodi:rx="50"
     sodipodi:ry="50"
     transform="scale(2.37,2.37)"
     style="fill:#b2b2b2" /><path
     d="M 47.193767,175.87233 z M 147.1384,74.919547 Q 137.83181,67.7639 128.32292,67.7639 q -3.43939,0 -8.90196,3.287735 -5.66489,3.287736 -8.295,3.287736 -2.4278,0.386784 -8.69963,-2.320752 -6.47415,-2.900951 -9.104281,-3.094343 -8.69963,0 -21.243282,9.863205 l 14.769153,14.311316 48.35376,0.580176 z m 19.82706,67.301863 q -5.66487,-30.74999 -31.76378,-40.6132 H 86.84792 q -19.220131,13.15094 -21.445609,40.6132 -0.202398,1.1604 -0.505805,3.19104 -0.303478,2.03066 -0.708109,5.12498 -0.40463,2.51417 -0.708108,4.6415 -0.303479,2.12739 -0.303479,3.86794 0,13.73114 18.410848,18.56603 9.508914,2.51415 30.145262,2.51415 25.28963,0 35.20315,-2.12736 22.05257,-4.8349 22.05257,-20.30659 0,-2.32075 -0.60696,-6.18869 -0.60693,-3.86791 -1.41622,-9.283 z m -37.22632,4.44813 q 0,4.83487 -3.23709,7.83252 -3.23707,2.99765 -8.295,3.57782 l 0.40463,5.80191 h -8.295 l 0.40465,-5.80191 q -5.86719,-0.38678 -11.936715,-3.67452 l 3.844025,-9.283 q 5.66489,4.6415 10.7228,4.44809 4.45098,0 4.65331,-2.12734 0,-1.74055 -3.64172,-2.32075 l -2.22548,-0.38678 q -11.73439,-1.74058 -11.73439,-10.44341 0,-7.73585 10.11585,-10.6368 l -0.2024,-5.80188 h 8.69965 l -0.60696,5.4151 q 2.42781,0.38678 4.75446,0.96698 2.32663,0.5802 4.75444,1.54716 l -4.04633,8.89622 q -3.84402,-2.90092 -8.69963,-2.90092 -3.43939,0 -3.43939,2.12736 0,1.54716 4.45095,2.32075 13.55527,1.35377 13.55527,10.4434 z m 64.53913,-74.070745 q 0,-5.801878 -2.22548,-10.830165 -2.22548,-5.028311 -5.8672,-8.799526 -3.64172,-3.771215 -8.59848,-5.995294 -4.95676,-2.224055 -10.62165,-2.224055 H 72.685724 q -5.664892,0 -10.621652,2.224055 -4.956761,2.224079 -8.598479,5.995294 -3.641718,3.771215 -5.867196,8.799526 -2.225477,5.028287 -2.225477,10.830165 v 96.504695 q 0,5.80188 2.225477,10.83016 2.225478,5.02831 5.867196,8.70283 3.641718,3.67455 8.598479,5.8986 4.95676,2.22403 10.621652,2.22403 h 94.279736 q 5.66489,0 10.62165,-2.22403 4.95676,-2.22405 8.59848,-5.8986 3.64172,-3.67452 5.8672,-8.89622 2.22548,-5.2217 2.22548,-10.63677 V 72.598795 z M 166.96546,36.43373 q 7.48574,0 13.95989,2.804234 6.47416,2.804255 11.32977,7.735846 4.8556,4.931615 7.68804,11.507085 2.83243,6.57547 2.83243,14.1179 v 96.504695 q 0,7.54243 -2.83243,14.0212 -2.83244,6.47878 -7.68804,11.41039 -4.85561,4.93157 -11.32977,7.83252 -6.47415,2.90095 -13.95989,2.90095 H 72.685724 q -7.485739,0 -13.959892,-2.90095 -6.474153,-2.90095 -11.329761,-7.83252 -4.855609,-4.93161 -7.688043,-11.41039 -2.832435,-6.47877 -2.832435,-14.0212 V 72.598795 q 0,-7.54243 2.832435,-14.1179 2.832434,-6.57547 7.688043,-11.507085 4.855608,-4.931591 11.329761,-7.735846 6.474153,-2.804234 13.959892,-2.804234 h 94.279736 z"
     id="path3030"
     inkscape:connector-curvature="0" /></svg>