<?xml version="1.0" encoding="UTF-8" standalone="no"?>
<!-- Created with Inkscape (http://www.inkscape.org/) -->

<svg
   xmlns:dc="http://purl.org/dc/elements/1.1/"
   xmlns:cc="http://creativecommons.org/ns#"
   xmlns:rdf="http://www.w3.org/1999/02/22-rdf-syntax-ns#"
   xmlns:svg="http://www.w3.org/2000/svg"
   xmlns="http://www.w3.org/2000/svg"
   xmlns:sodipodi="http://sodipodi.sourceforge.net/DTD/sodipodi-0.dtd"
   xmlns:inkscape="http://www.inkscape.org/namespaces/inkscape"
   version="1.1"
   x="0px"
   y="0px"
   width="237"
   height="237"
   viewBox="0 0 237 237"
   enable-background="new 0 0 100 100"
   xml:space="preserve"
   id="svg2985"
   inkscape:version="0.48.4 r9939"
   sodipodi:docname="education.png"><sodipodi:namedview
     pagecolor="#ffffff"
     bordercolor="#666666"
     borderopacity="1"
     objecttolerance="10"
     gridtolerance="10"
     guidetolerance="10"
     inkscape:pageopacity="0"
     inkscape:pageshadow="2"
     inkscape:window-width="1328"
     inkscape:window-height="900"
     id="namedview9"
     showgrid="false"
     inkscape:zoom="2.36"
     inkscape:cx="50"
     inkscape:cy="27.873831"
     inkscape:window-x="0"
     inkscape:window-y="26"
     inkscape:window-maximized="0"
     inkscape:current-layer="svg2985"
     fit-margin-top="0"
     fit-margin-left="0"
     fit-margin-right="0"
     fit-margin-bottom="0" /><defs
     id="defs2987" /><metadata
     id="metadata2990"><rdf:RDF><cc:Work
         rdf:about=""><dc:format>image/svg+xml</dc:format><dc:type
           rdf:resource="http://purl.org/dc/dcmitype/StillImage" /><dc:title></dc:title></cc:Work></rdf:RDF></metadata><circle
     cx="50"
     cy="50"
     r="50"
     id="circle6"
     sodipodi:cx="50"
     sodipodi:cy="50"
     sodipodi:rx="50"
     sodipodi:ry="50"
     transform="scale(2.37,2.37)"
     style="fill:#b2b2b2" /><path
     d="m 191.7092,68.389253 q 0,-5.555484 -2.30418,-10.462829 -2.30417,-4.90737 -5.91069,-8.518415 -3.60652,-3.611068 -8.51539,-5.740671 -4.90888,-2.129604 -10.51903,-2.129604 H 70.089261 q -5.610145,0 -10.619211,2.129604 -5.009043,2.129603 -8.615566,5.740671 -3.606524,3.611045 -5.910686,8.518415 -2.304185,4.907345 -2.304185,10.462829 v 93.147017 q 0,5.55549 2.304185,10.46283 2.304162,4.90735 5.910686,8.33323 3.606523,3.42588 8.515386,5.64808 4.908886,2.22219 10.719391,2.22219 h 94.370649 q 5.61015,0 10.51903,-2.22219 4.90887,-2.2222 8.51539,-5.64808 3.60652,-3.42588 5.91069,-8.42582 2.30418,-4.99994 2.30418,-10.37024 V 68.389253 z M 164.45991,33.01932 q 7.41341,0 13.82499,2.77776 6.41161,2.777723 11.32048,7.592498 4.90888,4.81475 7.71397,11.203536 2.80506,6.388837 2.80506,13.796139 v 93.147017 q 0,7.40731 -2.80506,13.61093 -2.80509,6.20362 -7.71397,11.0184 -4.90887,4.81475 -11.2203,7.59249 -6.3114,2.77774 -13.92517,2.77774 H 70.089261 q -7.413407,0 -13.925172,-2.77774 -6.511788,-2.77774 -11.42065,-7.59249 -4.908887,-4.81478 -7.713971,-11.11097 -2.805061,-6.29624 -2.805061,-13.51836 V 68.389253 q 0,-7.407302 2.805061,-13.796139 2.805084,-6.388786 7.713971,-11.203536 4.908862,-4.814775 11.32047,-7.592498 6.411585,-2.77776 14.025352,-2.77776 h 94.370649 z m 11.62101,51.110487 q -8.61556,-5.185128 -21.63912,-5.185128 -6.61196,0 -12.42247,0.925921 -5.81051,0.925897 -10.01811,3.055527 -4.2076,2.129604 -6.71215,5.092535 -2.50452,2.962905 -2.50452,7.036947 v 59.628881 q 0,-0.92592 4.40797,-3.79623 4.40798,-2.87037 11.52083,-4.62959 7.11286,-1.75925 16.83043,-0.64814 9.7176,1.11109 20.53714,7.96285 V 84.129807 z m -61.91196,10.925802 q 0,-4.259231 -2.50452,-7.129543 -2.50452,-2.870335 -6.91251,-4.999939 -4.40796,-2.12963 -10.018105,-3.055527 -5.610146,-0.925921 -12.42245,-0.925921 -13.223936,0 -21.839503,5.185128 v 69.443573 q 10.819572,-6.85176 20.537141,-7.96285 9.717568,-1.11111 17.030796,0.64814 7.313231,1.75922 11.721191,4.62959 4.40796,2.87031 4.40796,3.79623 V 95.055609 z m 4.60835,-12.96281 q 1.20216,-1.111086 6.71212,-3.981448 5.50997,-2.870338 13.82502,-4.722156 8.31503,-1.851821 19.43514,-1.481466 11.12011,0.370379 23.54258,5.925863 V 88.574204 159.68443 H 129.3965 q -1.40252,1.11108 -4.50815,1.94441 -3.10562,0.83333 -6.81232,0.83333 -3.70668,0 -6.71213,-0.64814 -3.00544,-0.64814 -4.40796,-2.1296 H 54.060288 V 88.574204 77.833592 q 13.223912,-5.555484 24.24382,-6.203648 11.019931,-0.648112 19.435161,1.111113 8.415211,1.759248 13.925171,4.72218 5.50997,2.962907 7.11287,4.629562 z"
     id="path3129"
     style="fill:currentColor"
     inkscape:connector-curvature="0" /></svg>