<?xml version="1.0" encoding="UTF-8" standalone="no"?>
<!-- Created with Inkscape (http://www.inkscape.org/) -->

<svg
   xmlns:dc="http://purl.org/dc/elements/1.1/"
   xmlns:cc="http://creativecommons.org/ns#"
   xmlns:rdf="http://www.w3.org/1999/02/22-rdf-syntax-ns#"
   xmlns:svg="http://www.w3.org/2000/svg"
   xmlns="http://www.w3.org/2000/svg"
   xmlns:sodipodi="http://sodipodi.sourceforge.net/DTD/sodipodi-0.dtd"
   xmlns:inkscape="http://www.inkscape.org/namespaces/inkscape"
   version="1.1"
   x="0px"
   y="0px"
   width="237"
   height="237"
   viewBox="0 0 237 237"
   enable-background="new 0 0 100 100"
   xml:space="preserve"
   id="svg2985"
   inkscape:version="0.48.4 r9939"
   sodipodi:docname="food.svg"><sodipodi:namedview
     pagecolor="#ffffff"
     bordercolor="#666666"
     borderopacity="1"
     objecttolerance="10"
     gridtolerance="10"
     guidetolerance="10"
     inkscape:pageopacity="0"
     inkscape:pageshadow="2"
     inkscape:window-width="1352"
     inkscape:window-height="900"
     id="namedview9"
     showgrid="false"
     inkscape:zoom="2.36"
     inkscape:cx="50"
     inkscape:cy="157.2297"
     inkscape:window-x="0"
     inkscape:window-y="26"
     inkscape:window-maximized="0"
     inkscape:current-layer="svg2985"
     fit-margin-top="0"
     fit-margin-left="0"
     fit-margin-right="0"
     fit-margin-bottom="0" /><defs
     id="defs2987" /><metadata
     id="metadata2990"><rdf:RDF><cc:Work
         rdf:about=""><dc:format>image/svg+xml</dc:format><dc:type
           rdf:resource="http://purl.org/dc/dcmitype/StillImage" /><dc:title /></cc:Work></rdf:RDF></metadata><circle
     cx="50"
     cy="50"
     r="50"
     id="circle6"
     sodipodi:cx="50"
     sodipodi:cy="50"
     sodipodi:rx="50"
     sodipodi:ry="50"
     transform="scale(2.37,2.37)"
     style="fill:#b2b2b2" /><path
     d="m 142.9118,75.907327 q -4.04635,-2.11468 -3.13594,-5.863475 0.91044,-3.748795 3.74287,-7.593717 2.83243,-3.844922 6.27183,-6.824723 3.43939,-2.979801 4.24867,-3.55654 -0.2024,11.150257 -1.92202,16.148634 -1.7197,4.998378 -3.74287,6.920851 -2.42781,1.922449 -5.46254,0.76897 z m -1.01159,14.033955 q -1.82087,-0.76897 -2.52898,-2.787547 -0.70811,-2.0186 0.1012,-4.037176 0.80926,-2.018577 3.43939,-3.460413 2.63011,-1.441861 7.89035,-1.057352 3.43939,0.192207 6.47415,-0.57674 2.4278,-0.576739 4.95676,-1.922473 2.52898,-1.345709 3.54057,-4.421661 0,1.153479 -2.32666,4.902274 -2.32665,3.748795 -5.86719,7.401462 -3.54055,3.652668 -7.78922,5.767395 -4.24865,2.11468 -7.89035,0.192207 z m 1.41622,3.652668 q 3.43939,0.192207 6.47413,-0.57674 2.4278,-0.576716 4.95678,-2.018576 2.52896,-1.441837 3.54054,-4.325535 0,1.153479 -2.32665,4.902274 -2.32663,3.748771 -5.8672,7.401463 -3.54054,3.652664 -7.78919,5.863474 -4.24868,2.21085 -8.0927,0.28838 -1.61852,-0.96122 -2.32663,-2.9798 -0.70811,-2.01858 0.1012,-4.037152 0.80926,-2.018576 3.43939,-3.364309 2.63011,-1.34571 7.89037,-1.153479 z m -7.89037,15.57192 q 3.43939,0.19221 6.47415,-0.57674 2.4278,-0.57674 4.95676,-2.01858 2.52896,-1.44186 3.54054,-4.32553 0,1.15348 -2.32665,4.90225 -2.32663,3.74882 -5.76602,7.40149 -3.43939,3.65266 -7.68804,5.76737 -4.24868,2.1147 -8.295,0 -1.61855,-0.769 -2.32666,-2.69147 -0.7081,-1.92243 0.1012,-3.94103 0.80926,-2.01857 3.43939,-3.36431 2.63014,-1.34571 7.89037,-1.15345 z m -4.65331,-24.799729 q -3.84402,-2.11468 -4.65328,-6.920826 -0.80926,-4.806171 0,-9.804548 0.80926,-4.998377 2.63013,-9.131681 1.82085,-4.13328 2.63011,-4.71002 -1.61855,2.499213 -1.31507,5.382887 0.30348,2.883673 1.31507,5.190631 1.21391,2.691443 3.23709,5.575141 3.03473,3.844922 3.54054,7.113081 0.50578,3.268183 -0.60696,5.190655 -1.11274,1.92245 -3.13591,2.403062 -2.02317,0.480612 -3.64172,-0.288382 z m -7.48571,14.99518 q -3.84403,-1.922449 -4.65331,-6.824723 -0.80926,-4.902274 0,-9.900651 0.80928,-4.998378 2.52898,-9.131682 1.71969,-4.133303 2.73126,-4.710019 -1.61852,2.499189 -1.41622,5.382886 0.2024,2.883674 1.21392,5.190632 1.21389,2.883697 3.23706,5.767371 3.03476,3.844922 3.64172,7.016978 0.60695,3.172031 -0.60696,5.094504 -1.21389,1.92245 -3.13591,2.403086 -1.92202,0.480607 -3.54054,-0.288382 z m -7.89037,15.379689 q -3.84403,-1.92247 -4.65331,-6.72862 -0.80926,-4.80615 0,-9.804548 0.80928,-4.998377 2.63013,-9.131681 1.82085,-4.133256 2.63013,-4.71002 -1.61854,2.499213 -1.31506,5.38291 0.30348,2.883674 1.31506,5.190608 1.01159,2.883698 3.03474,5.767391 3.23709,3.84493 3.74287,6.92085 0.50581,3.07593 -0.50578,4.99838 -1.01159,1.92248 -3.13591,2.40306 -2.12433,0.48064 -3.74287,-0.28833 z m -0.40463,20.37804 q -0.60696,0.96123 -1.41622,0.96123 -0.80929,0 -1.7197,-0.48062 -0.91043,-0.48061 -1.41622,-1.2496 -0.5058,-0.76897 -0.30347,-1.34571 l 5.66487,-14.41844 q 0.40463,-0.96125 1.21391,-0.0962 0.80926,0.86512 2.4278,1.63409 1.41622,0.76897 2.73129,0.96122 1.31504,0.19221 0.91041,1.15348 z m 39.85645,-31.33607 q 9.91355,3.26818 15.78074,9.51617 5.8672,6.24798 5.8672,17.01375 0,9.42004 -4.65331,18.74396 -4.65328,9.32391 -12.74598,16.8215 -8.09267,7.49759 -19.0178,12.1115 -10.92511,4.61389 -23.26646,4.61389 -12.34135,0 -23.165302,-4.61389 -10.823956,-4.61391 -18.916653,-12.1115 -8.092673,-7.49759 -12.745978,-16.72538 -4.653282,-9.22781 -4.653282,-18.84008 0,-8.45881 3.74287,-14.13005 3.74287,-5.67127 10.520477,-9.22781 6.777632,-3.55654 15.78074,-5.28676 9.003109,-1.730196 19.523588,-2.114705 -0.2024,0.961225 -0.40463,2.114705 v 2.30696 1.34571 q -8.295002,0.57674 -15.376088,2.1147 -7.08111,1.53796 -12.240197,3.65267 -5.159087,2.1147 -8.092673,4.90227 -2.933609,2.78757 -2.933609,5.8635 0,3.46041 3.945196,6.7286 3.945173,3.26818 10.621629,5.47899 6.67648,2.21083 15.78074,3.55656 9.104262,1.34571 19.220132,1.34571 10.31817,0 19.32128,-1.34571 9.00311,-1.34573 15.67957,-3.55656 6.67645,-2.21081 10.62165,-5.38287 3.94517,-3.17205 3.94517,-6.72859 0,-3.55654 -4.24865,-6.82473 -4.24865,-3.26818 -11.53206,-5.57514 2.22547,-2.69144 3.64169,-5.76737 z m 36.61939,-34.412018 q 0,-5.767348 -2.22548,-10.765749 -2.2255,-4.998401 -5.96837,-8.651069 -3.74287,-3.652667 -8.69963,-5.863498 -4.95676,-2.210807 -10.62165,-2.210807 H 69.673014 q -5.664893,0 -10.621653,2.210807 -4.95676,2.210831 -8.598479,5.863498 -3.641718,3.652668 -5.867195,8.651069 -2.225478,4.998401 -2.225478,10.765749 v 95.930678 q 0,5.76737 2.225478,10.76575 2.225477,4.99842 5.867195,8.55494 3.641719,3.55654 8.598479,5.7674 4.95676,2.21083 10.621653,2.21083 h 94.279736 q 5.66489,0 10.62165,-2.21083 4.95676,-2.21086 8.69963,-5.7674 3.74287,-3.55652 5.96837,-8.74717 2.22548,-5.19063 2.22548,-10.57352 V 69.370962 z M 163.95275,33.42102 q 7.48574,0 13.95989,2.78755 6.47416,2.787571 11.32976,7.689845 4.85561,4.902274 7.68805,11.438639 2.83243,6.536342 2.83243,14.033908 v 95.930678 q 0,7.49757 -2.83243,13.93783 -2.83244,6.44024 -7.68805,11.34251 -4.8556,4.90223 -11.32976,7.78592 -6.47415,2.8837 -13.95989,2.8837 H 69.673014 q -7.48574,0 -13.959893,-2.8837 -6.474153,-2.88369 -11.329761,-7.78592 -4.855609,-4.90227 -7.688043,-11.34251 -2.832435,-6.44026 -2.832435,-13.93783 V 69.370962 q 0,-7.497566 2.832435,-14.033908 2.832434,-6.536365 7.688043,-11.438639 4.855608,-4.902274 11.329761,-7.689845 6.474153,-2.78755 13.959893,-2.78755 h 94.279736 z"
     id="path3195"
     style="fill:currentColor"
     inkscape:connector-curvature="0" /></svg>