<?xml version="1.0" encoding="UTF-8" standalone="no"?>
<!-- Created with Inkscape (http://www.inkscape.org/) -->

<svg
   xmlns:dc="http://purl.org/dc/elements/1.1/"
   xmlns:cc="http://creativecommons.org/ns#"
   xmlns:rdf="http://www.w3.org/1999/02/22-rdf-syntax-ns#"
   xmlns:svg="http://www.w3.org/2000/svg"
   xmlns="http://www.w3.org/2000/svg"
   xmlns:sodipodi="http://sodipodi.sourceforge.net/DTD/sodipodi-0.dtd"
   xmlns:inkscape="http://www.inkscape.org/namespaces/inkscape"
   version="1.1"
   x="0px"
   y="0px"
   width="237"
   height="237"
   viewBox="0 0 237 237"
   enable-background="new 0 0 100 100"
   xml:space="preserve"
   id="svg2985"
   inkscape:version="0.48.4 r9939"
   sodipodi:docname="health.svg"><sodipodi:namedview
     pagecolor="#ffffff"
     bordercolor="#666666"
     borderopacity="1"
     objecttolerance="10"
     gridtolerance="10"
     guidetolerance="10"
     inkscape:pageopacity="0"
     inkscape:pageshadow="2"
     inkscape:window-width="1298"
     inkscape:window-height="900"
     id="namedview9"
     showgrid="false"
     inkscape:zoom="2.36"
     inkscape:cx="50"
     inkscape:cy="26.790479"
     inkscape:window-x="244"
     inkscape:window-y="26"
     inkscape:window-maximized="0"
     inkscape:current-layer="svg2985"
     fit-margin-top="0"
     fit-margin-left="0"
     fit-margin-right="0"
     fit-margin-bottom="0" /><defs
     id="defs2987" /><metadata
     id="metadata2990"><rdf:RDF><cc:Work
         rdf:about=""><dc:format>image/svg+xml</dc:format><dc:type
           rdf:resource="http://purl.org/dc/dcmitype/StillImage" /><dc:title /></cc:Work></rdf:RDF></metadata><circle
     cx="50"
     cy="50"
     r="50"
     id="circle6"
     sodipodi:cx="50"
     sodipodi:cy="50"
     sodipodi:rx="50"
     sodipodi:ry="50"
     transform="scale(2.37,2.37)"
     style="fill:#b2b2b2" /><path
     d="m 124.08894,142.17592 q 1.82085,-0.93248 2.63013,-2.42444 0.80926,-1.49194 0.60696,-2.42441 0,-0.55949 -0.1012,-1.67846 -0.1012,-1.11895 -0.70811,-2.42442 -0.60695,-1.30544 -2.22547,-2.70417 -1.61855,-1.3987 -4.85561,-2.51767 l -0.2024,16.97098 q 1.21391,-0.55949 2.4278,-1.30545 z m -20.02939,-4.84885 q 0,0.93247 0.91044,2.42441 0.91041,1.49196 2.73128,2.42444 1.41622,0.93248 2.63011,1.67843 1.21391,0.74601 2.63013,1.67844 l -0.2024,-17.90343 q -3.23706,1.11897 -4.95676,2.61091 -1.71969,1.49196 -2.63013,2.79743 -0.91041,1.30547 -1.01159,2.51767 -0.1012,1.21221 -0.1012,1.7717 z m 25.69429,-67.697394 q 3.03473,-5.408317 5.46254,-6.340793 2.4278,-0.932477 5.66489,1.491962 1.41622,1.118948 5.05791,4.755595 3.64172,3.636623 8.90196,7.366529 5.26024,3.729882 11.73439,6.340793 5.46257,2.051424 11.12743,2.237919 h 2.83244 q -1.41622,3.170421 -3.84402,4.5691 -2.42781,1.398726 -4.85561,1.958189 -2.63011,0.559485 -5.66487,0.186519 -2.02317,2.237943 -4.6533,2.704193 -2.63011,0.466227 -5.05792,0.09338 -2.63013,-0.37299 -5.26024,-1.118972 -1.61854,1.678458 -3.84404,1.86493 -2.22548,0.186519 -4.04633,-0.186519 -2.2255,-0.373015 -4.45097,-1.305467 -2.2255,1.678457 -4.24866,1.864929 -2.02317,0.186519 -3.64171,-0.186519 -2.02318,-0.372991 -3.84403,-1.118972 -1.21391,0.932477 -2.4278,1.212208 -1.21391,0.279755 -2.2255,0.466226 h -2.63011 l -0.2024,21.819834 h 0.40463 l 4.24868,-1.11897 q 1.82085,-0.373 4.3498,-1.11895 2.52898,-0.74598 5.15909,-1.49197 5.05794,-1.11894 9.50891,-2.89066 4.45098,-1.77167 5.46257,-2.89064 l -0.40465,-0.18652 q -0.80926,-0.37299 -2.73129,-0.83922 -1.922,-0.46625 -4.3498,-0.65272 l -4.85561,-0.37299 h -6.47415 q -1.41622,0.18652 -1.61855,0.18652 h -0.60693 l -1.21391,-0.18652 -1.61855,-1.30547 -1.21389,-1.86493 v -0.18651 q 0.2024,-2.05143 1.41622,-2.4244 l 2.4278,-0.746 q 1.01159,-0.18652 1.41622,-0.18652 h 0.80928 0.80927 l 2.02317,0.18652 h 6.27183 l 8.4973,0.55948 7.89037,2.42444 4.45098,5.40834 v 0.74596 q -0.2024,3.1704 -3.33822,5.50158 -3.13594,2.33118 -7.78922,4.00963 -4.65321,1.67865 -10.01462,2.79765 -5.36142,1.11894 -10.21702,2.23792 6.27184,4.28934 7.68806,11.74911 0.60694,7.45978 -13.75756,15.852 5.86719,4.10287 9.20543,7.83278 3.33822,3.72986 2.93359,8.39222 -0.40463,3.54338 -3.84402,6.62055 -3.4394,3.07716 -9.91355,6.24753 2.2255,-2.42439 3.54055,-4.47584 1.31506,-2.05143 1.92202,-3.72988 0.80926,-1.86493 0.80926,-3.3569 0.40465,-2.05142 -1.11274,-4.94208 -1.51737,-2.89067 -6.57531,-6.62055 l -0.40463,17.34394 q 0,2.79743 -2.73128,2.79743 -2.73128,0 -2.73128,-2.79743 l -0.2024,-17.90343 q -5.66489,3.72988 -7.38459,6.80704 -1.71969,3.07714 -1.31506,5.31508 0.2024,1.30545 1.21391,3.3569 0.60696,1.67845 1.82085,3.63662 1.21391,1.95819 3.43939,4.5691 -6.47415,-2.98388 -9.81237,-6.1543 -3.338239,-3.1704 -3.742869,-6.71378 -0.40463,-4.47587 2.933589,-8.20575 3.33824,-3.72986 9.00311,-8.01925 -14.364503,-8.39222 -13.757546,-15.85201 1.416217,-7.45976 7.688046,-11.74911 -4.855612,-0.93247 -10.11585,-2.14468 -5.260263,-1.21223 -10.014696,-2.89066 -4.754457,-1.67846 -7.789218,-4.00964 -3.034762,-2.33116 -3.439392,-5.50158 0.202398,-0.18652 0.202398,-0.74596 0.809261,-3.54341 4.349804,-5.3151 3.540566,-1.77169 7.789218,-2.42441 4.248651,-0.65275 8.295,-0.65275 h 6.676456 q 1.41622,0 1.92202,-0.0934 0.50578,-0.0934 0.91041,-0.0934 h 0.60696 l 1.41622,0.18652 2.63013,0.746 1.41622,2.42442 v 0.18652 q -0.40463,1.30544 -1.21392,2.05142 -0.80926,0.74598 -1.71969,1.02571 -0.91041,0.27974 -1.51737,0.27974 h -0.60696 q -0.40463,-0.18652 -1.41622,-0.18652 -1.01158,0 -2.4278,-0.0934 -1.416217,-0.0934 -3.945173,0.0934 -2.52898,0.18652 -4.855609,0.37299 -2.326653,0.18652 -4.349827,0.74598 -2.225477,0.37296 -2.630131,0.74598 -0.202398,0 -0.303455,0.0934 -0.101199,0.0934 -0.303478,0.0934 1.011587,0.93248 5.563717,2.79743 4.55213,1.86493 9.610065,2.98388 2.630111,0.55951 5.057911,1.39872 2.42781,0.83922 4.24868,1.21221 l 4.04632,1.11897 q 0.80929,0 1.21392,0.18652 l -0.2024,-22.006325 h -2.22548 q -1.01159,-0.186519 -2.2255,-0.466227 -1.21389,-0.279754 -2.42781,-1.212231 -1.61852,0.746005 -3.84402,1.118996 -1.61854,0.372966 -3.742867,0.09338 -2.124326,-0.279755 -4.349803,-1.771718 -2.023174,0.932477 -4.248675,1.305491 -1.820848,0.372967 -3.945174,0.09338 -2.124325,-0.279755 -3.945173,-1.771717 -2.630131,0.746005 -5.462565,1.118972 -2.225501,0.37299 -4.754457,-0.09338 -2.528956,-0.46625 -4.754457,-2.70417 -3.034738,0.37299 -5.867196,-0.186519 -2.225477,-0.372991 -4.55213,-1.86493 -2.326653,-1.491962 -4.1475,-4.662358 1.416217,0.186519 2.832434,0 6.069523,0 11.127458,-2.23792 6.474129,-2.610911 11.734392,-6.340817 5.260239,-3.729882 9.003108,-7.366505 3.742847,-3.636646 5.159064,-4.755618 3.034761,-2.424415 5.462565,-1.491963 2.427805,0.932477 5.462566,6.340817 2.02317,3.356915 4.75446,4.196109 2.73128,0.83924 4.75445,0.652721 v -0.745957 q -5.26026,-2.610911 -5.05793,-8.205746 0,-3.543387 2.63013,-6.247533 2.63011,-2.704194 6.47413,-2.704194 3.84402,0 6.5753,2.704194 2.73129,2.704146 2.73129,6.247533 0,5.594835 -5.26024,8.205746 v 0.745957 q 1.82084,0.186519 4.65328,-0.652721 2.83246,-0.839194 4.85563,-4.196109 z m 62.51595,1.678457 q 0,-5.594811 -2.22548,-10.443665 -2.22547,-4.848854 -5.86719,-8.392241 -3.64172,-3.543387 -8.59848,-5.688095 -4.95676,-2.144661 -10.62165,-2.144661 H 70.677249 q -5.664893,0 -10.621653,2.144661 -4.95676,2.144708 -8.598478,5.688095 -3.641719,3.543387 -5.867196,8.392241 -2.225477,4.848854 -2.225477,10.443665 v 93.060587 q 0,5.59481 2.225477,10.44366 2.225477,4.84886 5.867196,8.29899 3.641718,3.45015 8.598478,5.59483 4.95676,2.14469 10.621653,2.14469 h 94.279741 q 5.66489,0 10.62165,-2.14469 4.95676,-2.14468 8.59848,-5.59483 3.64172,-3.45013 5.86719,-8.48546 2.22548,-5.03535 2.22548,-10.25719 V 71.308133 z M 164.95699,36.43373 q 7.48574,0 13.95989,2.704142 6.47415,2.704194 11.32976,7.459788 4.85561,4.755595 7.68804,11.096411 2.83244,6.340793 2.83244,13.614062 v 93.060587 q 0,7.27327 -2.83244,13.52083 -2.83243,6.24755 -7.68804,11.00317 -4.85561,4.75557 -11.32976,7.553 -6.47415,2.79741 -13.95989,2.79741 H 70.677249 q -7.48574,0 -13.959893,-2.79741 -6.474152,-2.79743 -11.329761,-7.553 -4.855609,-4.75562 -7.688043,-11.00317 -2.832434,-6.24756 -2.832434,-13.52083 V 71.308133 q 0,-7.273269 2.832434,-13.614062 2.832434,-6.340816 7.688043,-11.096411 4.855609,-4.755594 11.329761,-7.459788 6.474153,-2.704142 13.959893,-2.704142 h 94.279741 z"
     id="path3162"
     style="fill:currentColor"
     inkscape:connector-curvature="0" /></svg>