<?xml version="1.0" encoding="UTF-8" standalone="no"?>
<!-- Created with Inkscape (http://www.inkscape.org/) -->
<svg xmlns:dc="http://purl.org/dc/elements/1.1/" xmlns:cc="http://web.resource.org/cc/" xmlns:rdf="http://www.w3.org/1999/02/22-rdf-syntax-ns#" xmlns:svg="http://www.w3.org/2000/svg" xmlns="http://www.w3.org/2000/svg" xmlns:sodipodi="http://inkscape.sourceforge.net/DTD/sodipodi-0.dtd" xmlns:inkscape="http://www.inkscape.org/namespaces/inkscape" id="svg4255" sodipodi:version="0.32" inkscape:version="0.43" width="840pt" height="910pt" version="1.0" sodipodi:docbase="C:\Documents and Settings\Rubén\Mis documentos\Mis imágenes\wikipedia" sodipodi:docname="Regions of Jordan blank.svg">
  <metadata id="metadata4260">
    <rdf:RDF>
      <cc:Work rdf:about="">
        <dc:format>image/svg+xml</dc:format>
        <dc:type rdf:resource="http://purl.org/dc/dcmitype/StillImage"/>
      </cc:Work>
    </rdf:RDF>
  </metadata>
  <defs id="defs4258"/>
  <sodipodi:namedview inkscape:window-height="744" inkscape:window-width="1280" inkscape:pageshadow="2" inkscape:pageopacity="0.0" borderopacity="1.0" bordercolor="#666666" pagecolor="#ffffff" id="base" inkscape:zoom="0.5" inkscape:cx="141.56569" inkscape:cy="556.27273" inkscape:window-x="-4" inkscape:window-y="-4" inkscape:current-layer="svg4255"/>
  <path style="fill:none;fill-opacity:1;fill-rule:evenodd;stroke:#000000;stroke-width:1.60000002;stroke-linecap:butt;stroke-linejoin:miter;stroke-miterlimit:4;stroke-dasharray:none;stroke-opacity:1" d="M 226.75711,181.15812 L 223.25712,183.65812 L 219.25712,186.65812 L 213.75712,189.15812 L 207.75712,190.65812 L 205.75712,192.15812 L 205.25712,194.65812 L 203.25712,197.15812 L 198.25712,198.15812 L 194.25712,198.15812 L 190.75712,200.65812 L 188.75712,203.15812 L 184.75712,205.65812 L 179.75712,209.15812 L 179.75712,211.65812 L 180.75712,213.15812 L 179.25712,215.65813 L 179.25712,217.65813 L 182.25712,221.65813 L 182.25712,225.15813 L 182.25712,228.15813 L 180.25712,231.15813 L 177.75712,233.15813 L 178.25712,236.15813 L 177.75712,239.15813 L 177.75712,241.65813 L 180.75712,245.65813 L 180.75712,248.15813 L 178.75712,251.65813 L 178.75712,254.15813 L 179.25712,256.15813 L 178.75712,257.65813 L 178.25712,260.15813 L 178.75712,262.65813 L 177.25712,264.15813 L 176.25712,266.15813 L 176.25712,268.65813 L 177.75712,270.65813 L 176.25712,272.65813 L 173.75712,274.15813 L 175.75712,276.15813 L 176.25712,279.65813 L 175.75712,282.15813 L 176.75712,286.65813 L 175.75712,289.65813 L 175.75712,291.65813 L 177.25712,293.65813 L 178.25712,295.65813 L 178.25712,299.15813 L 178.25712,303.15813 L 177.25712,305.15813 L 176.25712,306.65813 L 177.75712,308.15813 L 178.25712,309.15813 L 176.75712,312.65813 L 177.25712,314.65813 L 178.25712,316.15813 L 178.25712,318.65813 L 177.75712,320.15813 L 176.75712,322.15813 L 176.25712,323.15813 L 176.25712,325.65813 L 177.75712,327.65813 L 177.53837,328.68938 L 178.25712,328.65813 L 181.75712,328.65813 L 185.75712,328.65813 L 190.75712,329.65813 L 195.06962,328.93938 L 194.25712,326.65813 L 194.25712,321.15813 L 191.75712,315.15813 L 188.25712,310.65813 L 188.75712,306.15813 L 191.25712,298.65813 L 197.75712,285.65813 L 200.25712,283.65813 L 203.25712,283.15813 L 206.25712,283.65813 L 208.75712,285.65813 L 212.25712,286.15813 L 215.75712,285.65813 L 216.75712,284.65813 L 217.75712,282.15813 L 219.75712,279.65813 L 222.75712,279.15813 L 225.75711,279.15813 L 234.25711,279.65813 L 237.75711,278.65813 L 237.75711,277.15813 L 240.25711,273.15813 L 242.75711,272.15813 L 244.75711,272.15813 L 246.25711,272.65813 L 247.75711,274.15813 L 245.75711,276.15813 L 244.75711,277.65813 L 245.75711,279.15813 L 247.25711,280.15813 L 249.25711,280.15813 L 251.25711,281.15813 L 251.25711,282.65813 L 251.25711,284.65813 L 253.25711,286.15813 L 254.25711,288.15813 L 254.75711,289.65813 L 254.25711,291.65813 L 254.10086,292.37688 L 257.25711,290.15813 L 263.75711,286.15813 L 265.25711,285.15813 L 268.25711,283.65813 L 269.25711,283.65813 L 271.25711,285.15813 L 271.25711,287.65813 L 273.75711,289.15813 L 277.25711,288.65813 L 280.97586,288.43938 L 281.75711,287.15813 L 283.25711,284.15813 L 284.75711,282.65813 L 284.25711,280.65813 L 281.25711,276.65813 L 279.25711,274.15813 L 278.25711,271.15813 L 280.75711,268.15813 L 283.75711,267.15813 L 286.75711,267.15813 L 289.25711,268.65813 L 291.25711,270.15813 L 293.25711,271.65813 L 295.75711,273.15813 L 298.75711,268.65813 L 298.75711,264.15813 L 298.75711,253.65813 L 298.75711,247.65813 L 296.25711,243.15813 L 294.75711,240.65813 L 295.47586,240.31438 L 295.25711,240.15813 L 295.25711,238.15813 L 296.75711,235.65813 L 294.75711,232.15813 L 292.25711,228.15813 L 289.25711,224.15813 L 287.25711,219.65813 L 283.75711,217.65813 L 283.25711,214.15813 L 284.75711,207.65812 L 283.75711,205.15812 L 280.25711,202.65812 L 278.75711,202.65812 L 276.75711,203.65812 L 273.75711,203.15812 L 271.25711,201.15812 L 267.75711,198.65812 L 268.75711,197.65812 L 269.75711,195.15812 L 267.75711,193.15812 L 265.75711,193.15812 L 264.75711,192.65812 L 264.25711,191.15812 L 261.75711,189.15812 L 258.75711,188.65812 L 253.75711,186.15812 L 250.25711,186.15812 L 247.75711,185.15812 L 244.75711,185.15812 L 240.75711,185.65812 L 237.75711,184.15812 L 234.25711,182.65812 L 230.75711,181.15812 L 226.75711,181.15812 z " id="path2217"/>
  <path style="fill:none;fill-opacity:1;fill-rule:evenodd;stroke:#000000;stroke-width:3.5;stroke-linecap:butt;stroke-linejoin:miter;stroke-miterlimit:4;stroke-dasharray:none;stroke-opacity:1" d="M 904.75 13.15625 L 473.25 290.65625 L 466.25 298.15625 L 441.75 291.65625 L 437.75 294.65625 L 435.25 291.65625 L 388.75 283.65625 L 386.25 280.65625 L 367.75 278.15625 L 345.25 255.15625 L 323.25 238.65625 L 318.25 240.15625 L 316.25 241.65625 L 312.25 240.15625 L 309.25 240.15625 L 302.75 240.15625 L 300.25 240.65625 L 296.75 241.15625 L 295.46875 240.3125 L 295.25 240.15625 L 295.25 238.15625 L 296.75 235.65625 L 294.75 232.15625 L 292.25 228.15625 L 289.25 224.15625 L 287.25 219.65625 L 283.75 217.65625 L 283.25 214.15625 L 284.75 207.65625 L 283.75 205.15625 L 280.25 202.65625 L 278.75 202.65625 L 276.75 203.65625 L 273.75 203.15625 L 271.25 201.15625 L 267.75 198.65625 L 268.75 197.65625 L 269.75 195.15625 L 267.75 193.15625 L 265.75 193.15625 L 264.75 192.65625 L 264.25 191.15625 L 261.75 189.15625 L 258.75 188.65625 L 253.75 186.15625 L 250.25 186.15625 L 247.75 185.15625 L 244.75 185.15625 L 240.75 185.65625 L 237.75 184.15625 L 234.25 182.65625 L 230.75 181.15625 L 226.75 181.15625 L 223.25 183.65625 L 219.25 186.65625 L 213.75 189.15625 L 207.75 190.65625 L 205.75 192.15625 L 205.25 194.65625 L 203.25 197.15625 L 198.25 198.15625 L 194.25 198.15625 L 190.75 200.65625 L 188.75 203.15625 L 184.75 205.65625 L 179.75 209.15625 L 179.75 211.65625 L 180.75 213.15625 L 179.25 215.65625 L 179.25 217.65625 L 182.25 221.65625 L 182.25 225.15625 L 182.25 228.15625 L 180.25 231.15625 L 177.75 233.15625 L 178.25 236.15625 L 177.75 239.15625 L 177.75 241.65625 L 180.75 245.65625 L 180.75 248.15625 L 178.75 251.65625 L 178.75 254.15625 L 179.25 256.15625 L 178.75 257.65625 L 178.25 260.15625 L 178.75 262.65625 L 177.25 264.15625 L 176.25 266.15625 L 176.25 268.65625 L 177.75 270.65625 L 176.25 272.65625 L 173.75 274.15625 L 175.75 276.15625 L 176.25 279.65625 L 175.75 282.15625 L 176.75 286.65625 L 175.75 289.65625 L 175.75 291.65625 L 177.25 293.65625 L 178.25 295.65625 L 178.25 299.15625 L 178.25 303.15625 L 177.25 305.15625 L 176.25 306.65625 L 177.75 308.15625 L 178.25 309.15625 L 176.75 312.65625 L 177.25 314.65625 L 178.25 316.15625 L 178.25 318.65625 L 177.75 320.15625 L 176.75 322.15625 L 176.25 323.15625 L 176.25 325.65625 L 177.75 327.65625 L 177.53125 328.6875 L 177.25 330.15625 L 175.75 331.65625 L 175.75 334.65625 L 175.25 336.65625 L 173.75 339.15625 L 172.25 340.15625 L 172.25 343.65625 L 170.75 347.65625 L 170.75 350.15625 L 171.75 355.15625 L 171.75 357.15625 L 170.75 359.65625 L 168.75 362.65625 L 166.75 367.65625 L 166.75 372.65625 L 167.75 376.15625 L 168.25 379.65625 L 171.25 384.65625 L 171.25 389.65625 L 171.25 395.15625 L 170.25 397.65625 L 166.75 400.65625 L 168.25 403.65625 L 168.25 407.65625 L 169.75 409.65625 L 172.25 415.15625 L 171.75 419.65625 L 171.75 424.65625 L 169.75 427.15625 L 172.25 432.65625 L 172.25 433.15625 L 172.75 437.65625 L 173.25 441.15625 L 172.75 442.34375 L 173.25 442.40625 L 176.78125 445.25 L 179.59375 446.65625 L 178.90625 449.5 L 176.78125 454.4375 L 176.78125 457.25 L 175.375 461.5 L 173.9375 467.875 L 173.9375 474.21875 L 173.9375 479.90625 L 172.53125 483.4375 L 170.40625 489.09375 L 170.40625 498.28125 L 170.40625 507.46875 L 170.40625 510.28125 L 172.53125 513.84375 L 173.9375 517.375 L 171.8125 520.1875 L 172.53125 522.3125 L 171.125 527.3125 L 171.8125 528.75 L 171.8125 529.84375 L 171.625 530.84375 L 171.21875 531.4375 L 170.96875 531.4375 L 170.875 532.53125 L 171.125 533.21875 L 171.125 533.8125 L 170.96875 534.46875 L 170.625 534.8125 L 170.875 535.90625 L 170.875 536.75 L 170.625 537.25 L 170.46875 537.9375 L 170.28125 538.34375 L 169.78125 538.59375 L 168.78125 538.78125 L 168.28125 539.1875 L 167.75 540.28125 L 167.4375 541.5625 L 167.1875 542.40625 L 167.25 542.90625 L 168.03125 543.5 L 168.4375 543.75 L 168.34375 544.34375 L 168.1875 545.1875 L 167.84375 546.34375 L 167.1875 547.375 L 167 547.875 L 166.90625 549.0625 L 167.34375 549.96875 L 167.59375 550.40625 L 167.5 551.84375 L 167.5 553 L 167.25 553.25 L 167.1875 553.9375 L 167.34375 554.4375 L 167.4375 555.1875 L 167.5 555.53125 L 167.25 555.53125 L 166.59375 556.03125 L 166.40625 556.625 L 165.5625 557.90625 L 165.3125 558.65625 L 165.0625 558.90625 L 164.96875 560.09375 L 164.40625 560.84375 L 162.625 561.9375 L 161.78125 562.9375 L 161.09375 563.78125 L 160.09375 564.3125 L 158.59375 564.375 L 157.8125 564.21875 L 157.65625 559.59375 L 158.25 557.3125 L 159.9375 554.6875 L 159.9375 552.9375 L 160.78125 550.65625 L 160.78125 549.125 L 159.9375 548.03125 L 159.4375 546.875 L 158.5 545.6875 L 157.3125 544.9375 L 156.21875 544.75 L 155.96875 544.84375 L 155.21875 545.6875 L 154.53125 546.34375 L 154.71875 546.875 L 155.625 547.125 L 155.96875 547.03125 L 155.5625 547.375 L 154.875 547.625 L 154.53125 547.71875 L 154.53125 548.625 L 154.375 549.46875 L 154.03125 549.46875 L 153.53125 548.875 L 153.03125 548.8125 L 152.59375 548.875 L 152.34375 549.375 L 151.15625 550.15625 L 150.25 551 L 149.8125 551.65625 L 150 552.25 L 150.25 552.9375 L 150.0625 554.375 L 149.5625 556.125 L 149.15625 556.96875 L 148.5625 557.65625 L 147.46875 557.96875 L 146.625 557.96875 L 146.03125 558.40625 L 145.59375 559.59375 L 144.1875 560.6875 L 142.15625 561.53125 L 141.40625 561.78125 L 141.3125 561.9375 L 140.46875 562.9375 L 139.46875 565.15625 L 138.375 567.09375 L 137.09375 568.84375 L 136.8125 569.4375 L 135.25 574.15625 L 135.25 578.65625 L 137.25 584.15625 L 142.25 591.15625 L 146.25 596.65625 L 149.75 606.15625 L 149.75 610.15625 L 149.15625 611.46875 L 149.15625 611.71875 L 148.90625 614.15625 L 148.46875 616.03125 L 147.875 617.625 L 147.375 619.5625 L 146.1875 622.25 L 144.4375 624.875 L 144.28125 625.1875 L 143.75 627.65625 L 141.75 629.65625 L 140.25 631.65625 L 138.375 635.40625 L 138.1875 635.9375 L 137.25 641.15625 L 136.25 649.15625 L 136.4375 650.8125 L 136.6875 653.75 L 136.6875 655.4375 L 136.09375 657.90625 L 134.5 660.25 L 132.8125 661.34375 L 130.03125 663.28125 L 127.90625 664.71875 L 126.40625 665.90625 L 125.9375 666.40625 L 125.3125 667.0625 L 125.25 667.15625 L 120.25 675.15625 L 120.25 681.15625 L 119.25 687.65625 L 117.25 692.15625 L 114.25 695.15625 L 109.75 699.65625 L 107.25 709.15625 L 105.75 719.65625 L 105.65625 719.8125 L 101.25 728.15625 L 93.25 739.65625 L 88.25 749.65625 L 85.25 760.15625 L 82.75 767.65625 L 82.75 771.15625 L 82.75 775.65625 L 81.25 778.15625 L 75.25 793.15625 L 75.25 796.65625 L 77.25 799.65625 L 79.25 802.65625 L 79.75 808.65625 L 79.75 812.65625 L 76.25 817.65625 L 73.25 826.15625 L 71.75 843.65625 L 71.75 848.65625 L 74.25 858.15625 L 74.75 866.15625 L 75.25 875.65625 L 73.25 880.65625 L 69.75 886.15625 L 65.25 890.15625 L 61.25 895.15625 L 58.25 904.15625 L 57.75 908.65625 L 57.75 913.65625 L 55.75 917.15625 L 54.25 919.15625 L 53.25 926.15625 L 53.25 945.15625 L 51.25 951.65625 L 45.25 964.65625 L 41.75 973.65625 L 39.75 976.15625 L 39.75 980.65625 L 38.75 984.65625 L 38.25 990.65625 L 37.25 994.65625 L 35.25 999.65625 L 35.25 1002.6563 L 32.25 1007.1563 L 29.75 1015.6563 L 29.75 1020.1563 L 29.25 1024.6563 L 28.75 1027.1563 L 31.25 1029.6563 L 33.75 1034.6563 L 34.75 1040.1563 L 32.25 1043.1563 L 30.75 1046.6563 L 27.75 1052.6563 L 26.25 1062.1563 L 25.25 1073.6563 L 25.25 1077.6563 L 206.09375 1112.125 L 282.25 1126.6563 L 386.75 1043.1563 L 441.75 947.65625 L 618.75 911.15625 L 654.75 823.15625 L 733.25 776.15625 L 559.375 581.375 L 500.25 515.15625 L 502.25 514.53125 L 675.8125 461.71875 L 958.75 375.65625 L 1027.75 311.65625 L 1018.25 281.15625 L 970.75 293.65625 L 955.25 250.65625 L 972.25 243.15625 L 904.75 13.15625 z " id="path2266"/>
  <path style="fill:none;fill-opacity:1;fill-rule:evenodd;stroke:#000000;stroke-width:1.60000002;stroke-linecap:butt;stroke-linejoin:miter;stroke-miterlimit:4;stroke-dasharray:none;stroke-opacity:1" d="M 308.50711,578.78312 L 308.25711,602.15812 L 326.75711,621.15812 L 256.75711,744.15812 L 253.25711,741.15812 L 247.75711,738.65812 L 242.25711,737.65812 L 237.75711,737.65812 L 235.25711,739.65812 L 234.25711,742.65812 L 226.25711,744.15812 C 226.25711,744.15812 223.50712,744.90812 220.50712,745.65812 C 217.50712,746.40812 214.25712,747.15812 213.25712,747.15812 C 212.25712,747.15812 210.13212,747.53312 208.25712,747.90812 C 206.38212,748.28312 204.75712,748.65812 204.75712,748.65812 L 198.75712,748.15812 C 198.75712,748.15812 197.88212,749.15812 196.75712,750.15812 C 196.19462,750.65812 195.55399,751.15812 194.94462,751.53312 C 194.33524,751.90812 193.75712,752.15812 193.25712,752.15812 C 191.25712,752.15812 190.75712,752.15812 190.75712,752.15812 L 186.25712,749.65812 L 181.75712,748.65812 L 174.75712,749.65812 L 163.75712,750.15812 L 151.25712,748.15812 L 148.25712,745.65812 L 145.75712,745.65812 L 143.16337,747.37687 L 143.75712,755.15812 L 143.75712,762.65812 L 143.75712,764.65812 L 140.75712,769.15812 L 138.25712,775.15812 L 137.25712,777.15812 L 137.75712,788.65812 L 121.75712,817.15812 L 125.75712,836.15812 L 127.75712,841.65812 L 127.75712,845.15812 L 127.75712,848.65812 L 127.25712,853.15812 L 124.25712,857.15812 L 119.75712,863.65812 L 115.25712,868.15812 L 110.25712,873.15812 C 110.25712,873.15812 109.75712,873.65812 109.25712,874.40812 C 109.00712,874.78312 108.75712,875.22062 108.56962,875.68937 C 108.38212,876.15812 108.25712,876.65812 108.25712,877.15812 C 108.25712,879.15812 107.25712,884.65812 107.25712,884.65812 L 105.75712,890.15812 L 104.25712,895.15812 L 104.25712,901.65812 L 106.75712,909.15812 L 110.25712,914.65812 L 113.25712,918.65812 L 117.25712,921.15812 L 123.75712,923.15812 L 131.25712,921.15812 L 139.25712,921.15812 L 145.25712,921.15812 C 145.25712,921.15812 147.00712,921.03312 148.88212,921.15812 C 149.81962,921.22062 150.77274,921.33 151.56962,921.56437 C 152.36649,921.79874 153.00712,922.15812 153.25712,922.65812 C 153.50712,923.15812 154.02274,923.61125 154.63212,924.03312 C 155.24149,924.45499 155.94462,924.84562 156.63212,925.15812 C 158.00712,925.78312 159.25712,926.15812 159.25712,926.15812 L 166.75712,933.65812 L 170.25712,938.65812 L 172.25712,945.15812 L 174.25712,953.15812 L 174.25712,957.15812 L 177.75712,962.65812 L 183.75712,970.15812 L 186.25712,979.65812 L 189.25712,990.15812 L 191.75712,1002.6581 L 194.75712,1016.1581 L 196.75712,1032.1581 L 199.25712,1050.6581 L 206.10087,1112.1269 L 282.25711,1126.6581 L 386.75711,1043.1581 L 441.75711,947.65812 L 618.75711,911.15812 L 654.75711,823.15812 L 733.25711,776.15812 L 559.38211,581.37687 L 308.50711,578.78312 z " id="path2254"/>
  <path style="fill:none;fill-opacity:1;fill-rule:evenodd;stroke:#000000;stroke-width:1.60000002;stroke-linecap:butt;stroke-linejoin:miter;stroke-miterlimit:4;stroke-dasharray:none;stroke-opacity:1" d="M 178.25 328.65625 L 177.53125 328.6875 L 177.25 330.15625 L 175.75 331.65625 L 175.75 334.65625 L 175.25 336.65625 L 173.75 339.15625 L 172.25 340.15625 L 172.25 343.65625 L 170.75 347.65625 L 170.75 350.15625 L 171.75 355.15625 L 171.75 357.15625 L 170.75 359.65625 L 168.75 362.65625 L 166.75 367.65625 L 166.75 372.65625 L 167.75 376.15625 L 168.25 379.65625 L 171.25 384.65625 L 171.25 389.65625 L 171.25 395.15625 L 170.25 397.65625 L 166.75 400.65625 L 168.25 403.65625 L 168.25 407.65625 L 169.75 409.65625 L 172.25 415.15625 L 171.75 419.65625 L 171.75 424.65625 L 169.75 427.15625 L 172.25 432.65625 L 172.25 433.15625 L 172.75 437.65625 L 173.25 441.15625 L 172.75 442.34375 L 173.25 442.40625 L 176.78125 445.25 L 179.59375 446.65625 L 178.90625 449.5 L 176.78125 454.4375 L 176.78125 457.25 L 175.375 461.5 L 174.65625 464.65625 L 174.75 464.65625 L 181.25 462.65625 L 189.25 460.15625 L 191.25 457.15625 L 191.25 453.15625 L 191.75 449.15625 L 191.75 444.65625 L 194.25 441.65625 L 198.25 439.65625 L 203.25 439.65625 L 208.75 439.65625 L 209.34375 439.65625 L 209.75 438.15625 L 209.25 436.15625 L 209.25 433.15625 L 210.75 430.65625 L 211.75 428.15625 L 214.75 425.65625 L 214.75 423.65625 L 213.25 421.15625 L 209.25 417.65625 L 203.75 415.65625 L 200.25 414.15625 L 199.25 410.65625 L 202.25 406.65625 L 206.25 403.65625 L 215.75 400.65625 L 219.75 398.65625 L 224.25 396.65625 L 229.75 393.15625 L 232.75 390.65625 L 232.75 388.15625 L 232.75 385.65625 L 235.25 381.65625 L 236.25 380.15625 L 240.25 379.65625 L 246.75 379.65625 L 251.25 377.65625 L 254.25 371.65625 L 256.75 369.15625 L 260.5625 366.46875 L 260.25 366.15625 L 257.25 363.65625 L 253.75 361.65625 L 251.75 359.15625 L 251.75 357.15625 L 252 354.78125 L 247.75 353.15625 L 245.25 351.65625 L 242.75 349.15625 L 241.25 347.15625 L 240.75 346.15625 L 239.75 343.65625 L 238.75 342.65625 L 237.75 341.15625 L 235.25 339.65625 L 231.75 338.65625 L 228.75 339.15625 L 225.75 340.15625 L 219.25 340.15625 L 216.25 339.65625 L 215.75 338.15625 L 214.75 338.15625 L 211.75 339.65625 L 210.25 340.65625 L 208.75 341.15625 L 206.25 341.15625 L 205.25 340.15625 L 208.25 336.65625 L 209.09375 335.5625 L 205.25 336.15625 L 200.25 335.15625 L 196.75 333.65625 L 195.0625 328.9375 L 190.75 329.65625 L 185.75 328.65625 L 181.75 328.65625 L 178.25 328.65625 z " id="path2237"/>
  <path style="fill:#d8edff;fill-opacity:1;fill-rule:evenodd;stroke:#000000;stroke-width:0.2;stroke-linecap:butt;stroke-linejoin:miter;stroke-miterlimit:4;stroke-dasharray:none;stroke-opacity:1" d="M 172.75 442.34375 L 170.75 447.15625 L 168.75 454.65625 L 163.90625 462.40625 L 163.75 462.65625 L 159.25 475.15625 L 158.25 482.15625 L 155.75 497.15625 L 155.25 504.65625 L 153.75 514.15625 L 153.75 522.15625 L 153.75 528.71875 L 153.75 530.15625 L 153.75 534.15625 L 152.75 538.65625 L 149.75 543.65625 L 149.25 548.15625 L 146.75 553.15625 L 142.75 559.15625 L 137.25 568.15625 L 136.8125 569.4375 L 137.09375 568.84375 L 138.375 567.09375 L 139.46875 565.15625 L 140.46875 562.9375 L 141.3125 561.9375 L 141.40625 561.78125 L 142.15625 561.53125 L 144.1875 560.6875 L 145.59375 559.59375 L 146.03125 558.40625 L 146.625 557.96875 L 147.46875 557.96875 L 148.5625 557.65625 L 149.15625 556.96875 L 149.5625 556.125 L 150.0625 554.375 L 150.25 552.9375 L 150 552.25 L 149.8125 551.65625 L 150.25 551 L 151.15625 550.15625 L 152.34375 549.375 L 152.59375 548.875 L 153.03125 548.8125 L 153.53125 548.875 L 154.03125 549.46875 L 154.375 549.46875 L 154.53125 548.625 L 154.53125 547.71875 L 154.875 547.625 L 155.5625 547.375 L 155.96875 547.03125 L 155.625 547.125 L 154.71875 546.875 L 154.53125 546.34375 L 155.21875 545.6875 L 155.96875 544.84375 L 156.21875 544.75 L 157.3125 544.9375 L 158.5 545.6875 L 159.4375 546.875 L 159.9375 548.03125 L 160.78125 549.125 L 160.78125 550.65625 L 159.9375 552.9375 L 159.9375 554.6875 L 158.25 557.3125 L 157.65625 559.59375 L 157.8125 564.21875 L 158.59375 564.375 L 160.09375 564.3125 L 161.09375 563.78125 L 161.78125 562.9375 L 162.625 561.9375 L 164.40625 560.84375 L 164.96875 560.09375 L 165.0625 558.90625 L 165.3125 558.65625 L 165.5625 557.90625 L 166.40625 556.625 L 166.59375 556.03125 L 167.25 555.53125 L 167.5 555.53125 L 167.4375 555.1875 L 167.34375 554.4375 L 167.1875 553.9375 L 167.25 553.25 L 167.5 553 L 167.5 551.84375 L 167.59375 550.40625 L 167.34375 549.96875 L 166.90625 549.0625 L 167 547.875 L 167.1875 547.375 L 167.84375 546.34375 L 168.1875 545.1875 L 168.34375 544.34375 L 168.4375 543.75 L 168.03125 543.5 L 167.25 542.90625 L 167.1875 542.40625 L 167.4375 541.5625 L 167.75 540.28125 L 168.28125 539.1875 L 168.78125 538.78125 L 169.78125 538.59375 L 170.28125 538.34375 L 170.46875 537.9375 L 170.625 537.25 L 170.875 536.75 L 170.875 535.90625 L 170.625 534.8125 L 170.96875 534.46875 L 171.125 533.8125 L 171.125 533.21875 L 170.875 532.53125 L 170.96875 531.4375 L 171.21875 531.4375 L 171.625 530.84375 L 171.8125 529.84375 L 171.8125 528.75 L 171.28125 527.65625 L 171.125 527.3125 L 172.53125 522.3125 L 171.8125 520.1875 L 173.9375 517.375 L 172.53125 513.84375 L 170.40625 510.28125 L 170.40625 507.46875 L 170.40625 498.28125 L 170.40625 489.09375 L 172.53125 483.4375 L 173.9375 479.90625 L 173.9375 474.21875 L 173.9375 467.875 L 175.375 461.5 L 176.78125 457.25 L 176.78125 454.4375 L 178.90625 449.5 L 179.59375 446.65625 L 176.78125 445.25 L 173.25 442.40625 L 172.75 442.34375 z " id="path5767"/>
  <path style="fill:none;fill-opacity:1;fill-rule:evenodd;stroke:#000000;stroke-width:1.60000002;stroke-linecap:butt;stroke-linejoin:miter;stroke-miterlimit:4;stroke-dasharray:none;stroke-opacity:1" d="M 171.28125 527.65625 L 171.8125 528.75 L 171.8125 529.84375 L 171.625 530.84375 L 171.21875 531.4375 L 170.96875 531.4375 L 170.875 532.53125 L 171.125 533.21875 L 171.125 533.8125 L 170.96875 534.46875 L 170.625 534.8125 L 170.875 535.90625 L 170.875 536.75 L 170.625 537.25 L 170.46875 537.9375 L 170.28125 538.34375 L 169.78125 538.59375 L 168.78125 538.78125 L 168.28125 539.1875 L 167.75 540.28125 L 167.4375 541.5625 L 167.1875 542.40625 L 167.25 542.90625 L 168.03125 543.5 L 168.4375 543.75 L 168.34375 544.34375 L 168.1875 545.1875 L 167.84375 546.34375 L 167.1875 547.375 L 167 547.875 L 166.90625 549.0625 L 167.34375 549.96875 L 167.59375 550.40625 L 167.5 551.84375 L 167.5 553 L 167.25 553.25 L 167.1875 553.9375 L 167.34375 554.4375 L 167.4375 555.1875 L 167.5 555.53125 L 167.25 555.53125 L 166.59375 556.03125 L 166.40625 556.625 L 165.5625 557.90625 L 165.3125 558.65625 L 165.0625 558.90625 L 164.96875 560.09375 L 164.40625 560.84375 L 162.625 561.9375 L 161.78125 562.9375 L 161.09375 563.78125 L 160.09375 564.3125 L 158.59375 564.375 L 157.8125 564.21875 L 157.65625 559.59375 L 158.25 557.3125 L 159.9375 554.6875 L 159.9375 552.9375 L 160.78125 550.65625 L 160.78125 549.125 L 159.9375 548.03125 L 159.4375 546.875 L 158.5 545.6875 L 157.3125 544.9375 L 156.21875 544.75 L 155.96875 544.84375 L 155.21875 545.6875 L 154.53125 546.34375 L 154.71875 546.875 L 155.625 547.125 L 155.96875 547.03125 L 155.5625 547.375 L 154.875 547.625 L 154.53125 547.71875 L 154.53125 548.625 L 154.375 549.46875 L 154.03125 549.46875 L 153.53125 548.875 L 153.03125 548.8125 L 152.59375 548.875 L 152.34375 549.375 L 151.15625 550.15625 L 150.25 551 L 149.8125 551.65625 L 150 552.25 L 150.25 552.9375 L 150.0625 554.375 L 149.5625 556.125 L 149.15625 556.96875 L 148.5625 557.65625 L 147.46875 557.96875 L 146.625 557.96875 L 146.03125 558.40625 L 145.59375 559.59375 L 144.1875 560.6875 L 142.15625 561.53125 L 141.40625 561.78125 L 141.3125 561.9375 L 140.46875 562.9375 L 139.46875 565.15625 L 138.375 567.09375 L 137.09375 568.84375 L 136.8125 569.4375 L 135.25 574.15625 L 135.25 578.65625 L 137.25 584.15625 L 142.25 591.15625 L 146.25 596.65625 L 149.75 606.15625 L 149.75 610.15625 L 149.15625 611.46875 L 149.15625 611.71875 L 148.90625 614.15625 L 148.46875 616.03125 L 147.875 617.625 L 147.375 619.5625 L 146.1875 622.25 L 144.4375 624.875 L 144.28125 625.1875 L 143.75 627.65625 L 141.75 629.65625 L 140.25 631.65625 L 138.375 635.40625 L 138.1875 635.9375 L 137.25 641.15625 L 136.25 649.15625 L 136.4375 650.8125 L 136.6875 653.75 L 136.6875 655.4375 L 136.09375 657.90625 L 134.5 660.25 L 132.8125 661.34375 L 130.03125 663.28125 L 127.90625 664.71875 L 126.40625 665.90625 L 125.9375 666.40625 L 127.75 667.15625 L 133.75 671.65625 L 137.25 674.15625 L 143.75 674.65625 L 147.25 673.15625 L 147.75 667.15625 L 147.75 662.15625 L 147.75 659.15625 L 150.75 656.15625 L 151.75 652.15625 L 150.25 648.65625 L 150.25 646.15625 L 153.75 644.15625 L 158.75 645.65625 L 163.75 645.15625 L 165.75 645.15625 L 168.75 647.65625 L 172.25 650.65625 L 183.25 652.65625 L 195.25 651.65625 L 199.75 652.15625 L 204.25 655.65625 L 214.25 660.65625 L 220.75 664.15625 L 227.75 666.65625 L 235.25 669.15625 L 235.25 671.65625 L 237.25 674.65625 L 240.75 676.15625 L 245.75 679.15625 L 248.75 682.15625 L 252.25 682.65625 L 252.25 684.65625 L 255.25 689.15625 L 262.25 693.15625 L 266.75 696.65625 L 272.25 703.15625 L 277.65625 707.4375 L 326.75 621.15625 L 308.25 602.15625 L 308.5 578.78125 L 246.25 578.15625 L 239.25 577.65625 L 234.75 574.15625 L 235.75 570.65625 L 236.25 565.65625 L 238.25 562.15625 L 239.75 557.15625 L 240.25 553.15625 L 238.25 546.65625 L 234.75 539.65625 L 233.25 538.15625 L 225.25 536.65625 L 219.25 534.15625 L 212.75 534.15625 L 207.25 534.15625 L 201.75 537.15625 L 196.75 537.65625 L 190.25 534.65625 L 183.75 531.15625 L 175.75 528.15625 L 172.75 527.65625 L 171.28125 527.65625 z " id="path2249"/>
  <path style="fill:none;fill-opacity:1;fill-rule:evenodd;stroke:#000000;stroke-width:1.60000002;stroke-linecap:butt;stroke-linejoin:miter;stroke-miterlimit:4;stroke-dasharray:none;stroke-opacity:1" d="M 206.10087,1112.1269 L 199.25712,1050.6581 L 196.75712,1032.1581 L 194.75712,1016.1581 L 191.75712,1002.6581 L 189.25712,990.15812 L 186.25712,979.65812 L 183.75712,970.15812 L 177.75712,962.65812 L 174.25712,957.15812 L 174.25712,953.15812 L 172.25712,945.15812 L 170.25712,938.65812 L 166.75712,933.65812 L 159.25712,926.15812 C 159.25712,926.15812 158.00712,925.78312 156.63212,925.15812 C 155.94462,924.84562 155.24149,924.45499 154.63212,924.03312 C 154.02274,923.61125 153.50712,923.15812 153.25712,922.65812 C 153.00712,922.15812 152.36649,921.79874 151.56962,921.56437 C 150.77274,921.33 149.81962,921.22062 148.88212,921.15812 C 147.00712,921.03312 145.25712,921.15812 145.25712,921.15812 L 139.25712,921.15812 L 131.25712,921.15812 L 123.75712,923.15812 L 117.25712,921.15812 L 113.25712,918.65812 L 110.25712,914.65812 L 106.75712,909.15812 L 104.25712,901.65812 L 104.25712,895.15812 L 105.75712,890.15812 L 107.25712,884.65812 C 107.25712,884.65812 108.25712,879.15812 108.25712,877.15812 C 108.25712,876.65812 108.38212,876.15812 108.56962,875.68937 C 108.75712,875.22062 109.00712,874.78312 109.25712,874.40812 C 109.75712,873.65812 110.25712,873.15812 110.25712,873.15812 L 115.25712,868.15812 L 119.75712,863.65812 L 124.25712,857.15812 L 127.25712,853.15812 L 127.75712,848.65812 L 127.75712,845.15812 L 127.75712,841.65812 L 125.75712,836.15812 L 121.75712,817.15812 L 137.75712,788.65812 L 137.25712,777.15812 L 138.25712,775.15812 L 140.75712,769.15812 L 143.75712,764.65812 L 143.75712,762.65812 L 143.75712,755.15812 L 143.16337,747.37687 L 142.75712,747.65812 L 134.25712,746.15812 L 129.75712,743.15812 L 128.75712,738.65812 L 127.25712,735.15812 L 123.75712,733.15812 L 118.25712,730.65812 L 115.25712,727.65812 L 109.25712,723.15812 L 105.66337,719.81437 L 101.25712,728.15812 L 93.257115,739.65812 L 88.257115,749.65812 L 85.257115,760.15812 L 82.757115,767.65812 L 82.757115,771.15812 L 82.757115,775.65812 L 81.257115,778.15812 L 75.257115,793.15812 L 75.257115,796.65812 L 77.257115,799.65812 L 79.257115,802.65812 L 79.757115,808.65812 L 79.757115,812.65812 L 76.257115,817.65812 L 73.257115,826.15812 L 71.757115,843.65812 L 71.757115,848.65812 L 74.257115,858.15812 L 74.757115,866.15812 L 75.257115,875.65812 L 73.257115,880.65812 L 69.757115,886.15812 L 65.257115,890.15812 L 61.257115,895.15812 L 58.257115,904.15812 L 57.757115,908.65812 L 57.757115,913.65812 L 55.757115,917.15812 L 54.257115,919.15812 L 53.257115,926.15812 L 53.257115,945.15812 L 51.257115,951.65812 L 45.257115,964.65812 L 41.757115,973.65812 L 39.757115,976.15812 L 39.757115,980.65812 L 38.757115,984.65812 L 38.257115,990.65812 L 37.257115,994.65812 L 35.257115,999.65812 L 35.257115,1002.6581 L 32.257115,1007.1581 L 29.757115,1015.6581 L 29.757115,1020.1581 L 29.257115,1024.6581 L 28.757115,1027.1581 L 31.257115,1029.6581 L 33.757115,1034.6581 L 34.757115,1040.1581 L 32.257115,1043.1581 L 30.757115,1046.6581 L 27.757115,1052.6581 L 26.257115,1062.1581 L 25.257115,1073.6581 L 25.257115,1077.6581 L 206.10087,1112.1269 z " id="path2264"/>
  <path style="fill:none;fill-opacity:1;fill-rule:evenodd;stroke:#000000;stroke-width:1.60000002;stroke-linecap:butt;stroke-linejoin:miter;stroke-miterlimit:4;stroke-dasharray:none;stroke-opacity:1" d="M 234.75 433.65625 L 232.75 435.65625 L 231.75 436.65625 L 223.75 437.15625 L 217.25 437.15625 L 212.25 439.65625 L 208.75 439.65625 L 203.25 439.65625 L 198.25 439.65625 L 194.25 441.65625 L 191.75 444.65625 L 191.75 449.15625 L 191.25 453.15625 L 191.25 457.15625 L 189.25 460.15625 L 181.25 462.65625 L 174.75 464.65625 L 174.65625 464.65625 L 173.9375 467.875 L 173.9375 474.21875 L 173.9375 479.90625 L 172.53125 483.4375 L 170.40625 489.09375 L 170.40625 498.28125 L 170.40625 507.46875 L 170.40625 510.28125 L 172.53125 513.84375 L 173.9375 517.375 L 171.8125 520.1875 L 172.53125 522.3125 L 171.125 527.3125 L 171.28125 527.65625 L 172.75 527.65625 L 175.75 528.15625 L 183.75 531.15625 L 190.25 534.65625 L 196.75 537.65625 L 201.75 537.15625 L 207.25 534.15625 L 212.75 534.15625 L 219.25 534.15625 L 225.25 536.65625 L 233.25 538.15625 L 239.75 532.65625 L 240.75 529.65625 L 241.25 526.65625 L 244.75 519.65625 L 246.25 513.65625 L 247.75 509.65625 L 248.75 508.15625 L 247.75 507.15625 L 245.75 505.15625 L 244.25 503.65625 L 246.25 501.15625 L 246.75 496.15625 L 244.25 491.65625 L 239.75 488.15625 L 235.75 485.65625 L 234.25 483.15625 L 232.25 477.15625 L 230.75 470.65625 L 231.75 466.65625 L 235.25 462.15625 L 238.75 459.65625 L 238.75 455.65625 L 237.75 448.15625 L 238.25 442.15625 L 238.25 438.15625 L 237.25 435.15625 L 234.75 433.65625 z " id="path2212"/>
  <path style="fill:none;fill-opacity:1;fill-rule:evenodd;stroke:#000000;stroke-width:1.60000002;stroke-linecap:butt;stroke-linejoin:miter;stroke-miterlimit:4;stroke-dasharray:none;stroke-opacity:1" d="M 277.66336,707.43937 L 272.25711,703.15812 L 266.75711,696.65812 L 262.25711,693.15812 L 255.25711,689.15812 L 252.25711,684.65812 L 252.25711,682.65812 L 248.75711,682.15812 L 245.75711,679.15812 L 240.75711,676.15812 L 237.25711,674.65812 L 235.25711,671.65812 L 235.25711,669.15812 L 227.75711,666.65812 L 220.75712,664.15812 L 214.25712,660.65812 L 204.25712,655.65812 L 199.75712,652.15812 L 195.25712,651.65812 L 183.25712,652.65812 L 172.25712,650.65812 L 168.75712,647.65812 L 165.75712,645.15812 L 163.75712,645.15812 L 158.75712,645.65812 L 153.75712,644.15812 L 150.25712,646.15812 L 150.25712,648.65812 L 151.75712,652.15812 L 150.75712,656.15812 L 147.75712,659.15812 L 147.75712,662.15812 L 147.75712,667.15812 L 147.25712,673.15812 L 143.75712,674.65812 L 137.25712,674.15812 L 133.75712,671.65812 L 127.75712,667.15812 L 125.94462,666.40812 L 125.25712,667.15812 L 120.25712,675.15812 L 120.25712,681.15812 L 119.25712,687.65812 L 117.25712,692.15812 L 114.25712,695.15812 L 109.75712,699.65812 L 107.25712,709.15812 L 105.75712,719.65812 L 105.66337,719.81437 L 109.25712,723.15812 L 115.25712,727.65812 L 118.25712,730.65812 L 123.75712,733.15812 L 127.25712,735.15812 L 128.75712,738.65812 L 129.75712,743.15812 L 134.25712,746.15812 L 142.75712,747.65812 L 145.75712,745.65812 L 148.25712,745.65812 L 151.25712,748.15812 L 163.75712,750.15812 L 174.75712,749.65812 L 181.75712,748.65812 L 186.25712,749.65812 L 190.75712,752.15812 C 190.75712,752.15812 191.25712,752.15812 193.25712,752.15812 C 193.75712,752.15812 194.33524,751.90812 194.94462,751.53312 C 195.55399,751.15812 196.19462,750.65812 196.75712,750.15812 C 197.88212,749.15812 198.75712,748.15812 198.75712,748.15812 L 204.75712,748.65812 C 204.75712,748.65812 206.38212,748.28312 208.25712,747.90812 C 210.13212,747.53312 212.25712,747.15812 213.25712,747.15812 C 214.25712,747.15812 217.50712,746.40812 220.50712,745.65812 C 223.50712,744.90812 226.25711,744.15812 226.25711,744.15812 L 234.25711,742.65812 L 235.25711,739.65812 L 237.75711,737.65812 L 242.25711,737.65812 L 247.75711,738.65812 L 253.25711,741.15812 L 256.75711,744.15812 L 277.66336,707.43937 z " id="path2259"/>
  <path style="fill:none;fill-opacity:1;fill-rule:evenodd;stroke:#000000;stroke-width:1.60000002;stroke-linecap:butt;stroke-linejoin:miter;stroke-miterlimit:4;stroke-dasharray:none;stroke-opacity:1" d="M 233.25711,538.15812 L 234.75711,539.65812 L 238.25711,546.65812 L 240.25711,553.15812 L 239.75711,557.15812 L 238.25711,562.15812 L 236.25711,565.65812 L 235.75711,570.65812 L 234.75711,574.15812 L 239.25711,577.65812 L 246.25711,578.15812 L 559.38211,581.37687 L 500.25711,515.15812 L 502.25711,514.53312 L 435.75711,445.65812 L 418.25711,456.65812 L 415.75711,457.65812 L 412.25711,455.65812 L 408.75711,454.15812 L 405.25711,451.65812 L 402.75711,449.15812 L 400.75711,447.65812 L 397.75711,445.65812 L 395.75711,443.65812 L 392.25711,440.65812 L 389.25711,437.65812 L 387.25711,435.15812 L 384.75711,433.15812 L 382.25711,430.65812 L 380.75711,428.15812 L 381.25711,426.15812 L 381.75711,423.15812 L 384.25711,420.65812 L 387.75711,418.65812 L 390.75711,416.15812 L 396.25711,413.65812 L 398.75711,412.15813 L 400.75711,410.65813 L 400.25711,408.65813 L 394.25711,403.15813 L 389.25711,396.65813 L 383.75711,390.65813 L 377.75711,383.65813 L 373.75711,380.65813 L 371.25711,378.15813 L 368.25711,376.65813 L 366.75711,376.65813 L 360.25711,376.65813 L 356.75711,378.15813 L 352.75711,378.15813 L 349.25711,376.65813 L 345.25711,374.15813 L 339.75711,375.15813 L 336.75711,377.15813 L 334.75711,380.15813 L 333.25711,383.65813 L 331.75711,385.65813 L 325.25711,387.65813 L 319.75711,388.15813 L 315.75711,385.65813 L 312.25711,384.65813 L 310.75711,384.65813 L 307.25711,387.15813 L 305.75711,390.15813 L 302.25711,391.15813 L 296.75711,391.65813 L 293.25711,391.15813 L 288.75711,392.65813 L 286.25711,393.65813 L 281.75711,392.15813 L 278.75711,389.65813 L 275.75711,384.65813 L 274.25711,381.65813 L 270.25711,376.65813 L 266.75711,374.15813 L 264.75711,372.65813 L 263.25711,369.65813 L 262.25711,368.15813 L 260.56961,366.47063 L 256.75711,369.15813 L 254.25711,371.65813 L 251.25711,377.65813 L 246.75711,379.65813 L 240.25711,379.65813 L 236.25711,380.15813 L 235.25711,381.65813 L 232.75711,385.65813 L 232.75711,388.15813 L 232.75711,390.65813 L 229.75711,393.15813 L 224.25712,396.65813 L 219.75712,398.65813 L 215.75712,400.65813 L 206.25712,403.65813 L 202.25712,406.65813 L 199.25712,410.65813 L 200.25712,414.15812 L 203.75712,415.65812 L 209.25712,417.65812 L 213.25712,421.15812 L 214.75712,423.65812 L 214.75712,425.65812 L 211.75712,428.15812 L 210.75712,430.65812 L 209.25712,433.15812 L 209.25712,436.15812 L 209.75712,438.15812 L 209.35087,439.65812 L 212.25712,439.65812 L 217.25712,437.15812 L 223.75712,437.15812 L 231.75711,436.65812 L 232.75711,435.65812 L 234.75711,433.65812 L 237.25711,435.15812 L 238.25711,438.15812 L 238.25711,442.15812 L 237.75711,448.15812 L 238.75711,455.65812 L 238.75711,459.65812 L 235.25711,462.15812 L 231.75711,466.65812 L 230.75711,470.65812 L 232.25711,477.15812 L 234.25711,483.15812 L 235.75711,485.65812 L 239.75711,488.15812 L 244.25711,491.65812 L 246.75711,496.15812 L 246.25711,501.15812 L 244.25711,503.65812 L 245.75711,505.15812 L 247.75711,507.15812 L 248.75711,508.15812 L 247.75711,509.65812 L 246.25711,513.65812 L 244.75711,519.65812 L 241.25711,526.65812 L 240.75711,529.65812 L 239.75711,532.65812 L 233.25711,538.15812 z " id="path2222"/>
  <path style="fill:none;fill-opacity:1;fill-rule:evenodd;stroke:#000000;stroke-width:1.60000002;stroke-linecap:butt;stroke-linejoin:miter;stroke-miterlimit:4;stroke-dasharray:none;stroke-opacity:1" d="M 280.97586,288.43938 L 277.25711,288.65813 L 273.75711,289.15813 L 271.25711,287.65813 L 271.25711,285.15813 L 269.25711,283.65813 L 268.25711,283.65813 L 265.25711,285.15813 L 263.75711,286.15813 L 257.25711,290.15813 L 252.25711,293.65813 L 247.75711,295.15813 L 242.25711,298.15813 L 238.75711,302.15813 L 235.75711,306.15813 L 235.25711,312.65813 L 234.75711,316.15813 L 234.75711,320.15813 L 230.75711,322.65813 L 225.75711,323.65813 L 222.25712,325.15813 L 217.25712,325.65813 L 215.25712,326.15813 L 213.25712,330.15813 L 208.25712,336.65813 L 205.25712,340.15813 L 206.25712,341.15813 L 208.75712,341.15813 L 210.25712,340.65813 L 211.75712,339.65813 L 214.75712,338.15813 L 215.75712,338.15813 L 216.25712,339.65813 L 219.25712,340.15813 L 225.75711,340.15813 L 228.75711,339.15813 L 231.75711,338.65813 L 235.25711,339.65813 L 237.75711,341.15813 L 238.75711,342.65813 L 239.75711,343.65813 L 240.75711,346.15813 L 241.25711,347.15813 L 242.75711,349.15813 L 245.25711,351.65813 L 247.75711,353.15813 L 252.00711,354.78313 L 252.25711,352.65813 L 254.75711,348.65813 L 260.25711,343.65813 L 262.75711,341.65813 L 266.75711,340.15813 L 270.75711,340.15813 L 272.75711,336.15813 L 272.75711,332.15813 L 272.75711,327.65813 L 272.25711,322.65813 L 270.25711,319.65813 L 267.75711,316.65813 L 265.25711,312.65813 L 264.25711,309.15813 L 264.75711,307.15813 L 268.75711,304.65813 L 276.25711,299.15813 L 278.75711,292.15813 L 280.97586,288.43938 z " id="path2227"/>
  <path style="fill:none;fill-opacity:1;fill-rule:evenodd;stroke:#000000;stroke-width:1.60000002;stroke-linecap:butt;stroke-linejoin:miter;stroke-miterlimit:4;stroke-dasharray:none;stroke-opacity:1" d="M 254.10086,292.37688 L 254.25711,291.65813 L 254.75711,289.65813 L 254.25711,288.15813 L 253.25711,286.15813 L 251.25711,284.65813 L 251.25711,282.65813 L 251.25711,281.15813 L 249.25711,280.15813 L 247.25711,280.15813 L 245.75711,279.15813 L 244.75711,277.65813 L 245.75711,276.15813 L 247.75711,274.15813 L 246.25711,272.65813 L 244.75711,272.15813 L 242.75711,272.15813 L 240.25711,273.15813 L 237.75711,277.15813 L 237.75711,278.65813 L 234.25711,279.65813 L 225.75711,279.15813 L 222.75712,279.15813 L 219.75712,279.65813 L 217.75712,282.15813 L 216.75712,284.65813 L 215.75712,285.65813 L 212.25712,286.15813 L 208.75712,285.65813 L 206.25712,283.65813 L 203.25712,283.15813 L 200.25712,283.65813 L 197.75712,285.65813 L 191.25712,298.65813 L 188.75712,306.15813 L 188.25712,310.65813 L 191.75712,315.15813 L 194.25712,321.15813 L 194.25712,326.65813 L 196.75712,333.65813 L 200.25712,335.15813 L 205.25712,336.15813 L 209.10087,335.56438 L 213.25712,330.15813 L 215.25712,326.15813 L 217.25712,325.65813 L 222.25712,325.15813 L 225.75711,323.65813 L 230.75711,322.65813 L 234.75711,320.15813 L 234.75711,316.15813 L 235.25711,312.65813 L 235.75711,306.15813 L 238.75711,302.15813 L 242.25711,298.15813 L 247.75711,295.15813 L 252.25711,293.65813 L 254.10086,292.37688 z " id="path2232"/>
  <path style="fill:none;fill-opacity:1;fill-rule:evenodd;stroke:#000000;stroke-width:1.60000002;stroke-linecap:butt;stroke-linejoin:miter;stroke-miterlimit:4;stroke-dasharray:none;stroke-opacity:1" d="M 675.81961,461.72062 L 385.75711,361.65813 L 383.75711,358.15813 L 380.75711,352.65813 L 378.25711,350.65813 L 373.75711,350.65813 L 365.25711,350.65813 L 356.25711,350.65813 L 355.75711,353.15813 L 350.25711,354.65813 L 345.75711,353.65813 L 337.75711,348.65813 L 332.25711,345.15813 L 326.25711,344.65813 L 313.25711,347.15813 L 305.25711,348.15813 L 301.25711,345.15813 L 297.75711,341.65813 L 296.75711,340.65813 L 294.25711,342.15813 L 292.75711,345.15813 L 286.75711,346.15813 L 281.75711,341.65813 L 280.25711,338.65813 L 280.75711,334.15813 L 282.25711,330.65813 L 280.25711,329.15813 L 277.25711,327.15813 L 274.25711,327.15813 L 272.69461,327.15813 L 272.75711,327.65813 L 272.75711,332.15813 L 272.75711,336.15813 L 270.75711,340.15813 L 266.75711,340.15813 L 262.75711,341.65813 L 260.25711,343.65813 L 254.75711,348.65813 L 252.25711,352.65813 L 251.75711,357.15813 L 251.75711,359.15813 L 253.75711,361.65813 L 257.25711,363.65813 L 260.25711,366.15813 L 262.25711,368.15813 L 263.25711,369.65813 L 264.75711,372.65813 L 266.75711,374.15813 L 270.25711,376.65813 L 274.25711,381.65813 L 275.75711,384.65813 L 278.75711,389.65813 L 281.75711,392.15813 L 286.25711,393.65813 L 288.75711,392.65813 L 293.25711,391.15813 L 296.75711,391.65813 L 302.25711,391.15813 L 305.75711,390.15813 L 307.25711,387.15813 L 310.75711,384.65813 L 312.25711,384.65813 L 315.75711,385.65813 L 319.75711,388.15813 L 325.25711,387.65813 L 331.75711,385.65813 L 333.25711,383.65813 L 334.75711,380.15813 L 336.75711,377.15813 L 339.75711,375.15813 L 345.25711,374.15813 L 349.25711,376.65813 L 352.75711,378.15813 L 356.75711,378.15813 L 360.25711,376.65813 L 366.75711,376.65813 L 368.25711,376.65813 L 371.25711,378.15813 L 373.75711,380.65813 L 377.75711,383.65813 L 383.75711,390.65813 L 389.25711,396.65813 L 394.25711,403.15813 L 400.25711,408.65813 L 400.75711,410.65813 L 398.75711,412.15813 L 396.25711,413.65812 L 390.75711,416.15812 L 387.75711,418.65812 L 384.25711,420.65812 L 381.75711,423.15812 L 381.25711,426.15812 L 380.75711,428.15812 L 382.25711,430.65812 L 384.75711,433.15812 L 387.25711,435.15812 L 389.25711,437.65812 L 392.25711,440.65812 L 395.75711,443.65812 L 397.75711,445.65812 L 400.75711,447.65812 L 402.75711,449.15812 L 405.25711,451.65812 L 408.75711,454.15812 L 412.25711,455.65812 L 415.75711,457.65812 L 418.25711,456.65812 L 435.75711,445.65812 L 502.25711,514.53312 L 675.81961,461.72062 z " id="path2242"/>
  <path style="fill:none;fill-opacity:1;fill-rule:evenodd;stroke:#000000;stroke-width:1.60000002;stroke-linecap:butt;stroke-linejoin:miter;stroke-miterlimit:4;stroke-dasharray:none;stroke-opacity:1" d="M 904.75711,13.158119 L 473.25711,290.65813 L 466.25711,298.15813 L 441.75711,291.65813 L 437.75711,294.65813 L 435.25711,291.65813 L 388.75711,283.65813 L 386.25711,280.65813 L 367.75711,278.15813 L 345.25711,255.15813 L 323.25711,238.65813 L 318.25711,240.15813 L 316.25711,241.65813 L 312.25711,240.15813 L 309.25711,240.15813 L 302.75711,240.15813 L 300.25711,240.65813 L 296.75711,241.15813 L 295.47586,240.31438 L 294.75711,240.65813 L 296.25711,243.15813 L 298.75711,247.65813 L 298.75711,253.65813 L 298.75711,264.15813 L 298.75711,268.65813 L 295.75711,273.15813 L 293.25711,271.65813 L 291.25711,270.15813 L 289.25711,268.65813 L 286.75711,267.15813 L 283.75711,267.15813 L 280.75711,268.15813 L 278.25711,271.15813 L 279.25711,274.15813 L 281.25711,276.65813 L 284.25711,280.65813 L 284.75711,282.65813 L 283.25711,284.15813 L 281.75711,287.15813 L 278.75711,292.15813 L 276.25711,299.15813 L 268.75711,304.65813 L 264.75711,307.15813 L 264.25711,309.15813 L 265.25711,312.65813 L 267.75711,316.65813 L 270.25711,319.65813 L 272.25711,322.65813 L 272.69461,327.15813 L 274.25711,327.15813 L 277.25711,327.15813 L 280.25711,329.15813 L 282.25711,330.65813 L 280.75711,334.15813 L 280.25711,338.65813 L 281.75711,341.65813 L 286.75711,346.15813 L 292.75711,345.15813 L 294.25711,342.15813 L 296.75711,340.65813 L 297.75711,341.65813 L 301.25711,345.15813 L 305.25711,348.15813 L 313.25711,347.15813 L 326.25711,344.65813 L 332.25711,345.15813 L 337.75711,348.65813 L 345.75711,353.65813 L 350.25711,354.65813 L 355.75711,353.15813 L 356.25711,350.65813 L 365.25711,350.65813 L 373.75711,350.65813 L 378.25711,350.65813 L 380.75711,352.65813 L 383.75711,358.15813 L 385.75711,361.65813 L 675.81961,461.72062 L 958.75711,375.65813 L 1027.7571,311.65813 L 1018.2571,281.15813 L 970.75711,293.65813 L 955.25711,250.65813 L 972.25711,243.15813 L 904.75711,13.158119 z " id="path1334"/>
</svg>