<?xml version="1.0" encoding="UTF-8" standalone="no"?>
<!-- Created with Inkscape (http://www.inkscape.org/) -->

<svg
   xmlns:dc="http://purl.org/dc/elements/1.1/"
   xmlns:cc="http://creativecommons.org/ns#"
   xmlns:rdf="http://www.w3.org/1999/02/22-rdf-syntax-ns#"
   xmlns:svg="http://www.w3.org/2000/svg"
   xmlns="http://www.w3.org/2000/svg"
   xmlns:sodipodi="http://sodipodi.sourceforge.net/DTD/sodipodi-0.dtd"
   xmlns:inkscape="http://www.inkscape.org/namespaces/inkscape"
   version="1.1"
   x="0px"
   y="0px"
   width="237"
   height="237"
   viewBox="0 0 237 237"
   enable-background="new 0 0 100 100"
   xml:space="preserve"
   id="svg2985"
   inkscape:version="0.48.4 r9939"
   sodipodi:docname="nfi.svg"><sodipodi:namedview
     pagecolor="#ffffff"
     bordercolor="#666666"
     borderopacity="1"
     objecttolerance="10"
     gridtolerance="10"
     guidetolerance="10"
     inkscape:pageopacity="0"
     inkscape:pageshadow="2"
     inkscape:window-width="1188"
     inkscape:window-height="708"
     id="namedview9"
     showgrid="false"
     inkscape:zoom="2.36"
     inkscape:cx="50"
     inkscape:cy="35.073799"
     inkscape:window-x="297"
     inkscape:window-y="110"
     inkscape:window-maximized="0"
     inkscape:current-layer="svg2985"
     fit-margin-top="0"
     fit-margin-left="0"
     fit-margin-right="0"
     fit-margin-bottom="0" /><defs
     id="defs2987" /><metadata
     id="metadata2990"><rdf:RDF><cc:Work
         rdf:about=""><dc:format>image/svg+xml</dc:format><dc:type
           rdf:resource="http://purl.org/dc/dcmitype/StillImage" /><dc:title /></cc:Work></rdf:RDF></metadata><circle
     cx="50"
     cy="50"
     r="50"
     id="circle6"
     sodipodi:cx="50"
     sodipodi:cy="50"
     sodipodi:rx="50"
     sodipodi:ry="50"
     transform="scale(2.37,2.37)"
     style="fill:#b2b2b2" /><path
     d="m 157.26894,100.80052 14.1622,-7.920303 -29.74061,-15.84063 -14.76915,7.736107 z m -16.18537,29.1026 30.14527,-15.84065 -14.1622,-7.36774 -30.14526,15.65646 z m 15.98307,17.68257 v -19.70873 l -15.98307,8.10453 -17.39926,-9.20966 v 37.02289 z M 84.637118,127.5086 v 20.07709 l 33.382322,16.20903 v -36.83871 l -16.79232,9.02548 z m 0.606957,-20.81387 -14.162196,7.36774 30.145241,15.84065 13.95987,-7.55193 z M 100.41786,76.855367 70.677249,92.511824 85.041748,100.43215 115.18699,84.591521 z m 78.29669,13.446148 4.45098,2.578702 -20.23169,10.867423 20.02936,10.31483 -20.43402,10.86742 v 25.97129 l -41.6773,20.26127 -41.677328,-20.26127 V 124.74567 L 59.347488,114.06247 79.579182,103.56344 63.393836,94.906354 58.942857,92.511824 100.41786,70.592808 121.25651,81.46023 141.69053,70.961201 z m 13.75757,-18.419356 q 0,-5.525797 -2.22548,-10.314832 -2.2255,-4.789036 -5.96837,-8.380818 -3.74287,-3.591759 -8.69963,-5.709994 -4.95676,-2.118234 -10.62165,-2.118234 H 70.677249 q -5.664893,0 -10.621653,2.118234 -4.95676,2.118235 -8.598478,5.709994 -3.641719,3.591782 -5.867196,8.380818 -2.225477,4.789035 -2.225477,10.314832 v 91.912561 q 0,5.52579 2.225477,10.31483 2.225477,4.78903 5.867196,8.28872 3.641718,3.49966 8.598478,5.61789 4.95676,2.11822 10.621653,2.11822 h 94.279741 q 5.66489,0 10.62165,-2.11822 4.95676,-2.11823 8.69963,-5.61789 3.74287,-3.49969 5.96837,-8.47292 2.22548,-4.97321 2.22548,-10.13063 V 71.882159 z M 164.95699,37.437978 q 7.48574,0 13.95989,2.6708 6.47415,2.6708 11.32976,7.367737 4.85561,4.696938 7.68804,10.95952 2.83244,6.262583 2.83244,13.446124 v 91.912561 q 0,7.18354 -2.83244,13.35402 -2.83243,6.17049 -7.68804,10.86742 -4.85561,4.69692 -11.32976,7.45984 -6.47415,2.7629 -13.95989,2.7629 H 70.677249 q -7.48574,0 -13.959893,-2.7629 -6.474152,-2.76292 -11.329761,-7.45984 -4.855609,-4.69693 -7.688043,-10.86742 -2.832434,-6.17048 -2.832434,-13.35402 V 71.882159 q 0,-7.183541 2.832434,-13.446124 2.832434,-6.262582 7.688043,-10.95952 4.855609,-4.696937 11.329761,-7.367737 6.474153,-2.6708 13.959893,-2.6708 h 94.279741 z"
     id="path2997"
     style="fill:currentColor"
     inkscape:connector-curvature="0" /></svg>