<?xml version="1.0" encoding="UTF-8" standalone="no"?>
<!-- Created with Inkscape (http://www.inkscape.org/) -->

<svg
   xmlns:dc="http://purl.org/dc/elements/1.1/"
   xmlns:cc="http://creativecommons.org/ns#"
   xmlns:rdf="http://www.w3.org/1999/02/22-rdf-syntax-ns#"
   xmlns:svg="http://www.w3.org/2000/svg"
   xmlns="http://www.w3.org/2000/svg"
   xmlns:sodipodi="http://sodipodi.sourceforge.net/DTD/sodipodi-0.dtd"
   xmlns:inkscape="http://www.inkscape.org/namespaces/inkscape"
   version="1.1"
   x="0px"
   y="0px"
   width="237"
   height="237"
   viewBox="0 0 237 237"
   enable-background="new 0 0 100 100"
   xml:space="preserve"
   id="svg2985"
   inkscape:version="0.48.4 r9939"
   sodipodi:docname="protection.svg"><sodipodi:namedview
     pagecolor="#ffffff"
     bordercolor="#666666"
     borderopacity="1"
     objecttolerance="10"
     gridtolerance="10"
     guidetolerance="10"
     inkscape:pageopacity="0"
     inkscape:pageshadow="2"
     inkscape:window-width="1113"
     inkscape:window-height="851"
     id="namedview9"
     showgrid="false"
     inkscape:zoom="2.36"
     inkscape:cx="50"
     inkscape:cy="79.089735"
     inkscape:window-x="75"
     inkscape:window-y="26"
     inkscape:window-maximized="0"
     inkscape:current-layer="svg2985"
     fit-margin-top="0"
     fit-margin-left="0"
     fit-margin-right="0"
     fit-margin-bottom="0" /><defs
     id="defs2987" /><metadata
     id="metadata2990"><rdf:RDF><cc:Work
         rdf:about=""><dc:format>image/svg+xml</dc:format><dc:type
           rdf:resource="http://purl.org/dc/dcmitype/StillImage" /><dc:title /></cc:Work></rdf:RDF></metadata><circle
     cx="50"
     cy="50"
     r="50"
     id="circle6"
     sodipodi:cx="50"
     sodipodi:cy="50"
     sodipodi:rx="50"
     sodipodi:ry="50"
     transform="scale(2.37,2.37)"
     style="fill:#b2b2b2" /><path
     d="m 102.65069,138.66586 h 0.20239 v 39.93895 h -0.20239 v 0.57331 H 79.384231 V 161.59734 L 55.510818,130.06656 q -0.606957,-0.95547 -1.011587,-2.0065 -0.40463,-1.05101 -0.40463,-2.1976 V 76.942024 q 0,-2.866416 1.921999,-4.872945 1.922022,-2.006504 4.855608,-2.006504 2.93361,0 4.855609,2.006504 1.922022,2.006529 1.922022,4.872945 v 29.428706 q -2.225501,0.57329 -3.641718,2.10204 -2.225477,2.29316 -2.326653,5.63732 -0.101199,3.34417 2.12435,5.63733 l 11.936694,12.42121 0.404631,-1.1466 -11.532065,-12.23009 q -1.820847,-2.10206 -1.820847,-4.87294 0,-2.77088 2.023174,-4.68185 2.02315,-2.10204 4.855609,-2.00651 2.832434,0.0956 4.855608,2.00651 z m 70.70982,-68.603285 q 2.93359,0 4.85561,2.006504 1.922,2.006529 1.922,4.872945 v 48.920436 q 0,1.14659 -0.40463,2.10206 -0.40463,0.95548 -1.01159,2.10204 l -23.87341,31.53078 v 17.58078 h -23.26645 v -0.57331 h -0.2024 v -39.93895 h 0.2024 l 28.12206,-29.42871 q 2.02317,-2.10204 4.85561,-2.00651 2.83243,0.0956 4.85561,2.00651 2.02317,1.91097 2.02317,4.77741 0,2.86642 -2.02317,4.77738 l -11.53207,12.23009 0.60696,1.1466 11.93669,-12.42121 q 2.2255,-2.29316 2.12433,-5.63733 -0.1012,-3.34416 -2.32663,-5.63732 -1.41624,-1.33766 -3.64172,-2.10204 V 76.942024 q 0,-2.866416 1.92202,-4.872945 1.922,-2.006504 4.85561,-2.006504 z M 145.5419,95.28721 q 0,10.70131 -7.89037,19.30063 -8.295,8.02599 -19.0178,8.02599 -11.12743,0 -19.017805,-8.02599 -7.89037,-8.02601 -7.89037,-19.30063 0,-11.465763 7.89037,-19.109563 7.688045,-8.026015 19.017805,-8.026015 11.12743,0 19.0178,7.93048 7.89037,7.930454 7.89037,19.205098 z m 45.92598,-27.135578 q 0,-5.732854 -2.22548,-10.701334 -2.2255,-4.968504 -5.96837,-8.694857 -3.74287,-3.726353 -8.69963,-5.92395 -4.95676,-2.197599 -10.62165,-2.197599 H 69.673014 q -5.664893,0 -10.621653,2.197599 -4.95676,2.197597 -8.69963,5.92395 -3.74287,3.726353 -5.968371,8.694857 -2.225478,4.96848 -2.225478,10.701334 v 95.356648 q 0,5.73286 2.225478,10.70133 2.225501,4.96851 5.968371,8.50374 3.74287,3.53528 8.69963,5.73288 4.95676,2.1976 10.621653,2.1976 h 94.279736 q 5.66489,0 10.62165,-2.1976 4.95676,-2.1976 8.69963,-5.73288 3.74287,-3.53523 5.96837,-8.69483 2.22548,-5.15958 2.22548,-10.51024 V 68.151632 z M 163.95275,32.41678 q 7.48574,0 13.95989,2.77088 6.47416,2.770886 11.32976,7.643831 4.85561,4.872919 7.68805,11.370177 2.83243,6.49726 2.83243,13.949964 v 95.356648 q 0,7.4527 -2.83243,13.85443 -2.83244,6.4017 -7.68805,11.27462 -4.8556,4.87292 -11.32976,7.73936 -6.47415,2.86644 -13.95989,2.86644 H 69.673014 q -7.48574,0 -13.959893,-2.86644 -6.474153,-2.86644 -11.329761,-7.73936 -4.855609,-4.87292 -7.688043,-11.27462 -2.832435,-6.40173 -2.832435,-13.85443 V 68.151632 q 0,-7.452704 2.832435,-13.949964 2.832434,-6.497258 7.688043,-11.370177 4.855608,-4.872945 11.329761,-7.643831 6.474153,-2.77088 13.959893,-2.77088 h 94.279736 z"
     id="path3063"
     style="fill:currentColor"
     inkscape:connector-curvature="0" /></svg>