<?xml version="1.0" encoding="UTF-8" standalone="no"?>
<!-- Created with Inkscape (http://www.inkscape.org/) -->

<svg
   xmlns:dc="http://purl.org/dc/elements/1.1/"
   xmlns:cc="http://creativecommons.org/ns#"
   xmlns:rdf="http://www.w3.org/1999/02/22-rdf-syntax-ns#"
   xmlns:svg="http://www.w3.org/2000/svg"
   xmlns="http://www.w3.org/2000/svg"
   xmlns:sodipodi="http://sodipodi.sourceforge.net/DTD/sodipodi-0.dtd"
   xmlns:inkscape="http://www.inkscape.org/namespaces/inkscape"
   version="1.1"
   x="0px"
   y="0px"
   width="237"
   height="237"
   viewBox="0 0 237 237"
   enable-background="new 0 0 100 100"
   xml:space="preserve"
   id="svg2985"
   inkscape:version="0.48.4 r9939"
   sodipodi:docname="shelter.png"><sodipodi:namedview
     pagecolor="#ffffff"
     bordercolor="#666666"
     borderopacity="1"
     objecttolerance="10"
     gridtolerance="10"
     guidetolerance="10"
     inkscape:pageopacity="0"
     inkscape:pageshadow="2"
     inkscape:window-width="1434"
     inkscape:window-height="900"
     id="namedview9"
     showgrid="false"
     inkscape:zoom="7.15"
     inkscape:cx="50"
     inkscape:cy="50"
     inkscape:window-x="0"
     inkscape:window-y="26"
     inkscape:window-maximized="0"
     inkscape:current-layer="svg2985"
     fit-margin-top="0"
     fit-margin-left="0"
     fit-margin-right="0"
     fit-margin-bottom="0" /><defs
     id="defs2987" /><metadata
     id="metadata2990"><rdf:RDF><cc:Work
         rdf:about=""><dc:format>image/svg+xml</dc:format><dc:type
           rdf:resource="http://purl.org/dc/dcmitype/StillImage" /><dc:title></dc:title></cc:Work></rdf:RDF></metadata><g
     id="g2997"
     transform="scale(2.37,2.37)"><circle
       id="circle6"
       r="50"
       cy="50"
       cx="50"
       sodipodi:cx="50"
       sodipodi:cy="50"
       sodipodi:rx="50"
       sodipodi:ry="50"
       style="fill:#b2b2b2"
       d="M 100,50 C 100,77.614237 77.614237,100 50,100 22.385763,100 0,77.614237 0,50 0,22.385763 22.385763,0 50,0 c 27.614237,0 50,22.385763 50,50 z" /></g><g
     id="g2985"
     transform="matrix(0.20231706,0,0,-0.20231706,15.40177,207.35106)"><path
       id="path2987"
       d="m 316,450 q -13,0 -22,10 -9,10 -9,25 0,14 9,24 9,11 22,11 14,0 24,-11 10,-11 10,-24 0,-14 -10,-25 -10,-10 -24,-10 z m 389,0 q -15,0 -24.5,10 -9.5,10 -9.5,25 0,14 9,24 9,11 25,11 13,0 22,-11 9,-10 9,-24 0,-15 -9,-25 -9,-10 -22,-10 z m 87,-134 q 1,-5 2,-7.5 1,-2.5 1,-3.5 l 1,-4 q 0,-11 -10,-12 l -3,-1 q -10,0 -13,9 0,2 -5,18 -3,16 -9,33 -2,9 -5,20 -3,11 -8,25 h -7 l 2,-247 q 0,-7 -4,-11 -4,-4 -11,-4 -7,0 -11,4 -4,3 -4,11 v 122 h -8 V 146 q 0,-7 -5,-11 -3,-4 -10,-4 -7,0 -11,4 -5,3 -5,11 l 2,247 v 1 h -11 l -15,-12 -20,-15 -19,-13 -7,-7 q -8,-6 -15,-1 l -3,3 q -3,3 -3,8 v 1 q -1,2 -3,7 l -3,13 q -4,15 -9,33 -3,9 -6,19.5 l -7,24.5 h -7 l 23,-123 -22,-1 2,-122 q 0,-6 -5,-12 -4,-4 -11.5,-4 -7.5,0 -11.5,4 -4,6 -4,12 v 121 h -7 V 209 q 0,-5 -4,-12 -4,-4 -11.5,-4 -7.5,0 -11.5,4 -5,5 -5,12 l 1,122 h -21 l 22,124 h -7 q -4,-13 -7,-24 -3,-11 -5,-20 -4,-17 -9,-33 -5,-18 -6,-20 -1,0 -1,-1 0,-4 -3,-8 l -2,-3 q -8,-6 -15,1 -1,0 -8.5,6 -7.5,6 -18,14 -10.5,8 -20,15.5 Q 366,390 360,394 h -11 l 1,-1 1,-247 q 0,-7 -4,-11 -4,-4 -11,-4 -7,0 -11,4 -4,3 -4,11 v 122 h -8 V 146 q 0,-7 -5,-11 -3,-4 -10,-4 -7,0 -11,4 -5,3 -5,11 l 3,247 h -9 q -4,-14 -7,-25 -3,-11 -5,-20 l -9,-33 q -2,-7 -3,-11.5 -1,-4.5 -2,-6.5 -3,-10 -12,-9 l -5,1 q -9,2 -9,12 l 1,4 q 1,1 4,11 1,10 6.5,25.5 5.5,15.5 9.5,33.5 2,9 4,16.5 2,7.5 4,17.5 5,12 15,21 11,10 23,10 h 46 3 1 2 q 6,-2 11,-4 5,-2 10,-6 7,-5 13,-10.5 6,-5.5 13,-10.5 6,-5 9.5,-8.5 Q 403,397 410,393 l 7,-7 q 0,0 6,-5 1,5 2.5,10 1.5,5 3.5,13 l 4,16 4,16 5,17 5,17 q 3,11 14,22 12,10 23,10 h 53 q 12,0 22,-10 11,-11 14,-22 3,-9 5.5,-17.5 2.5,-8.5 4.5,-17 2,-8.5 4.5,-16 2.5,-7.5 4.5,-15.5 2,-8 3,-12.5 1,-4.5 3,-10.5 3,2 5.5,5 2.5,3 7.5,7 5,4 10,6 l 10,10 q 6,5 12.5,10.5 6.5,5.5 12.5,10.5 7,6 21,10 h 3 3 46 q 13,0 24,-10 11,-10 14,-21 2,-9 4.5,-17.5 2.5,-8.5 4.5,-17 l 4,-17 q 0,0 4,-16 4,-16 4,-14 0,2 4,-11.5 z m 89,370 q 0,30 -11,56 -11,26 -29.5,45 -18.5,19 -43,30.5 Q 773,829 745,829 H 279 Q 251,829 226.5,817.5 202,806 184,787 166,768 155,742 144,716 144,686 V 187 q 0,-30 11,-56 11,-26 29,-44.5 Q 202,68 226.5,56.5 251,45 279,45 h 466 q 28,0 52.5,11.5 24.5,11.5 43,30 18.5,18.5 29.5,45.5 11,27 11,55 V 686 z M 745,873 q 37,0 69,-14.5 32,-14.5 56,-40 24,-25.5 38,-59.5 14,-34 14,-73 V 187 Q 922,148 908,114.5 894,81 870,55.5 846,30 814,15 782,0 745,0 H 279 Q 242,0 210,15 178,30 154,55.5 130,81 116,114.5 102,148 102,187 v 499 q 0,39 14,73 14,34 38,59.5 24,25.5 56,40 32,14.5 69,14.5 H 745 z M 513,788 822,624 797,569 512,720 227,569 202,624 512,788 h 1 z m -2,-277 q -13,0 -25,10 -9,10 -9,25 0,15 9,25 11,10 24.5,10 13.5,0 23,-10 9.5,-10 9.5,-25.5 0,-15.5 -9.5,-25 Q 524,511 511,511 z"
       inkscape:connector-curvature="0"
       style="fill:currentColor" /></g></svg>