<?xml version="1.0" encoding="UTF-8" standalone="no"?>
<!-- Created with Inkscape (http://www.inkscape.org/) -->

<svg
   xmlns:dc="http://purl.org/dc/elements/1.1/"
   xmlns:cc="http://creativecommons.org/ns#"
   xmlns:rdf="http://www.w3.org/1999/02/22-rdf-syntax-ns#"
   xmlns:svg="http://www.w3.org/2000/svg"
   xmlns="http://www.w3.org/2000/svg"
   xmlns:sodipodi="http://sodipodi.sourceforge.net/DTD/sodipodi-0.dtd"
   xmlns:inkscape="http://www.inkscape.org/namespaces/inkscape"
   version="1.1"
   x="0px"
   y="0px"
   width="237"
   height="237"
   viewBox="0 0 237 237"
   enable-background="new 0 0 100 100"
   xml:space="preserve"
   id="svg2985"
   inkscape:version="0.48.4 r9939"
   sodipodi:docname="wash.svg"><sodipodi:namedview
     pagecolor="#ffffff"
     bordercolor="#666666"
     borderopacity="1"
     objecttolerance="10"
     gridtolerance="10"
     guidetolerance="10"
     inkscape:pageopacity="0"
     inkscape:pageshadow="2"
     inkscape:window-width="1600"
     inkscape:window-height="843"
     id="namedview9"
     showgrid="false"
     inkscape:zoom="2.36"
     inkscape:cx="50"
     inkscape:cy="-22.673653"
     inkscape:window-x="0"
     inkscape:window-y="26"
     inkscape:window-maximized="0"
     inkscape:current-layer="svg2985"
     fit-margin-top="0"
     fit-margin-left="0"
     fit-margin-right="0"
     fit-margin-bottom="0" /><defs
     id="defs2987" /><metadata
     id="metadata2990"><rdf:RDF><cc:Work
         rdf:about=""><dc:format>image/svg+xml</dc:format><dc:type
           rdf:resource="http://purl.org/dc/dcmitype/StillImage" /><dc:title /></cc:Work></rdf:RDF></metadata><circle
     cx="50"
     cy="50"
     r="50"
     id="circle6"
     sodipodi:cx="50"
     sodipodi:cy="50"
     sodipodi:rx="50"
     sodipodi:ry="50"
     transform="scale(2.37,2.37)"
     style="fill:#b2b2b2" /><path
     d="m 172.23307,125.58411 q 2.63011,0.92671 2.83244,3.70687 0,1.66811 -1.31507,2.96552 -1.31506,1.29739 -2.93361,1.29739 h -25.69426 q -1.61854,0 -2.83243,-1.20475 -1.21392,-1.20474 -1.21392,-3.05816 0,-2.03878 1.82087,-3.33619 -0.40465,-3.33619 -1.61854,-5.00428 -1.21392,-1.66809 -4.04635,-1.66809 h -12.34132 q -5.05794,9.82323 -15.78074,9.82323 -9.508916,0 -14.769154,-9.82323 H 59.947095 V 95.002381 h 31.156826 v -7.599099 q 0,-1.853447 1.21389,-3.150858 1.213914,-1.297409 2.832458,-1.297409 h 10.520471 v -4.633604 q -1.61854,-1.112049 -2.22547,-2.038759 H 80.17879 q -2.427804,2.965493 -6.069499,2.965493 -3.237088,0 -5.462566,-2.224119 -2.225501,-2.224146 -2.225501,-5.374978 0,-2.965495 2.12435,-5.189617 2.124326,-2.224122 5.563717,-2.224122 1.820847,0 3.338216,0.926713 1.517393,0.92671 2.731283,2.224119 h 23.26648 q 1.01156,-1.297409 2.6301,-2.224119 1.61855,-0.926713 3.4394,-0.926713 1.82084,0 3.33824,0.926713 1.51736,0.92671 2.73128,2.224119 h 21.04098 q 1.01156,-1.297409 2.6301,-2.224119 1.61855,-0.926713 3.64172,-0.926713 3.03474,0 5.3614,2.224122 2.32665,2.224122 2.32665,5.189617 0,3.150832 -2.32665,5.374978 -2.32666,2.224119 -5.3614,2.224119 -3.84402,0 -6.06952,-2.965493 h -21.24328 q -1.01159,1.112047 -2.42781,2.038759 v 4.633604 h 10.31815 q 1.61855,0 2.83246,1.297409 1.21389,1.297411 1.21389,3.150858 v 7.599099 h 25.69429 q 8.09267,0 13.55524,4.911586 5.46256,4.911633 5.46256,11.769353 v 13.90079 0 z m -27.1105,41.14633 q 0,-1.11207 1.61855,-5.74568 1.61852,-4.63358 3.74287,-9.82322 2.12432,-5.18961 4.1475,-9.63786 2.02315,-4.44826 2.83243,-5.56034 0.80926,1.66812 2.93359,6.11638 2.12432,4.44824 4.24867,9.54519 2.12433,5.09695 3.74285,9.45255 1.61854,4.35557 1.61854,5.65298 0,6.8577 -3.84402,10.19392 -3.84402,3.33617 -8.49733,3.33617 -4.65328,0 -8.59845,-3.33617 -3.9452,-3.33622 -3.9452,-10.19392 z m 48.15146,-95.637429 q 0,-5.560316 -2.22548,-10.379233 -2.22548,-4.818966 -5.86719,-8.340497 -3.64172,-3.52153 -8.59848,-5.652983 -4.95676,-2.131452 -10.62166,-2.131452 H 71.681487 q -5.664893,0 -10.621653,2.131452 -4.95676,2.131453 -8.69963,5.652983 -3.74287,3.521531 -5.968371,8.340497 -2.225478,4.818917 -2.225478,10.379233 v 92.486599 q 0,5.56029 2.225478,10.37923 2.225501,4.81894 5.968371,8.2478 3.74287,3.42887 8.69963,5.56032 4.95676,2.13145 10.621653,2.13145 h 94.279733 q 5.6649,0 10.62166,-2.13145 4.95676,-2.13145 8.59848,-5.56032 3.64171,-3.42886 5.86719,-8.43314 2.22548,-5.00428 2.22548,-10.19389 V 71.093011 z M 165.96122,36.43374 q 7.48574,0 13.9599,2.687459 6.47415,2.68749 11.32976,7.41376 4.85561,4.726273 7.68804,11.027964 2.83244,6.301687 2.83244,13.530088 v 92.486599 q 0,7.22837 -2.83244,13.43742 -2.83243,6.20902 -7.68804,10.93529 -4.85561,4.72625 -11.32976,7.50641 -6.47416,2.78015 -13.9599,2.78015 H 71.681487 q -7.48574,0 -13.959893,-2.78015 -6.474153,-2.78016 -11.329761,-7.50641 -4.855609,-4.72627 -7.688043,-10.93529 -2.832435,-6.20905 -2.832435,-13.43742 V 71.093011 q 0,-7.228401 2.832435,-13.530088 2.832434,-6.301691 7.688043,-11.027964 4.855608,-4.72627 11.329761,-7.41376 6.474153,-2.687459 13.959893,-2.687459 h 94.279733 z"
     id="path3096"
     inkscape:connector-curvature="0" /></svg>