<?xml version="1.0" encoding="UTF-8" standalone="no"?>
<!-- Created with Inkscape (http://www.inkscape.org/) -->

<svg
   xmlns:dc="http://purl.org/dc/elements/1.1/"
   xmlns:cc="http://creativecommons.org/ns#"
   xmlns:rdf="http://www.w3.org/1999/02/22-rdf-syntax-ns#"
   xmlns:svg="http://www.w3.org/2000/svg"
   xmlns="http://www.w3.org/2000/svg"
   xmlns:sodipodi="http://sodipodi.sourceforge.net/DTD/sodipodi-0.dtd"
   xmlns:inkscape="http://www.inkscape.org/namespaces/inkscape"
   version="1.1"
   x="0px"
   y="0px"
   width="237"
   height="237"
   viewBox="0 0 237 237"
   enable-background="new 0 0 100 100"
   xml:space="preserve"
   id="svg2985"
   inkscape:version="0.91 r13725"
   sodipodi:docname="zaatari.svg"><sodipodi:namedview
     pagecolor="#ffffff"
     bordercolor="#666666"
     borderopacity="1"
     objecttolerance="10"
     gridtolerance="10"
     guidetolerance="10"
     inkscape:pageopacity="0"
     inkscape:pageshadow="2"
     inkscape:window-width="1920"
     inkscape:window-height="1017"
     id="namedview9"
     showgrid="false"
     inkscape:zoom="3.5527426"
     inkscape:cx="118.5"
     inkscape:cy="118.5"
     inkscape:window-x="-4"
     inkscape:window-y="-4"
     inkscape:window-maximized="1"
     inkscape:current-layer="svg2985"
     fit-margin-top="0"
     fit-margin-left="0"
     fit-margin-right="0"
     fit-margin-bottom="0" /><defs
     id="defs2987"><clipPath
       clipPathUnits="userSpaceOnUse"
       id="clipPath3388"><path
         inkscape:connector-curvature="0"
         d="m 533.3718,369.4324 28.3465,0 0,-28.3465 -28.3465,0 0,28.3465 z"
         id="path3390" /></clipPath><clipPath
       clipPathUnits="userSpaceOnUse"
       id="clipPath3394"><path
         inkscape:connector-curvature="0"
         d="m 533.3718,369.4324 28.3465,0 0,-28.3464 -28.3465,0 0,28.3464 z"
         id="path3396" /></clipPath><clipPath
       clipPathUnits="userSpaceOnUse"
       id="clipPath3400"><path
         inkscape:connector-curvature="0"
         d="m 533.3718,341.086 28.34644,0 0,28.34647 -28.34644,0 0,-28.34647 z"
         id="path3402" /></clipPath></defs><metadata
     id="metadata2990"><rdf:RDF><cc:Work
         rdf:about=""><dc:format>image/svg+xml</dc:format><dc:type
           rdf:resource="http://purl.org/dc/dcmitype/StillImage" /><dc:title></dc:title></cc:Work></rdf:RDF></metadata><circle
     cx="118.5"
     cy="118.5"
     r="118.5"
     id="circle6"
     style="fill:#b2b2b2" /><g
     transform="matrix(0.15606856,0,0,0.15606856,39.01153,28.711803)"
     id="g3360"
     style="fill:#ffffff"><path
       inkscape:connector-curvature="0"
       id="path2217"
       d="m 226.75711,181.15812 -3.49999,2.5 -4,3 -5.5,2.5 -6,1.5 -2,1.5 -0.5,2.5 -2,2.5 -5,1 -4,0 -3.5,2.5 -2,2.5 -4,2.5 -5,3.5 0,2.5 1,1.5 -1.5,2.50001 0,2 3,4 0,3.5 0,3 -2,3 -2.5,2 0.5,3 -0.5,3 0,2.5 3,4 0,2.5 -2,3.5 0,2.5 0.5,2 -0.5,1.5 -0.5,2.5 0.5,2.5 -1.5,1.5 -1,2 0,2.5 1.5,2 -1.5,2 -2.5,1.5 2,2 0.5,3.5 -0.5,2.5 1,4.5 -1,3 0,2 1.5,2 1,2 0,3.5 0,4 -1,2 -1,1.5 1.5,1.5 0.5,1 -1.5,3.5 0.5,2 1,1.5 0,2.5 -0.5,1.5 -1,2 -0.5,1 0,2.5 1.5,2 -0.21875,1.03125 0.71875,-0.0312 3.5,0 4,0 5,1 4.3125,-0.71875 -0.8125,-2.28125 0,-5.5 -2.5,-6 -3.5,-4.5 0.5,-4.5 2.5,-7.5 6.5,-13 2.5,-2 3,-0.5 3,0.5 2.5,2 3.5,0.5 3.5,-0.5 1,-1 1,-2.5 2,-2.5 3,-0.5 2.99999,0 8.5,0.5 3.5,-1 0,-1.5 2.5,-4 2.5,-1 2,0 1.5,0.5 1.5,1.5 -2,2 -1,1.5 1,1.5 1.5,1 2,0 2,1 0,1.5 0,2 2,1.5 1,2 0.5,1.5 -0.5,2 -0.15625,0.71875 3.15625,-2.21875 6.5,-4 1.5,-1 3,-1.5 1,0 2,1.5 0,2.5 2.5,1.5 3.5,-0.5 3.71875,-0.21875 0.78125,-1.28125 1.5,-3 1.5,-1.5 -0.5,-2 -3,-4 -2,-2.5 -1,-3 2.5,-3 3,-1 3,0 2.5,1.5 2,1.5 2,1.5 2.5,1.5 3,-4.5 0,-4.5 0,-10.5 0,-6 -2.5,-4.5 -1.5,-2.5 0.71875,-0.34375 -0.21875,-0.15625 0,-2 1.5,-2.5 -2,-3.5 -2.5,-4 -3,-4 -2,-4.5 -3.5,-2 -0.5,-3.5 1.5,-6.50001 -1,-2.5 -3.5,-2.5 -1.5,0 -2,1 -3,-0.5 -2.5,-2 -3.5,-2.5 1,-1 1,-2.5 -2,-2 -2,0 -1,-0.5 -0.5,-1.5 -2.5,-2 -3,-0.5 -5,-2.5 -3.5,0 -2.5,-1 -3,0 -4,0.5 -3,-1.5 -3.5,-1.5 -3.5,-1.5 -4,0 z"
       style="fill:#ffffff;fill-opacity:1;fill-rule:evenodd;stroke:#000000;stroke-width:1.60000002;stroke-linecap:butt;stroke-linejoin:miter;stroke-miterlimit:4;stroke-dasharray:none;stroke-opacity:1" /><path
       inkscape:connector-curvature="0"
       id="path2266"
       d="m 904.75,13.15625 -431.5,277.5 -7,7.5 -24.5,-6.5 -4,3 -2.5,-3 -46.5,-8 -2.5,-3 -18.5,-2.5 -22.5,-23 -22,-16.5 -5,1.5 -2,1.5 -4,-1.5 -3,0 -6.5,0 -2.5,0.5 -3.5,0.5 -1.28125,-0.84375 -0.21875,-0.15625 0,-2 1.5,-2.5 -2,-3.5 -2.5,-4 -3,-4 -2,-4.5 -3.5,-2 -0.5,-3.5 1.5,-6.5 -1,-2.5 -3.5,-2.5 -1.5,0 -2,1 -3,-0.5 -2.5,-2 -3.5,-2.5 1,-1 1,-2.5 -2,-2 -2,0 -1,-0.5 -0.5,-1.5 -2.5,-2 -3,-0.5 -5,-2.5 -3.5,0 -2.5,-1 -3,0 -4,0.5 -3,-1.5 -3.5,-1.5 -3.5,-1.5 -4,0 -3.5,2.5 -4,3 -5.5,2.5 -6,1.5 -2,1.5 -0.5,2.5 -2,2.5 -5,1 -4,0 -3.5,2.5 -2,2.5 -4,2.5 -5,3.5 0,2.5 1,1.5 -1.5,2.5 0,2 3,4 0,3.5 0,3 -2,3 -2.5,2 0.5,3 -0.5,3 0,2.5 3,4 0,2.5 -2,3.5 0,2.5 0.5,2 -0.5,1.5 -0.5,2.5 0.5,2.5 -1.5,1.5 -1,2 0,2.5 1.5,2 -1.5,2 -2.5,1.5 2,2 0.5,3.5 -0.5,2.5 1,4.5 -1,3 0,2 1.5,2 1,2 0,3.5 0,4 -1,2 -1,1.5 1.5,1.5 0.5,1 -1.5,3.5 0.5,2 1,1.5 0,2.5 -0.5,1.5 -1,2 -0.5,1 0,2.5 1.5,2 -0.21875,1.03125 -0.28125,1.46875 -1.5,1.5 0,3 -0.5,2 -1.5,2.5 -1.5,1 0,3.5 -1.5,4 0,2.5 1,5 0,2 -1,2.5 -2,3 -2,5 0,5 1,3.5 0.5,3.5 3,5 0,5 0,5.5 -1,2.5 -3.5,3 1.5,3 0,4 1.5,2 2.5,5.5 -0.5,4.5 0,5 -2,2.5 2.5,5.5 0,0.5 0.5,4.5 0.5,3.5 -0.5,1.1875 0.5,0.0625 3.53125,2.84375 2.8125,1.40625 -0.6875,2.84375 -2.125,4.9375 0,2.8125 -1.40625,4.25 -1.4375,6.375 0,6.34375 0,5.6875 -1.40625,3.53125 -2.125,5.65625 0,9.1875 0,9.1875 0,2.8125 2.125,3.5625 1.40625,3.53125 -2.125,2.8125 0.71875,2.125 -1.40625,5 0.6875,1.4375 0,1.09375 -0.1875,1 -0.40625,0.59375 -0.25,0 -0.0937,1.09375 0.25,0.6875 0,0.59375 -0.15625,0.65625 -0.34375,0.34375 0.25,1.09375 0,0.84375 -0.25,0.5 -0.15625,0.6875 -0.1875,0.40625 -0.5,0.25 -1,0.1875 -0.5,0.40625 -0.53125,1.09375 -0.3125,1.28125 -0.25,0.84375 0.0625,0.5 0.78125,0.59375 0.40625,0.25 -0.0937,0.59375 -0.15625,0.84375 -0.34375,1.15625 -0.65625,1.03125 -0.1875,0.5 -0.0937,1.1875 0.4375,0.90625 0.25,0.4375 -0.0937,1.4375 0,1.15625 -0.25,0.25 -0.0625,0.6875 0.15625,0.5 0.0937,0.75 0.0625,0.34375 -0.25,0 -0.65625,0.5 -0.1875,0.59375 -0.84375,1.28125 -0.25,0.75 -0.25,0.25 -0.0937,1.1875 -0.5625,0.75 -1.78125,1.09375 -0.84375,1 -0.6875,0.84375 -1,0.53125 -1.5,0.0625 -0.78125,-0.15625 -0.15625,-4.625 0.59375,-2.28125 1.6875,-2.625 0,-1.75 0.84375,-2.28125 0,-1.53125 -0.84375,-1.09375 -0.5,-1.15625 -0.9375,-1.1875 -1.1875,-0.75 -1.09375,-0.1875 -0.25,0.0937 -0.75,0.84375 -0.6875,0.65625 0.1875,0.53125 0.90625,0.25 0.34375,-0.0937 -0.40625,0.34375 -0.6875,0.25 -0.34375,0.0937 0,0.90625 -0.15625,0.84375 -0.34375,0 -0.5,-0.59375 -0.5,-0.0625 -0.4375,0.0625 -0.25,0.5 -1.1875,0.78125 L 150.25,551 149.8125,551.65625 150,552.25 l 0.25,0.6875 -0.1875,1.4375 -0.5,1.75 -0.40625,0.84375 -0.59375,0.6875 -1.09375,0.3125 -0.84375,0 -0.59375,0.4375 -0.4375,1.1875 -1.40625,1.09375 -2.03125,0.84375 -0.75,0.25 -0.0937,0.15625 -0.84375,1 -1,2.21875 -1.09375,1.9375 -1.28125,1.75 -0.28125,0.59375 -1.5625,4.71875 0,4.5 2,5.5 5,7 4,5.5 3.5,9.5 0,4 -0.59375,1.3125 0,0.25 -0.25,2.4375 -0.4375,1.875 -0.59375,1.59375 -0.5,1.9375 -1.1875,2.6875 -1.75,2.625 -0.15625,0.3125 -0.53125,2.46875 -2,2 -1.5,2 -1.875,3.75 -0.1875,0.53125 -0.9375,5.21875 -1,8 0.1875,1.65625 0.25,2.9375 0,1.6875 -0.59375,2.46875 -1.59375,2.34375 -1.6875,1.09375 -2.78125,1.9375 -2.125,1.4375 -1.5,1.1875 -0.46875,0.5 -0.625,0.65625 -0.0625,0.0937 -5,8 0,6 -1,6.5 -2,4.5 -3,3 -4.5,4.5 -2.5,9.5 -1.5,10.5 -0.0937,0.15625 -4.40625,8.34375 -8,11.5 -5,10 -3,10.5 -2.5,7.5 0,3.5 0,4.5 -1.5,2.5 -6,15 0,3.5 2,3 2,3 0.5,6 0,4 -3.5,5 -3,8.5 -1.5,17.5 0,5 2.5,9.5 0.5,8 0.5,9.5 -2,5 -3.5,5.5 -4.5,4 -4,5 -3,9 -0.5,4.5 0,5 -2,3.5 -1.5,2 -1,7 0,19 -2,6.5 -6,13 -3.5,9 -2,2.5 0,4.5 -1,4 -0.5,6 -1,4 -2,5 0,3 -3,4.5 -2.5,8.5 0,4.5 -0.5,4.5001 -0.5,2.5 2.5,2.5 2.5,5 1,5.5 -2.5,3 -1.5,3.5 -3,6 -1.5,9.5 -1,11.5 0,4 180.84375,34.4687 76.15625,14.5313 104.5,-83.5 55,-95.5001 177,-36.5 36,-88 78.5,-47 L 559.375,581.375 500.25,515.15625 l 2,-0.625 173.5625,-52.8125 282.9375,-86.0625 69,-64 -9.5,-30.5 -47.5,12.5 -15.5,-43 17,-7.5 -67.5,-230 z"
       style="fill:#ffffff;fill-opacity:1;fill-rule:evenodd;stroke:#000000;stroke-width:3.5;stroke-linecap:butt;stroke-linejoin:miter;stroke-miterlimit:4;stroke-dasharray:none;stroke-opacity:1" /><path
       inkscape:connector-curvature="0"
       id="path2254"
       d="m 308.50711,578.78312 -0.25,23.375 18.5,19 -70,123 -3.5,-3 -5.5,-2.5 -5.5,-1 -4.5,0 -2.5,2 -1,3 -8,1.5 c 0,0 -2.74999,0.75 -5.74999,1.5 -3,0.75 -6.25,1.5 -7.25,1.5 -1,0 -3.125,0.375 -5,0.75 -1.875,0.375 -3.5,0.75 -3.5,0.75 l -6,-0.5 c 0,0 -0.875,1 -2,2 -0.5625,0.5 -1.20313,1 -1.8125,1.375 -0.60938,0.375 -1.1875,0.625 -1.6875,0.625 -2,0 -2.5,0 -2.5,0 l -4.5,-2.5 -4.5,-1 -7,1 -11,0.5 -12.5,-2 -3,-2.5 -2.5,0 -2.59375,1.71875 0.59375,7.78125 0,7.5 0,2 -3,4.5 -2.5,6 -1,2 0.5,11.5 -16,28.5 4,19 2,5.5 0,3.5 0,3.5 -0.5,4.5 -3,4 -4.5,6.5 -4.5,4.5 -5,5 c 0,0 -0.5,0.5 -1,1.25 -0.25,0.375 -0.5,0.8125 -0.6875,1.28125 -0.1875,0.46875 -0.3125,0.96875 -0.3125,1.46875 0,2 -1,7.5 -1,7.5 l -1.5,5.5 -1.5,5 0,6.5 2.5,7.5 3.5,5.5 3,4 4,2.5 6.5,2 7.5,-2 8,0 6,0 c 0,0 1.75,-0.125 3.625,0 0.9375,0.0625 1.89062,0.17188 2.6875,0.40625 0.79687,0.23437 1.4375,0.59375 1.6875,1.09375 0.25,0.5 0.76562,0.95313 1.375,1.375 0.60937,0.42187 1.3125,0.8125 2,1.125 1.375,0.625 2.625,1 2.625,1 l 7.5,7.5 3.5,5 2,6.5 2,8 0,4 3.5,5.5 6,7.5 2.5,9.5 3,10.5 2.5,12.49998 3,13.5 2,16 2.5,18.5 6.84375,61.4688 76.15624,14.5312 104.5,-83.5 55,-95.49998 177,-36.5 36,-88 78.5,-47 -173.875,-194.78125 -250.875,-2.59375 z"
       style="fill:#ffffff;fill-opacity:1;fill-rule:evenodd;stroke:#000000;stroke-width:1.60000002;stroke-linecap:butt;stroke-linejoin:miter;stroke-miterlimit:4;stroke-dasharray:none;stroke-opacity:1" /><path
       inkscape:connector-curvature="0"
       id="path2237"
       d="m 178.25,328.65625 -0.71875,0.0312 -0.28125,1.46875 -1.5,1.5 0,3 -0.5,2 -1.5,2.5 -1.5,1 0,3.5 -1.5,4 0,2.5 1,5 0,2 -1,2.5 -2,3 -2,5 0,5 1,3.5 0.5,3.5 3,5 0,5 0,5.5 -1,2.5 -3.5,3 1.5,3 0,4 1.5,2 2.5,5.5 -0.5,4.5 0,5 -2,2.5 2.5,5.5 0,0.5 0.5,4.5 0.5,3.5 -0.5,1.1875 0.5,0.0625 3.53125,2.84375 2.8125,1.40625 -0.6875,2.84375 -2.125,4.9375 0,2.8125 -1.40625,4.25 -0.71875,3.15625 0.0937,0 6.5,-2 8,-2.5 2,-3 0,-4 0.5,-4 0,-4.5 2.5,-3 4,-2 5,0 5.5,0 0.59375,0 0.40625,-1.5 -0.5,-2 0,-3 1.5,-2.5 1,-2.5 3,-2.5 0,-2 -1.5,-2.5 -4,-3.5 -5.5,-2 -3.5,-1.5 -1,-3.5 3,-4 4,-3 9.5,-3 4,-2 4.5,-2 5.5,-3.5 3,-2.5 0,-2.5 0,-2.5 2.5,-4 1,-1.5 4,-0.5 6.5,0 4.5,-2 3,-6 2.5,-2.5 3.8125,-2.6875 -0.3125,-0.3125 -3,-2.5 -3.5,-2 -2,-2.5 0,-2 0.25,-2.375 -4.25,-1.625 -2.5,-1.5 -2.5,-2.5 -1.5,-2 -0.5,-1 -1,-2.5 -1,-1 -1,-1.5 -2.5,-1.5 -3.5,-1 -3,0.5 -3,1 -6.5,0 -3,-0.5 -0.5,-1.5 -1,0 -3,1.5 -1.5,1 -1.5,0.5 -2.5,0 -1,-1 3,-3.5 0.84375,-1.09375 -3.84375,0.59375 -5,-1 -3.5,-1.5 -1.6875,-4.71875 -4.3125,0.71875 -5,-1 -4,0 -3.5,0 z"
       style="fill:#ffffff;fill-opacity:1;fill-rule:evenodd;stroke:#000000;stroke-width:1.60000002;stroke-linecap:butt;stroke-linejoin:miter;stroke-miterlimit:4;stroke-dasharray:none;stroke-opacity:1" /><path
       inkscape:connector-curvature="0"
       id="path5767"
       d="m 172.75,442.34375 -2,4.8125 -2,7.5 -4.84375,7.75 -0.15625,0.25 -4.5,12.5 -1,7 -2.5,15 -0.5,7.5 -1.5,9.5 0,8 0,6.5625 0,1.4375 0,4 -1,4.5 -3,5 -0.5,4.5 -2.5,5 -4,6 -5.5,9 -0.4375,1.28125 0.28125,-0.59375 1.28125,-1.75 1.09375,-1.9375 1,-2.21875 0.84375,-1 0.0937,-0.15625 0.75,-0.25 2.03125,-0.84375 1.40625,-1.09375 0.4375,-1.1875 0.59375,-0.4375 0.84375,0 1.09375,-0.3125 0.59375,-0.6875 0.40625,-0.84375 0.5,-1.75 0.1875,-1.4375 L 150,552.25 149.8125,551.65625 150.25,551 l 0.90625,-0.84375 1.1875,-0.78125 0.25,-0.5 0.4375,-0.0625 0.5,0.0625 0.5,0.59375 0.34375,0 0.15625,-0.84375 0,-0.90625 0.34375,-0.0937 0.6875,-0.25 0.40625,-0.34375 -0.34375,0.0937 -0.90625,-0.25 -0.1875,-0.53125 0.6875,-0.65625 0.75,-0.84375 0.25,-0.0937 1.09375,0.1875 1.1875,0.75 0.9375,1.1875 0.5,1.15625 0.84375,1.09375 0,1.53125 -0.84375,2.28125 0,1.75 -1.6875,2.625 -0.59375,2.28125 0.15625,4.625 0.78125,0.15625 1.5,-0.0625 1,-0.53125 0.6875,-0.84375 0.84375,-1 1.78125,-1.09375 0.5625,-0.75 0.0937,-1.1875 0.25,-0.25 0.25,-0.75 0.84375,-1.28125 0.1875,-0.59375 0.65625,-0.5 0.25,0 -0.0625,-0.34375 -0.0937,-0.75 -0.15625,-0.5 0.0625,-0.6875 0.25,-0.25 0,-1.15625 0.0937,-1.4375 -0.25,-0.4375 -0.4375,-0.90625 0.0937,-1.1875 0.1875,-0.5 0.65625,-1.03125 0.34375,-1.15625 0.15625,-0.84375 0.0937,-0.59375 -0.40625,-0.25 -0.78125,-0.59375 -0.0625,-0.5 0.25,-0.84375 0.3125,-1.28125 0.53125,-1.09375 0.5,-0.40625 1,-0.1875 0.5,-0.25 0.1875,-0.40625 0.15625,-0.6875 0.25,-0.5 0,-0.84375 -0.25,-1.09375 0.34375,-0.34375 0.15625,-0.65625 0,-0.59375 -0.25,-0.6875 0.0937,-1.09375 0.25,0 0.40625,-0.59375 0.1875,-1 0,-1.09375 -0.53125,-1.09375 -0.15625,-0.34375 1.40625,-5 -0.71875,-2.125 2.125,-2.8125 -1.40625,-3.53125 -2.125,-3.5625 0,-2.8125 0,-9.1875 0,-9.1875 2.125,-5.65625 1.40625,-3.53125 0,-5.6875 0,-6.34375 1.4375,-6.375 1.40625,-4.25 0,-2.8125 2.125,-4.9375 0.6875,-2.84375 -2.8125,-1.40625 -3.53125,-2.84375 -0.5,-0.0625 z"
       style="fill:#ffffff;fill-opacity:1;fill-rule:evenodd;stroke:#000000;stroke-width:0.2;stroke-linecap:butt;stroke-linejoin:miter;stroke-miterlimit:4;stroke-dasharray:none;stroke-opacity:1" /><path
       inkscape:connector-curvature="0"
       id="path2249"
       d="m 171.28125,527.65625 0.53125,1.09375 0,1.09375 -0.1875,1 -0.40625,0.59375 -0.25,0 -0.0937,1.09375 0.25,0.6875 0,0.59375 -0.15625,0.65625 -0.34375,0.34375 0.25,1.09375 0,0.84375 -0.25,0.5 -0.15625,0.6875 -0.1875,0.40625 -0.5,0.25 -1,0.1875 -0.5,0.40625 -0.53125,1.09375 -0.3125,1.28125 -0.25,0.84375 0.0625,0.5 0.78125,0.59375 0.40625,0.25 -0.0937,0.59375 -0.15625,0.84375 -0.34375,1.15625 -0.65625,1.03125 -0.1875,0.5 -0.0937,1.1875 0.4375,0.90625 0.25,0.4375 -0.0937,1.4375 0,1.15625 -0.25,0.25 -0.0625,0.6875 0.15625,0.5 0.0937,0.75 0.0625,0.34375 -0.25,0 -0.65625,0.5 -0.1875,0.59375 -0.84375,1.28125 -0.25,0.75 -0.25,0.25 -0.0937,1.1875 -0.5625,0.75 -1.78125,1.09375 -0.84375,1 -0.6875,0.84375 -1,0.53125 -1.5,0.0625 -0.78125,-0.15625 -0.15625,-4.625 0.59375,-2.28125 1.6875,-2.625 0,-1.75 0.84375,-2.28125 0,-1.53125 -0.84375,-1.09375 -0.5,-1.15625 -0.9375,-1.1875 -1.1875,-0.75 -1.09375,-0.1875 -0.25,0.0937 -0.75,0.84375 -0.6875,0.65625 0.1875,0.53125 0.90625,0.25 0.34375,-0.0937 -0.40625,0.34375 -0.6875,0.25 -0.34375,0.0937 0,0.90625 -0.15625,0.84375 -0.34375,0 -0.5,-0.59375 -0.5,-0.0625 -0.4375,0.0625 -0.25,0.5 -1.1875,0.78125 L 150.25,551 149.8125,551.65625 150,552.25 l 0.25,0.6875 -0.1875,1.4375 -0.5,1.75 -0.40625,0.84375 -0.59375,0.6875 -1.09375,0.3125 -0.84375,0 -0.59375,0.4375 -0.4375,1.1875 -1.40625,1.09375 -2.03125,0.84375 -0.75,0.25 -0.0937,0.15625 -0.84375,1 -1,2.21875 -1.09375,1.9375 -1.28125,1.75 -0.28125,0.59375 -1.5625,4.71875 0,4.5 2,5.5 5,7 4,5.5 3.5,9.5 0,4 -0.59375,1.3125 0,0.25 -0.25,2.4375 -0.4375,1.875 -0.59375,1.59375 -0.5,1.9375 -1.1875,2.6875 -1.75,2.625 -0.15625,0.3125 -0.53125,2.46875 -2,2 -1.5,2 -1.875,3.75 -0.1875,0.53125 -0.9375,5.21875 -1,8 0.1875,1.65625 0.25,2.9375 0,1.6875 -0.59375,2.46875 -1.59375,2.34375 -1.6875,1.09375 -2.78125,1.9375 -2.125,1.4375 -1.5,1.1875 -0.46875,0.5 1.8125,0.75 6,4.5 3.5,2.5 6.5,0.5 3.5,-1.5 0.5,-6 0,-5 0,-3 3,-3 1,-4 -1.5,-3.5 0,-2.5 3.5,-2 5,1.5 5,-0.5 2,0 3,2.5 3.5,3 11,2 12,-1 4.5,0.5 4.5,3.5 10,5 6.5,3.5 7,2.5 7.5,2.5 0,2.5 2,3 3.5,1.5 5,3 3,3 3.5,0.5 0,2 3,4.5 7,4 4.5,3.5 5.5,6.5 5.40625,4.28125 49.09375,-86.28125 -18.5,-19 0.25,-23.375 -62.25,-0.625 -7,-0.5 -4.5,-3.5 1,-3.5 0.5,-5 2,-3.5 1.5,-5 0.5,-4 -2,-6.5 -3.5,-7 -1.5,-1.5 -8,-1.5 -6,-2.5 -6.5,0 -5.5,0 -5.5,3 -5,0.5 -6.5,-3 -6.5,-3.5 -8,-3 -3,-0.5 -1.46875,0 z"
       style="fill:#ffffff;fill-opacity:1;fill-rule:evenodd;stroke:#000000;stroke-width:1.60000002;stroke-linecap:butt;stroke-linejoin:miter;stroke-miterlimit:4;stroke-dasharray:none;stroke-opacity:1" /><path
       inkscape:connector-curvature="0"
       id="path2264"
       d="m 206.10087,1112.1269 -6.84375,-61.4688 -2.5,-18.5 -2,-16 -3,-13.5 -2.5,-12.49998 -3,-10.5 -2.5,-9.5 -6,-7.5 -3.5,-5.5 0,-4 -2,-8 -2,-6.5 -3.5,-5 -7.5,-7.5 c 0,0 -1.25,-0.375 -2.625,-1 -0.6875,-0.3125 -1.39063,-0.70313 -2,-1.125 -0.60938,-0.42187 -1.125,-0.875 -1.375,-1.375 -0.25,-0.5 -0.89063,-0.85938 -1.6875,-1.09375 -0.79688,-0.23437 -1.75,-0.34375 -2.6875,-0.40625 -1.875,-0.125 -3.625,0 -3.625,0 l -6,0 -8,0 -7.5,2 -6.5,-2 -4,-2.5 -3,-4 -3.5,-5.5 -2.5,-7.5 0,-6.5 1.5,-5 1.5,-5.5 c 0,0 1,-5.5 1,-7.5 0,-0.5 0.125,-1 0.3125,-1.46875 0.1875,-0.46875 0.4375,-0.90625 0.6875,-1.28125 0.5,-0.75 1,-1.25 1,-1.25 l 5,-5 4.5,-4.5 4.5,-6.5 3,-4 0.5,-4.5 0,-3.5 0,-3.5 -2,-5.5 -4,-19 16,-28.5 -0.5,-11.5 1,-2 2.5,-6 3,-4.5 0,-2 0,-7.5 -0.59375,-7.78125 -0.40625,0.28125 -8.5,-1.5 -4.5,-3 -1,-4.5 -1.5,-3.5 -3.5,-2 -5.5,-2.5 -3,-3 -6,-4.5 -3.59375,-3.34375 -4.40625,8.34375 -8.000005,11.5 -5,10 -3,10.5 -2.5,7.5 0,3.5 0,4.5 -1.5,2.5 -6,15 0,3.5 2,3 2,3 0.5,6 0,4 -3.5,5 -3,8.5 -1.5,17.5 0,5 2.5,9.5 0.5,8 0.5,9.5 -2,5 -3.5,5.5 -4.5,4 -4,5 -3,9 -0.5,4.5 0,5 -2,3.5 -1.5,2 -1,7 0,19 -2,6.5 -6,13 -3.5,9 -2,2.5 0,4.5 -1,4 -0.5,6 -1,4 -2,5 0,2.99998 -3,4.5 -2.5,8.5 0,4.5 -0.5,4.5 -0.5,2.5 2.5,2.5 2.5,5 1,5.5 -2.5,3 -1.5,3.5 -3,6 -1.5,9.5 -1,11.5 0,4 180.843755,34.4688 z"
       style="fill:#ffffff;fill-opacity:1;fill-rule:evenodd;stroke:#000000;stroke-width:1.60000002;stroke-linecap:butt;stroke-linejoin:miter;stroke-miterlimit:4;stroke-dasharray:none;stroke-opacity:1" /><path
       inkscape:connector-curvature="0"
       id="path2212"
       d="m 234.75,433.65625 -2,2 -1,1 -8,0.5 -6.5,0 -5,2.5 -3.5,0 -5.5,0 -5,0 -4,2 -2.5,3 0,4.5 -0.5,4 0,4 -2,3 -8,2.5 -6.5,2 -0.0937,0 -0.71875,3.21875 0,6.34375 0,5.6875 -1.40625,3.53125 -2.125,5.65625 0,9.1875 0,9.1875 0,2.8125 2.125,3.5625 1.40625,3.53125 -2.125,2.8125 0.71875,2.125 -1.40625,5 0.15625,0.34375 1.46875,0 3,0.5 8,3 6.5,3.5 6.5,3 5,-0.5 5.5,-3 5.5,0 6.5,0 6,2.5 8,1.5 6.5,-5.5 1,-3 0.5,-3 3.5,-7 1.5,-6 1.5,-4 1,-1.5 -1,-1 -2,-2 -1.5,-1.5 2,-2.5 0.5,-5 -2.5,-4.5 -4.5,-3.5 -4,-2.5 -1.5,-2.5 -2,-6 -1.5,-6.5 1,-4 3.5,-4.5 3.5,-2.5 0,-4 -1,-7.5 0.5,-6 0,-4 -1,-3 -2.5,-1.5 z"
       style="fill:#ffffff;fill-opacity:1;fill-rule:evenodd;stroke:#000000;stroke-width:1.60000002;stroke-linecap:butt;stroke-linejoin:miter;stroke-miterlimit:4;stroke-dasharray:none;stroke-opacity:1" /><path
       inkscape:connector-curvature="0"
       id="path2259"
       d="m 277.66336,707.43937 -5.40625,-4.28125 -5.5,-6.5 -4.5,-3.5 -7,-4 -3,-4.5 0,-2 -3.5,-0.5 -3,-3 -5,-3 -3.5,-1.5 -2,-3 0,-2.5 -7.5,-2.5 -6.99999,-2.5 -6.5,-3.5 -10,-5 -4.5,-3.5 -4.5,-0.5 -12,1 -11,-2 -3.5,-3 -3,-2.5 -2,0 -5,0.5 -5,-1.5 -3.5,2 0,2.5 1.5,3.5 -1,4 -3,3 0,3 0,5 -0.5,6 -3.5,1.5 -6.5,-0.5 -3.5,-2.5 -6,-4.5 -1.8125,-0.75 -0.6875,0.75 -5,8 0,6 -1,6.5 -2,4.5 -3,3 -4.5,4.5 -2.5,9.5 -1.5,10.5 -0.0937,0.15625 3.59375,3.34375 6,4.5 3,3 5.5,2.5 3.5,2 1.5,3.5 1,4.5 4.5,3 8.5,1.5 3,-2 2.5,0 3,2.5 12.5,2 11,-0.5 7,-1 4.5,1 4.5,2.5 c 0,0 0.5,0 2.5,0 0.5,0 1.07812,-0.25 1.6875,-0.625 0.60937,-0.375 1.25,-0.875 1.8125,-1.375 1.125,-1 2,-2 2,-2 l 6,0.5 c 0,0 1.625,-0.375 3.5,-0.75 1.875,-0.375 4,-0.75 5,-0.75 1,0 4.25,-0.75 7.25,-1.5 3,-0.75 5.74999,-1.5 5.74999,-1.5 l 8,-1.5 1,-3 2.5,-2 4.5,0 5.5,1 5.5,2.5 3.5,3 20.90625,-36.71875 z"
       style="fill:#ffffff;fill-opacity:1;fill-rule:evenodd;stroke:#000000;stroke-width:1.60000002;stroke-linecap:butt;stroke-linejoin:miter;stroke-miterlimit:4;stroke-dasharray:none;stroke-opacity:1" /><path
       inkscape:connector-curvature="0"
       id="path2222"
       d="m 233.25711,538.15812 1.5,1.5 3.5,7 2,6.5 -0.5,4 -1.5,5 -2,3.5 -0.5,5 -1,3.5 4.5,3.5 7,0.5 313.125,3.21875 -59.125,-66.21875 2,-0.625 -66.5,-68.875 -17.5,11 -2.5,1 -3.5,-2 -3.5,-1.5 -3.5,-2.5 -2.5,-2.5 -2,-1.5 -3,-2 -2,-2 -3.5,-3 -3,-3 -2,-2.5 -2.5,-2 -2.5,-2.5 -1.5,-2.5 0.5,-2 0.5,-3 2.5,-2.5 3.5,-2 3,-2.5 5.5,-2.5 2.5,-1.49999 2,-1.5 -0.5,-2 -6,-5.5 -5,-6.5 -5.5,-6 -6,-7 -4,-3 -2.5,-2.5 -3,-1.5 -1.5,0 -6.5,0 -3.5,1.5 -4,0 -3.5,-1.5 -4,-2.5 -5.5,1 -3,2 -2,3 -1.5,3.5 -1.5,2 -6.5,2 -5.5,0.5 -4,-2.5 -3.5,-1 -1.5,0 -3.5,2.5 -1.5,3 -3.5,1 -5.5,0.5 -3.5,-0.5 -4.5,1.5 -2.5,1 -4.5,-1.5 -3,-2.5 -3,-5 -1.5,-3 -4,-5 -3.5,-2.5 -2,-1.5 -1.5,-3 -1,-1.5 -1.6875,-1.6875 -3.8125,2.6875 -2.5,2.5 -3,6 -4.5,2 -6.5,0 -4,0.5 -1,1.5 -2.5,4 0,2.5 0,2.5 -3,2.5 -5.49999,3.5 -4.5,2 -4,2 -9.5,3 -4,3 -3,4 1,3.49999 3.5,1.5 5.5,2 4,3.5 1.5,2.5 0,2 -3,2.5 -1,2.5 -1.5,2.5 0,3 0.5,2 -0.40625,1.5 2.90625,0 5,-2.5 6.5,0 7.99999,-0.5 1,-1 2,-2 2.5,1.5 1,3 0,4 -0.5,6 1,7.5 0,4 -3.5,2.5 -3.5,4.5 -1,4 1.5,6.5 2,6 1.5,2.5 4,2.5 4.5,3.5 2.5,4.5 -0.5,5 -2,2.5 1.5,1.5 2,2 1,1 -1,1.5 -1.5,4 -1.5,6 -3.5,7 -0.5,3 -1,3 -6.5,5.5 z"
       style="fill:#ffffff;fill-opacity:1;fill-rule:evenodd;stroke:#000000;stroke-width:1.60000002;stroke-linecap:butt;stroke-linejoin:miter;stroke-miterlimit:4;stroke-dasharray:none;stroke-opacity:1" /><path
       inkscape:connector-curvature="0"
       id="path2227"
       d="m 280.97586,288.43938 -3.71875,0.21875 -3.5,0.5 -2.5,-1.5 0,-2.5 -2,-1.5 -1,0 -3,1.5 -1.5,1 -6.5,4 -5,3.5 -4.5,1.5 -5.5,3 -3.5,4 -3,4 -0.5,6.5 -0.5,3.5 0,4 -4,2.5 -5,1 -3.49999,1.5 -5,0.5 -2,0.5 -2,4 -5,6.5 -3,3.5 1,1 2.5,0 1.5,-0.5 1.5,-1 3,-1.5 1,0 0.5,1.5 3,0.5 6.49999,0 3,-1 3,-0.5 3.5,1 2.5,1.5 1,1.5 1,1 1,2.5 0.5,1 1.5,2 2.5,2.5 2.5,1.5 4.25,1.625 0.25,-2.125 2.5,-4 5.5,-5 2.5,-2 4,-1.5 4,0 2,-4 0,-4 0,-4.5 -0.5,-5 -2,-3 -2.5,-3 -2.5,-4 -1,-3.5 0.5,-2 4,-2.5 7.5,-5.5 2.5,-7 2.21875,-3.71875 z"
       style="fill:#ffffff;fill-opacity:1;fill-rule:evenodd;stroke:#000000;stroke-width:1.60000002;stroke-linecap:butt;stroke-linejoin:miter;stroke-miterlimit:4;stroke-dasharray:none;stroke-opacity:1" /><path
       inkscape:connector-curvature="0"
       id="path2232"
       d="m 254.10086,292.37688 0.15625,-0.71875 0.5,-2 -0.5,-1.5 -1,-2 -2,-1.5 0,-2 0,-1.5 -2,-1 -2,0 -1.5,-1 -1,-1.5 1,-1.5 2,-2 -1.5,-1.5 -1.5,-0.5 -2,0 -2.5,1 -2.5,4 0,1.5 -3.5,1 -8.5,-0.5 -2.99999,0 -3,0.5 -2,2.5 -1,2.5 -1,1 -3.5,0.5 -3.5,-0.5 -2.5,-2 -3,-0.5 -3,0.5 -2.5,2 -6.5,13 -2.5,7.5 -0.5,4.5 3.5,4.5 2.5,6 0,5.5 2.5,7 3.5,1.5 5,1 3.84375,-0.59375 4.15625,-5.40625 2,-4 2,-0.5 5,-0.5 3.49999,-1.5 5,-1 4,-2.5 0,-4 0.5,-3.5 0.5,-6.5 3,-4 3.5,-4 5.5,-3 4.5,-1.5 1.84375,-1.28125 z"
       style="fill:#ffffff;fill-opacity:1;fill-rule:evenodd;stroke:#000000;stroke-width:1.60000002;stroke-linecap:butt;stroke-linejoin:miter;stroke-miterlimit:4;stroke-dasharray:none;stroke-opacity:1" /><path
       inkscape:connector-curvature="0"
       id="path2242"
       d="m 675.81961,461.72062 -290.0625,-100.06249 -2,-3.5 -3,-5.5 -2.5,-2 -4.5,0 -8.5,0 -9,0 -0.5,2.5 -5.5,1.5 -4.5,-1 -8,-5 -5.5,-3.5 -6,-0.5 -13,2.5 -8,1 -4,-3 -3.5,-3.5 -1,-1 -2.5,1.5 -1.5,3 -6,1 -5,-4.5 -1.5,-3 0.5,-4.5 1.5,-3.5 -2,-1.5 -3,-2 -3,0 -1.5625,0 0.0625,0.5 0,4.5 0,4 -2,4 -4,0 -4,1.5 -2.5,2 -5.5,5 -2.5,4 -0.5,4.5 0,2 2,2.5 3.5,2 3,2.5 2,2 1,1.5 1.5,3 2,1.5 3.5,2.5 4,5 1.5,3 3,5 3,2.5 4.5,1.5 2.5,-1 4.5,-1.5 3.5,0.5 5.5,-0.5 3.5,-1 1.5,-3 3.5,-2.5 1.5,0 3.5,1 4,2.5 5.5,-0.5 6.5,-2 1.5,-2 1.5,-3.5 2,-3 3,-2 5.5,-1 4,2.5 3.5,1.5 4,0 3.5,-1.5 6.5,0 1.5,0 3,1.5 2.5,2.5 4,3 6,7 5.5,6 5,6.5 6,5.5 0.5,2 -2,1.5 -2.5,1.49999 -5.5,2.5 -3,2.5 -3.5,2 -2.5,2.5 -0.5,3 -0.5,2 1.5,2.5 2.5,2.5 2.5,2 2,2.5 3,3 3.5,3 2,2 3,2 2,1.5 2.5,2.5 3.5,2.5 3.5,1.5 3.5,2 2.5,-1 17.5,-11 66.5,68.875 173.5625,-52.8125 z"
       style="fill:#ffffff;fill-opacity:1;fill-rule:evenodd;stroke:#000000;stroke-width:1.60000002;stroke-linecap:butt;stroke-linejoin:miter;stroke-miterlimit:4;stroke-dasharray:none;stroke-opacity:1" /><path
       inkscape:connector-curvature="0"
       id="path1334"
       d="m 904.75711,13.158119 -431.5,277.500011 -7,7.5 -24.5,-6.5 -4,3 -2.5,-3 -46.5,-8 -2.5,-3 -18.5,-2.5 -22.5,-23 -22,-16.5 -5,1.5 -2,1.5 -4,-1.5 -3,0 -6.5,0 -2.5,0.5 -3.5,0.5 -1.28125,-0.84375 -0.71875,0.34375 1.5,2.5 2.5,4.5 0,6 0,10.5 0,4.5 -3,4.5 -2.5,-1.5 -2,-1.5 -2,-1.5 -2.5,-1.5 -3,0 -3,1 -2.5,3 1,3 2,2.5 3,4 0.5,2 -1.5,1.5 -1.5,3 -3,5 -2.5,7 -7.5,5.5 -4,2.5 -0.5,2 1,3.5 2.5,4 2.5,3 2,3 0.4375,4.5 1.5625,0 3,0 3,2 2,1.5 -1.5,3.5 -0.5,4.5 1.5,3 5,4.5 6,-1 1.5,-3 2.5,-1.5 1,1 3.5,3.5 4,3 8,-1 13,-2.5 6,0.5 5.5,3.5 8,5 4.5,1 5.5,-1.5 0.5,-2.5 9,0 8.5,0 4.5,0 2.5,2 3,5.5 2,3.5 290.0625,100.06249 282.9375,-86.06249 68.99999,-64 -9.5,-30.5 -47.49999,12.5 -15.5,-43 17,-7.5 -67.5,-230.000011 z"
       style="fill:#ffffff;fill-opacity:1;fill-rule:evenodd;stroke:#000000;stroke-width:1.60000002;stroke-linecap:butt;stroke-linejoin:miter;stroke-miterlimit:4;stroke-dasharray:none;stroke-opacity:1" /></g><g
     transform="matrix(1.3136051,0,0,-1.3559961,-622.17232,560.98932)"
     id="g3384"><g
       id="g3386"
       clip-path="url(#clipPath3388)"><g
         id="g3392"
         clip-path="url(#clipPath3394)"><g
           id="g3398"
           clip-path="url(#clipPath3400)"><path
             inkscape:connector-curvature="0"
             d="m 549.4357,342.9517 0,-1.8657 12.2826,0 -3.7787,14.1732 -10.3946,14.1732 -10.3946,-14.1732 -3.7786,-14.1732 12.2825,0 0,1.8657 -1.8879,1.8658 0,9.3234 2.5246,1.247 c -0.7419,0.432 -1.2651,1.1959 -1.2651,2.1092 0,1.3731 1.1267,2.486 2.5191,2.486 1.3924,0 2.5191,-1.1129 2.5191,-2.486 0,-0.9133 -0.5232,-1.6772 -1.265,-2.1092 l 2.5245,-1.247 0,-9.3234 -1.8879,-1.8658 z"
             style="fill:#c83337;fill-opacity:1;fill-rule:nonzero;stroke:none"
             id="path3404" /></g></g></g></g></svg>