<?xml version="1.0" encoding="UTF-8" standalone="no"?>
<!-- Created with Inkscape (http://www.inkscape.org/) -->

<svg
   xmlns:dc="http://purl.org/dc/elements/1.1/"
   xmlns:cc="http://creativecommons.org/ns#"
   xmlns:rdf="http://www.w3.org/1999/02/22-rdf-syntax-ns#"
   xmlns:svg="http://www.w3.org/2000/svg"
   xmlns="http://www.w3.org/2000/svg"
   xmlns:sodipodi="http://sodipodi.sourceforge.net/DTD/sodipodi-0.dtd"
   xmlns:inkscape="http://www.inkscape.org/namespaces/inkscape"
   width="48px"
   height="48px"
   id="svg9531"
   version="1.1"
   inkscape:version="0.48.4 r9939"
   sodipodi:docname="nfidistrib.svg">
  <defs
     id="defs9533" />
  <sodipodi:namedview
     id="base"
     pagecolor="#ffffff"
     bordercolor="#666666"
     borderopacity="1.0"
     inkscape:pageopacity="0.0"
     inkscape:pageshadow="2"
     inkscape:zoom="7"
     inkscape:cx="24"
     inkscape:cy="24"
     inkscape:current-layer="layer1"
     showgrid="true"
     inkscape:grid-bbox="true"
     inkscape:document-units="px"
     inkscape:window-width="699"
     inkscape:window-height="639"
     inkscape:window-x="10"
     inkscape:window-y="51"
     inkscape:window-maximized="0" />
  <metadata
     id="metadata9536">
    <rdf:RDF>
      <cc:Work
         rdf:about="">
        <dc:format>image/svg+xml</dc:format>
        <dc:type
           rdf:resource="http://purl.org/dc/dcmitype/StillImage" />
        <dc:title></dc:title>
      </cc:Work>
    </rdf:RDF>
  </metadata>
  <g
     id="layer1"
     inkscape:label="Layer 1"
     inkscape:groupmode="layer">
    <g
       id="g1724"
       transform="matrix(1.25,0,0,-1.25,30.219571,16.820822)">
      <path
         d="m 0,0 0.641,-1.812 -1.492,1.066 -1.597,-1.066 0.637,1.812 -1.596,1.063 1.916,0 0.64,1.812 0.638,-1.812 1.917,0 L 0,0 z m -0.106,-14.057 -10.01,0 0,4.897 10.01,0 0,-4.897 z m 1.49,9.797 C 1.065,-4.793 0.853,-5.219 0.746,-5.326 0.106,-6.07 -0.639,-6.711 -1.491,-7.137 -2.236,-7.563 -3.089,-7.881 -3.94,-7.881 c -0.852,-0.105 -1.704,0 -2.45,0.318 -0.851,0.213 -1.596,0.639 -2.236,1.172 -0.639,0.534 -1.171,1.172 -1.597,1.918 -0.427,0.85 -0.639,1.702 -0.745,2.555 0,0.854 0,1.705 0.318,2.449 0.214,0.852 0.639,1.491 1.172,2.237 0.533,0.638 1.171,1.17 2.024,1.597 1.172,0.641 2.449,0.852 4.047,0.641 L -5.537,4.473 C -6.176,4.045 -6.815,3.621 -7.241,2.979 -7.772,2.449 -8.093,1.811 -8.307,1.063 -8.519,0.426 -8.626,-0.32 -8.519,-1.064 c 0.106,-0.748 0.319,-1.493 0.64,-2.133 0.319,-0.744 0.851,-1.276 1.383,-1.809 0.532,-0.426 1.172,-0.746 1.917,-0.959 0.639,-0.213 1.385,-0.318 2.131,-0.318 0.745,0.105 1.383,0.318 2.129,0.637 l 1.703,1.386 z"
         style="fill:#ffffff;fill-opacity:1;fill-rule:nonzero;stroke:none"
         id="path1726"
         inkscape:connector-curvature="0" />
    </g>
    <g
       id="g2644"
       transform="matrix(1.25,0,0,-1.25,41.054464,34.607321)">
      <path
         d="m 0,0 c 0,-2.469 -2.002,-4.471 -4.471,-4.471 l -17.888,0 c -2.469,0 -4.471,2.002 -4.471,4.471 l 0,17.885 c 0,2.469 2.002,4.472 4.471,4.472 l 17.888,0 C -2.002,22.357 0,20.354 0,17.885 L 0,0 z"
         style="fill:#0079c1;fill-opacity:1;fill-rule:nonzero;stroke:none"
         id="path2646"
         inkscape:connector-curvature="0" />
    </g>
    <g
       id="g2648"
       transform="matrix(1.25,0,0,-1.25,23.941464,20.383691)">
      <path
         d="m 0,0 c -5.104,0 -8.661,-1.559 -8.661,-3.189 0,-2.434 1.76,-8.782 9.006,-8.782 7.618,0 8.867,6.071 8.867,8.551 C 9.212,-0.799 5.608,0 0,0 M 3.691,-4.447 C 2.625,-4.664 1.356,-4.791 0,-4.791 c -3.787,0 -6.86,0.971 -6.86,2.164 0,1.195 3.073,2.166 6.86,2.166 3.786,0 6.859,-0.971 6.859,-2.166 0,-0.762 -1.266,-1.436 -3.168,-1.82"
         style="fill:#ffffff;fill-opacity:1;fill-rule:nonzero;stroke:none"
         id="path2650"
         inkscape:connector-curvature="0" />
    </g>
    <g
       id="g2656"
       transform="matrix(1.25,0,0,-1.25,15.239094,16.125941)">
      <path
         d="m 0,0 c -0.089,0 -0.175,-0.021 -0.239,-0.068 -0.097,-0.086 -0.155,-0.203 -0.162,-0.358 -0.028,-0.459 0.37,-1.125 0.978,-1.9 L 1.705,-1.08 C 1.004,-0.426 0.396,0 0,0 M 0.932,-2.764 C 1.305,-3.203 1.726,-3.672 2.163,-4.16 l 1.22,1.351 c -0.441,0.483 -0.871,0.94 -1.279,1.346 L 0.932,-2.764 z M 2.543,-4.568 C 2.561,-4.59 2.582,-4.613 2.602,-4.639 2.992,-5.064 3.395,-5.5 3.789,-5.945 l 1.202,1.332 -0.335,0.377 c -0.3,0.336 -0.599,0.677 -0.9,1.015 L 2.543,-4.568 z m 1.618,-1.789 c 0.456,-0.5 0.882,-0.946 1.281,-1.34 l 1.112,1.226 c -0.355,0.45 -0.748,0.93 -1.196,1.438 L 4.161,-6.357 z m 1.684,-1.725 c 0.018,-0.023 0.073,-0.123 0.097,-0.145 l -0.794,0.008 c -0.919,0.901 -1.671,1.793 -1.746,1.873 -0.4,0.453 -0.809,0.903 -1.209,1.334 -1.725,1.881 -3.21,3.51 -3.148,4.616 0.018,0.304 0.142,0.562 0.376,0.761 1.179,0.821 3.149,-1.41 5.648,-4.232 l 0.496,-0.561 c 0.113,-0.129 1.789,-2.111 2.851,-3.795 l -0.533,0 c -0.238,0.362 -0.657,0.868 -0.988,1.307 l -1.05,-1.166"
         style="fill:#ffffff;fill-opacity:1;fill-rule:nonzero;stroke:none"
         id="path2658"
         inkscape:connector-curvature="0" />
    </g>
    <g
       id="g2664"
       transform="matrix(1.25,0,0,-1.25,23.006464,14.023811)">
      <path
         d="m 0,0 c -0.046,0 -0.092,-0.008 -0.14,-0.031 -0.403,-0.166 -0.444,-0.748 -0.282,-1.59 l 1.365,0.617 C 0.672,-0.496 0.407,-0.148 0.149,-0.033 0.099,-0.008 0.048,0 0,0 m -0.296,-2.172 c 0.139,-0.519 0.326,-1.111 0.543,-1.744 l 1.621,0.732 C 1.636,-2.559 1.41,-1.982 1.19,-1.5 l -1.486,-0.672 z m 0.723,-2.269 c 0.097,-0.288 0.204,-0.588 0.307,-0.887 l 0.341,-0.967 1.628,0.736 -0.101,0.303 C 2.417,-4.729 2.235,-4.203 2.056,-3.707 L 0.427,-4.441 z M 1.263,-6.82 C 1.488,-7.457 1.72,-8.039 1.94,-8.561 l 1.504,0.682 c -0.156,0.551 -0.338,1.15 -0.556,1.795 L 1.263,-6.82 z M 3.9,-9.754 C 3.817,-9.373 3.712,-8.881 3.593,-8.422 L 2.164,-9.07 C 2.296,-9.373 2.427,-9.652 2.553,-9.91 L 1.94,-9.943 c -0.716,1.531 -1.309,3.24 -1.357,3.373 l -0.367,1.056 c -1.114,3.153 -1.916,5.43 -0.571,5.994 0.239,0.104 0.495,0.1 0.73,-0.005 0.98,-0.438 1.759,-2.694 2.748,-5.551 l 0.19,-0.547 c 0.051,-0.15 0.753,-2.182 1.128,-4.033 L 3.9,-9.754 z"
         style="fill:#ffffff;fill-opacity:1;fill-rule:nonzero;stroke:none"
         id="path2666"
         inkscape:connector-curvature="0" />
    </g>
  </g>
</svg>
