<?xml version="1.0" encoding="UTF-8" standalone="no"?>
<!-- Created with Inkscape (http://www.inkscape.org/) -->

<svg
   xmlns:dc="http://purl.org/dc/elements/1.1/"
   xmlns:cc="http://creativecommons.org/ns#"
   xmlns:rdf="http://www.w3.org/1999/02/22-rdf-syntax-ns#"
   xmlns:svg="http://www.w3.org/2000/svg"
   xmlns="http://www.w3.org/2000/svg"
   xmlns:sodipodi="http://sodipodi.sourceforge.net/DTD/sodipodi-0.dtd"
   xmlns:inkscape="http://www.inkscape.org/namespaces/inkscape"
   width="48px"
   height="48px"
   id="svg9531"
   version="1.1"
   inkscape:version="0.48.4 r9939"
   sodipodi:docname="adolescentfriendlyspace.svg">
  <defs
     id="defs9533" />
  <sodipodi:namedview
     id="base"
     pagecolor="#ffffff"
     bordercolor="#666666"
     borderopacity="1.0"
     inkscape:pageopacity="0.0"
     inkscape:pageshadow="2"
     inkscape:zoom="7"
     inkscape:cx="24"
     inkscape:cy="24"
     inkscape:current-layer="layer1"
     showgrid="true"
     inkscape:grid-bbox="true"
     inkscape:document-units="px"
     inkscape:window-width="699"
     inkscape:window-height="639"
     inkscape:window-x="10"
     inkscape:window-y="51"
     inkscape:window-maximized="0" />
  <metadata
     id="metadata9536">
    <rdf:RDF>
      <cc:Work
         rdf:about="">
        <dc:format>image/svg+xml</dc:format>
        <dc:type
           rdf:resource="http://purl.org/dc/dcmitype/StillImage" />
        <dc:title></dc:title>
      </cc:Work>
    </rdf:RDF>
  </metadata>
  <g
     id="layer1"
     inkscape:label="Layer 1"
     inkscape:groupmode="layer">
    <g
       id="g1724"
       transform="matrix(1.25,0,0,-1.25,30.219571,16.820822)">
      <path
         d="m 0,0 0.641,-1.812 -1.492,1.066 -1.597,-1.066 0.637,1.812 -1.596,1.063 1.916,0 0.64,1.812 0.638,-1.812 1.917,0 L 0,0 z m -0.106,-14.057 -10.01,0 0,4.897 10.01,0 0,-4.897 z m 1.49,9.797 C 1.065,-4.793 0.853,-5.219 0.746,-5.326 0.106,-6.07 -0.639,-6.711 -1.491,-7.137 -2.236,-7.563 -3.089,-7.881 -3.94,-7.881 c -0.852,-0.105 -1.704,0 -2.45,0.318 -0.851,0.213 -1.596,0.639 -2.236,1.172 -0.639,0.534 -1.171,1.172 -1.597,1.918 -0.427,0.85 -0.639,1.702 -0.745,2.555 0,0.854 0,1.705 0.318,2.449 0.214,0.852 0.639,1.491 1.172,2.237 0.533,0.638 1.171,1.17 2.024,1.597 1.172,0.641 2.449,0.852 4.047,0.641 L -5.537,4.473 C -6.176,4.045 -6.815,3.621 -7.241,2.979 -7.772,2.449 -8.093,1.811 -8.307,1.063 -8.519,0.426 -8.626,-0.32 -8.519,-1.064 c 0.106,-0.748 0.319,-1.493 0.64,-2.133 0.319,-0.744 0.851,-1.276 1.383,-1.809 0.532,-0.426 1.172,-0.746 1.917,-0.959 0.639,-0.213 1.385,-0.318 2.131,-0.318 0.745,0.105 1.383,0.318 2.129,0.637 l 1.703,1.386 z"
         style="fill:#ffffff;fill-opacity:1;fill-rule:nonzero;stroke:none"
         id="path1726"
         inkscape:connector-curvature="0" />
    </g>
    <g
       id="g2588"
       transform="matrix(1.25,0,0,-1.25,40.505357,34.759643)">
      <path
         d="m 0,0 c 0,-2.416 -1.954,-4.367 -4.364,-4.367 l -17.456,0 c -2.405,0 -4.36,1.951 -4.36,4.367 l 0,17.451 c 0,2.408 1.955,4.36 4.36,4.36 l 17.456,0 C -1.954,21.811 0,19.859 0,17.451 L 0,0 z"
         style="fill:#79a342;fill-opacity:1;fill-rule:nonzero;stroke:none"
         id="path2590"
         inkscape:connector-curvature="0" />
    </g>
    <g
       id="g2592"
       transform="matrix(1.25,0,0,-1.25,23.327727,15.689893)">
      <path
         d="m 0,0 c 0,-0.494 -0.418,-0.896 -0.938,-0.896 -0.362,0 -0.666,0.203 -0.822,0.492 -0.354,-0.293 -0.79,-0.492 -1.284,-0.492 -0.497,0 -0.93,0.199 -1.284,0.492 -0.156,-0.289 -0.461,-0.492 -0.823,-0.492 -0.52,0 -0.938,0.402 -0.938,0.896 0,0.492 0.418,0.895 0.938,0.895 0.04,0 0.075,-0.018 0.113,-0.022 -0.013,0.094 -0.056,0.18 -0.056,0.279 0,1.131 0.918,2.047 2.05,2.047 1.132,0 2.048,-0.916 2.048,-2.047 0,-0.099 -0.041,-0.185 -0.056,-0.279 0.039,0.004 0.074,0.022 0.114,0.022 C -0.418,0.895 0,0.492 0,0 M 8.503,-9.555 C 8.309,-9.639 8.082,-9.543 7.998,-9.35 l -0.803,3.354 -0.11,-3.566 -0.004,0 0.319,-5.891 c 0.021,-0.354 -0.244,-0.662 -0.597,-0.686 -0.016,-0.004 -0.032,-0.004 -0.048,-0.004 -0.335,0 -0.62,0.26 -0.639,0.6 l -0.733,5.559 -0.729,-5.559 c -0.025,-0.34 -0.308,-0.6 -0.643,-0.6 -0.015,0 -0.031,0 -0.048,0.004 -0.353,0.024 -0.619,0.332 -0.597,0.686 l 0.315,5.891 -0.108,3.566 c 0,0 -2.14,-2.158 -2.273,-2.217 -0.235,-0.099 -0.503,0.012 -0.603,0.244 l -1.739,3.785 1.319,-6.392 -1.273,0 -0.392,-5.231 c 0,-0.252 -0.207,-0.461 -0.457,-0.461 -0.259,0 -0.462,0.209 -0.462,0.461 l -0.39,5.231 -0.232,0 -0.231,0 -0.392,-5.231 c 0,-0.252 -0.204,-0.461 -0.462,-0.461 -0.25,0 -0.455,0.209 -0.455,0.461 l -0.394,5.231 -1.272,0 1.317,6.392 -1.737,-3.785 c -0.098,-0.232 -0.371,-0.343 -0.603,-0.244 -0.232,0.1 -0.34,0.367 -0.239,0.606 0,0 1.034,3.754 1.51,4.734 0.478,0.977 0.953,1.57 2.771,1.57 l 0.187,0 0.187,0 c 1.816,0 2.294,-0.593 2.769,-1.57 0.351,-0.715 0.993,-2.908 1.313,-4.039 0.463,0.631 1.091,1.521 1.33,2.016 0.404,0.828 1.026,1.324 2.558,1.324 l 0.311,0 c 1.531,0 2.152,-0.496 2.558,-1.324 C 8.5,-5.715 8.709,-9.049 8.709,-9.049 8.794,-9.248 8.699,-9.471 8.503,-9.555 M 5.387,0.26 c -0.955,0 -1.727,-0.772 -1.727,-1.723 0,-0.953 0.772,-1.724 1.727,-1.724 0.949,0 1.72,0.771 1.72,1.724 0,0.951 -0.771,1.723 -1.72,1.723"
         style="fill:#ffffff;fill-opacity:1;fill-rule:nonzero;stroke:none"
         id="path2594"
         inkscape:connector-curvature="0" />
    </g>
  </g>
</svg>
