<?xml version="1.0" encoding="UTF-8" standalone="no"?>
<!-- Created with Inkscape (http://www.inkscape.org/) -->

<svg
   xmlns:dc="http://purl.org/dc/elements/1.1/"
   xmlns:cc="http://creativecommons.org/ns#"
   xmlns:rdf="http://www.w3.org/1999/02/22-rdf-syntax-ns#"
   xmlns:svg="http://www.w3.org/2000/svg"
   xmlns="http://www.w3.org/2000/svg"
   xmlns:sodipodi="http://sodipodi.sourceforge.net/DTD/sodipodi-0.dtd"
   xmlns:inkscape="http://www.inkscape.org/namespaces/inkscape"
   width="48px"
   height="48px"
   id="svg9531"
   version="1.1"
   inkscape:version="0.48.4 r9939"
   sodipodi:docname="breaddistrib.svg">
  <defs
     id="defs9533" />
  <sodipodi:namedview
     id="base"
     pagecolor="#ffffff"
     bordercolor="#666666"
     borderopacity="1.0"
     inkscape:pageopacity="0.0"
     inkscape:pageshadow="2"
     inkscape:zoom="7"
     inkscape:cx="24"
     inkscape:cy="24"
     inkscape:current-layer="layer1"
     showgrid="true"
     inkscape:grid-bbox="true"
     inkscape:document-units="px"
     inkscape:window-width="699"
     inkscape:window-height="639"
     inkscape:window-x="10"
     inkscape:window-y="51"
     inkscape:window-maximized="0" />
  <metadata
     id="metadata9536">
    <rdf:RDF>
      <cc:Work
         rdf:about="">
        <dc:format>image/svg+xml</dc:format>
        <dc:type
           rdf:resource="http://purl.org/dc/dcmitype/StillImage" />
        <dc:title></dc:title>
      </cc:Work>
    </rdf:RDF>
  </metadata>
  <g
     id="layer1"
     inkscape:label="Layer 1"
     inkscape:groupmode="layer">
    <g
       id="g1724"
       transform="matrix(1.25,0,0,-1.25,30.219571,16.820822)">
      <path
         d="m 0,0 0.641,-1.812 -1.492,1.066 -1.597,-1.066 0.637,1.812 -1.596,1.063 1.916,0 0.64,1.812 0.638,-1.812 1.917,0 L 0,0 z m -0.106,-14.057 -10.01,0 0,4.897 10.01,0 0,-4.897 z m 1.49,9.797 C 1.065,-4.793 0.853,-5.219 0.746,-5.326 0.106,-6.07 -0.639,-6.711 -1.491,-7.137 -2.236,-7.563 -3.089,-7.881 -3.94,-7.881 c -0.852,-0.105 -1.704,0 -2.45,0.318 -0.851,0.213 -1.596,0.639 -2.236,1.172 -0.639,0.534 -1.171,1.172 -1.597,1.918 -0.427,0.85 -0.639,1.702 -0.745,2.555 0,0.854 0,1.705 0.318,2.449 0.214,0.852 0.639,1.491 1.172,2.237 0.533,0.638 1.171,1.17 2.024,1.597 1.172,0.641 2.449,0.852 4.047,0.641 L -5.537,4.473 C -6.176,4.045 -6.815,3.621 -7.241,2.979 -7.772,2.449 -8.093,1.811 -8.307,1.063 -8.519,0.426 -8.626,-0.32 -8.519,-1.064 c 0.106,-0.748 0.319,-1.493 0.64,-2.133 0.319,-0.744 0.851,-1.276 1.383,-1.809 0.532,-0.426 1.172,-0.746 1.917,-0.959 0.639,-0.213 1.385,-0.318 2.131,-0.318 0.745,0.105 1.383,0.318 2.129,0.637 l 1.703,1.386 z"
         style="fill:#ffffff;fill-opacity:1;fill-rule:nonzero;stroke:none"
         id="path1726"
         inkscape:connector-curvature="0" />
    </g>
    <g
       id="g2552"
       transform="matrix(1.25,0,0,-1.25,40.557946,34.750625)">
      <path
         d="m 0,0 c 0,-2.377 -1.928,-4.305 -4.302,-4.305 l -17.205,0 c -2.373,0 -4.3,1.928 -4.3,4.305 l 0,17.203 c 0,2.375 1.927,4.303 4.3,4.303 l 17.205,0 C -1.928,21.506 0,19.578 0,17.203 L 0,0 z"
         style="fill:#938480;fill-opacity:1;fill-rule:nonzero;stroke:none"
         id="path2554"
         inkscape:connector-curvature="0" />
    </g>
    <g
       id="g2556"
       transform="matrix(1.25,0,0,-1.25,13.354576,26.144735)">
      <path
         d="m 0,0 -0.023,-9.228 17.826,0 0,9.33 3.047,0 L 8.818,12.594 -3.193,0 0,0 z m 15.71,-1.689 c -0.122,-0.053 -0.265,0.005 -0.317,0.126 l -1.259,2.792 -0.07,-2.243 -0.002,0 0.199,-5.64 c 0.015,-0.225 -0.152,-0.416 -0.375,-0.432 -0.012,-0.002 -0.021,-0.002 -0.03,-0.002 -0.21,0 -0.389,0.162 -0.402,0.377 l -0.462,4.645 -0.458,-4.645 c -0.015,-0.215 -0.194,-0.377 -0.405,-0.377 -0.008,0 -0.018,0 -0.029,0.002 -0.223,0.016 -0.39,0.207 -0.375,0.432 l 0.199,5.64 -0.07,2.243 -1.262,-2.792 c -0.049,-0.121 -0.193,-0.179 -0.315,-0.126 -0.124,0.052 -0.18,0.193 -0.128,0.318 0,0 0.886,2.775 1.14,3.293 0.251,0.516 0.643,0.832 1.607,0.832 l 0.196,0 c 0.964,0 1.354,-0.316 1.607,-0.832 0.255,-0.518 1.142,-3.293 1.142,-3.293 0.053,-0.125 -0.006,-0.266 -0.131,-0.318 M 10.798,-1.998 C 10.771,-2.039 10.212,-2.91 9.88,-3.107 9.557,-3.301 9.553,-3.215 9.52,-3.5 L 9.48,-4.334 9.598,-6.768 c 0.006,-0.017 0,-0.134 -0.002,-0.14 -0.035,-0.104 -0.13,-0.18 -0.242,-0.18 -0.112,0 -0.204,0.07 -0.242,0.166 0,0.002 -0.286,1.981 -0.286,1.981 0,0 -0.285,-1.979 -0.285,-1.981 -0.036,-0.096 -0.13,-0.166 -0.238,-0.166 -0.115,0 -0.209,0.076 -0.242,0.18 -0.005,0.006 -0.011,0.123 -0.005,0.14 L 8.173,-4.334 8.136,-3.5 c -0.031,0.285 -0.038,0.199 -0.363,0.393 -0.328,0.197 -0.889,1.068 -0.917,1.109 -0.027,0.045 -0.078,0.121 -0.087,0.17 -0.018,0.086 0.04,0.17 0.127,0.187 0.067,0.012 0.12,-0.023 0.162,-0.07 0.043,-0.045 0.69,-0.906 1.172,-0.988 0.112,0.015 0.229,0.074 0.536,0.074 l 0.122,0 c 0.309,0 0.425,-0.059 0.534,-0.074 0.485,0.082 1.131,0.943 1.174,0.988 0.042,0.047 0.096,0.082 0.162,0.07 0.089,-0.017 0.145,-0.101 0.13,-0.187 -0.011,-0.049 -0.062,-0.125 -0.09,-0.17 M 5.682,-3.041 5.476,-6.846 c 0,-0.133 -0.109,-0.242 -0.242,-0.242 -0.134,0 -0.242,0.109 -0.242,0.242 l -0.223,3.805 -0.229,0 -0.209,-3.805 c 0,-0.133 -0.107,-0.242 -0.244,-0.242 -0.132,0 -0.241,0.109 -0.241,0.242 l -0.209,3.805 -0.673,0 0.698,4.268 -1.399,-2.791 c -0.055,-0.124 -0.198,-0.18 -0.32,-0.127 -0.124,0.05 -0.179,0.191 -0.128,0.316 0,0 1.028,2.777 1.282,3.295 C 3.35,2.436 3.6,2.752 4.562,2.752 l 0.198,0 C 5.724,2.752 5.971,2.436 6.226,1.92 6.481,1.402 7.506,-1.375 7.506,-1.375 7.561,-1.5 7.501,-1.641 7.378,-1.691 7.253,-1.744 7.112,-1.688 7.061,-1.564 l -1.4,2.791 0.694,-4.268 -0.673,0 z M 4.661,5.055 c 0.568,0 1.032,-0.461 1.032,-1.033 0,-0.569 -0.464,-1.028 -1.032,-1.028 -0.571,0 -1.034,0.459 -1.034,1.028 0,0.572 0.463,1.033 1.034,1.033 m 4.165,-6.27 c 0.35,0 0.634,-0.281 0.634,-0.629 0,-0.351 -0.284,-0.634 -0.634,-0.634 -0.348,0 -0.633,0.283 -0.633,0.634 0,0.348 0.285,0.629 0.633,0.629 m 4.168,6.272 c 0.57,0 1.031,-0.461 1.031,-1.032 0,-0.568 -0.461,-1.031 -1.031,-1.031 -0.569,0 -1.032,0.463 -1.032,1.031 0,0.571 0.463,1.032 1.032,1.032"
         style="fill:#ffffff;fill-opacity:1;fill-rule:nonzero;stroke:none"
         id="path2558"
         inkscape:connector-curvature="0" />
    </g>
  </g>
</svg>
