<?xml version="1.0" encoding="UTF-8" standalone="no"?>
<!-- Created with Inkscape (http://www.inkscape.org/) -->

<svg
   xmlns:dc="http://purl.org/dc/elements/1.1/"
   xmlns:cc="http://creativecommons.org/ns#"
   xmlns:rdf="http://www.w3.org/1999/02/22-rdf-syntax-ns#"
   xmlns:svg="http://www.w3.org/2000/svg"
   xmlns="http://www.w3.org/2000/svg"
   xmlns:sodipodi="http://sodipodi.sourceforge.net/DTD/sodipodi-0.dtd"
   xmlns:inkscape="http://www.inkscape.org/namespaces/inkscape"
   width="48px"
   height="48px"
   id="svg9531"
   version="1.1"
   inkscape:version="0.48.4 r9939"
   sodipodi:docname="srad.svg">
  <defs
     id="defs9533" />
  <sodipodi:namedview
     id="base"
     pagecolor="#ffffff"
     bordercolor="#666666"
     borderopacity="1.0"
     inkscape:pageopacity="0.0"
     inkscape:pageshadow="2"
     inkscape:zoom="7"
     inkscape:cx="24"
     inkscape:cy="24"
     inkscape:current-layer="layer1"
     showgrid="true"
     inkscape:grid-bbox="true"
     inkscape:document-units="px"
     inkscape:window-width="699"
     inkscape:window-height="639"
     inkscape:window-x="490"
     inkscape:window-y="146"
     inkscape:window-maximized="0" />
  <metadata
     id="metadata9536">
    <rdf:RDF>
      <cc:Work
         rdf:about="">
        <dc:format>image/svg+xml</dc:format>
        <dc:type
           rdf:resource="http://purl.org/dc/dcmitype/StillImage" />
        <dc:title></dc:title>
      </cc:Work>
    </rdf:RDF>
  </metadata>
  <g
     id="layer1"
     inkscape:label="Layer 1"
     inkscape:groupmode="layer">
    <g
       id="g1436"
       transform="matrix(1.25,0,0,-1.25,41.333928,35.318483)">
      <path
         d="m 0,0 c 0,-2.473 -2.004,-4.471 -4.473,-4.471 l -17.879,0 c -2.467,0 -4.468,1.998 -4.468,4.471 l 0,17.881 c 0,2.471 2.001,4.471 4.468,4.471 l 17.879,0 c 2.469,0 4.473,-2 4.473,-4.471 L 0,0 z"
         style="fill:#262262;fill-opacity:1;fill-rule:nonzero;stroke:none"
         id="path1438"
         inkscape:connector-curvature="0" />
    </g>
    <g
       id="g1440"
       transform="matrix(1.25,0,0,-1.25,32.078553,16.522103)">
      <path
         d="M 0,0 C 0,-1.984 -0.327,-4.701 -3.594,-4.701 -6.765,-4.701 -7.18,-1.984 -7.18,0 L 0,0 z"
         style="fill:#ffffff;fill-opacity:1;fill-rule:nonzero;stroke:none"
         id="path1442"
         inkscape:connector-curvature="0" />
    </g>
    <g
       id="g1444"
       transform="matrix(1.25,0,0,-1.25,23.103928,15.940973)">
      <path
         d="M 0,0 7.18,0 7.548,2.396 3.586,3.691 -0.415,2.396 0,0 z"
         style="fill:#ffffff;fill-opacity:1;fill-rule:nonzero;stroke:none"
         id="path1446"
         inkscape:connector-curvature="0" />
    </g>
    <g
       id="g1448"
       transform="matrix(1.25,0,0,-1.25,31.329053,24.136853)">
      <path
         d="m 0,0 -5.96,0 -7.745,-8.084 c -1.322,-1.473 0.534,-2.986 1.783,-1.623 l 4.927,4.891 0.067,-5.373 1.475,0 L 0,0 z"
         style="fill:#ffffff;fill-opacity:1;fill-rule:nonzero;stroke:none"
         id="path1450"
         inkscape:connector-curvature="0" />
    </g>
    <g
       id="g1452"
       transform="matrix(1.25,0,0,-1.25,25.614928,36.878473)">
      <path
         d="m 0,0 5.263,9.408 c 0,0 0.883,0.182 1.06,-0.162 L 7.892,1.254 C 8.192,-0.307 6.21,-0.563 5.881,0.9 5.774,1.4 5.38,4.422 5.38,4.422 5.313,4.656 5.007,4.516 5.032,4.355 L 5.054,0.004 0,0 z"
         style="fill:#ffffff;fill-opacity:1;fill-rule:nonzero;stroke:none"
         id="path1454"
         inkscape:connector-curvature="0" />
    </g>
  </g>
</svg>
