<?xml version="1.0" encoding="UTF-8" standalone="no"?>
<!-- Created with Inkscape (http://www.inkscape.org/) -->

<svg
   xmlns:dc="http://purl.org/dc/elements/1.1/"
   xmlns:cc="http://creativecommons.org/ns#"
   xmlns:rdf="http://www.w3.org/1999/02/22-rdf-syntax-ns#"
   xmlns:svg="http://www.w3.org/2000/svg"
   xmlns="http://www.w3.org/2000/svg"
   xmlns:sodipodi="http://sodipodi.sourceforge.net/DTD/sodipodi-0.dtd"
   xmlns:inkscape="http://www.inkscape.org/namespaces/inkscape"
   width="48px"
   height="48px"
   id="svg9531"
   version="1.1"
   inkscape:version="0.48.4 r9939"
   sodipodi:docname="cemetary.svg">
  <defs
     id="defs9533" />
  <sodipodi:namedview
     id="base"
     pagecolor="#ffffff"
     bordercolor="#666666"
     borderopacity="1.0"
     inkscape:pageopacity="0.0"
     inkscape:pageshadow="2"
     inkscape:zoom="7"
     inkscape:cx="24"
     inkscape:cy="24"
     inkscape:current-layer="layer1"
     showgrid="true"
     inkscape:grid-bbox="true"
     inkscape:document-units="px"
     inkscape:window-width="699"
     inkscape:window-height="639"
     inkscape:window-x="10"
     inkscape:window-y="51"
     inkscape:window-maximized="0" />
  <metadata
     id="metadata9536">
    <rdf:RDF>
      <cc:Work
         rdf:about="">
        <dc:format>image/svg+xml</dc:format>
        <dc:type
           rdf:resource="http://purl.org/dc/dcmitype/StillImage" />
        <dc:title></dc:title>
      </cc:Work>
    </rdf:RDF>
  </metadata>
  <g
     id="layer1"
     inkscape:label="Layer 1"
     inkscape:groupmode="layer">
    <g
       id="g1724"
       transform="matrix(1.25,0,0,-1.25,30.219571,16.820822)">
      <path
         d="m 0,0 0.641,-1.812 -1.492,1.066 -1.597,-1.066 0.637,1.812 -1.596,1.063 1.916,0 0.64,1.812 0.638,-1.812 1.917,0 L 0,0 z m -0.106,-14.057 -10.01,0 0,4.897 10.01,0 0,-4.897 z m 1.49,9.797 C 1.065,-4.793 0.853,-5.219 0.746,-5.326 0.106,-6.07 -0.639,-6.711 -1.491,-7.137 -2.236,-7.563 -3.089,-7.881 -3.94,-7.881 c -0.852,-0.105 -1.704,0 -2.45,0.318 -0.851,0.213 -1.596,0.639 -2.236,1.172 -0.639,0.534 -1.171,1.172 -1.597,1.918 -0.427,0.85 -0.639,1.702 -0.745,2.555 0,0.854 0,1.705 0.318,2.449 0.214,0.852 0.639,1.491 1.172,2.237 0.533,0.638 1.171,1.17 2.024,1.597 1.172,0.641 2.449,0.852 4.047,0.641 L -5.537,4.473 C -6.176,4.045 -6.815,3.621 -7.241,2.979 -7.772,2.449 -8.093,1.811 -8.307,1.063 -8.519,0.426 -8.626,-0.32 -8.519,-1.064 c 0.106,-0.748 0.319,-1.493 0.64,-2.133 0.319,-0.744 0.851,-1.276 1.383,-1.809 0.532,-0.426 1.172,-0.746 1.917,-0.959 0.639,-0.213 1.385,-0.318 2.131,-0.318 0.745,0.105 1.383,0.318 2.129,0.637 l 1.703,1.386 z"
         style="fill:#ffffff;fill-opacity:1;fill-rule:nonzero;stroke:none"
         id="path1726"
         inkscape:connector-curvature="0" />
    </g>
    <g
       id="g2560"
       transform="matrix(1.25,0,0,-1.25,40.889465,34.214732)">
      <path
         d="m 0,0 c 0,-2.445 -1.986,-4.424 -4.433,-4.424 l -17.709,0 c -2.442,0 -4.424,1.979 -4.424,4.424 l 0,17.711 c 0,2.445 1.982,4.428 4.424,4.428 l 17.709,0 C -1.986,22.139 0,20.156 0,17.711 L 0,0 z"
         style="fill:#0079c1;fill-opacity:1;fill-rule:nonzero;stroke:none"
         id="path2562"
         inkscape:connector-curvature="0" />
    </g>
    <path
       d="m 37.710835,28.013982 -25.0525,0 0,-12.0025 25.0525,0 0,12.0025 z"
       style="fill:#d1d3d4;fill-opacity:1;fill-rule:nonzero;stroke:none"
       id="path2564"
       inkscape:connector-curvature="0" />
    <g
       id="g2566"
       transform="matrix(1.25,0,0,-1.25,30.824705,25.471982)">
      <path
         d="M 0,0 C 0,0 -0.18,-0.586 0.369,-0.705 L 2.376,-1.139 C 3.067,-1.287 3.15,-0.594 3.15,-0.594 L 3.618,1.572 0.486,2.25 0,0 z m 3.455,5.217 0.123,0.56 0.121,-0.025 c 0.113,-0.023 0.224,0.06 0.249,0.182 l 0.034,0.15 C 4.01,6.209 3.942,6.33 3.83,6.354 L 2.27,6.691 C 2.157,6.717 2.046,6.635 2.019,6.51 L 1.985,6.357 C 1.959,6.234 2.026,6.113 2.139,6.09 L 2.271,6.062 2.15,5.498 C 1.844,5.42 1.572,5.258 1.346,5.012 1.251,4.908 1.179,4.795 1.111,4.678 L 4.073,4.035 C 4.048,4.508 3.848,4.902 3.455,5.217 M 0.595,2.748 3.726,2.07 3.829,2.547 0.697,3.225 0.595,2.748 z m 0.32,1.449 3.12,-0.672 C 4.028,3.504 4.031,3.486 4.028,3.465 L 3.937,3.045 0.805,3.723 0.896,4.143 C 0.899,4.16 0.911,4.178 0.915,4.197"
         style="fill:#026cb6;fill-opacity:1;fill-rule:nonzero;stroke:none"
         id="path2568"
         inkscape:connector-curvature="0" />
    </g>
    <path
       d="m 35.357085,35.145232 -25.05125,0 0,-12.0025 25.05125,0 0,12.0025 z"
       style="fill:#ffffff;fill-opacity:1;fill-rule:nonzero;stroke:none"
       id="path2570"
       inkscape:connector-curvature="0" />
    <g
       id="g2572"
       transform="matrix(1.25,0,0,-1.25,20.816205,27.288482)">
      <path
         d="M 0,0 C 0.786,-0.367 0.736,1.697 0.736,1.697 0.563,1.584 -0.785,0.365 0,0 m -0.036,-0.99 c 0.742,-0.344 1.655,1.125 1.649,1.347 0,0 -0.177,-0.535 -1.039,-0.523 -0.965,0.01 -0.942,-0.67 -0.61,-0.824 m -0.495,-1.069 c 0.74,-0.343 1.654,1.127 1.648,1.346 0,0 -0.177,-0.531 -1.039,-0.521 -0.966,0.009 -0.943,-0.67 -0.609,-0.825 m -1.037,-2.228 c 0.74,-0.344 1.655,1.125 1.65,1.346 0,0 -0.178,-0.534 -1.039,-0.524 -0.966,0.01 -0.943,-0.668 -0.611,-0.822 m -0.565,1.367 c -0.56,0.652 -0.269,1.133 -0.269,1.133 -0.172,-0.137 -0.705,-1.785 0.036,-2.129 0.333,-0.154 0.866,0.266 0.233,0.996 m 1.09,-0.24 c 0.74,-0.344 1.655,1.125 1.647,1.347 0,0 -0.177,-0.533 -1.038,-0.525 -0.964,0.012 -0.942,-0.666 -0.609,-0.822 m 0.442,3.539 c -0.563,0.648 -0.268,1.131 -0.268,1.131 -0.174,-0.137 -0.706,-1.785 0.036,-2.129 0.33,-0.154 0.864,0.265 0.232,0.998 m -0.497,-1.067 c -0.56,0.651 -0.268,1.129 -0.268,1.129 -0.173,-0.136 -0.706,-1.783 0.035,-2.129 0.333,-0.154 0.867,0.266 0.233,1 m -0.51,-1.103 c -0.562,0.652 -0.27,1.133 -0.27,1.133 -0.171,-0.137 -0.704,-1.787 0.035,-2.131 0.332,-0.154 0.867,0.268 0.235,0.998 m -0.71,-3.508 0.523,0.918 c 0.041,0.088 -0.11,0.063 -0.254,0.129 -0.144,0.065 -0.223,0.199 -0.264,0.109 L -2.67,-5.164 c -0.045,-0.1 0.255,-0.342 0.352,-0.135 m -2.346,5.951 c 0.868,0 -0.047,1.852 -0.047,1.852 C -4.822,2.33 -5.53,0.652 -4.664,0.652 m 0.383,-0.91 c 0.818,0 1.027,1.717 0.93,1.914 0,0 0.063,-0.558 -0.723,-0.912 -0.88,-0.396 -0.573,-1.002 -0.207,-1.002 m 0,-1.18 c 0.818,0 1.027,1.721 0.93,1.917 0,0 0.063,-0.557 -0.723,-0.911 -0.88,-0.398 -0.573,-1.006 -0.207,-1.006 m 0,-2.458 c 0.818,0 1.027,1.722 0.93,1.917 0,0 0.063,-0.558 -0.723,-0.912 -0.88,-0.396 -0.573,-1.005 -0.207,-1.005 m -1.088,1.005 c -0.784,0.354 -0.721,0.912 -0.721,0.912 -0.098,-0.195 0.111,-1.917 0.93,-1.917 0.366,0 0.673,0.609 -0.209,1.005 m 1.088,0.241 c 0.818,0 1.027,1.718 0.93,1.916 0,0 0.063,-0.559 -0.723,-0.912 -0.88,-0.397 -0.573,-1.004 -0.207,-1.004 m -1.088,3.394 c -0.784,0.354 -0.721,0.912 -0.721,0.912 -0.098,-0.197 0.111,-1.914 0.93,-1.914 0.366,0 0.673,0.606 -0.209,1.002 m 0,-1.176 c -0.784,0.354 -0.721,0.911 -0.721,0.911 -0.098,-0.196 0.111,-1.917 0.93,-1.917 0.366,0 0.673,0.608 -0.209,1.006 m 0,-1.214 c -0.784,0.353 -0.721,0.912 -0.721,0.912 -0.098,-0.198 0.111,-1.916 0.93,-1.916 0.366,0 0.673,0.607 -0.209,1.004 m 0.459,-3.508 -0.107,1.078 c 0,0.099 0.126,0.012 0.286,0.012 0.157,0 0.285,0.087 0.285,-0.012 l -0.09,-1.051 c 0,-0.228 -0.374,-0.137 -0.374,-0.027"
         style="fill:#026cb6;fill-opacity:1;fill-rule:nonzero;stroke:none"
         id="path2574"
         inkscape:connector-curvature="0" />
    </g>
    <g
       id="g2576"
       transform="matrix(1.25,0,0,-1.25,25.185085,26.609732)">
      <path
         d="M 0,0 6.313,0"
         style="fill:none;stroke:#0079c1;stroke-width:0.5;stroke-linecap:butt;stroke-linejoin:miter;stroke-miterlimit:10;stroke-opacity:1;stroke-dasharray:none"
         id="path2578"
         inkscape:connector-curvature="0" />
    </g>
    <g
       id="g2580"
       transform="matrix(1.25,0,0,-1.25,25.185085,29.143862)">
      <path
         d="M 0,0 6.313,0"
         style="fill:none;stroke:#0079c1;stroke-width:0.5;stroke-linecap:butt;stroke-linejoin:miter;stroke-miterlimit:10;stroke-opacity:1;stroke-dasharray:none"
         id="path2582"
         inkscape:connector-curvature="0" />
    </g>
    <g
       id="g2584"
       transform="matrix(1.25,0,0,-1.25,25.185085,31.678102)">
      <path
         d="M 0,0 6.313,0"
         style="fill:none;stroke:#0079c1;stroke-width:0.5;stroke-linecap:butt;stroke-linejoin:miter;stroke-miterlimit:10;stroke-opacity:1;stroke-dasharray:none"
         id="path2586"
         inkscape:connector-curvature="0" />
    </g>
  </g>
</svg>
