<?xml version="1.0" encoding="UTF-8" standalone="no"?>
<!-- Created with Inkscape (http://www.inkscape.org/) -->

<svg
   xmlns:dc="http://purl.org/dc/elements/1.1/"
   xmlns:cc="http://creativecommons.org/ns#"
   xmlns:rdf="http://www.w3.org/1999/02/22-rdf-syntax-ns#"
   xmlns:svg="http://www.w3.org/2000/svg"
   xmlns="http://www.w3.org/2000/svg"
   xmlns:sodipodi="http://sodipodi.sourceforge.net/DTD/sodipodi-0.dtd"
   xmlns:inkscape="http://www.inkscape.org/namespaces/inkscape"
   width="48px"
   height="48px"
   id="svg9531"
   version="1.1"
   inkscape:version="0.48.4 r9939"
   sodipodi:docname="healthpost.svg">
  <defs
     id="defs9533" />
  <sodipodi:namedview
     id="base"
     pagecolor="#ffffff"
     bordercolor="#666666"
     borderopacity="1.0"
     inkscape:pageopacity="0.0"
     inkscape:pageshadow="2"
     inkscape:zoom="7"
     inkscape:cx="24"
     inkscape:cy="24"
     inkscape:current-layer="layer1"
     showgrid="true"
     inkscape:grid-bbox="true"
     inkscape:document-units="px"
     inkscape:window-width="699"
     inkscape:window-height="639"
     inkscape:window-x="490"
     inkscape:window-y="146"
     inkscape:window-maximized="0" />
  <metadata
     id="metadata9536">
    <rdf:RDF>
      <cc:Work
         rdf:about="">
        <dc:format>image/svg+xml</dc:format>
        <dc:type
           rdf:resource="http://purl.org/dc/dcmitype/StillImage" />
        <dc:title></dc:title>
      </cc:Work>
    </rdf:RDF>
  </metadata>
  <g
     id="layer1"
     inkscape:label="Layer 1"
     inkscape:groupmode="layer">
    <g
       id="g1724"
       transform="matrix(1.25,0,0,-1.25,30.219571,16.820822)">
      <path
         d="m 0,0 0.641,-1.812 -1.492,1.066 -1.597,-1.066 0.637,1.812 -1.596,1.063 1.916,0 0.64,1.812 0.638,-1.812 1.917,0 L 0,0 z m -0.106,-14.057 -10.01,0 0,4.897 10.01,0 0,-4.897 z m 1.49,9.797 C 1.065,-4.793 0.853,-5.219 0.746,-5.326 0.106,-6.07 -0.639,-6.711 -1.491,-7.137 -2.236,-7.563 -3.089,-7.881 -3.94,-7.881 c -0.852,-0.105 -1.704,0 -2.45,0.318 -0.851,0.213 -1.596,0.639 -2.236,1.172 -0.639,0.534 -1.171,1.172 -1.597,1.918 -0.427,0.85 -0.639,1.702 -0.745,2.555 0,0.854 0,1.705 0.318,2.449 0.214,0.852 0.639,1.491 1.172,2.237 0.533,0.638 1.171,1.17 2.024,1.597 1.172,0.641 2.449,0.852 4.047,0.641 L -5.537,4.473 C -6.176,4.045 -6.815,3.621 -7.241,2.979 -7.772,2.449 -8.093,1.811 -8.307,1.063 -8.519,0.426 -8.626,-0.32 -8.519,-1.064 c 0.106,-0.748 0.319,-1.493 0.64,-2.133 0.319,-0.744 0.851,-1.276 1.383,-1.809 0.532,-0.426 1.172,-0.746 1.917,-0.959 0.639,-0.213 1.385,-0.318 2.131,-0.318 0.745,0.105 1.383,0.318 2.129,0.637 l 1.703,1.386 z"
         style="fill:#ffffff;fill-opacity:1;fill-rule:nonzero;stroke:none"
         id="path1726"
         inkscape:connector-curvature="0" />
    </g>
    <path
       d="m 40.944822,34.726161 c 0,3.04 -2.465,5.505 -5.5,5.505 l -22.0275,0 c -3.0375,0 -5.5050003,-2.465 -5.5050003,-5.505 l 0,-22.02625 c 0,-3.0374999 2.4675003,-5.5024999 5.5050003,-5.5024999 l 22.0275,0 c 3.035,0 5.5,2.465 5.5,5.5024999 l 0,22.02625 z"
       style="fill:#00a79e;fill-opacity:1;fill-rule:nonzero;stroke:none"
       id="path1884"
       inkscape:connector-curvature="0" />
    <g
       id="g1886"
       transform="matrix(1.25,0,0,-1.25,21.043697,13.820411)">
      <path
         d="m 0,0 c 0.578,0.219 0.445,1.598 0.445,1.598 0,1.052 0.854,1.904 1.908,1.904 1.049,0 1.905,-0.852 1.905,-1.904 0,-1.055 -0.856,-1.909 -1.905,-1.909 -0.355,0 -0.667,0.125 -0.95,0.29 C 0.616,-0.078 -0.358,-0.135 0,0"
         style="fill:#ffffff;fill-opacity:1;fill-rule:nonzero;stroke:none"
         id="path1888"
         inkscape:connector-curvature="0" />
    </g>
    <g
       id="g1890"
       transform="matrix(1.25,0,0,-1.25,28.231197,25.444031)">
      <path
         d="m 0,0 c 0.014,-1.398 -0.054,-2.408 -0.054,-2.408 l -2.418,0 -0.39,-7.164 c 0,-0.25 -0.202,-0.459 -0.46,-0.459 -0.249,0 -0.454,0.209 -0.454,0.459 l -0.392,7.164 -1.001,0 0.647,8.037 -1.353,-5.662 c -0.065,-0.28 -0.317,-0.473 -0.596,-0.473 -0.043,0 -0.09,0.006 -0.137,0.016 -0.328,0.076 -0.533,0.404 -0.457,0.732 0,0 1,5.715 1.476,6.688 l 0,0.004 0.001,0 c 0.475,0.976 0.542,1.564 2.294,1.564 1.295,0 2.084,-1.144 2.569,-2.687 C 0.704,5.543 1.787,4.295 1.787,2.789 1.787,1.551 1.055,0.49 0,0"
         style="fill:#ffffff;fill-opacity:1;fill-rule:nonzero;stroke:none"
         id="path1892"
         inkscape:connector-curvature="0" />
    </g>
  </g>
</svg>
