<?xml version="1.0" encoding="UTF-8" standalone="no"?>
<!-- Created with Inkscape (http://www.inkscape.org/) -->

<svg
   xmlns:dc="http://purl.org/dc/elements/1.1/"
   xmlns:cc="http://creativecommons.org/ns#"
   xmlns:rdf="http://www.w3.org/1999/02/22-rdf-syntax-ns#"
   xmlns:svg="http://www.w3.org/2000/svg"
   xmlns="http://www.w3.org/2000/svg"
   xmlns:sodipodi="http://sodipodi.sourceforge.net/DTD/sodipodi-0.dtd"
   xmlns:inkscape="http://www.inkscape.org/namespaces/inkscape"
   width="48px"
   height="48px"
   id="svg9531"
   version="1.1"
   inkscape:version="0.48.4 r9939"
   sodipodi:docname="informaleducation.svg">
  <defs
     id="defs9533" />
  <sodipodi:namedview
     id="base"
     pagecolor="#ffffff"
     bordercolor="#666666"
     borderopacity="1.0"
     inkscape:pageopacity="0.0"
     inkscape:pageshadow="2"
     inkscape:zoom="7"
     inkscape:cx="24"
     inkscape:cy="24"
     inkscape:current-layer="layer1"
     showgrid="true"
     inkscape:grid-bbox="true"
     inkscape:document-units="px"
     inkscape:window-width="699"
     inkscape:window-height="639"
     inkscape:window-x="490"
     inkscape:window-y="146"
     inkscape:window-maximized="0" />
  <metadata
     id="metadata9536">
    <rdf:RDF>
      <cc:Work
         rdf:about="">
        <dc:format>image/svg+xml</dc:format>
        <dc:type
           rdf:resource="http://purl.org/dc/dcmitype/StillImage" />
        <dc:title></dc:title>
      </cc:Work>
    </rdf:RDF>
  </metadata>
  <g
     id="layer1"
     inkscape:label="Layer 1"
     inkscape:groupmode="layer">
    <g
       id="g1724"
       transform="matrix(1.25,0,0,-1.25,30.219571,16.820822)">
      <path
         d="m 0,0 0.641,-1.812 -1.492,1.066 -1.597,-1.066 0.637,1.812 -1.596,1.063 1.916,0 0.64,1.812 0.638,-1.812 1.917,0 L 0,0 z m -0.106,-14.057 -10.01,0 0,4.897 10.01,0 0,-4.897 z m 1.49,9.797 C 1.065,-4.793 0.853,-5.219 0.746,-5.326 0.106,-6.07 -0.639,-6.711 -1.491,-7.137 -2.236,-7.563 -3.089,-7.881 -3.94,-7.881 c -0.852,-0.105 -1.704,0 -2.45,0.318 -0.851,0.213 -1.596,0.639 -2.236,1.172 -0.639,0.534 -1.171,1.172 -1.597,1.918 -0.427,0.85 -0.639,1.702 -0.745,2.555 0,0.854 0,1.705 0.318,2.449 0.214,0.852 0.639,1.491 1.172,2.237 0.533,0.638 1.171,1.17 2.024,1.597 1.172,0.641 2.449,0.852 4.047,0.641 L -5.537,4.473 C -6.176,4.045 -6.815,3.621 -7.241,2.979 -7.772,2.449 -8.093,1.811 -8.307,1.063 -8.519,0.426 -8.626,-0.32 -8.519,-1.064 c 0.106,-0.748 0.319,-1.493 0.64,-2.133 0.319,-0.744 0.851,-1.276 1.383,-1.809 0.532,-0.426 1.172,-0.746 1.917,-0.959 0.639,-0.213 1.385,-0.318 2.131,-0.318 0.745,0.105 1.383,0.318 2.129,0.637 l 1.703,1.386 z"
         style="fill:#ffffff;fill-opacity:1;fill-rule:nonzero;stroke:none"
         id="path1726"
         inkscape:connector-curvature="0" />
    </g>
    <g
       id="g1740"
       transform="matrix(1.25,0,0,-1.25,42.087053,34.869018)">
      <path
         d="m 0,0 c 0,-2.432 -1.97,-4.404 -4.399,-4.404 l -17.622,0 c -2.429,0 -4.404,1.972 -4.404,4.404 l 0,17.621 c 0,2.43 1.975,4.402 4.404,4.402 l 17.622,0 C -1.97,22.023 0,20.051 0,17.621 L 0,0 z"
         style="fill:#00a79e;fill-opacity:1;fill-rule:nonzero;stroke:none"
         id="path1742"
         inkscape:connector-curvature="0" />
    </g>
    <g
       id="g1744"
       transform="matrix(1.25,0,0,-1.25,26.042053,26.499888)">
      <path
         d="M 0,0 0,-1.416 C 0.615,-1.002 1.372,-0.709 0,0 m -0.904,-1.242 0,1.242 c -1.023,-0.061 -0.503,-0.857 0,-1.242 m 1.06,4.375 0,-1.932 c 1.273,0.276 2.587,1.725 0,1.932 m -1.196,-1.932 0,1.932 c -2.523,-0.207 -1.24,-1.656 0,-1.932 M 2.616,5.57 C 1.532,5.535 0.977,5.535 0.704,5.887 c -0.389,0.431 -0.428,0.24 -0.548,0 l 0,-1.85 c 3.1,0 3.083,1.301 2.46,1.533 m -3.656,-1.533 0,1.85 c -0.113,0.24 -0.149,0.431 -0.539,0 C -1.851,5.535 -2.409,5.535 -3.491,5.57 -4.11,5.338 -4.129,4.037 -1.04,4.037 m -10.757,5.512 c 0.276,0.234 2.222,-0.115 3.586,0.392 1.565,0.395 3.358,1.106 3.787,1.538 0.741,0.429 1.91,-0.393 1.91,-0.967 0,-0.729 -0.158,-2.147 1.361,-2.299 0.043,0.627 0,1.537 0,1.537 -0.389,0.469 -1.127,1.533 0.512,2.363 1.242,0.153 1.595,-1.105 1.44,-1.5 C 0.644,10.219 0.405,9.75 0.215,9.707 c 0,-0.592 0.034,-1.494 0.034,-1.494 0.63,0.078 1.019,0 1.367,0.824 0.041,0.83 -0.078,1.26 0.275,1.656 C 2.283,11.127 2.593,11.988 3.84,11.4 5.206,10.57 7.582,9.51 10.426,9.707 10.973,9.67 11.951,9.391 9.139,8.447 9.18,8.092 9.222,7.775 7.702,7.543 7.702,7.227 7.231,6.992 6.063,6.992 5.865,6.674 5.555,6.357 4.736,6.516 4.54,6.283 4.701,6.084 3.489,6.006 3.84,5.377 4.701,4.234 2.316,3.447 2.633,2.701 3.216,1.318 1.111,0.707 1.576,-0.018 2.668,-1.084 0.449,-2.066 c 0.35,-0.983 0.43,-1.299 0.038,-1.932 0.274,-0.629 0.354,-1.219 -0.547,-1.811 0.309,-0.394 0.465,-0.548 0.118,-0.826 0.157,-0.396 0.191,-0.826 -0.269,-1.025 0.076,-0.233 -0.589,-0.51 -0.514,0.353 -0.428,0.514 -0.582,0.83 -0.343,1.221 -0.277,0.316 -0.749,0.986 0,1.695 -0.474,0.592 -1.017,1.143 -0.042,2.207 -1.135,0.788 -2.104,1.416 -0.937,2.676 -0.974,0.826 -2.063,1.656 -0.82,2.955 -1.13,0.432 -2.809,1.104 -1.207,2.559 C -4.742,6.127 -4.931,5.887 -5.479,6.516 -6.103,6.479 -6.646,6.4 -6.726,7.027 -7.621,6.912 -8.675,7.148 -8.478,7.543 c -0.587,0.041 -1.64,0.353 -1.445,0.904 -0.468,0.116 -1.909,0.668 -1.874,1.102"
         style="fill:#ffffff;fill-opacity:1;fill-rule:nonzero;stroke:none"
         id="path1746"
         inkscape:connector-curvature="0" />
    </g>
  </g>
</svg>
