<?xml version="1.0" encoding="UTF-8" standalone="no"?>
<!-- Created with Inkscape (http://www.inkscape.org/) -->

<svg
   xmlns:dc="http://purl.org/dc/elements/1.1/"
   xmlns:cc="http://creativecommons.org/ns#"
   xmlns:rdf="http://www.w3.org/1999/02/22-rdf-syntax-ns#"
   xmlns:svg="http://www.w3.org/2000/svg"
   xmlns="http://www.w3.org/2000/svg"
   xmlns:sodipodi="http://sodipodi.sourceforge.net/DTD/sodipodi-0.dtd"
   xmlns:inkscape="http://www.inkscape.org/namespaces/inkscape"
   width="48px"
   height="48px"
   id="svg9531"
   version="1.1"
   inkscape:version="0.48.4 r9939"
   sodipodi:docname="registration.svg">
  <defs
     id="defs9533" />
  <sodipodi:namedview
     id="base"
     pagecolor="#ffffff"
     bordercolor="#666666"
     borderopacity="1.0"
     inkscape:pageopacity="0.0"
     inkscape:pageshadow="2"
     inkscape:zoom="7"
     inkscape:cx="24"
     inkscape:cy="24"
     inkscape:current-layer="layer1"
     showgrid="true"
     inkscape:grid-bbox="true"
     inkscape:document-units="px"
     inkscape:window-width="699"
     inkscape:window-height="639"
     inkscape:window-x="10"
     inkscape:window-y="51"
     inkscape:window-maximized="0" />
  <metadata
     id="metadata9536">
    <rdf:RDF>
      <cc:Work
         rdf:about="">
        <dc:format>image/svg+xml</dc:format>
        <dc:type
           rdf:resource="http://purl.org/dc/dcmitype/StillImage" />
        <dc:title></dc:title>
      </cc:Work>
    </rdf:RDF>
  </metadata>
  <g
     id="layer1"
     inkscape:label="Layer 1"
     inkscape:groupmode="layer">
    <g
       id="g1724"
       transform="matrix(1.25,0,0,-1.25,30.219571,16.820822)">
      <path
         d="m 0,0 0.641,-1.812 -1.492,1.066 -1.597,-1.066 0.637,1.812 -1.596,1.063 1.916,0 0.64,1.812 0.638,-1.812 1.917,0 L 0,0 z m -0.106,-14.057 -10.01,0 0,4.897 10.01,0 0,-4.897 z m 1.49,9.797 C 1.065,-4.793 0.853,-5.219 0.746,-5.326 0.106,-6.07 -0.639,-6.711 -1.491,-7.137 -2.236,-7.563 -3.089,-7.881 -3.94,-7.881 c -0.852,-0.105 -1.704,0 -2.45,0.318 -0.851,0.213 -1.596,0.639 -2.236,1.172 -0.639,0.534 -1.171,1.172 -1.597,1.918 -0.427,0.85 -0.639,1.702 -0.745,2.555 0,0.854 0,1.705 0.318,2.449 0.214,0.852 0.639,1.491 1.172,2.237 0.533,0.638 1.171,1.17 2.024,1.597 1.172,0.641 2.449,0.852 4.047,0.641 L -5.537,4.473 C -6.176,4.045 -6.815,3.621 -7.241,2.979 -7.772,2.449 -8.093,1.811 -8.307,1.063 -8.519,0.426 -8.626,-0.32 -8.519,-1.064 c 0.106,-0.748 0.319,-1.493 0.64,-2.133 0.319,-0.744 0.851,-1.276 1.383,-1.809 0.532,-0.426 1.172,-0.746 1.917,-0.959 0.639,-0.213 1.385,-0.318 2.131,-0.318 0.745,0.105 1.383,0.318 2.129,0.637 l 1.703,1.386 z"
         style="fill:#ffffff;fill-opacity:1;fill-rule:nonzero;stroke:none"
         id="path1726"
         inkscape:connector-curvature="0" />
    </g>
    <g
       id="g2624"
       transform="matrix(1.25,0,0,-1.25,41.658482,34.583303)">
      <path
         d="m 0,0 c 0,-2.432 -1.971,-4.404 -4.399,-4.404 l -17.623,0 c -2.429,0 -4.403,1.972 -4.403,4.404 l 0,17.619 c 0,2.432 1.974,4.404 4.403,4.404 l 17.623,0 C -1.971,22.023 0,20.051 0,17.619 L 0,0 z"
         style="fill:#00a79e;fill-opacity:1;fill-rule:nonzero;stroke:none"
         id="path2626"
         inkscape:connector-curvature="0" />
    </g>
    <g
       id="g2628"
       transform="matrix(1.25,0,0,-1.25,29.835992,14.336683)">
      <path
         d="m 0,0 c 0,-2.074 -1.68,-3.754 -3.754,-3.754 -2.073,0 -3.755,1.68 -3.755,3.754 0,2.074 1.682,3.754 3.755,3.754 C -1.68,3.754 0,2.074 0,0"
         style="fill:#ffffff;fill-opacity:1;fill-rule:nonzero;stroke:none"
         id="path2630"
         inkscape:connector-curvature="0" />
    </g>
    <g
       id="g2632"
       transform="matrix(1.25,0,0,-1.25,28.743482,24.268303)">
      <path
         d="m 0,0 c -1.406,0 -2.544,-1.141 -2.544,-2.545 0,-1.404 1.138,-2.543 2.544,-2.543 1.404,0 2.544,1.139 2.544,2.543 C 2.544,-1.141 1.404,0 0,0 m -3.717,-3.168 c -0.856,1.369 -1.641,1.404 -2.156,0.789 -0.343,-0.617 -0.171,-1.371 0.582,-2.709 -0.566,-1.279 -3.544,-0.562 -2.724,-1.16 0.96,-0.479 2.279,-0.992 4.641,-0.959 1.618,0.121 2.14,-1.213 1.637,-2.209 -0.249,-0.494 -0.807,-0.82 -1.499,-1.01 -1.918,-0.512 -4.949,0.274 -6.506,1.576 -1.712,1.506 -1.779,3.047 -1.438,4.586 0.393,2.106 1.561,4.28 2.825,6.078 0.478,0.702 1.18,1.42 2.191,1.471 0.668,0.035 4.145,0.022 6.164,0.022 1.267,0 1.967,-0.174 2.65,-0.979 2.637,-3.424 3.323,-5.512 2.739,-7.139 -0.239,-0.959 -1.728,-3.115 -3.902,-3.8 -2.209,-0.582 -2.806,1.009 -2.397,1.677 0.321,0.522 0.709,0.926 1.062,1.268 -2.157,-0.172 -2.876,0.924 -3.869,2.498"
         style="fill:#ffffff;fill-opacity:1;fill-rule:nonzero;stroke:none"
         id="path2634"
         inkscape:connector-curvature="0" />
    </g>
  </g>
</svg>
