<?xml version="1.0" encoding="UTF-8" standalone="no"?>
<!-- Created with Inkscape (http://www.inkscape.org/) -->

<svg
   xmlns:dc="http://purl.org/dc/elements/1.1/"
   xmlns:cc="http://creativecommons.org/ns#"
   xmlns:rdf="http://www.w3.org/1999/02/22-rdf-syntax-ns#"
   xmlns:svg="http://www.w3.org/2000/svg"
   xmlns="http://www.w3.org/2000/svg"
   xmlns:sodipodi="http://sodipodi.sourceforge.net/DTD/sodipodi-0.dtd"
   xmlns:inkscape="http://www.inkscape.org/namespaces/inkscape"
   width="48px"
   height="48px"
   id="svg9531"
   version="1.1"
   inkscape:version="0.48.4 r9939"
   sodipodi:docname="playground.svg">
  <defs
     id="defs9533" />
  <sodipodi:namedview
     id="base"
     pagecolor="#ffffff"
     bordercolor="#666666"
     borderopacity="1.0"
     inkscape:pageopacity="0.0"
     inkscape:pageshadow="2"
     inkscape:zoom="7"
     inkscape:cx="24"
     inkscape:cy="24"
     inkscape:current-layer="layer1"
     showgrid="true"
     inkscape:grid-bbox="true"
     inkscape:document-units="px"
     inkscape:window-width="699"
     inkscape:window-height="639"
     inkscape:window-x="490"
     inkscape:window-y="146"
     inkscape:window-maximized="0" />
  <metadata
     id="metadata9536">
    <rdf:RDF>
      <cc:Work
         rdf:about="">
        <dc:format>image/svg+xml</dc:format>
        <dc:type
           rdf:resource="http://purl.org/dc/dcmitype/StillImage" />
        <dc:title></dc:title>
      </cc:Work>
    </rdf:RDF>
  </metadata>
  <g
     id="layer1"
     inkscape:label="Layer 1"
     inkscape:groupmode="layer">
    <g
       id="g1724"
       transform="matrix(1.25,0,0,-1.25,30.219571,16.820822)">
      <path
         d="m 0,0 0.641,-1.812 -1.492,1.066 -1.597,-1.066 0.637,1.812 -1.596,1.063 1.916,0 0.64,1.812 0.638,-1.812 1.917,0 L 0,0 z m -0.106,-14.057 -10.01,0 0,4.897 10.01,0 0,-4.897 z m 1.49,9.797 C 1.065,-4.793 0.853,-5.219 0.746,-5.326 0.106,-6.07 -0.639,-6.711 -1.491,-7.137 -2.236,-7.563 -3.089,-7.881 -3.94,-7.881 c -0.852,-0.105 -1.704,0 -2.45,0.318 -0.851,0.213 -1.596,0.639 -2.236,1.172 -0.639,0.534 -1.171,1.172 -1.597,1.918 -0.427,0.85 -0.639,1.702 -0.745,2.555 0,0.854 0,1.705 0.318,2.449 0.214,0.852 0.639,1.491 1.172,2.237 0.533,0.638 1.171,1.17 2.024,1.597 1.172,0.641 2.449,0.852 4.047,0.641 L -5.537,4.473 C -6.176,4.045 -6.815,3.621 -7.241,2.979 -7.772,2.449 -8.093,1.811 -8.307,1.063 -8.519,0.426 -8.626,-0.32 -8.519,-1.064 c 0.106,-0.748 0.319,-1.493 0.64,-2.133 0.319,-0.744 0.851,-1.276 1.383,-1.809 0.532,-0.426 1.172,-0.746 1.917,-0.959 0.639,-0.213 1.385,-0.318 2.131,-0.318 0.745,0.105 1.383,0.318 2.129,0.637 l 1.703,1.386 z"
         style="fill:#ffffff;fill-opacity:1;fill-rule:nonzero;stroke:none"
         id="path1726"
         inkscape:connector-curvature="0" />
    </g>
    <g
       id="g1712"
       transform="matrix(1.25,0,0,-1.25,41.393303,34.790178)">
      <path
         d="m 0,0 c 0,-2.475 -2.012,-4.484 -4.485,-4.484 l -17.947,0 c -2.476,0 -4.483,2.009 -4.483,4.484 l 0,17.947 c 0,2.481 2.007,4.487 4.483,4.487 l 17.947,0 C -2.012,22.434 0,20.428 0,17.947 L 0,0 z"
         style="fill:#f9ed32;fill-opacity:1;fill-rule:nonzero;stroke:none"
         id="path1714"
         inkscape:connector-curvature="0" />
    </g>
    <g
       id="g1716"
       transform="matrix(1.25,0,0,-1.25,33.538053,22.812678)">
      <path
         d="m 0,0 c -0.707,0.404 -1.615,0.605 -2.728,0.605 -2.122,0 -3.84,-0.707 -3.84,-2.021 l 0,-7.377 c 0,0.404 3.031,2.426 6.568,0.203 L 0,0 z m -7.679,-1.416 c 0,1.314 -1.718,2.021 -3.841,2.021 -1.009,0 -2.021,-0.201 -2.728,-0.605 l 0,-8.59 c 3.536,2.223 6.569,0.201 6.569,-0.203 l 0,7.377 z m 8.388,2.123 0,-1.314 0,-8.791 -6.469,0 c -0.202,-0.202 -0.808,-0.303 -1.415,-0.303 -0.605,0 -1.111,0.101 -1.313,0.303 l -6.569,0 0,8.791 0,1.314 c 4.345,1.92 7.479,0.102 7.984,-0.404 0.404,0.302 3.739,2.222 7.782,0.404 M 1.213,2.424 -7.175,6.568 -15.461,2.424 -16.27,3.941 -7.175,8.488 1.921,3.941 1.213,2.424 z"
         style="fill:#ffffff;fill-opacity:1;fill-rule:nonzero;stroke:none"
         id="path1718"
         inkscape:connector-curvature="0" />
    </g>
  </g>
</svg>
