<?xml version="1.0" encoding="UTF-8" standalone="no"?>
<!-- Created with Inkscape (http://www.inkscape.org/) -->

<svg
   xmlns:dc="http://purl.org/dc/elements/1.1/"
   xmlns:cc="http://creativecommons.org/ns#"
   xmlns:rdf="http://www.w3.org/1999/02/22-rdf-syntax-ns#"
   xmlns:svg="http://www.w3.org/2000/svg"
   xmlns="http://www.w3.org/2000/svg"
   xmlns:sodipodi="http://sodipodi.sourceforge.net/DTD/sodipodi-0.dtd"
   xmlns:inkscape="http://www.inkscape.org/namespaces/inkscape"
   width="48px"
   height="48px"
   id="svg9531"
   version="1.1"
   inkscape:version="0.48.4 r9939"
   sodipodi:docname="watertap.svg">
  <defs
     id="defs9533" />
  <sodipodi:namedview
     id="base"
     pagecolor="#ffffff"
     bordercolor="#666666"
     borderopacity="1.0"
     inkscape:pageopacity="0.0"
     inkscape:pageshadow="2"
     inkscape:zoom="7"
     inkscape:cx="24"
     inkscape:cy="24"
     inkscape:current-layer="layer1"
     showgrid="true"
     inkscape:grid-bbox="true"
     inkscape:document-units="px"
     inkscape:window-width="699"
     inkscape:window-height="639"
     inkscape:window-x="490"
     inkscape:window-y="146"
     inkscape:window-maximized="0" />
  <metadata
     id="metadata9536">
    <rdf:RDF>
      <cc:Work
         rdf:about="">
        <dc:format>image/svg+xml</dc:format>
        <dc:type
           rdf:resource="http://purl.org/dc/dcmitype/StillImage" />
        <dc:title></dc:title>
      </cc:Work>
    </rdf:RDF>
  </metadata>
  <g
     id="layer1"
     inkscape:label="Layer 1"
     inkscape:groupmode="layer">
    <g
       id="g1304"
       transform="matrix(1.25,0,0,-1.25,41.081786,34.483304)">
      <path
         d="m 0,0 c 0,-2.408 -1.955,-4.363 -4.366,-4.363 l -17.459,0 c -2.408,0 -4.363,1.955 -4.363,4.363 l 0,17.457 c 0,2.412 1.955,4.365 4.363,4.365 l 17.459,0 C -1.955,21.822 0,19.869 0,17.457 L 0,0 z"
         style="fill:#8dc63f;fill-opacity:1;fill-rule:nonzero;stroke:none"
         id="path1306"
         inkscape:connector-curvature="0" />
    </g>
    <path
       d="m 17.062036,27.222554 15.305,0 0,-5.70125 1.345,0 0,10.8425 -17.99,0 0,-10.8425 1.34,0 0,5.70125 z"
       style="fill:#ffffff;fill-opacity:1;fill-rule:nonzero;stroke:none"
       id="path1310"
       inkscape:connector-curvature="0" />
    <g
       id="g1312"
       transform="matrix(1.25,0,0,-1.25,14.169036,21.404684)">
      <path
         d="M 0,0 16.873,0 14.961,5.301 1.793,5.301 0,0 z"
         style="fill:#ffffff;fill-opacity:1;fill-rule:nonzero;stroke:none"
         id="path1314"
         inkscape:connector-curvature="0" />
    </g>
  </g>
</svg>
