<?xml version="1.0" encoding="UTF-8" standalone="no"?>
<!-- Created with Inkscape (http://www.inkscape.org/) -->

<svg
   xmlns:dc="http://purl.org/dc/elements/1.1/"
   xmlns:cc="http://creativecommons.org/ns#"
   xmlns:rdf="http://www.w3.org/1999/02/22-rdf-syntax-ns#"
   xmlns:svg="http://www.w3.org/2000/svg"
   xmlns="http://www.w3.org/2000/svg"
   xmlns:sodipodi="http://sodipodi.sourceforge.net/DTD/sodipodi-0.dtd"
   xmlns:inkscape="http://www.inkscape.org/namespaces/inkscape"
   width="48px"
   height="48px"
   id="svg9531"
   version="1.1"
   inkscape:version="0.48.4 r9939"
   sodipodi:docname="foodvoucher.svg">
  <defs
     id="defs9533" />
  <sodipodi:namedview
     id="base"
     pagecolor="#ffffff"
     bordercolor="#666666"
     borderopacity="1.0"
     inkscape:pageopacity="0.0"
     inkscape:pageshadow="2"
     inkscape:zoom="7"
     inkscape:cx="24"
     inkscape:cy="24"
     inkscape:current-layer="layer1"
     showgrid="true"
     inkscape:grid-bbox="true"
     inkscape:document-units="px"
     inkscape:window-width="699"
     inkscape:window-height="639"
     inkscape:window-x="10"
     inkscape:window-y="51"
     inkscape:window-maximized="0" />
  <metadata
     id="metadata9536">
    <rdf:RDF>
      <cc:Work
         rdf:about="">
        <dc:format>image/svg+xml</dc:format>
        <dc:type
           rdf:resource="http://purl.org/dc/dcmitype/StillImage" />
        <dc:title></dc:title>
      </cc:Work>
    </rdf:RDF>
  </metadata>
  <g
     id="layer1"
     inkscape:label="Layer 1"
     inkscape:groupmode="layer">
    <g
       id="g1724"
       transform="matrix(1.25,0,0,-1.25,30.219571,16.820822)">
      <path
         d="m 0,0 0.641,-1.812 -1.492,1.066 -1.597,-1.066 0.637,1.812 -1.596,1.063 1.916,0 0.64,1.812 0.638,-1.812 1.917,0 L 0,0 z m -0.106,-14.057 -10.01,0 0,4.897 10.01,0 0,-4.897 z m 1.49,9.797 C 1.065,-4.793 0.853,-5.219 0.746,-5.326 0.106,-6.07 -0.639,-6.711 -1.491,-7.137 -2.236,-7.563 -3.089,-7.881 -3.94,-7.881 c -0.852,-0.105 -1.704,0 -2.45,0.318 -0.851,0.213 -1.596,0.639 -2.236,1.172 -0.639,0.534 -1.171,1.172 -1.597,1.918 -0.427,0.85 -0.639,1.702 -0.745,2.555 0,0.854 0,1.705 0.318,2.449 0.214,0.852 0.639,1.491 1.172,2.237 0.533,0.638 1.171,1.17 2.024,1.597 1.172,0.641 2.449,0.852 4.047,0.641 L -5.537,4.473 C -6.176,4.045 -6.815,3.621 -7.241,2.979 -7.772,2.449 -8.093,1.811 -8.307,1.063 -8.519,0.426 -8.626,-0.32 -8.519,-1.064 c 0.106,-0.748 0.319,-1.493 0.64,-2.133 0.319,-0.744 0.851,-1.276 1.383,-1.809 0.532,-0.426 1.172,-0.746 1.917,-0.959 0.639,-0.213 1.385,-0.318 2.131,-0.318 0.745,0.105 1.383,0.318 2.129,0.637 l 1.703,1.386 z"
         style="fill:#ffffff;fill-opacity:1;fill-rule:nonzero;stroke:none"
         id="path1726"
         inkscape:connector-curvature="0" />
    </g>
    <g
       id="g2604"
       transform="matrix(1.25,0,0,-1.25,41.60375,34.926518)">
      <path
         d="m 0,0 c 0,-2.445 -1.986,-4.426 -4.432,-4.426 l -17.71,0 c -2.442,0 -4.424,1.981 -4.424,4.426 l 0,17.711 c 0,2.445 1.982,4.426 4.424,4.426 l 17.71,0 C -1.986,22.137 0,20.156 0,17.711 L 0,0 z"
         style="fill:#0079c1;fill-opacity:1;fill-rule:nonzero;stroke:none"
         id="path2606"
         inkscape:connector-curvature="0" />
    </g>
    <g
       id="g2608"
       transform="matrix(1.25,0,0,-1.25,33.58124,27.109138)">
      <path
         d="m 0,0 -4.142,-2.25 -2.013,1.066 4.143,2.25 L 0,0 z m -1.893,-4.732 -4.617,-2.248 0,5.205 2.368,-1.301 2.249,1.181 0,-2.837 z m -9.943,0 0,2.837 2.251,-1.181 2.367,1.181 0,-5.085 -4.618,2.248 z M -13.727,0 l 2.01,1.066 4.144,-2.25 L -9.585,-2.25 -13.727,0 z m -0.118,3.074 4.14,2.131 2.013,-1.064 -4.144,-2.25 -2.009,1.183 z M -4.023,5.205 0,2.957 -1.893,1.891 l -4.142,2.25 2.012,1.064 z m 2.838,-3.785 2.84,1.537 -0.591,0.357 -5.087,2.838 -2.841,-1.537 -2.841,1.537 -5.679,-3.078 0.593,-0.353 2.247,-1.301 -0.117,0 -2.723,-1.42 2.723,-1.541 0,-3.666 5.797,-2.84 5.679,2.84 0,3.666 2.84,1.541 -2.84,1.42 z m 4.024,4.732 -9.703,4.852 -9.824,-4.852 -0.827,1.776 10.651,5.326 L 3.786,7.928 2.839,6.152 z"
         style="fill:#ffffff;fill-opacity:1;fill-rule:nonzero;stroke:none"
         id="path2610"
         inkscape:connector-curvature="0" />
    </g>
  </g>
</svg>
