<?xml version="1.0" encoding="UTF-8" standalone="no"?>
<!-- Created with Inkscape (http://www.inkscape.org/) -->

<svg
   xmlns:dc="http://purl.org/dc/elements/1.1/"
   xmlns:cc="http://creativecommons.org/ns#"
   xmlns:rdf="http://www.w3.org/1999/02/22-rdf-syntax-ns#"
   xmlns:svg="http://www.w3.org/2000/svg"
   xmlns="http://www.w3.org/2000/svg"
   xmlns:sodipodi="http://sodipodi.sourceforge.net/DTD/sodipodi-0.dtd"
   xmlns:inkscape="http://www.inkscape.org/namespaces/inkscape"
   width="48px"
   height="48px"
   id="svg9531"
   version="1.1"
   inkscape:version="0.48.4 r9939"
   sodipodi:docname="mosk.svg">
  <defs
     id="defs9533" />
  <sodipodi:namedview
     id="base"
     pagecolor="#ffffff"
     bordercolor="#666666"
     borderopacity="1.0"
     inkscape:pageopacity="0.0"
     inkscape:pageshadow="2"
     inkscape:zoom="7"
     inkscape:cx="24"
     inkscape:cy="24"
     inkscape:current-layer="layer1"
     showgrid="true"
     inkscape:grid-bbox="true"
     inkscape:document-units="px"
     inkscape:window-width="699"
     inkscape:window-height="639"
     inkscape:window-x="490"
     inkscape:window-y="146"
     inkscape:window-maximized="0" />
  <metadata
     id="metadata9536">
    <rdf:RDF>
      <cc:Work
         rdf:about="">
        <dc:format>image/svg+xml</dc:format>
        <dc:type
           rdf:resource="http://purl.org/dc/dcmitype/StillImage" />
        <dc:title></dc:title>
      </cc:Work>
    </rdf:RDF>
  </metadata>
  <g
     id="layer1"
     inkscape:label="Layer 1"
     inkscape:groupmode="layer">
    <g
       id="g1724"
       transform="matrix(1.25,0,0,-1.25,30.219571,16.820822)">
      <path
         d="m 0,0 0.641,-1.812 -1.492,1.066 -1.597,-1.066 0.637,1.812 -1.596,1.063 1.916,0 0.64,1.812 0.638,-1.812 1.917,0 L 0,0 z m -0.106,-14.057 -10.01,0 0,4.897 10.01,0 0,-4.897 z m 1.49,9.797 C 1.065,-4.793 0.853,-5.219 0.746,-5.326 0.106,-6.07 -0.639,-6.711 -1.491,-7.137 -2.236,-7.563 -3.089,-7.881 -3.94,-7.881 c -0.852,-0.105 -1.704,0 -2.45,0.318 -0.851,0.213 -1.596,0.639 -2.236,1.172 -0.639,0.534 -1.171,1.172 -1.597,1.918 -0.427,0.85 -0.639,1.702 -0.745,2.555 0,0.854 0,1.705 0.318,2.449 0.214,0.852 0.639,1.491 1.172,2.237 0.533,0.638 1.171,1.17 2.024,1.597 1.172,0.641 2.449,0.852 4.047,0.641 L -5.537,4.473 C -6.176,4.045 -6.815,3.621 -7.241,2.979 -7.772,2.449 -8.093,1.811 -8.307,1.063 -8.519,0.426 -8.626,-0.32 -8.519,-1.064 c 0.106,-0.748 0.319,-1.493 0.64,-2.133 0.319,-0.744 0.851,-1.276 1.383,-1.809 0.532,-0.426 1.172,-0.746 1.917,-0.959 0.639,-0.213 1.385,-0.318 2.131,-0.318 0.745,0.105 1.383,0.318 2.129,0.637 l 1.703,1.386 z"
         style="fill:#ffffff;fill-opacity:1;fill-rule:nonzero;stroke:none"
         id="path1726"
         inkscape:connector-curvature="0" />
    </g>
    <g
       id="g1456"
       transform="matrix(1.25,0,0,-1.25,40.300982,33.338304)">
      <path
         d="m 0,0 c 0,-2.373 -1.938,-4.312 -4.31,-4.312 l -17.228,0 c -2.391,0 -4.315,1.939 -4.315,4.312 l 0,17.229 c 0,2.386 1.924,4.31 4.315,4.31 l 17.228,0 c 2.372,0 4.31,-1.924 4.31,-4.31 L 0,0 z"
         style="fill:#ed1d24;fill-opacity:1;fill-rule:nonzero;stroke:none"
         id="path1458"
         inkscape:connector-curvature="0" />
    </g>
    <g
       id="g1460"
       transform="matrix(1.25,0,0,-1.25,15.393732,23.511564)">
      <path
         d="m 0,0 0.461,1.08 c 0,0 1.069,-0.449 1.268,-0.627 L 2.165,-0.479 1.3,-0.68 0,0 z m 11.382,2.732 c 0.102,0.248 0.869,1.122 0.869,1.122 L 13.129,3.068 12.271,1.91 11.382,1.705 l 0,1.027 z m -14.341,-4.41 0.213,-1.039 3.427,0.783 1.467,-1.379 0.87,0.76 -0.79,0.983 4.706,1.101 -0.993,-0.994 0,-3.818 2.221,0 0,3.818 -1.036,1.049 4.851,1.148 -0.292,-1.224 1.112,-0.319 0.723,1.889 3.439,0.787 -0.209,1.035 -1.345,-0.304 c 0.242,0.341 0.211,0.402 0.211,0.681 0,0.162 -0.136,0.41 -0.333,0.545 -0.672,0.477 -2.379,1.582 -2.379,1.582 l -0.953,-0.67 c 0,0 -0.97,-1.59 -1.072,-1.851 -0.122,-0.33 0.311,-0.571 0.311,-0.571 l 0,-0.666 -8.645,-2.062 -0.283,0.625 c 0,0 0.283,0.42 0.035,0.666 -0.199,0.186 -1.77,1.186 -1.77,1.186 L -0.63,2.248 c 0,0 -0.83,-1.33 -1.344,-2.162 -0.151,-0.258 -0.227,-0.631 -0.168,-0.877 0.037,-0.154 0.135,-0.385 0.509,-0.58 l -1.326,-0.307 z m 15.576,7.53 c 0,0.521 -0.423,0.937 -0.932,0.937 -0.513,0 -0.928,-0.416 -0.928,-0.937 0,-0.512 0.415,-0.928 0.928,-0.928 0.509,0 0.932,0.416 0.932,0.928 M 1.235,3.189 c 0,0.514 -0.415,0.936 -0.93,0.936 -0.514,0 -0.935,-0.422 -0.935,-0.936 0,-0.515 0.421,-0.929 0.935,-0.929 0.515,0 0.93,0.414 0.93,0.929"
         style="fill:#ffffff;fill-opacity:1;fill-rule:nonzero;stroke:none"
         id="path1462"
         inkscape:connector-curvature="0" />
    </g>
  </g>
</svg>
