<?xml version="1.0" encoding="UTF-8" standalone="no"?>
<!-- Created with Inkscape (http://www.inkscape.org/) -->

<svg
   xmlns:dc="http://purl.org/dc/elements/1.1/"
   xmlns:cc="http://creativecommons.org/ns#"
   xmlns:rdf="http://www.w3.org/1999/02/22-rdf-syntax-ns#"
   xmlns:svg="http://www.w3.org/2000/svg"
   xmlns="http://www.w3.org/2000/svg"
   xmlns:sodipodi="http://sodipodi.sourceforge.net/DTD/sodipodi-0.dtd"
   xmlns:inkscape="http://www.inkscape.org/namespaces/inkscape"
   width="48px"
   height="48px"
   id="svg9531"
   version="1.1"
   inkscape:version="0.48.4 r9939"
   sodipodi:docname="infantfeeding.svg">
  <defs
     id="defs9533" />
  <sodipodi:namedview
     id="base"
     pagecolor="#ffffff"
     bordercolor="#666666"
     borderopacity="1.0"
     inkscape:pageopacity="0.0"
     inkscape:pageshadow="2"
     inkscape:zoom="7"
     inkscape:cx="24"
     inkscape:cy="24"
     inkscape:current-layer="layer1"
     showgrid="true"
     inkscape:grid-bbox="true"
     inkscape:document-units="px"
     inkscape:window-width="699"
     inkscape:window-height="639"
     inkscape:window-x="10"
     inkscape:window-y="51"
     inkscape:window-maximized="0" />
  <metadata
     id="metadata9536">
    <rdf:RDF>
      <cc:Work
         rdf:about="">
        <dc:format>image/svg+xml</dc:format>
        <dc:type
           rdf:resource="http://purl.org/dc/dcmitype/StillImage" />
        <dc:title></dc:title>
      </cc:Work>
    </rdf:RDF>
  </metadata>
  <g
     id="layer1"
     inkscape:label="Layer 1"
     inkscape:groupmode="layer">
    <g
       id="g1724"
       transform="matrix(1.25,0,0,-1.25,30.219571,16.820822)">
      <path
         d="m 0,0 0.641,-1.812 -1.492,1.066 -1.597,-1.066 0.637,1.812 -1.596,1.063 1.916,0 0.64,1.812 0.638,-1.812 1.917,0 L 0,0 z m -0.106,-14.057 -10.01,0 0,4.897 10.01,0 0,-4.897 z m 1.49,9.797 C 1.065,-4.793 0.853,-5.219 0.746,-5.326 0.106,-6.07 -0.639,-6.711 -1.491,-7.137 -2.236,-7.563 -3.089,-7.881 -3.94,-7.881 c -0.852,-0.105 -1.704,0 -2.45,0.318 -0.851,0.213 -1.596,0.639 -2.236,1.172 -0.639,0.534 -1.171,1.172 -1.597,1.918 -0.427,0.85 -0.639,1.702 -0.745,2.555 0,0.854 0,1.705 0.318,2.449 0.214,0.852 0.639,1.491 1.172,2.237 0.533,0.638 1.171,1.17 2.024,1.597 1.172,0.641 2.449,0.852 4.047,0.641 L -5.537,4.473 C -6.176,4.045 -6.815,3.621 -7.241,2.979 -7.772,2.449 -8.093,1.811 -8.307,1.063 -8.519,0.426 -8.626,-0.32 -8.519,-1.064 c 0.106,-0.748 0.319,-1.493 0.64,-2.133 0.319,-0.744 0.851,-1.276 1.383,-1.809 0.532,-0.426 1.172,-0.746 1.917,-0.959 0.639,-0.213 1.385,-0.318 2.131,-0.318 0.745,0.105 1.383,0.318 2.129,0.637 l 1.703,1.386 z"
         style="fill:#ffffff;fill-opacity:1;fill-rule:nonzero;stroke:none"
         id="path1726"
         inkscape:connector-curvature="0" />
    </g>
    <g
       id="g2636"
       transform="matrix(1.25,0,0,-1.25,40.008036,34.433304)">
      <path
         d="m 0,0 c 0,-2.402 -1.952,-4.344 -4.354,-4.344 l -17.37,0 c -2.403,0 -4.346,1.942 -4.346,4.344 l 0,17.381 c 0,2.396 1.943,4.342 4.346,4.342 l 17.37,0 C -1.952,21.723 0,19.777 0,17.381 L 0,0 z"
         style="fill:#8a5e3c;fill-opacity:1;fill-rule:nonzero;stroke:none"
         id="path2638"
         inkscape:connector-curvature="0" />
    </g>
    <g
       id="g2640"
       transform="matrix(1.25,0,0,-1.25,26.413036,35.868924)">
      <path
         d="m 0,0 0,1.92 5.77,0 c 0.52,0 0.947,0.432 0.947,0.959 0,0.264 -0.106,0.504 -0.279,0.678 l -3.602,3.64 1.492,0 c 0.525,0 0.95,0.434 0.95,0.961 0,0.264 -0.105,0.502 -0.277,0.676 l -3.605,3.643 1.493,0 c 0.522,0 0.95,0.439 0.95,0.982 0,0.27 -0.106,0.512 -0.279,0.691 l -5.042,5.235 c -0.373,0.385 -0.978,0.385 -1.353,0 L -7.868,14.16 c -0.178,-0.178 -0.287,-0.426 -0.287,-0.701 0,-0.543 0.426,-0.982 0.949,-0.982 l 1.485,0 L -9.31,8.844 C -9.485,8.672 -9.596,8.426 -9.596,8.158 c 0,-0.527 0.426,-0.961 0.949,-0.961 l 1.488,0 -3.588,-3.633 c -0.178,-0.171 -0.288,-0.416 -0.288,-0.685 0,-0.527 0.427,-0.959 0.948,-0.959 l 6.248,0 0,-1.92 L 0,0 z"
         style="fill:#ffffff;fill-opacity:1;fill-rule:evenodd;stroke:none"
         id="path2642"
         inkscape:connector-curvature="0" />
    </g>
  </g>
</svg>
