<?xml version="1.0" encoding="UTF-8" standalone="no"?>
<!-- Created with Inkscape (http://www.inkscape.org/) -->

<svg
   xmlns:dc="http://purl.org/dc/elements/1.1/"
   xmlns:cc="http://creativecommons.org/ns#"
   xmlns:rdf="http://www.w3.org/1999/02/22-rdf-syntax-ns#"
   xmlns:svg="http://www.w3.org/2000/svg"
   xmlns="http://www.w3.org/2000/svg"
   xmlns:sodipodi="http://sodipodi.sourceforge.net/DTD/sodipodi-0.dtd"
   xmlns:inkscape="http://www.inkscape.org/namespaces/inkscape"
   width="48px"
   height="48px"
   id="svg9531"
   version="1.1"
   inkscape:version="0.48.4 r9939"
   sodipodi:docname="supermarket.svg">
  <defs
     id="defs9533" />
  <sodipodi:namedview
     id="base"
     pagecolor="#ffffff"
     bordercolor="#666666"
     borderopacity="1.0"
     inkscape:pageopacity="0.0"
     inkscape:pageshadow="2"
     inkscape:zoom="7"
     inkscape:cx="24"
     inkscape:cy="24"
     inkscape:current-layer="layer1"
     showgrid="true"
     inkscape:grid-bbox="true"
     inkscape:document-units="px"
     inkscape:window-width="699"
     inkscape:window-height="639"
     inkscape:window-x="10"
     inkscape:window-y="51"
     inkscape:window-maximized="0" />
  <metadata
     id="metadata9536">
    <rdf:RDF>
      <cc:Work
         rdf:about="">
        <dc:format>image/svg+xml</dc:format>
        <dc:type
           rdf:resource="http://purl.org/dc/dcmitype/StillImage" />
        <dc:title></dc:title>
      </cc:Work>
    </rdf:RDF>
  </metadata>
  <g
     id="layer1"
     inkscape:label="Layer 1"
     inkscape:groupmode="layer">
    <g
       id="g1724"
       transform="matrix(1.25,0,0,-1.25,30.219571,16.820822)">
      <path
         d="m 0,0 0.641,-1.812 -1.492,1.066 -1.597,-1.066 0.637,1.812 -1.596,1.063 1.916,0 0.64,1.812 0.638,-1.812 1.917,0 L 0,0 z m -0.106,-14.057 -10.01,0 0,4.897 10.01,0 0,-4.897 z m 1.49,9.797 C 1.065,-4.793 0.853,-5.219 0.746,-5.326 0.106,-6.07 -0.639,-6.711 -1.491,-7.137 -2.236,-7.563 -3.089,-7.881 -3.94,-7.881 c -0.852,-0.105 -1.704,0 -2.45,0.318 -0.851,0.213 -1.596,0.639 -2.236,1.172 -0.639,0.534 -1.171,1.172 -1.597,1.918 -0.427,0.85 -0.639,1.702 -0.745,2.555 0,0.854 0,1.705 0.318,2.449 0.214,0.852 0.639,1.491 1.172,2.237 0.533,0.638 1.171,1.17 2.024,1.597 1.172,0.641 2.449,0.852 4.047,0.641 L -5.537,4.473 C -6.176,4.045 -6.815,3.621 -7.241,2.979 -7.772,2.449 -8.093,1.811 -8.307,1.063 -8.519,0.426 -8.626,-0.32 -8.519,-1.064 c 0.106,-0.748 0.319,-1.493 0.64,-2.133 0.319,-0.744 0.851,-1.276 1.383,-1.809 0.532,-0.426 1.172,-0.746 1.917,-0.959 0.639,-0.213 1.385,-0.318 2.131,-0.318 0.745,0.105 1.383,0.318 2.129,0.637 l 1.703,1.386 z"
         style="fill:#ffffff;fill-opacity:1;fill-rule:nonzero;stroke:none"
         id="path1726"
         inkscape:connector-curvature="0" />
    </g>
    <g
       id="g2834"
       transform="matrix(1.25,0,0,-1.25,33.805268,7.1349109)">
      <path
         d="m 0,0 -15.917,0 c -2.919,0 -5.306,-2.387 -5.306,-5.305 l 0,-15.918 c 0,-2.918 2.387,-5.304 5.306,-5.304 l 15.917,0 c 2.918,0 5.306,2.386 5.306,5.304 l 0,15.918 C 5.306,-2.387 2.918,0 0,0"
         style="fill:#026cb6;fill-opacity:1;fill-rule:nonzero;stroke:none"
         id="path2836"
         inkscape:connector-curvature="0" />
    </g>
    <g
       id="g2838"
       transform="matrix(1.25,0,0,-1.25,21.251638,34.937531)">
      <path
         d="m 0,0 -0.036,0 0,-0.021 -3.749,0 0,2.753 -3.824,5.053 c -0.154,0.188 -0.253,0.42 -0.253,0.676 l 0,7.764 c 0,0.607 0.492,1.103 1.103,1.103 0.606,0 1.1,-0.496 1.1,-1.103 l 0,-4.485 C -5.925,11.682 -6.18,11.57 -6.382,11.371 -6.966,10.799 -6.979,9.859 -6.41,9.273 l 2.086,-2.142 0.283,0.275 -2.088,2.141 c -0.417,0.432 -0.409,1.123 0.02,1.543 0.132,0.127 0.293,0.217 0.461,0.265 0.18,0.051 0.371,0.053 0.549,0.016 0.204,-0.051 0.385,-0.154 0.529,-0.305 L 0,6.377 0,0 z"
         style="fill:#ffffff;fill-opacity:1;fill-rule:nonzero;stroke:none"
         id="path2840"
         inkscape:connector-curvature="0" />
    </g>
    <g
       id="g2842"
       transform="matrix(1.25,0,0,-1.25,20.037008,21.695401)">
      <path
         d="m 0,0 c -0.853,0.848 -1.27,1.861 -1.27,3.063 0,1.191 0.417,2.214 1.27,3.06 0.837,0.846 1.862,1.262 3.056,1.262 1.198,0 2.21,-0.416 3.06,-1.262 C 6.962,5.277 7.384,4.254 7.384,3.063 7.384,1.861 6.962,0.848 6.116,0 5.266,-0.842 4.254,-1.273 3.056,-1.273 1.862,-1.273 0.837,-0.842 0,0"
         style="fill:#ffffff;fill-opacity:1;fill-rule:nonzero;stroke:none"
         id="path2844"
         inkscape:connector-curvature="0" />
    </g>
    <g
       id="g2846"
       transform="matrix(1.25,0,0,-1.25,36.294388,24.361411)">
      <path
         d="m 0,0 c 0,-0.256 -0.101,-0.488 -0.255,-0.676 l -3.823,-5.053 0,-2.753 -3.75,0 0,0.021 -0.036,0 0,6.377 4.573,4.689 c 0.143,0.151 0.324,0.254 0.525,0.305 0.182,0.037 0.37,0.035 0.548,-0.015 0.169,-0.049 0.332,-0.139 0.462,-0.266 0.43,-0.42 0.44,-1.111 0.022,-1.543 l -2.091,-2.141 0.287,-0.275 2.087,2.143 c 0.568,0.585 0.555,1.525 -0.029,2.097 -0.206,0.199 -0.456,0.311 -0.725,0.369 l 0,4.485 c 0,0.607 0.493,1.103 1.101,1.103 C -0.495,8.867 0,8.371 0,7.764 L 0,0 z"
         style="fill:#ffffff;fill-opacity:1;fill-rule:nonzero;stroke:none"
         id="path2848"
         inkscape:connector-curvature="0" />
    </g>
  </g>
</svg>
