<?xml version="1.0" encoding="UTF-8" standalone="no"?>
<!-- Created with Inkscape (http://www.inkscape.org/) -->

<svg
   xmlns:dc="http://purl.org/dc/elements/1.1/"
   xmlns:cc="http://creativecommons.org/ns#"
   xmlns:rdf="http://www.w3.org/1999/02/22-rdf-syntax-ns#"
   xmlns:svg="http://www.w3.org/2000/svg"
   xmlns="http://www.w3.org/2000/svg"
   xmlns:sodipodi="http://sodipodi.sourceforge.net/DTD/sodipodi-0.dtd"
   xmlns:inkscape="http://www.inkscape.org/namespaces/inkscape"
   width="48px"
   height="48px"
   id="svg9531"
   version="1.1"
   inkscape:version="0.48.4 r9939"
   sodipodi:docname="recreational.svg">
  <defs
     id="defs9533" />
  <sodipodi:namedview
     id="base"
     pagecolor="#ffffff"
     bordercolor="#666666"
     borderopacity="1.0"
     inkscape:pageopacity="0.0"
     inkscape:pageshadow="2"
     inkscape:zoom="7"
     inkscape:cx="24"
     inkscape:cy="24"
     inkscape:current-layer="layer1"
     showgrid="true"
     inkscape:grid-bbox="true"
     inkscape:document-units="px"
     inkscape:window-width="699"
     inkscape:window-height="639"
     inkscape:window-x="10"
     inkscape:window-y="51"
     inkscape:window-maximized="0" />
  <metadata
     id="metadata9536">
    <rdf:RDF>
      <cc:Work
         rdf:about="">
        <dc:format>image/svg+xml</dc:format>
        <dc:type
           rdf:resource="http://purl.org/dc/dcmitype/StillImage" />
        <dc:title></dc:title>
      </cc:Work>
    </rdf:RDF>
  </metadata>
  <g
     id="layer1"
     inkscape:label="Layer 1"
     inkscape:groupmode="layer">
    <g
       id="g1724"
       transform="matrix(1.25,0,0,-1.25,30.219571,16.820822)">
      <path
         d="m 0,0 0.641,-1.812 -1.492,1.066 -1.597,-1.066 0.637,1.812 -1.596,1.063 1.916,0 0.64,1.812 0.638,-1.812 1.917,0 L 0,0 z m -0.106,-14.057 -10.01,0 0,4.897 10.01,0 0,-4.897 z m 1.49,9.797 C 1.065,-4.793 0.853,-5.219 0.746,-5.326 0.106,-6.07 -0.639,-6.711 -1.491,-7.137 -2.236,-7.563 -3.089,-7.881 -3.94,-7.881 c -0.852,-0.105 -1.704,0 -2.45,0.318 -0.851,0.213 -1.596,0.639 -2.236,1.172 -0.639,0.534 -1.171,1.172 -1.597,1.918 -0.427,0.85 -0.639,1.702 -0.745,2.555 0,0.854 0,1.705 0.318,2.449 0.214,0.852 0.639,1.491 1.172,2.237 0.533,0.638 1.171,1.17 2.024,1.597 1.172,0.641 2.449,0.852 4.047,0.641 L -5.537,4.473 C -6.176,4.045 -6.815,3.621 -7.241,2.979 -7.772,2.449 -8.093,1.811 -8.307,1.063 -8.519,0.426 -8.626,-0.32 -8.519,-1.064 c 0.106,-0.748 0.319,-1.493 0.64,-2.133 0.319,-0.744 0.851,-1.276 1.383,-1.809 0.532,-0.426 1.172,-0.746 1.917,-0.959 0.639,-0.213 1.385,-0.318 2.131,-0.318 0.745,0.105 1.383,0.318 2.129,0.637 l 1.703,1.386 z"
         style="fill:#ffffff;fill-opacity:1;fill-rule:nonzero;stroke:none"
         id="path1726"
         inkscape:connector-curvature="0" />
    </g>
    <g
       id="g2872"
       transform="matrix(1.25,0,0,-1.25,40.543393,34.698303)">
      <path
         d="m 0,0 c 0,-2.457 -1.993,-4.447 -4.453,-4.447 l -17.795,0 c -2.459,0 -4.45,1.99 -4.45,4.447 l 0,17.803 c 0,2.457 1.991,4.447 4.45,4.447 l 17.795,0 C -1.993,22.25 0,20.26 0,17.803 L 0,0 z"
         style="fill:#f15a29;fill-opacity:1;fill-rule:nonzero;stroke:none"
         id="path2874"
         inkscape:connector-curvature="0" />
    </g>
    <g
       id="g2876"
       transform="matrix(1.25,0,0,-1.25,32.726013,22.820933)">
      <path
         d="m 0,0 c -0.7,0.398 -1.599,0.6 -2.697,0.6 -2.1,0 -3.799,-0.702 -3.799,-2 l 0,-7.297 c 0,0.4 2.998,2.398 6.496,0.199 L 0,0 z m -7.596,-1.4 c 0,1.298 -1.699,2 -3.799,2 -0.999,0 -2,-0.202 -2.698,-0.6 l 0,-8.498 c 3.498,2.199 6.497,0.201 6.497,-0.199 l 0,7.297 z m 8.297,2.099 0,-1.299 0,-8.697 -6.398,0 c -0.199,-0.199 -0.799,-0.299 -1.4,-0.299 -0.599,0 -1.099,0.1 -1.299,0.299 l -6.497,0 0,8.697 0,1.299 c 4.298,1.901 7.398,0.1 7.896,-0.402 0.4,0.303 3.699,2.201 7.698,0.402 m 0.499,1.697 -8.297,4.1 -8.194,-4.1 -0.801,1.502 8.995,4.497 L 1.899,3.898 1.2,2.396 z"
         style="fill:#ffffff;fill-opacity:1;fill-rule:nonzero;stroke:none"
         id="path2878"
         inkscape:connector-curvature="0" />
    </g>
  </g>
</svg>
