<?xml version="1.0" encoding="UTF-8" standalone="no"?>
<!-- Created with Inkscape (http://www.inkscape.org/) -->

<svg
   xmlns:dc="http://purl.org/dc/elements/1.1/"
   xmlns:cc="http://creativecommons.org/ns#"
   xmlns:rdf="http://www.w3.org/1999/02/22-rdf-syntax-ns#"
   xmlns:svg="http://www.w3.org/2000/svg"
   xmlns="http://www.w3.org/2000/svg"
   xmlns:sodipodi="http://sodipodi.sourceforge.net/DTD/sodipodi-0.dtd"
   xmlns:inkscape="http://www.inkscape.org/namespaces/inkscape"
   width="48px"
   height="48px"
   id="svg9531"
   version="1.1"
   inkscape:version="0.48.4 r9939"
   sodipodi:docname="childfriendlyspace.svg">
  <defs
     id="defs9533" />
  <sodipodi:namedview
     id="base"
     pagecolor="#ffffff"
     bordercolor="#666666"
     borderopacity="1.0"
     inkscape:pageopacity="0.0"
     inkscape:pageshadow="2"
     inkscape:zoom="7"
     inkscape:cx="24"
     inkscape:cy="24"
     inkscape:current-layer="layer1"
     showgrid="true"
     inkscape:grid-bbox="true"
     inkscape:document-units="px"
     inkscape:window-width="699"
     inkscape:window-height="639"
     inkscape:window-x="10"
     inkscape:window-y="51"
     inkscape:window-maximized="0" />
  <metadata
     id="metadata9536">
    <rdf:RDF>
      <cc:Work
         rdf:about="">
        <dc:format>image/svg+xml</dc:format>
        <dc:type
           rdf:resource="http://purl.org/dc/dcmitype/StillImage" />
        <dc:title></dc:title>
      </cc:Work>
    </rdf:RDF>
  </metadata>
  <g
     id="layer1"
     inkscape:label="Layer 1"
     inkscape:groupmode="layer">
    <g
       id="g1724"
       transform="matrix(1.25,0,0,-1.25,30.219571,16.820822)">
      <path
         d="m 0,0 0.641,-1.812 -1.492,1.066 -1.597,-1.066 0.637,1.812 -1.596,1.063 1.916,0 0.64,1.812 0.638,-1.812 1.917,0 L 0,0 z m -0.106,-14.057 -10.01,0 0,4.897 10.01,0 0,-4.897 z m 1.49,9.797 C 1.065,-4.793 0.853,-5.219 0.746,-5.326 0.106,-6.07 -0.639,-6.711 -1.491,-7.137 -2.236,-7.563 -3.089,-7.881 -3.94,-7.881 c -0.852,-0.105 -1.704,0 -2.45,0.318 -0.851,0.213 -1.596,0.639 -2.236,1.172 -0.639,0.534 -1.171,1.172 -1.597,1.918 -0.427,0.85 -0.639,1.702 -0.745,2.555 0,0.854 0,1.705 0.318,2.449 0.214,0.852 0.639,1.491 1.172,2.237 0.533,0.638 1.171,1.17 2.024,1.597 1.172,0.641 2.449,0.852 4.047,0.641 L -5.537,4.473 C -6.176,4.045 -6.815,3.621 -7.241,2.979 -7.772,2.449 -8.093,1.811 -8.307,1.063 -8.519,0.426 -8.626,-0.32 -8.519,-1.064 c 0.106,-0.748 0.319,-1.493 0.64,-2.133 0.319,-0.744 0.851,-1.276 1.383,-1.809 0.532,-0.426 1.172,-0.746 1.917,-0.959 0.639,-0.213 1.385,-0.318 2.131,-0.318 0.745,0.105 1.383,0.318 2.129,0.637 l 1.703,1.386 z"
         style="fill:#ffffff;fill-opacity:1;fill-rule:nonzero;stroke:none"
         id="path1726"
         inkscape:connector-curvature="0" />
    </g>
    <g
       id="g2712"
       transform="matrix(1.25,0,0,-1.25,40.359732,33.302053)">
      <path
         d="m 0,0 c 0,-2.918 -2.379,-5.189 -5.189,-5.189 l -15.57,0 c -2.919,0 -5.188,2.271 -5.188,5.189 l 0,15.57 c 0,2.809 2.269,5.188 5.188,5.188 l 15.57,0 C -2.379,20.758 0,18.379 0,15.57 L 0,0 z"
         style="fill:#8dc63f;fill-opacity:1;fill-rule:nonzero;stroke:none"
         id="path2714"
         inkscape:connector-curvature="0" />
    </g>
    <g
       id="g2716"
       transform="matrix(1.25,0,0,-1.25,28.196612,28.841683)">
      <path
         d="M 0,0 C 0,0 -0.433,-0.541 -1.405,-0.217 -2.486,0.217 -2.811,-0.541 -2.486,-0.865 -1.729,-1.621 0,-0.217 0,0 m -0.974,-1.08 c 0,0 -0.431,-0.541 -1.512,-0.109 -1.082,0.433 -1.297,-0.432 -0.973,-0.756 0.648,-0.649 2.377,0.648 2.485,0.865 m -1.081,-1.082 c 0,0 -0.431,-0.539 -1.404,-0.109 -1.189,0.433 -1.406,-0.43 -1.081,-0.754 0.647,-0.651 2.378,0.648 2.485,0.863 m -2.593,0.973 c -0.434,1.082 0.215,1.513 0.215,1.513 -0.324,-0.107 -1.622,-1.838 -0.973,-2.595 0.324,-0.323 1.19,0 0.758,1.082 m -0.651,-1.729 c -0.215,0.106 -0.215,0.324 -0.323,0.217 l -0.865,-1.082 c -0.109,-0.108 0.216,-0.432 0.432,-0.324 l 0.973,0.865 c 0.108,0.107 -0.107,0.107 -0.217,0.324 m 0.975,1.729 c 0.324,-0.325 1.189,0 0.756,1.082 -0.432,1.08 0.109,1.513 0.109,1.513 -0.216,-0.109 -1.515,-1.838 -0.865,-2.595 m 1.08,1.082 c 0.326,-0.325 1.082,0 0.648,1.08 -0.322,0.972 0.216,1.406 0.216,1.406 -0.216,0 -1.62,-1.731 -0.864,-2.486 m 1.297,0.324 c 0.758,-0.758 1.514,1.728 1.514,1.728 C -0.649,1.838 -2.811,1.082 -1.947,0.217 m 4.543,-4.324 c 0,0 -0.433,-1.407 -2.163,-1.407 l -7.461,0 c -1.621,0 -2.054,1.407 -2.054,1.407 -1.08,4.865 2.269,7.566 2.269,7.566 l 7.03,0 c 0,0 3.459,-2.701 2.379,-7.566 M 1.515,6.055 -0.217,4.432 l -6.163,0 -1.621,1.623 c 0,0 0.865,1.189 2.162,1.299 1.406,0.214 1.946,-0.651 2.595,-0.651 0.648,0 1.189,0.865 2.487,0.651 1.406,-0.11 2.272,-1.299 2.272,-1.299 m 4.107,1.406 -8.866,4.432 -8.973,-4.432 -0.757,1.621 9.73,4.756 9.73,-4.756 -0.864,-1.621 z"
         style="fill:#ffffff;fill-opacity:1;fill-rule:nonzero;stroke:none"
         id="path2718"
         inkscape:connector-curvature="0" />
    </g>
  </g>
</svg>
