<?xml version="1.0" encoding="UTF-8" standalone="no"?>
<!-- Created with Inkscape (http://www.inkscape.org/) -->

<svg
   xmlns:dc="http://purl.org/dc/elements/1.1/"
   xmlns:cc="http://creativecommons.org/ns#"
   xmlns:rdf="http://www.w3.org/1999/02/22-rdf-syntax-ns#"
   xmlns:svg="http://www.w3.org/2000/svg"
   xmlns="http://www.w3.org/2000/svg"
   xmlns:sodipodi="http://sodipodi.sourceforge.net/DTD/sodipodi-0.dtd"
   xmlns:inkscape="http://www.inkscape.org/namespaces/inkscape"
   width="48px"
   height="48px"
   id="svg9531"
   version="1.1"
   inkscape:version="0.48.4 r9939"
   sodipodi:docname="New document 3">
  <defs
     id="defs9533" />
  <sodipodi:namedview
     id="base"
     pagecolor="#ffffff"
     bordercolor="#666666"
     borderopacity="1.0"
     inkscape:pageopacity="0.0"
     inkscape:pageshadow="2"
     inkscape:zoom="7"
     inkscape:cx="24"
     inkscape:cy="24"
     inkscape:current-layer="layer1"
     showgrid="true"
     inkscape:grid-bbox="true"
     inkscape:document-units="px"
     inkscape:window-width="699"
     inkscape:window-height="639"
     inkscape:window-x="490"
     inkscape:window-y="146"
     inkscape:window-maximized="0" />
  <metadata
     id="metadata9536">
    <rdf:RDF>
      <cc:Work
         rdf:about="">
        <dc:format>image/svg+xml</dc:format>
        <dc:type
           rdf:resource="http://purl.org/dc/dcmitype/StillImage" />
        <dc:title></dc:title>
      </cc:Work>
    </rdf:RDF>
  </metadata>
  <g
     id="layer1"
     inkscape:label="Layer 1"
     inkscape:groupmode="layer">
    <g
       id="g1320"
       transform="matrix(1.25,0,0,-1.25,40.917322,34.98875)">
      <path
         d="m 0,0 c 0,-2.43 -1.976,-4.398 -4.402,-4.398 l -17.589,0 c -2.423,0 -4.391,1.968 -4.391,4.398 l 0,17.584 c 0,2.432 1.968,4.396 4.391,4.396 l 17.589,0 C -1.976,21.98 0,20.016 0,17.584 L 0,0 z"
         style="fill:#0079c1;fill-opacity:1;fill-rule:nonzero;stroke:none"
         id="path1322"
         inkscape:connector-curvature="0" />
    </g>
    <path
       d="m 23.221947,15.17438 0.04,0.81 2.08375,0.09875 0,0.905 4.5625,0 c 0.58375,0 1.15375,0.14125 1.705,0.4125 0.555,0.27125 1.04375,0.6425 1.4825,1.11125 0.425,0.47125 0.77125,1.00625 1.035,1.61625 0.26375,0.6025 0.39375,1.235 0.39375,1.90125 l 0,3.49625 -5.8675,0 0,-2.31625 -3.2075,0 c -0.515,1.1225 -1.88125,1.82625 -3.10875,1.82625 -1.20875,0 -2.66875,-0.735 -3.19,-1.82375 l -4.82625,-0.0025 0,-6.30875 4.82625,0 0,-0.8175 2.21125,-0.0475 -0.01125,-0.86125 -4.505,0 c -0.26,0.34875 -0.66125,0.57125 -1.11125,0.57125 -0.77625,0 -1.41,-0.70125 -1.41,-1.555 0,-0.8575 0.63375,-1.55 1.41,-1.55 0.38625,0 0.86625,0.21625 0.95875,0.505 l 11.2425,-0.03875 c 0.26,-0.28625 0.61625,-0.46625 1.01375,-0.46625 0.7825,0 1.42125,0.6925 1.42125,1.55 0,0.85375 -0.63875,1.555 -1.42125,1.555 -0.4325,0 -0.8075,-0.215 -1.075,-0.54 l -4.6525,-0.03125 z"
       style="fill:#ffffff;fill-opacity:1;fill-rule:nonzero;stroke:none"
       id="path1326"
       inkscape:connector-curvature="0" />
    <g
       id="g1328"
       transform="matrix(1.25,0,0,-1.25,34.534197,32.27888)">
      <path
         d="m 0,0 c 0,-1.902 -1.101,-2.465 -2.456,-2.465 -1.353,0 -2.458,0.563 -2.458,2.465 0,1.896 2.458,4.424 2.458,4.424 C -2.456,4.424 0,1.896 0,0"
         style="fill:#ffffff;fill-opacity:1;fill-rule:nonzero;stroke:none"
         id="path1330"
         inkscape:connector-curvature="0" />
    </g>
  </g>
</svg>
