<?xml version="1.0" encoding="UTF-8" standalone="no"?>
<!-- Created with Inkscape (http://www.inkscape.org/) -->

<svg
   xmlns:dc="http://purl.org/dc/elements/1.1/"
   xmlns:cc="http://creativecommons.org/ns#"
   xmlns:rdf="http://www.w3.org/1999/02/22-rdf-syntax-ns#"
   xmlns:svg="http://www.w3.org/2000/svg"
   xmlns="http://www.w3.org/2000/svg"
   xmlns:sodipodi="http://sodipodi.sourceforge.net/DTD/sodipodi-0.dtd"
   xmlns:inkscape="http://www.inkscape.org/namespaces/inkscape"
   width="48px"
   height="48px"
   id="svg9531"
   version="1.1"
   inkscape:version="0.48.4 r9939"
   sodipodi:docname="healthmat.svg">
  <defs
     id="defs9533" />
  <sodipodi:namedview
     id="base"
     pagecolor="#ffffff"
     bordercolor="#666666"
     borderopacity="1.0"
     inkscape:pageopacity="0.0"
     inkscape:pageshadow="2"
     inkscape:zoom="7"
     inkscape:cx="24"
     inkscape:cy="24"
     inkscape:current-layer="layer1"
     showgrid="true"
     inkscape:grid-bbox="true"
     inkscape:document-units="px"
     inkscape:window-width="699"
     inkscape:window-height="639"
     inkscape:window-x="490"
     inkscape:window-y="146"
     inkscape:window-maximized="0" />
  <metadata
     id="metadata9536">
    <rdf:RDF>
      <cc:Work
         rdf:about="">
        <dc:format>image/svg+xml</dc:format>
        <dc:type
           rdf:resource="http://purl.org/dc/dcmitype/StillImage" />
        <dc:title></dc:title>
      </cc:Work>
    </rdf:RDF>
  </metadata>
  <g
     id="layer1"
     inkscape:label="Layer 1"
     inkscape:groupmode="layer">
    <g
       id="g1724"
       transform="matrix(1.25,0,0,-1.25,30.219571,16.820822)">
      <path
         d="m 0,0 0.641,-1.812 -1.492,1.066 -1.597,-1.066 0.637,1.812 -1.596,1.063 1.916,0 0.64,1.812 0.638,-1.812 1.917,0 L 0,0 z m -0.106,-14.057 -10.01,0 0,4.897 10.01,0 0,-4.897 z m 1.49,9.797 C 1.065,-4.793 0.853,-5.219 0.746,-5.326 0.106,-6.07 -0.639,-6.711 -1.491,-7.137 -2.236,-7.563 -3.089,-7.881 -3.94,-7.881 c -0.852,-0.105 -1.704,0 -2.45,0.318 -0.851,0.213 -1.596,0.639 -2.236,1.172 -0.639,0.534 -1.171,1.172 -1.597,1.918 -0.427,0.85 -0.639,1.702 -0.745,2.555 0,0.854 0,1.705 0.318,2.449 0.214,0.852 0.639,1.491 1.172,2.237 0.533,0.638 1.171,1.17 2.024,1.597 1.172,0.641 2.449,0.852 4.047,0.641 L -5.537,4.473 C -6.176,4.045 -6.815,3.621 -7.241,2.979 -7.772,2.449 -8.093,1.811 -8.307,1.063 -8.519,0.426 -8.626,-0.32 -8.519,-1.064 c 0.106,-0.748 0.319,-1.493 0.64,-2.133 0.319,-0.744 0.851,-1.276 1.383,-1.809 0.532,-0.426 1.172,-0.746 1.917,-0.959 0.639,-0.213 1.385,-0.318 2.131,-0.318 0.745,0.105 1.383,0.318 2.129,0.637 l 1.703,1.386 z"
         style="fill:#ffffff;fill-opacity:1;fill-rule:nonzero;stroke:none"
         id="path1726"
         inkscape:connector-curvature="0" />
    </g>
    <g
       id="g1728"
       transform="matrix(1.25,0,0,-1.25,41.050714,34.894286)">
      <path
         d="m 0,0 c 0,-2.469 -2,-4.469 -4.471,-4.469 l -17.883,0 c -2.469,0 -4.47,2 -4.47,4.469 l 0,17.887 c 0,2.47 2.001,4.47 4.47,4.47 l 17.883,0 C -2,22.357 0,20.357 0,17.887 L 0,0 z"
         style="fill:#92278f;fill-opacity:1;fill-rule:nonzero;stroke:none"
         id="path1730"
         inkscape:connector-curvature="0" />
    </g>
    <g
       id="g1732"
       transform="matrix(1.25,0,0,-1.25,17.078474,13.102286)">
      <path
         d="M 0,0 C 0,0.453 0.164,0.846 0.495,1.172 0.82,1.5 1.212,1.664 1.667,1.664 2.13,1.664 2.516,1.5 2.814,1.172 3.117,0.846 3.27,0.453 3.27,0 3.27,-0.467 3.117,-0.852 2.814,-1.16 2.516,-1.471 2.127,-1.623 1.644,-1.623 1.412,-1.623 1.195,-1.582 0.995,-1.488 0.8,-1.402 0.628,-1.281 0.48,-1.129 0.34,-0.979 0.225,-0.809 0.133,-0.615 0.043,-0.426 0,-0.219 0,0 m -0.122,-12.146 -0.082,0.062 -1.994,0 2.178,7.584 -0.329,0 -1.272,-4.254 c -0.098,-0.373 -0.323,-0.558 -0.68,-0.558 -0.193,0 -0.355,0.058 -0.492,0.166 C -2.932,-9.037 -3,-8.871 -3,-8.648 l 0,0.041 c 0.014,0.039 0.036,0.123 0.062,0.253 0.028,0.131 0.042,0.208 0.042,0.239 l 1.396,4.56 c 0.041,0.135 0.121,0.284 0.238,0.453 0.117,0.161 0.244,0.317 0.391,0.459 0.142,0.143 0.295,0.268 0.459,0.362 0.165,0.094 0.326,0.144 0.475,0.144 l 3.124,0 c 0.133,0 0.291,-0.047 0.46,-0.134 0.172,-0.09 0.333,-0.204 0.482,-0.338 0.153,-0.137 0.287,-0.287 0.402,-0.44 0.116,-0.16 0.198,-0.31 0.236,-0.443 l 1.502,-4.914 c 0.014,0 0.021,-0.026 0.021,-0.082 l 0,-0.119 c 0,-0.207 -0.061,-0.385 -0.186,-0.53 -0.123,-0.14 -0.286,-0.215 -0.494,-0.215 -0.149,0 -0.29,0.057 -0.419,0.165 -0.132,0.109 -0.21,0.238 -0.237,0.394 L 3.66,-4.5 l -0.348,0 2.177,-7.584 -2.016,0 0,-5.816 c 0,-0.163 -0.078,-0.33 -0.236,-0.493 -0.157,-0.166 -0.318,-0.248 -0.482,-0.248 -0.233,0 -0.401,0.041 -0.505,0.125 -0.102,0.082 -0.223,0.203 -0.359,0.37 l 0,6.062 -0.453,0 0,-5.898 c 0,-0.164 -0.083,-0.315 -0.255,-0.452 -0.173,-0.138 -0.338,-0.207 -0.504,-0.207 -0.056,0 -0.128,0.014 -0.216,0.041 -0.09,0.028 -0.178,0.063 -0.265,0.104 -0.091,0.041 -0.168,0.094 -0.228,0.156 -0.062,0.059 -0.092,0.125 -0.092,0.194 l 0,6 z"
         style="fill:#ffffff;fill-opacity:1;fill-rule:nonzero;stroke:none"
         id="path1734"
         inkscape:connector-curvature="0" />
    </g>
    <g
       id="g1736"
       transform="matrix(1.25,0,0,-1.25,29.010844,17.931286)">
      <path
         d="m 0,0 c 0,0.361 0.134,0.672 0.392,0.932 0.261,0.259 0.571,0.39 0.932,0.39 0.37,0 0.672,-0.131 0.907,-0.39 C 2.474,0.672 2.591,0.361 2.591,0 2.591,-0.367 2.474,-0.674 2.231,-0.916 1.996,-1.162 1.686,-1.285 1.306,-1.285 1.119,-1.285 0.95,-1.254 0.794,-1.178 0.636,-1.111 0.498,-1.014 0.384,-0.895 0.271,-0.773 0.18,-0.639 0.108,-0.486 0.037,-0.336 0,-0.17 0,0 m -0.101,-9.629 -0.06,0.051 -1.58,0 1.726,6.015 -0.261,0 -1.01,-3.375 c -0.077,-0.296 -0.254,-0.441 -0.538,-0.441 -0.152,0 -0.281,0.045 -0.391,0.129 -0.11,0.086 -0.163,0.219 -0.163,0.396 l 0,0.032 c 0.012,0.029 0.027,0.095 0.051,0.203 0.021,0.101 0.03,0.164 0.03,0.185 l 1.109,3.618 c 0.033,0.107 0.097,0.228 0.185,0.361 0.095,0.125 0.195,0.25 0.313,0.363 0.114,0.115 0.238,0.211 0.365,0.285 0.131,0.078 0.259,0.116 0.377,0.116 l 2.474,0 c 0.11,0 0.233,-0.036 0.37,-0.108 0.135,-0.07 0.261,-0.162 0.378,-0.269 0.122,-0.108 0.229,-0.225 0.319,-0.346 0.093,-0.129 0.155,-0.246 0.188,-0.352 L 4.973,-6.66 c 0.01,0 0.012,-0.024 0.012,-0.067 l 0,-0.095 C 4.985,-6.986 4.938,-7.129 4.841,-7.24 4.742,-7.354 4.613,-7.414 4.45,-7.414 c -0.122,0 -0.23,0.047 -0.335,0.135 -0.104,0.084 -0.165,0.187 -0.186,0.306 l -1.026,3.41 -0.28,0 1.73,-6.015 -1.598,0 0,-4.61 c 0,-0.132 -0.062,-0.265 -0.188,-0.394 -0.122,-0.131 -0.251,-0.195 -0.382,-0.195 -0.184,0 -0.32,0.033 -0.399,0.097 -0.08,0.069 -0.178,0.16 -0.285,0.293 l 0,4.809 -0.356,0 0,-4.676 c 0,-0.133 -0.072,-0.25 -0.207,-0.357 -0.136,-0.112 -0.269,-0.166 -0.399,-0.166 -0.041,0 -0.101,0.011 -0.172,0.033 -0.066,0.021 -0.138,0.049 -0.21,0.08 -0.074,0.033 -0.131,0.074 -0.178,0.125 -0.049,0.045 -0.08,0.101 -0.08,0.152 l 0,4.758 z"
         style="fill:#ffffff;fill-opacity:1;fill-rule:nonzero;stroke:none"
         id="path1738"
         inkscape:connector-curvature="0" />
    </g>
  </g>
</svg>
