<?xml version="1.0" encoding="UTF-8" standalone="no"?>
<!-- Created with Inkscape (http://www.inkscape.org/) -->

<svg
   xmlns:dc="http://purl.org/dc/elements/1.1/"
   xmlns:cc="http://creativecommons.org/ns#"
   xmlns:rdf="http://www.w3.org/1999/02/22-rdf-syntax-ns#"
   xmlns:svg="http://www.w3.org/2000/svg"
   xmlns="http://www.w3.org/2000/svg"
   xmlns:sodipodi="http://sodipodi.sourceforge.net/DTD/sodipodi-0.dtd"
   xmlns:inkscape="http://www.inkscape.org/namespaces/inkscape"
   version="1.1"
   x="0px"
   y="0px"
   width="100px"
   height="100px"
   viewBox="0 0 100 100"
   enable-background="new 0 0 100 100"
   xml:space="preserve"
   id="svg2985"
   inkscape:version="0.48.4 r9939"
   sodipodi:docname="education.svg"><sodipodi:namedview
     pagecolor="#ffffff"
     bordercolor="#666666"
     borderopacity="1"
     objecttolerance="10"
     gridtolerance="10"
     guidetolerance="10"
     inkscape:pageopacity="0"
     inkscape:pageshadow="2"
     inkscape:window-width="1328"
     inkscape:window-height="911"
     id="namedview9"
     showgrid="false"
     inkscape:zoom="2.36"
     inkscape:cx="50"
     inkscape:cy="27.873831"
     inkscape:window-x="0"
     inkscape:window-y="26"
     inkscape:window-maximized="0"
     inkscape:current-layer="svg2985" /><defs
     id="defs2987" /><metadata
     id="metadata2990"><rdf:RDF><cc:Work
         rdf:about=""><dc:format>image/svg+xml</dc:format><dc:type
           rdf:resource="http://purl.org/dc/dcmitype/StillImage" /><dc:title /></cc:Work></rdf:RDF></metadata><circle
     cx="50"
     cy="50"
     r="50"
     fill="#b2b2b2"
     id="circle6" /><path
     d="m 80.889958,28.856225 q 0,-2.344086 -0.97223,-4.414696 -0.97222,-2.07062 -2.49396,-3.594268 -1.52174,-1.523657 -3.59299,-2.422224 -2.07126,-0.898567 -4.43841,-0.898567 h -39.81884 q -2.36715,0 -4.48068,0.898567 -2.11352,0.898567 -3.63526,2.422224 -1.52174,1.523648 -2.49396,3.594268 -0.97223,2.07061 -0.97223,4.414696 v 39.302541 q 0,2.344085 0.97223,4.414695 0.97222,2.07061 2.49396,3.516129 1.52174,1.445519 3.59299,2.383156 2.07126,0.937636 4.52295,0.937636 h 39.81884 q 2.36715,0 4.43841,-0.937636 2.07125,-0.937637 3.59299,-2.383156 1.52174,-1.445519 2.49396,-3.555198 0.97223,-2.10968 0.97223,-4.375626 V 28.856225 z M 69.392368,13.932202 q 3.12802,0 5.83333,1.172053 2.70532,1.172033 4.77657,3.203584 2.07126,2.03154 3.25484,4.72723 1.18357,2.695712 1.18357,5.821156 v 39.302541 q 0,3.125444 -1.18357,5.743006 -1.18358,2.617562 -3.25484,4.649113 -2.07125,2.03154 -4.7343,3.203583 -2.66304,1.172043 -5.8756,1.172043 h -39.81884 q -3.12802,0 -5.8756,-1.172043 -2.74759,-1.172043 -4.81884,-3.203583 -2.07126,-2.031551 -3.25484,-4.688172 -1.18357,-2.656642 -1.18357,-5.703947 V 28.856225 q 0,-3.125444 1.18357,-5.821156 1.18358,-2.69569 3.25484,-4.72723 2.07125,-2.031551 4.77657,-3.203584 2.70531,-1.172053 5.91787,-1.172053 h 39.81884 z m 4.90338,21.565607 q -3.63526,-2.187818 -9.13043,-2.187818 -2.78986,0 -5.24155,0.390684 -2.45169,0.390674 -4.22705,1.289252 -1.77536,0.898567 -2.83213,2.148749 -1.05676,1.250171 -1.05676,2.969176 v 25.159865 q 0,-0.390684 1.8599,-1.601786 1.85991,-1.211123 4.86111,-1.953412 3.00121,-0.7423 7.10145,-0.273476 4.10025,0.468813 8.66546,3.359851 V 35.497809 z m -26.12319,4.610043 q 0,-1.797144 -1.05676,-3.008246 -1.05676,-1.211112 -2.91667,-2.109679 -1.8599,-0.898578 -4.22705,-1.289252 -2.36715,-0.390684 -5.24154,-0.390684 -5.57972,0 -9.21498,2.187818 v 29.301085 q 4.56522,-2.891038 8.66546,-3.359851 4.10024,-0.468824 7.18599,0.273476 3.08575,0.742289 4.94565,1.953412 1.8599,1.211102 1.8599,1.601786 V 40.107852 z m 1.94445,-5.46954 q 0.50724,-0.468813 2.83212,-1.679936 2.32488,-1.211113 5.83334,-1.992471 3.50845,-0.781359 8.20048,-0.625091 4.69203,0.156278 9.93358,2.500364 v 4.531904 30.004314 h -22.31885 q -0.59178,0.468813 -1.90217,0.820428 -1.31039,0.351615 -2.8744,0.351615 -1.564,0 -2.83212,-0.273476 -1.26812,-0.273476 -1.8599,-0.898567 H 22.810248 V 37.373082 32.841178 q 5.57971,-2.344086 10.22946,-2.617573 4.64976,-0.273465 8.20049,0.468824 3.55072,0.742299 5.8756,1.992481 2.32488,1.250172 3.00121,1.953402 z"
     id="path3129"
     style="fill:currentColor"
     inkscape:connector-curvature="0" /></svg>