<?xml version="1.0" encoding="UTF-8" standalone="no"?>
<!-- Created with Inkscape (http://www.inkscape.org/) -->

<svg
   xmlns:dc="http://purl.org/dc/elements/1.1/"
   xmlns:cc="http://creativecommons.org/ns#"
   xmlns:rdf="http://www.w3.org/1999/02/22-rdf-syntax-ns#"
   xmlns:svg="http://www.w3.org/2000/svg"
   xmlns="http://www.w3.org/2000/svg"
   xmlns:sodipodi="http://sodipodi.sourceforge.net/DTD/sodipodi-0.dtd"
   xmlns:inkscape="http://www.inkscape.org/namespaces/inkscape"
   version="1.1"
   x="0px"
   y="0px"
   width="100px"
   height="100px"
   viewBox="0 0 100 100"
   enable-background="new 0 0 100 100"
   xml:space="preserve"
   id="svg2985"
   inkscape:version="0.48.4 r9939"
   sodipodi:docname="food.svg"><sodipodi:namedview
     pagecolor="#ffffff"
     bordercolor="#666666"
     borderopacity="1"
     objecttolerance="10"
     gridtolerance="10"
     guidetolerance="10"
     inkscape:pageopacity="0"
     inkscape:pageshadow="2"
     inkscape:window-width="1352"
     inkscape:window-height="1006"
     id="namedview9"
     showgrid="false"
     inkscape:zoom="2.36"
     inkscape:cx="50"
     inkscape:cy="157.2297"
     inkscape:window-x="0"
     inkscape:window-y="26"
     inkscape:window-maximized="0"
     inkscape:current-layer="svg2985" /><defs
     id="defs2987" /><metadata
     id="metadata2990"><rdf:RDF><cc:Work
         rdf:about=""><dc:format>image/svg+xml</dc:format><dc:type
           rdf:resource="http://purl.org/dc/dcmitype/StillImage" /><dc:title /></cc:Work></rdf:RDF></metadata><circle
     cx="50"
     cy="50"
     r="50"
     fill="#b2b2b2"
     id="circle6" /><path
     d="m 60.300336,32.028408 q -1.70732,-0.89227 -1.32318,-2.47404 0.38415,-1.58177 1.57927,-3.2041 1.19512,-1.62233 2.64634,-2.87963 1.45122,-1.2573 1.79269,-1.50065 -0.0854,4.70475 -0.81098,6.81377 -0.72561,2.10902 -1.57927,2.92019 -1.02439,0.81116 -2.30487,0.32446 z m -0.42683,5.9215 q -0.7683,-0.32446 -1.06708,-1.17618 -0.29878,-0.85173 0.0427,-1.70345 0.34146,-0.85172 1.45122,-1.46009 1.10975,-0.60838 3.32926,-0.44614 1.45122,0.0811 2.73171,-0.24335 1.02439,-0.24335 2.09146,-0.81117 1.06708,-0.56781 1.49391,-1.86568 0,0.4867 -0.98171,2.06847 -0.98171,1.58177 -2.47561,3.12298 -1.4939,1.54121 -3.28659,2.4335 -1.79268,0.89227 -3.32926,0.0811 z m 0.59756,1.54121 q 1.45122,0.0811 2.7317,-0.24335 1.02439,-0.24334 2.09147,-0.85172 1.06707,-0.60837 1.4939,-1.82512 0,0.4867 -0.98171,2.06847 -0.9817,1.58176 -2.47561,3.12298 -1.4939,1.54121 -3.28658,2.47404 -1.79269,0.93285 -3.41464,0.12168 -0.68292,-0.40558 -0.9817,-1.2573 -0.29878,-0.85172 0.0427,-1.70344 0.34146,-0.85172 1.45122,-1.41954 1.10975,-0.56781 3.32927,-0.4867 z m -3.32927,6.57043 q 1.45122,0.0811 2.73171,-0.24335 1.02439,-0.24335 2.09146,-0.85172 1.06707,-0.60838 1.4939,-1.82512 0,0.4867 -0.98171,2.06846 -0.9817,1.58178 -2.43292,3.12299 -1.45122,1.54121 -3.2439,2.43349 -1.79269,0.89228 -3.5,0 -0.68293,-0.32447 -0.98171,-1.13564 -0.29878,-0.81115 0.0427,-1.66288 0.34146,-0.85172 1.45122,-1.41954 1.10976,-0.56781 3.32927,-0.48669 z m -1.96342,-10.46402 q -1.62195,-0.89227 -1.96341,-2.92018 -0.34146,-2.02792 0,-4.13694 0.34146,-2.10902 1.10976,-3.85303 0.76829,-1.744 1.10975,-1.98735 -0.68293,1.05452 -0.55488,2.27126 0.12805,1.21674 0.55488,2.19014 0.5122,1.13563 1.36586,2.35238 1.28048,1.62233 1.4939,3.0013 0.21341,1.37898 -0.2561,2.19015 -0.46951,0.81116 -1.32317,1.01395 -0.85366,0.20279 -1.53659,-0.12168 z m -3.15853,6.32708 q -1.62195,-0.81116 -1.96342,-2.87963 -0.34146,-2.06847 0,-4.17749 0.34147,-2.10902 1.06708,-3.85303 0.72561,-1.74401 1.15243,-1.98735 -0.68292,1.05451 -0.59756,2.27126 0.0854,1.21674 0.5122,2.19014 0.51219,1.21675 1.36585,2.43349 1.28049,1.62233 1.53659,2.96075 0.2561,1.33841 -0.2561,2.14958 -0.51219,0.81116 -1.32317,1.01396 -0.81098,0.20279 -1.4939,-0.12168 z m -3.32927,6.48932 q -1.62195,-0.81117 -1.96342,-2.83908 -0.34146,-2.02791 0,-4.13694 0.34147,-2.10902 1.10976,-3.85303 0.76829,-1.74399 1.10976,-1.98735 -0.68293,1.05452 -0.55488,2.27127 0.12805,1.21674 0.55488,2.19013 0.42683,1.21675 1.28048,2.4335 1.36586,1.62233 1.57927,2.92019 0.21342,1.29786 -0.21341,2.10902 -0.42683,0.81117 -1.32317,1.01395 -0.89634,0.2028 -1.57927,-0.12166 z m -0.17073,8.59833 q -0.2561,0.40558 -0.59756,0.40558 -0.34147,0 -0.72561,-0.20279 -0.38415,-0.20279 -0.59756,-0.52726 -0.21342,-0.32446 -0.12805,-0.56781 l 2.39024,-6.08373 q 0.17073,-0.40559 0.5122,-0.0406 0.34146,0.36503 1.02439,0.68949 0.59756,0.32446 1.15244,0.40558 0.55487,0.0811 0.38414,0.4867 z m 16.81707,-13.22197 q 4.18293,1.37898 6.65854,4.01526 2.47561,2.63628 2.47561,7.1788 0,3.9747 -1.96342,7.90884 -1.96341,3.93414 -5.37805,7.09768 -3.41463,3.16354 -8.02439,5.11034 -4.60975,1.94679 -9.81707,1.94679 -5.20732,0 -9.77439,-1.94679 -4.56707,-1.9468 -7.98171,-5.11034 -3.41463,-3.16354 -5.37805,-7.05712 -1.96341,-3.89359 -1.96341,-7.9494 0,-3.56912 1.57927,-5.96205 1.57927,-2.39294 4.43902,-3.89359 2.85976,-1.50065 6.65854,-2.2307 3.79878,-0.73004 8.2378,-0.89228 -0.0854,0.40558 -0.17073,0.89228 v 0.9734 0.56781 q -3.5,0.24335 -6.4878,0.89228 -2.98781,0.64893 -5.16464,1.54121 -2.17683,0.89228 -3.41463,2.06847 -1.23781,1.17619 -1.23781,2.47405 0,1.46009 1.66464,2.83907 1.66463,1.37898 4.4817,2.31181 2.81708,0.93284 6.65854,1.50066 3.84146,0.56781 8.10976,0.56781 4.35366,0 8.15244,-0.56781 3.79878,-0.56782 6.61585,-1.50066 2.81707,-0.93283 4.48171,-2.27125 1.66463,-1.33842 1.66463,-2.83907 0,-1.50065 -1.79268,-2.87963 -1.79268,-1.37898 -4.86585,-2.35238 0.93902,-1.13563 1.53658,-2.43349 z m 15.45122,-14.51984 q 0,-2.43348 -0.93902,-4.54251 -0.93903,-2.10903 -2.5183,-3.65024 -1.57927,-1.54121 -3.67073,-2.47405 -2.09146,-0.93283 -4.48171,-0.93283 h -39.78048 q -2.39025,0 -4.48171,0.93283 -2.09146,0.93284 -3.62805,2.47405 -1.53659,1.54121 -2.47561,3.65024 -0.93902,2.10903 -0.93902,4.54251 v 40.47708 q 0,2.43349 0.93902,4.54251 0.93902,2.10904 2.47561,3.60968 1.53659,1.50065 3.62805,2.4335 2.09146,0.93284 4.48171,0.93284 h 39.78048 q 2.39025,0 4.48171,-0.93284 2.09146,-0.93285 3.67073,-2.4335 1.57927,-1.50064 2.5183,-3.69079 0.93902,-2.19014 0.93902,-4.4614 v -40.47708 z m -11.60976,-15.16875 q 3.15854,0 5.89025,1.17618 2.73171,1.17619 4.78049,3.24466 2.04878,2.06847 3.2439,4.82643 1.19512,2.75795 1.19512,5.92148 v 40.47708 q 0,3.16353 -1.19512,5.88094 -1.19512,2.7174 -3.2439,4.78587 -2.04878,2.06845 -4.78049,3.2852 -2.73171,1.21675 -5.89025,1.21675 h -39.78048 q -3.15854,0 -5.89025,-1.21675 -2.73171,-1.21675 -4.78049,-3.2852 -2.04878,-2.06847 -3.2439,-4.78587 -1.19512,-2.71741 -1.19512,-5.88094 v -40.47708 q 0,-3.16353 1.19512,-5.92148 1.19512,-2.75796 3.2439,-4.82643 2.04878,-2.06847 4.78049,-3.24466 2.73171,-1.17618 5.89025,-1.17618 h 39.78048 z"
     id="path3195"
     style="fill:currentColor"
     inkscape:connector-curvature="0" /></svg>