<?xml version="1.0" encoding="UTF-8" standalone="no"?>
<!-- Created with Inkscape (http://www.inkscape.org/) -->

<svg
   xmlns:dc="http://purl.org/dc/elements/1.1/"
   xmlns:cc="http://creativecommons.org/ns#"
   xmlns:rdf="http://www.w3.org/1999/02/22-rdf-syntax-ns#"
   xmlns:svg="http://www.w3.org/2000/svg"
   xmlns="http://www.w3.org/2000/svg"
   xmlns:sodipodi="http://sodipodi.sourceforge.net/DTD/sodipodi-0.dtd"
   xmlns:inkscape="http://www.inkscape.org/namespaces/inkscape"
   version="1.1"
   x="0px"
   y="0px"
   width="100px"
   height="100px"
   viewBox="0 0 100 100"
   enable-background="new 0 0 100 100"
   xml:space="preserve"
   id="svg2985"
   inkscape:version="0.48.4 r9939"
   sodipodi:docname="health.svg"><sodipodi:namedview
     pagecolor="#ffffff"
     bordercolor="#666666"
     borderopacity="1"
     objecttolerance="10"
     gridtolerance="10"
     guidetolerance="10"
     inkscape:pageopacity="0"
     inkscape:pageshadow="2"
     inkscape:window-width="1298"
     inkscape:window-height="923"
     id="namedview9"
     showgrid="false"
     inkscape:zoom="2.36"
     inkscape:cx="50"
     inkscape:cy="26.790479"
     inkscape:window-x="244"
     inkscape:window-y="35"
     inkscape:window-maximized="0"
     inkscape:current-layer="svg2985" /><defs
     id="defs2987" /><metadata
     id="metadata2990"><rdf:RDF><cc:Work
         rdf:about=""><dc:format>image/svg+xml</dc:format><dc:type
           rdf:resource="http://purl.org/dc/dcmitype/StillImage" /><dc:title /></cc:Work></rdf:RDF></metadata><circle
     cx="50"
     cy="50"
     r="50"
     fill="#b2b2b2"
     id="circle6" /><path
     d="m 52.358204,59.98984 q 0.76829,-0.39345 1.10976,-1.02297 0.34146,-0.62951 0.2561,-1.02296 0,-0.23607 -0.0427,-0.70821 -0.0427,-0.47213 -0.29878,-1.02296 -0.2561,-0.55082 -0.93902,-1.141 -0.68293,-0.59017 -2.04878,-1.06231 l -0.0854,7.16075 q 0.5122,-0.23607 1.02439,-0.55082 z m -8.45122,-2.04593 q 0,0.39345 0.38415,1.02296 0.38414,0.62952 1.15244,1.02297 0.59756,0.39345 1.10975,0.7082 0.5122,0.31477 1.10976,0.7082 l -0.0854,-7.55419 q -1.36585,0.47214 -2.09146,1.10165 -0.72561,0.62952 -1.10976,1.18035 -0.38414,0.55083 -0.42683,1.06231 -0.0427,0.51148 -0.0427,0.74755 z m 10.84147,-28.5643 q 1.28048,-2.28199 2.30487,-2.67544 1.02439,-0.39345 2.39025,0.62952 0.59756,0.47213 2.13414,2.00658 1.53659,1.53444 3.7561,3.10824 2.21951,1.57379 4.95122,2.67544 2.30488,0.86558 4.69512,0.94427 h 1.19512 q -0.59756,1.33773 -1.62195,1.92789 -1.02439,0.59018 -2.04878,0.82624 -1.10975,0.23607 -2.39024,0.0787 -0.85366,0.94428 -1.96342,1.14101 -1.10975,0.19672 -2.13414,0.0394 -1.10976,-0.15738 -2.21951,-0.47214 -0.68293,0.70821 -1.62196,0.78689 -0.93902,0.0787 -1.70731,-0.0787 -0.93903,-0.15739 -1.87805,-0.55083 -0.93903,0.70821 -1.79268,0.78689 -0.85366,0.0787 -1.53659,-0.0787 -0.85366,-0.15738 -1.62195,-0.47214 -0.5122,0.39345 -1.02439,0.51148 -0.5122,0.11804 -0.93903,0.19672 h -1.10975 l -0.0854,9.20668 h 0.17073 l 1.79269,-0.47214 q 0.76829,-0.15738 1.83536,-0.47213 1.06708,-0.31476 2.17683,-0.62952 2.13415,-0.47213 4.0122,-1.21969 1.87805,-0.74754 2.30488,-1.21968 l -0.17074,-0.0787 q -0.34146,-0.15738 -1.15244,-0.3541 -0.81097,-0.19673 -1.83536,-0.27541 l -2.04878,-0.15738 h -2.73171 q -0.59756,0.0787 -0.68293,0.0787 h -0.25609 l -0.5122,-0.0787 -0.68293,-0.55083 -0.51219,-0.78689 v -0.0787 q 0.0854,-0.86558 0.59756,-1.02295 l 1.02439,-0.31477 q 0.42683,-0.0787 0.59756,-0.0787 h 0.34147 0.34146 l 0.85366,0.0787 h 2.64634 l 3.58536,0.23607 3.32927,1.02297 1.87805,2.282 v 0.31475 q -0.0854,1.33772 -1.40853,2.32134 -1.32318,0.98362 -3.28659,1.69183 -1.96338,0.70829 -4.22558,1.18044 -2.2622,0.47213 -4.31098,0.94427 2.64635,1.80985 3.24391,4.95743 0.25609,3.14759 -5.80488,6.68861 2.47561,1.73117 3.88415,3.30497 1.40853,1.57378 1.2378,3.54102 -0.17073,1.4951 -1.62195,2.79348 -1.45122,1.29838 -4.18293,2.63609 0.93903,-1.02295 1.4939,-1.88854 0.55488,-0.86558 0.81098,-1.57379 0.34146,-0.78689 0.34146,-1.41641 0.17074,-0.86558 -0.46951,-2.08527 -0.64024,-1.21969 -2.77439,-2.79348 l -0.17073,7.31812 q 0,1.18035 -1.15244,1.18035 -1.15244,0 -1.15244,-1.18035 l -0.0854,-7.55419 q -2.39025,1.57379 -3.11586,2.87217 -0.72561,1.29837 -0.55488,2.24265 0.0854,0.55082 0.5122,1.41641 0.2561,0.70821 0.76829,1.53444 0.5122,0.82624 1.45122,1.92789 -2.73171,-1.25902 -4.14024,-2.59675 -1.40854,-1.33772 -1.57927,-2.83282 -0.17073,-1.88855 1.2378,-3.46234 1.40854,-1.57378 3.79878,-3.38365 -6.06097,-3.54102 -5.80487,-6.68861 0.59756,-3.14758 3.2439,-4.95743 -2.04878,-0.39345 -4.26829,-0.90493 -2.21952,-0.51149 -4.22561,-1.21969 -2.0061,-0.70821 -3.28659,-1.69183 -1.28049,-0.98361 -1.45122,-2.32134 0.0854,-0.0787 0.0854,-0.31475 0.34146,-1.49511 1.83536,-2.24266 1.49391,-0.74755 3.28659,-1.02296 1.79268,-0.27542 3.5,-0.27542 h 2.81707 q 0.59756,0 0.81098,-0.0394 0.21341,-0.0394 0.38414,-0.0394 h 0.2561 l 0.59756,0.0787 1.10976,0.31477 0.59756,1.02296 v 0.0787 q -0.17073,0.55082 -0.5122,0.86558 -0.34146,0.31476 -0.72561,0.43279 -0.38414,0.11803 -0.64024,0.11803 h -0.2561 q -0.17073,-0.0787 -0.59756,-0.0787 -0.42683,0 -1.02439,-0.0394 -0.59756,-0.0394 -1.66463,0.0394 -1.06708,0.0787 -2.04878,0.15738 -0.98171,0.0787 -1.83537,0.31476 -0.93902,0.15737 -1.10976,0.31476 -0.0854,0 -0.12804,0.0394 -0.0427,0.0394 -0.12805,0.0394 0.42683,0.39345 2.34756,1.18035 1.92073,0.78689 4.05488,1.25902 1.10975,0.23608 2.13414,0.59018 1.02439,0.3541 1.79269,0.51148 l 1.70731,0.47214 q 0.34147,0 0.5122,0.0787 l -0.0854,-9.28537 h -0.93902 q -0.42683,-0.0787 -0.93903,-0.19672 -0.51219,-0.11804 -1.02439,-0.51149 -0.68292,0.31477 -1.62195,0.47215 -0.68293,0.15737 -1.57927,0.0394 -0.89634,-0.11804 -1.83536,-0.74756 -0.85366,0.39345 -1.79269,0.55084 -0.76829,0.15737 -1.66463,0.0394 -0.89634,-0.11804 -1.66463,-0.74756 -1.10976,0.31477 -2.30488,0.47214 -0.93903,0.15738 -2.0061,-0.0394 -1.06707,-0.19673 -2.0061,-1.141 -1.28048,0.15738 -2.47561,-0.0787 -0.93902,-0.15738 -1.92073,-0.78689 -0.98171,-0.62952 -1.75,-1.96724 0.59756,0.0787 1.19512,0 2.56098,0 4.69513,-0.94427 2.7317,-1.10165 4.95122,-2.67545 2.21951,-1.57379 3.79878,-3.10823 1.57926,-1.53445 2.17682,-2.00659 1.28049,-1.02296 2.30488,-0.62952 1.02439,0.39345 2.30488,2.67545 0.85366,1.41642 2.0061,1.77051 1.15244,0.35411 2.0061,0.27541 v -0.31475 q -2.21952,-1.10165 -2.13415,-3.46234 0,-1.4951 1.10976,-2.63609 1.10975,-1.14101 2.7317,-1.14101 1.62195,0 2.77439,1.14101 1.15244,1.14099 1.15244,2.63609 0,2.36069 -2.21951,3.46234 v 0.31475 q 0.76829,0.0787 1.96341,-0.27541 1.19513,-0.35409 2.04879,-1.77051 z m 26.37804,0.70821 q 0,-2.36068 -0.93902,-4.40661 -0.93902,-2.04593 -2.47561,-3.54103 -1.53659,-1.4951 -3.62805,-2.40004 -2.09146,-0.90492 -4.48171,-0.90492 h -39.78048 q -2.39025,0 -4.48171,0.90492 -2.09146,0.90494 -3.62805,2.40004 -1.53659,1.4951 -2.47561,3.54103 -0.93902,2.04593 -0.93902,4.40661 v 39.26607 q 0,2.36068 0.93902,4.40661 0.93902,2.04593 2.47561,3.50168 1.53659,1.45576 3.62805,2.36069 2.09146,0.90493 4.48171,0.90493 h 39.78048 q 2.39025,0 4.48171,-0.90493 2.09146,-0.90493 3.62805,-2.36069 1.53659,-1.45575 2.47561,-3.58036 0.93902,-2.12462 0.93902,-4.32793 V 30.08782 z M 69.602104,15.37288 q 3.15854,0 5.89025,1.14099 2.73171,1.14101 4.78049,3.14759 2.04878,2.00658 3.2439,4.68203 1.19512,2.67544 1.19512,5.74433 v 39.26607 q 0,3.06889 -1.19512,5.70499 -1.19512,2.6361 -3.2439,4.64269 -2.04878,2.00657 -4.78049,3.18692 -2.73171,1.18034 -5.89025,1.18034 h -39.78048 q -3.15854,0 -5.89025,-1.18034 -2.73171,-1.18035 -4.78049,-3.18692 -2.04878,-2.00659 -3.2439,-4.64269 -1.19512,-2.6361 -1.19512,-5.70499 V 30.08782 q 0,-3.06889 1.19512,-5.74433 1.19512,-2.67545 3.2439,-4.68203 2.04878,-2.00658 4.78049,-3.14759 2.73171,-1.14099 5.89025,-1.14099 h 39.78048 z"
     id="path3162"
     style="fill:currentColor"
     inkscape:connector-curvature="0" /></svg>