<?xml version="1.0" encoding="UTF-8" standalone="no"?>
<!-- Created with Inkscape (http://www.inkscape.org/) -->

<svg
   xmlns:dc="http://purl.org/dc/elements/1.1/"
   xmlns:cc="http://creativecommons.org/ns#"
   xmlns:rdf="http://www.w3.org/1999/02/22-rdf-syntax-ns#"
   xmlns:svg="http://www.w3.org/2000/svg"
   xmlns="http://www.w3.org/2000/svg"
   xmlns:sodipodi="http://sodipodi.sourceforge.net/DTD/sodipodi-0.dtd"
   xmlns:inkscape="http://www.inkscape.org/namespaces/inkscape"
   version="1.1"
   x="0px"
   y="0px"
   width="100px"
   height="100px"
   viewBox="0 0 100 100"
   enable-background="new 0 0 100 100"
   xml:space="preserve"
   id="svg2985"
   inkscape:version="0.48.4 r9939"
   sodipodi:docname="nfi.svg"><sodipodi:namedview
     pagecolor="#ffffff"
     bordercolor="#666666"
     borderopacity="1"
     objecttolerance="10"
     gridtolerance="10"
     guidetolerance="10"
     inkscape:pageopacity="0"
     inkscape:pageshadow="2"
     inkscape:window-width="1188"
     inkscape:window-height="708"
     id="namedview9"
     showgrid="false"
     inkscape:zoom="2.36"
     inkscape:cx="50"
     inkscape:cy="35.073799"
     inkscape:window-x="297"
     inkscape:window-y="110"
     inkscape:window-maximized="0"
     inkscape:current-layer="svg2985" /><defs
     id="defs2987" /><metadata
     id="metadata2990"><rdf:RDF><cc:Work
         rdf:about=""><dc:format>image/svg+xml</dc:format><dc:type
           rdf:resource="http://purl.org/dc/dcmitype/StillImage" /><dc:title /></cc:Work></rdf:RDF></metadata><circle
     cx="50"
     cy="50"
     r="50"
     fill="#b2b2b2"
     id="circle6" /><path
     d="m 66.358204,42.531865 5.97561,-3.3419 -12.54878,-6.68381 -6.23171,3.26418 z m -6.82927,12.27958 12.71952,-6.68382 -5.97561,-3.10875 -12.71952,6.6061 z m 6.74391,7.461 v -8.31592 l -6.74391,3.41963 -7.34146,-3.88593 v 15.62147 z m -30.56098,-8.47135 v 8.47135 l 14.08537,6.83925 v -15.54376 l -7.08537,3.80822 z m 0.2561,-8.78222 -5.97561,3.10875 12.71951,6.68382 5.89024,-3.18647 z m 6.40244,-12.59045 -12.54878,6.6061 6.06097,3.34191 12.71951,-6.68381 z m 33.03658,5.67348 1.87805,1.08806 -8.53658,4.58541 8.45121,4.35225 -8.62195,4.58541 v 10.95835 l -17.58536,8.54906 -17.58537,-8.54906 v -11.03608 l -8.36585,-4.50768 8.53658,-4.42997 -6.82926,-3.65278 -1.87805,-1.01035 17.5,-9.24853 8.79268,4.58541 8.62195,-4.42997 z m 5.80488,-7.77188 q 0,-2.33156 -0.93902,-4.35225 -0.93903,-2.02069 -2.5183,-3.53621 -1.57927,-1.51551 -3.67073,-2.40928 -2.09146,-0.89377 -4.48171,-0.89377 h -39.78048 q -2.39025,0 -4.48171,0.89377 -2.09146,0.89377 -3.62805,2.40928 -1.53659,1.51552 -2.47561,3.53621 -0.93902,2.02069 -0.93902,4.35225 v 38.78167 q 0,2.33156 0.93902,4.35225 0.93902,2.02069 2.47561,3.49735 1.53659,1.47665 3.62805,2.37042 2.09146,0.89376 4.48171,0.89376 h 39.78048 q 2.39025,0 4.48171,-0.89376 2.09146,-0.89377 3.67073,-2.37042 1.57927,-1.47666 2.5183,-3.57507 0.93902,-2.0984 0.93902,-4.27453 v -38.78167 z m -11.60976,-14.53341 q 3.15854,0 5.89025,1.12692 2.73171,1.12692 4.78049,3.10875 2.04878,1.98183 3.2439,4.62427 1.19512,2.64244 1.19512,5.67347 v 38.78167 q 0,3.03103 -1.19512,5.63461 -1.19512,2.60358 -3.2439,4.58541 -2.04878,1.98182 -4.78049,3.14761 -2.73171,1.16578 -5.89025,1.16578 h -39.78048 q -3.15854,0 -5.89025,-1.16578 -2.73171,-1.16579 -4.78049,-3.14761 -2.04878,-1.98183 -3.2439,-4.58541 -1.19512,-2.60358 -1.19512,-5.63461 v -38.78167 q 0,-3.03103 1.19512,-5.67347 1.19512,-2.64244 3.2439,-4.62427 2.04878,-1.98183 4.78049,-3.10875 2.73171,-1.12692 5.89025,-1.12692 h 39.78048 z"
     id="path2997"
     style="fill:currentColor"
     inkscape:connector-curvature="0" /></svg>