<?xml version="1.0" encoding="UTF-8" standalone="no"?>
<!-- Created with Inkscape (http://www.inkscape.org/) -->

<svg
   xmlns:dc="http://purl.org/dc/elements/1.1/"
   xmlns:cc="http://creativecommons.org/ns#"
   xmlns:rdf="http://www.w3.org/1999/02/22-rdf-syntax-ns#"
   xmlns:svg="http://www.w3.org/2000/svg"
   xmlns="http://www.w3.org/2000/svg"
   xmlns:sodipodi="http://sodipodi.sourceforge.net/DTD/sodipodi-0.dtd"
   xmlns:inkscape="http://www.inkscape.org/namespaces/inkscape"
   version="1.1"
   x="0px"
   y="0px"
   width="100px"
   height="100px"
   viewBox="0 0 100 100"
   enable-background="new 0 0 100 100"
   xml:space="preserve"
   id="svg2985"
   inkscape:version="0.48.4 r9939"
   sodipodi:docname="protection.svg"><sodipodi:namedview
     pagecolor="#ffffff"
     bordercolor="#666666"
     borderopacity="1"
     objecttolerance="10"
     gridtolerance="10"
     guidetolerance="10"
     inkscape:pageopacity="0"
     inkscape:pageshadow="2"
     inkscape:window-width="1113"
     inkscape:window-height="851"
     id="namedview9"
     showgrid="false"
     inkscape:zoom="2.36"
     inkscape:cx="50"
     inkscape:cy="79.089735"
     inkscape:window-x="75"
     inkscape:window-y="67"
     inkscape:window-maximized="0"
     inkscape:current-layer="svg2985" /><defs
     id="defs2987" /><metadata
     id="metadata2990"><rdf:RDF><cc:Work
         rdf:about=""><dc:format>image/svg+xml</dc:format><dc:type
           rdf:resource="http://purl.org/dc/dcmitype/StillImage" /><dc:title /></cc:Work></rdf:RDF></metadata><circle
     cx="50"
     cy="50"
     r="50"
     fill="#b2b2b2"
     id="circle6" /><path
     d="m 43.312526,58.508801 h 0.0854 v 16.851878 h -0.0854 v 0.241903 h -9.81707 V 68.18453 L 23.422286,54.880406 q -0.2561,-0.403153 -0.42683,-0.846626 -0.17073,-0.443462 -0.17073,-0.927257 V 32.464989 q 0,-1.209458 0.81097,-2.056095 0.81098,-0.846626 2.04878,-0.846626 1.23781,0 2.04878,0.846626 0.81098,0.846637 0.81098,2.056095 v 12.417177 q -0.93903,0.241892 -1.53659,0.886936 -0.93902,0.967577 -0.98171,2.378617 -0.0427,1.41104 0.89635,2.378617 l 5.03658,5.241017 0.17073,-0.483795 -4.86585,-5.160375 q -0.76829,-0.886947 -0.76829,-2.056095 0,-1.169148 0.85366,-1.975464 0.85365,-0.886936 2.04878,-0.846626 1.19512,0.04034 2.04878,0.846626 z m 29.83537,-28.946533 q 1.2378,0 2.04878,0.846626 0.81097,0.846637 0.81097,2.056095 v 20.641534 q 0,0.483795 -0.17073,0.886947 -0.17073,0.403153 -0.42683,0.886936 L 65.336916,68.18453 v 7.418052 h -9.81707 v -0.241903 h -0.0854 V 58.508801 h 0.0854 l 11.86585,-12.417177 q 0.85366,-0.886936 2.04878,-0.846626 1.19512,0.04034 2.04878,0.846626 0.85366,0.806316 0.85366,2.015785 0,1.209458 -0.85366,2.015774 l -4.86585,5.160375 0.2561,0.483795 5.03658,-5.241017 q 0.93903,-0.967577 0.89634,-2.378617 -0.0427,-1.41104 -0.9817,-2.378617 -0.59757,-0.564414 -1.53659,-0.886936 V 32.464989 q 0,-1.209458 0.81098,-2.056095 0.81097,-0.846626 2.04878,-0.846626 z m -11.73781,10.643306 q 0,4.51532 -3.32927,8.143727 -3.5,3.386493 -8.02439,3.386493 -4.69512,0 -8.02439,-3.386493 -3.32927,-3.386504 -3.32927,-8.143727 0,-4.837875 3.32927,-8.063107 3.2439,-3.386504 8.02439,-3.386504 4.69512,0 8.02439,3.346194 3.32927,3.346183 3.32927,8.103417 z m 19.37805,-11.449611 q 0,-2.418926 -0.93902,-4.515331 -0.93903,-2.096415 -2.5183,-3.668716 -1.57927,-1.572301 -3.67073,-2.499557 -2.09146,-0.927257 -4.48171,-0.927257 h -39.78048 q -2.39025,0 -4.48171,0.927257 -2.09146,0.927256 -3.67073,2.499557 -1.57927,1.572301 -2.5183,3.668716 -0.93902,2.096405 -0.93902,4.515331 v 40.234872 q 0,2.418927 0.93902,4.515331 0.93903,2.096416 2.5183,3.588075 1.57927,1.491681 3.67073,2.418937 2.09146,0.927257 4.48171,0.927257 h 39.78048 q 2.39025,0 4.48171,-0.927257 2.09146,-0.927256 3.67073,-2.418937 1.57927,-1.491659 2.5183,-3.668705 0.93902,-2.177036 0.93902,-4.434701 V 28.755963 z M 69.178376,13.677968 q 3.15854,0 5.89025,1.169148 2.73171,1.169148 4.78049,3.225243 2.04878,2.056084 3.2439,4.797543 1.19512,2.74146 1.19512,5.886061 v 40.234872 q 0,3.144601 -1.19512,5.845751 -1.19512,2.701139 -3.2439,4.757223 -2.04878,2.056084 -4.78049,3.265552 -2.73171,1.209469 -5.89025,1.209469 h -39.78048 q -3.15854,0 -5.89025,-1.209469 -2.73171,-1.209468 -4.78049,-3.265552 -2.04878,-2.056084 -3.2439,-4.757223 -1.19512,-2.70115 -1.19512,-5.845751 V 28.755963 q 0,-3.144601 1.19512,-5.886061 1.19512,-2.741459 3.2439,-4.797543 2.04878,-2.056095 4.78049,-3.225243 2.73171,-1.169148 5.89025,-1.169148 h 39.78048 z"
     id="path3063"
     style="fill:currentColor"
     inkscape:connector-curvature="0" /></svg>