<?xml version="1.0" encoding="UTF-8" standalone="no"?>
<!-- Created with Inkscape (http://www.inkscape.org/) -->

<svg
   xmlns:dc="http://purl.org/dc/elements/1.1/"
   xmlns:cc="http://creativecommons.org/ns#"
   xmlns:rdf="http://www.w3.org/1999/02/22-rdf-syntax-ns#"
   xmlns:svg="http://www.w3.org/2000/svg"
   xmlns="http://www.w3.org/2000/svg"
   xmlns:sodipodi="http://sodipodi.sourceforge.net/DTD/sodipodi-0.dtd"
   xmlns:inkscape="http://www.inkscape.org/namespaces/inkscape"
   version="1.1"
   x="0px"
   y="0px"
   width="100px"
   height="100px"
   viewBox="0 0 100 100"
   enable-background="new 0 0 100 100"
   xml:space="preserve"
   sodipodi:docname="refugee.svg"
   id="svg2"
   inkscape:version="0.48.4 r9939"><defs
     id="defs16" /><sodipodi:namedview
     pagecolor="#ffffff"
     bordercolor="#666666"
     borderopacity="1"
     objecttolerance="10"
     gridtolerance="10"
     guidetolerance="10"
     inkscape:pageopacity="0"
     inkscape:pageshadow="2"
     inkscape:window-width="1474"
     inkscape:window-height="736"
     id="namedview14"
     showgrid="false"
     inkscape:zoom="2.36"
     inkscape:cx="50"
     inkscape:cy="50"
     inkscape:window-x="0"
     inkscape:window-y="26"
     inkscape:window-maximized="0"
     inkscape:current-layer="svg2" /><metadata
     id="metadata4"><rdf:RDF><cc:Work
         rdf:about=""><dc:format>image/svg+xml</dc:format><dc:type
           rdf:resource="http://purl.org/dc/dcmitype/StillImage" /><dc:title></dc:title></cc:Work></rdf:RDF></metadata><g
     transform="translate(-2.7355932e-7,85.271186)"
     id="g6"><circle
       cx="50"
       cy="50"
       transform="translate(-0.0994005,-84.378118)"
       r="50"
       id="circle8"
       d="M 100,50 C 100,77.614237 77.614237,100 50,100 22.385763,100 0,77.614237 0,50 0,22.385763 22.385763,0 50,0 c 27.614237,0 50,22.385763 50,50 z"
       sodipodi:cx="50"
       sodipodi:cy="50"
       sodipodi:rx="50"
       sodipodi:ry="50"
       style="fill:#b2b2b2" /><g
       transform="matrix(0.07297748,0,0,-0.07297748,4.4022801,-10.092135)"
       id="g10"><path
         d="m 725.9,574 q 23.2,0 40,-16.4 16.8,-16.4 16.8,-39.6 V 254.8 q 0,-23.2 -16.4,-39.6 -16.4,-16.4 -40.4,-16.4 V 12.4 q 0,-23.2 -16,-39.601 -16,-16.399 -39.2,-16.399 h -83.2 q -23.2,0 -38.8,16.399 -15.6,16.4 -15.6,39.601 v 186.4 h -0.79999 q -23.2,0 -39.2,16.4 -16,16.4 -16,39.6 V 518 q 0,23.2 16.4,39.6 16.4,16.4 38.8,16.4 h 193.6 z m -188,110 q 0,91.6 91.6,91.6 91.6,0 91.6,-91.6 0,-91.6 -91.6,-91.6 -91.6,0 -91.6,91.6 z m 523.2,-131.6 q 20,0 34,-14.4 14,-14.4 14,-33.6 V 278.8 q 0,-20 -14.4,-34 -14.4,-14 -33.6,-14 v -160 q 0,-20 -14,-34 -14,-14 -33.2,-14 h -72 q -20,0 -33.2,14 -13.2,14 -13.2,34 v 160 q -20,0 -34.4,13.6 -14.4,13.6 -14.4,34.4 v 225.6 q 0,20 14,34 14,14 34.8,14 h 165.6 z M 899.5,646 q 0,78.4 78.8,78.4 78.8,0 78.8,-78.4 0,-78.4 -78.8,-78.4 -78.8,0 -78.8,78.4 z m -536,-93.6 q 20,0 34.4,-14.4 14.4,-14.4 14.4,-33.6 V 278.8 q 0,-20 -14.4,-34 -14.4,-14 -34.4,-14 v -160 q 0,-20 -14,-34 -14,-14 -32.4,-14 h -72 q -20,0 -33.6,14 -13.6,14 -13.6,34 v 160 q -20,0 -34,13.6 -14,13.6 -14,34.4 v 225.6 q 0,20 14,34 14,14 34,14 H 363.5 z M 202.7,646 q 0,78.4 78.4,78.4 78.4,0 78.4,-78.4 0,-78.4 -78.4,-78.4 -78.4,0 -78.4,78.4 z"
         id="path12"
         inkscape:connector-curvature="0"
         style="fill:currentColor" /></g></g></svg>