<?xml version="1.0" encoding="UTF-8" standalone="no"?>
<!-- Created with Inkscape (http://www.inkscape.org/) -->

<svg
   xmlns:dc="http://purl.org/dc/elements/1.1/"
   xmlns:cc="http://creativecommons.org/ns#"
   xmlns:rdf="http://www.w3.org/1999/02/22-rdf-syntax-ns#"
   xmlns:svg="http://www.w3.org/2000/svg"
   xmlns="http://www.w3.org/2000/svg"
   xmlns:sodipodi="http://sodipodi.sourceforge.net/DTD/sodipodi-0.dtd"
   xmlns:inkscape="http://www.inkscape.org/namespaces/inkscape"
   version="1.1"
   x="0px"
   y="0px"
   width="100px"
   height="100px"
   viewBox="0 0 100 100"
   enable-background="new 0 0 100 100"
   xml:space="preserve"
   sodipodi:docname="refugee-op.svg"
   id="svg2"
   inkscape:version="0.48.4 r9939"><defs
     id="defs16" /><sodipodi:namedview
     pagecolor="#ffffff"
     bordercolor="#666666"
     borderopacity="1"
     objecttolerance="10"
     gridtolerance="10"
     guidetolerance="10"
     inkscape:pageopacity="0"
     inkscape:pageshadow="2"
     inkscape:window-width="1474"
     inkscape:window-height="736"
     id="namedview14"
     showgrid="false"
     inkscape:zoom="2.36"
     inkscape:cx="50"
     inkscape:cy="33.050847"
     inkscape:window-x="0"
     inkscape:window-y="26"
     inkscape:window-maximized="0"
     inkscape:current-layer="svg2" /><metadata
     id="metadata4"><rdf:RDF><cc:Work
         rdf:about=""><dc:format>image/svg+xml</dc:format><dc:type
           rdf:resource="http://purl.org/dc/dcmitype/StillImage" /><dc:title /></cc:Work></rdf:RDF></metadata><circle
     cx="50"
     cy="50"
     r="50"
     fill="#b2b2b2"
     id="circle6" /><path
     d="m 57.189268,37.327751 q 1.69308,0 2.9191,1.195334 1.22602,1.195334 1.22602,2.886299 v 19.183644 q 0,1.690964 -1.19683,2.886286 -1.19683,1.195335 -2.94829,1.195335 v 13.585985 q 0,1.690965 -1.16764,2.886372 -1.16764,1.195261 -2.86072,1.195261 h -6.07172 q -1.69308,0 -2.83153,-1.195261 -1.13845,-1.195334 -1.13845,-2.886372 V 64.674649 h -0.0584 q -1.69308,0 -2.86072,-1.195335 -1.16764,-1.195322 -1.16764,-2.886286 V 41.409384 q 0,-1.690965 1.19683,-2.886299 1.19683,-1.195334 2.83153,-1.195334 h 14.12844 z m -13.71977,-8.017475 q 0,-6.676388 6.68474,-6.676388 6.68474,0 6.68474,6.676388 0,6.676363 -6.68474,6.676363 -6.68474,0 -6.68474,-6.676363 z m 38.18182,9.59181 q 1.45955,0 2.48124,1.049568 1.02168,1.049569 1.02168,2.448977 v 16.443124 q 0,1.45773 -1.05088,2.478138 -1.05087,1.020396 -2.45204,1.020396 v 11.661799 q 0,1.457729 -1.02168,2.478125 -1.02169,1.020421 -2.42286,1.020421 h -5.25437 q -1.45955,0 -2.42286,-1.020421 -0.9633,-1.020396 -0.9633,-2.478125 V 62.342289 q -1.45955,0 -2.51043,-0.991248 -1.05087,-0.99126 -1.05087,-2.507286 V 42.400631 q 0,-1.457729 1.02168,-2.478125 1.02169,-1.02042 2.53962,-1.02042 h 12.08507 z m -11.79316,-6.822142 q 0,-5.714276 5.75063,-5.714276 5.75062,0 5.75062,5.714276 0,5.714276 -5.75062,5.714276 -5.75063,0 -5.75063,-5.714276 z m -39.115925,6.822142 q 1.459545,0 2.510425,1.049568 1.05087,1.049569 1.05087,2.448977 v 16.443124 q 0,1.45773 -1.05087,2.478138 -1.05088,1.020396 -2.510425,1.020396 v 11.661799 q 0,1.457729 -1.02168,2.478125 -1.02169,1.020421 -2.36448,1.020421 h -5.25437 q -1.45955,0 -2.45205,-1.020421 -0.99249,-1.020396 -0.99249,-2.478125 V 62.342289 q -1.45955,0 -2.48124,-0.991248 -1.02168,-0.99126 -1.02168,-2.507286 V 42.400631 q 0,-1.457729 1.02168,-2.478125 1.02169,-1.02042 2.48124,-1.02042 h 12.08507 z m -11.73478,-6.822142 q 0,-5.714276 5.72144,-5.714276 5.72143,0 5.72143,5.714276 0,5.714276 -5.72143,5.714276 -5.72144,0 -5.72144,-5.714276 z"
     id="path12"
     inkscape:connector-curvature="0" /></svg>