<?xml version="1.0" encoding="UTF-8" standalone="no"?>
<!-- Created with Inkscape (http://www.inkscape.org/) -->

<svg
   xmlns:dc="http://purl.org/dc/elements/1.1/"
   xmlns:cc="http://creativecommons.org/ns#"
   xmlns:rdf="http://www.w3.org/1999/02/22-rdf-syntax-ns#"
   xmlns:svg="http://www.w3.org/2000/svg"
   xmlns="http://www.w3.org/2000/svg"
   xmlns:sodipodi="http://sodipodi.sourceforge.net/DTD/sodipodi-0.dtd"
   xmlns:inkscape="http://www.inkscape.org/namespaces/inkscape"
   version="1.1"
   x="0px"
   y="0px"
   width="100px"
   height="100px"
   viewBox="0 0 100 100"
   enable-background="new 0 0 100 100"
   xml:space="preserve"
   id="svg2985"
   inkscape:version="0.48.4 r9939"
   sodipodi:docname="wash.svg"><sodipodi:namedview
     pagecolor="#ffffff"
     bordercolor="#666666"
     borderopacity="1"
     objecttolerance="10"
     gridtolerance="10"
     guidetolerance="10"
     inkscape:pageopacity="0"
     inkscape:pageshadow="2"
     inkscape:window-width="1666"
     inkscape:window-height="843"
     id="namedview9"
     showgrid="false"
     inkscape:zoom="2.36"
     inkscape:cx="50"
     inkscape:cy="-22.673653"
     inkscape:window-x="0"
     inkscape:window-y="26"
     inkscape:window-maximized="0"
     inkscape:current-layer="svg2985" /><defs
     id="defs2987" /><metadata
     id="metadata2990"><rdf:RDF><cc:Work
         rdf:about=""><dc:format>image/svg+xml</dc:format><dc:type
           rdf:resource="http://purl.org/dc/dcmitype/StillImage" /><dc:title /></cc:Work></rdf:RDF></metadata><circle
     cx="50"
     cy="50"
     r="50"
     fill="#b2b2b2"
     id="circle6" /><path
     d="m 72.672183,52.989077 q 1.10975,0.391018 1.19512,1.56408 0,0.703844 -0.55488,1.251274 -0.55488,0.54742 -1.23781,0.54742 h -10.84146 q -0.682931,0 -1.195121,-0.50833 -0.5122,-0.508329 -0.5122,-1.290364 0,-0.860246 0.7683,-1.407677 -0.17074,-1.407676 -0.68293,-2.11151 -0.5122,-0.703833 -1.70732,-0.703833 h -5.20731 q -2.13415,4.144819 -6.65854,4.144819 -4.012199,0 -6.231709,-4.144819 H 25.294133 V 40.085393 h 13.14634 v -3.206371 q 0,-0.782045 0.51219,-1.329476 0.5122,-0.54743 1.19513,-0.54743 h 4.439019 v -1.955107 q -0.68293,-0.469219 -0.93902,-0.860236 h -9.817079 q -1.02439,1.251263 -2.56097,1.251263 -1.36586,0 -2.30488,-0.938447 -0.93903,-0.938458 -0.93903,-2.267923 0,-1.251264 0.89635,-2.189712 0.89634,-0.938448 2.34756,-0.938448 0.76829,0 1.40853,0.391018 0.64025,0.391017 1.15244,0.938447 h 9.817079 q 0.42682,-0.54743 1.10975,-0.938447 0.68293,-0.391018 1.45122,-0.391018 0.76829,0 1.40854,0.391018 0.64024,0.391017 1.15244,0.938447 h 8.87805 q 0.42682,-0.54743 1.10975,-0.938447 0.68293,-0.391018 1.53659,-0.391018 1.280481,0 2.262191,0.938448 0.98171,0.938448 0.98171,2.189712 0,1.329465 -0.98171,2.267923 -0.98171,0.938447 -2.262191,0.938447 -1.62195,0 -2.56098,-1.251263 h -8.96341 q -0.42683,0.469218 -1.02439,0.860236 v 1.955107 h 4.35365 q 0.68293,0 1.19513,0.54743 0.51219,0.547431 0.51219,1.329476 v 3.206371 h 10.841471 q 3.41463,0 5.71951,2.072399 2.30488,2.072419 2.30488,4.965974 v 5.865311 0 z m -11.43903,17.36132 q 0,-0.469229 0.68293,-2.424336 0.68292,-1.955097 1.57927,-4.144819 0.89634,-2.189711 1.75,-4.066607 0.85365,-1.876906 1.19512,-2.346135 0.34146,0.703844 1.2378,2.58075 0.89634,1.876895 1.79269,4.027506 0.89634,2.150611 1.57926,3.988416 0.68293,1.837794 0.68293,2.385225 0,2.893545 -1.62195,4.301232 -1.62195,1.407666 -3.58537,1.407666 -1.96341,0 -3.62804,-1.407666 -1.66464,-1.407687 -1.66464,-4.301232 z m 20.31707,-40.353346 q 0,-2.346125 -0.93902,-4.379423 -0.93902,-2.033319 -2.47561,-3.519197 -1.53659,-1.485878 -3.62805,-2.385225 -2.09146,-0.899347 -4.48171,-0.899347 h -39.78048 q -2.39025,0 -4.48171,0.899347 -2.09146,0.899347 -3.67073,2.385225 -1.57927,1.485878 -2.5183,3.519197 -0.93902,2.033298 -0.93902,4.379423 v 39.023881 q 0,2.346114 0.93902,4.379423 0.93903,2.033308 2.5183,3.480086 1.57927,1.446777 3.67073,2.346124 2.09146,0.899347 4.48171,0.899347 h 39.78048 q 2.39025,0 4.48171,-0.899347 2.09146,-0.899347 3.62805,-2.346124 1.53659,-1.446778 2.47561,-3.558288 0.93902,-2.11151 0.93902,-4.301221 V 29.997051 z M 70.025833,15.372884 q 3.15854,0 5.89025,1.133951 2.73171,1.133962 4.78049,3.128169 2.04878,1.994208 3.2439,4.653149 1.19512,2.65894 1.19512,5.708898 v 39.023881 q 0,3.049947 -1.19512,5.669797 -1.19512,2.61984 -3.2439,4.614048 -2.04878,1.994197 -4.78049,3.16726 -2.73171,1.173062 -5.89025,1.173062 h -39.78048 q -3.15854,0 -5.89025,-1.173062 -2.73171,-1.173063 -4.78049,-3.16726 -2.04878,-1.994208 -3.2439,-4.614048 -1.19512,-2.61985 -1.19512,-5.669797 V 29.997051 q 0,-3.049958 1.19512,-5.708898 1.19512,-2.658941 3.2439,-4.653149 2.04878,-1.994207 4.78049,-3.128169 2.73171,-1.133951 5.89025,-1.133951 h 39.78048 z"
     id="path3096"
     inkscape:connector-curvature="0" /></svg>